/* XPM */
static const char * two_xpm[] = {
"50 90 5 1",
" 	c None",
".	c #040404",
"+	c #000000",
"@	c #030303",
"#	c #050505",
"                                                  ",
"                                                  ",
"                                                  ",
"                                                  ",
"                                                  ",
"                                                  ",
"                                                  ",
"                                                  ",
"                                                  ",
"                                                  ",
"                                                  ",
"                                                  ",
"                                                  ",
"                                                  ",
"                                                  ",
"               .++++++++++++++++++.               ",
"              @++++++++++++++++++++@              ",
"             @++++++++++++++++++++++@             ",
"            #++++++++++++++++++++++++#            ",
"             ++++++++++++++++++++++++ .           ",
"              ++++++++++++++++++++++ @++          ",
"                                    @++++         ",
"                                   +++++++        ",
"                                   +++++++        ",
"                                   +++++++        ",
"                                   +++++++        ",
"                                   +++++++        ",
"                                   +++++++        ",
"                                   +++++++        ",
"                                   +++++++        ",
"                                   +++++++        ",
"                                   +++++++        ",
"                                   +++++++        ",
"                                   +++++++        ",
"                                   +++++++        ",
"                                   +++++++        ",
"                                   +++++++        ",
"                                   +++++++        ",
"                                   +++++++        ",
"                                   +++++++        ",
"                                   +++++++        ",
"                                    ++++++        ",
"               ++++++++++++++++++++  ++++         ",
"              ++++++++++++++++++++++  ++          ",
"             ++++++++++++++++++++++++             ",
"             ++++++++++++++++++++++++             ",
"           +  ++++++++++++++++++++++              ",
"          +++  ++++++++++++++++++++               ",
"         +++++                                    ",
"        +++++++                                   ",
"        +++++++                                   ",
"        +++++++                                   ",
"        +++++++                                   ",
"        +++++++                                   ",
"        +++++++                                   ",
"        +++++++                                   ",
"        +++++++                                   ",
"        +++++++                                   ",
"        +++++++                                   ",
"        +++++++                                   ",
"        +++++++                                   ",
"        +++++++                                   ",
"        +++++++                                   ",
"        +++++++                                   ",
"        +++++++                                   ",
"        +++++++                                   ",
"        +++++++                                   ",
"        +++++++                                   ",
"         +++++                                    ",
"          +++  ++++++++++++++++++++               ",
"           +  ++++++++++++++++++++++              ",
"             ++++++++++++++++++++++++             ",
"             ++++++++++++++++++++++++             ",
"              ++++++++++++++++++++++              ",
"               ++++++++++++++++++++               ",
"                                                  ",
"                                                  ",
"                                                  ",
"                                                  ",
"                                                  ",
"                                                  ",
"                                                  ",
"                                                  ",
"                                                  ",
"                                                  ",
"                                                  ",
"                                                  ",
"                                                  ",
"                                                  ",
"                                                  "};
