/* XPM */
static const char * three_xpm[] = {
"50 90 8 1",
" 	c None",
".	c #000000",
"+	c #080808",
"@	c #0C0C0C",
"#	c #090909",
"$	c #0B0B0B",
"%	c #111111",
"&	c #060606",
"                                                  ",
"                                                  ",
"                                                  ",
"                                                  ",
"                                                  ",
"                                                  ",
"                                                  ",
"                                                  ",
"                                                  ",
"                                                  ",
"                                                  ",
"                                                  ",
"                                                  ",
"                                                  ",
"                                                  ",
"             ....................                 ",
"            ......................                ",
"           ........................               ",
"          .........................+              ",
"           .......................@ .             ",
"            .....................@ ...            ",
"                                  .....           ",
"                                 .......          ",
"                                 .......          ",
"                                 .......          ",
"                                 .......          ",
"                                 .......          ",
"                                 .......          ",
"                                 .......          ",
"                                 .......          ",
"                                 .......          ",
"                                 .......          ",
"                                 .......          ",
"                                 .......          ",
"                                 .......          ",
"                                 .......          ",
"                                 .......          ",
"                                 .......          ",
"                                 .......          ",
"                                 .......          ",
"                                 .......          ",
"                                 #.....#          ",
"            @.................... @...@           ",
"           @...................... @.@            ",
"          $........................ %             ",
"           ........................               ",
"            ......................  .             ",
"             ...................&  ...            ",
"                                  .....           ",
"                                 .......          ",
"                                 .......          ",
"                                 .......          ",
"                                 .......          ",
"                                 .......          ",
"                                 .......          ",
"                                 .......          ",
"                                 .......          ",
"                                 .......          ",
"                                 .......          ",
"                                 .......          ",
"                                 .......          ",
"                                 .......          ",
"                                 .......          ",
"                                 .......          ",
"                                 .......          ",
"                                 .......          ",
"                                 .......          ",
"                                 .......          ",
"                                  .....           ",
"             ....................  ...            ",
"            ......................  .             ",
"           ........................               ",
"          $........................               ",
"           @......................                ",
"            @....................                 ",
"                                                  ",
"                                                  ",
"                                                  ",
"                                                  ",
"                                                  ",
"                                                  ",
"                                                  ",
"                                                  ",
"                                                  ",
"                                                  ",
"                                                  ",
"                                                  ",
"                                                  ",
"                                                  ",
"                                                  "};
