/* XPM */
static const char * four_xpm[] = {
"50 90 8 1",
" 	c None",
".	c #050505",
"+	c #000000",
"@	c #010101",
"#	c #040404",
"$	c #020202",
"%	c #030303",
"&	c #060606",
"                                                  ",
"                                                  ",
"                                                  ",
"                                                  ",
"                                                  ",
"                                                  ",
"                                                  ",
"                                                  ",
"                                                  ",
"                                                  ",
"                                                  ",
"                                                  ",
"                                                  ",
"                                                  ",
"                                                  ",
"                                                  ",
"                                                  ",
"                                                  ",
"                                                  ",
"           .                          +           ",
"          +@#                        +++          ",
"         +++$%                      +++++         ",
"         ++++@                      +++++         ",
"         +++++                     ++++++         ",
"         +++++                     ++++++         ",
"         +++++                     ++++++         ",
"         +++++                     ++++++         ",
"         +++++                     ++++++         ",
"         +++++                     ++++++         ",
"         +++++                     ++++++         ",
"         +++++                     ++++++         ",
"         +++++                     ++++++         ",
"         +++++                     ++++++         ",
"         +++++                     ++++++         ",
"         +++++                     ++++++         ",
"         +++++                     ++++++         ",
"         +++++                     ++++++         ",
"         +++++                     ++++++         ",
"         +++++                     ++++++         ",
"         +++++                     ++++++         ",
"         +++++                     @+++++         ",
"         +++++                      $@++$         ",
"         ++++++++++++++++++++++++++%.$@%.         ",
"          ++++++++++++++++++++++++++.#%&          ",
"            +++++++++++++++++++++++++.            ",
"            &%+++++++++++++++++++++@#             ",
"             &%+++++++++++++++++++@#  +           ",
"              &+++++++++++++++++ @%  +++          ",
"                                    +++++         ",
"                                   ++++++         ",
"                                   ++++++         ",
"                                   ++++++         ",
"                                   ++++++         ",
"                                   ++++++         ",
"                                   ++++++         ",
"                                   ++++++         ",
"                                   ++++++         ",
"                                   ++++++         ",
"                                   ++++++         ",
"                                   ++++++         ",
"                                   ++++++         ",
"                                   ++++++         ",
"                                   ++++++         ",
"                                   ++++++         ",
"                                   ++++++         ",
"                                   ++++++         ",
"                                   ++++++         ",
"                                    +++++         ",
"                                    +++++         ",
"                                     +++          ",
"                                      +           ",
"                                                  ",
"                                                  ",
"                                                  ",
"                                                  ",
"                                                  ",
"                                                  ",
"                                                  ",
"                                                  ",
"                                                  ",
"                                                  ",
"                                                  ",
"                                                  ",
"                                                  ",
"                                                  ",
"                                                  ",
"                                                  ",
"                                                  ",
"                                                  ",
"                                                  "};
