/* XPM */
static const char * five_xpm[] = {
"50 90 7 1",
" 	c None",
".	c #000000",
"+	c #030303",
"@	c #0C0C0C",
"#	c #050505",
"$	c #0B0B0B",
"%	c #040404",
"                                                  ",
"                                                  ",
"                                                  ",
"                                                  ",
"                                                  ",
"                                                  ",
"                                                  ",
"                                                  ",
"                                                  ",
"                                                  ",
"                                                  ",
"                                                  ",
"                                                  ",
"                                                  ",
"                                                  ",
"               ....................               ",
"              ......................              ",
"             ........................             ",
"             .........................            ",
"           .  .......................             ",
"          ...  .....................              ",
"         .....                                    ",
"        .......                                   ",
"        .......                                   ",
"        .......                                   ",
"        .......                                   ",
"        .......                                   ",
"        .......                                   ",
"        .......                                   ",
"        .......                                   ",
"        .......                                   ",
"        .......                                   ",
"        .......                                   ",
"        .......                                   ",
"        .......                                   ",
"        .......                                   ",
"        .......                                   ",
"        .......                                   ",
"        .......                                   ",
"        .......                                   ",
"        .......                                   ",
"         ......                                   ",
"          .... .....................              ",
"           .. .......................             ",
"             .........................            ",
"             +.......................@            ",
"              +.....................@ +.          ",
"               #.................. $ +...         ",
"                                    %.....        ",
"                                    ......        ",
"                                    ......        ",
"                                    ......        ",
"                                    ......        ",
"                                    ......        ",
"                                    ......        ",
"                                    ......        ",
"                                    ......        ",
"                                    ......        ",
"                                    ......        ",
"                                    ......        ",
"                                    ......        ",
"                                    ......        ",
"                                    ......        ",
"                                    ......        ",
"                                    ......        ",
"                                    ......        ",
"                                    ......        ",
"                                    ......        ",
"                                    ......        ",
"               %...................@ ....         ",
"              +.....................@ ..          ",
"             +.......................@            ",
"             .........................            ",
"              .......................             ",
"               .....................              ",
"                                                  ",
"                                                  ",
"                                                  ",
"                                                  ",
"                                                  ",
"                                                  ",
"                                                  ",
"                                                  ",
"                                                  ",
"                                                  ",
"                                                  ",
"                                                  ",
"                                                  ",
"                                                  ",
"                                                  "};
