/* XPM */
static const char * six_xpm[] = {
"50 90 9 1",
" 	c None",
".	c #000000",
"+	c #080808",
"@	c #040404",
"#	c #0C0C0C",
"$	c #030303",
"%	c #0B0B0B",
"&	c #060606",
"*	c #090909",
"                                                  ",
"                                                  ",
"                                                  ",
"                                                  ",
"                                                  ",
"                                                  ",
"                                                  ",
"                                                  ",
"                                                  ",
"                                                  ",
"                                                  ",
"                                                  ",
"                                                  ",
"                                                  ",
"                                                  ",
"               ....................               ",
"              ......................              ",
"             ........................             ",
"            +.........................            ",
"           @ #.......................             ",
"          $.. #.....................              ",
"         $....                                    ",
"        .......                                   ",
"        .......                                   ",
"        .......                                   ",
"        .......                                   ",
"        .......                                   ",
"        .......                                   ",
"        .......                                   ",
"        .......                                   ",
"        .......                                   ",
"        .......                                   ",
"        .......                                   ",
"        .......                                   ",
"        .......                                   ",
"        .......                                   ",
"        .......                                   ",
"        .......                                   ",
"        .......                                   ",
"        .......                                   ",
"        .......                                   ",
"         ......                                   ",
"          .... ....................#              ",
"           .. ......................#             ",
"             ........................%            ",
"             ........................             ",
"           .% ......................  ..          ",
"          ...% &...................  ....         ",
"         .....                      ......        ",
"        .......                    .......        ",
"        .......                    .......        ",
"        .......                    .......        ",
"        .......                    .......        ",
"        .......                    .......        ",
"        .......                    .......        ",
"        .......                    .......        ",
"        .......                    .......        ",
"        .......                    .......        ",
"        .......                    .......        ",
"        .......                    .......        ",
"        .......                    .......        ",
"        .......                    .......        ",
"        .......                    .......        ",
"        .......                    .......        ",
"        .......                    .......        ",
"        .......                    .......        ",
"        .......                    .......        ",
"        .......                    .......        ",
"         .....                      $....*        ",
"          ...  ....................  $..#         ",
"           .  ......................  $#          ",
"             ........................             ",
"             ........................%            ",
"              ......................#             ",
"               ....................#              ",
"                                                  ",
"                                                  ",
"                                                  ",
"                                                  ",
"                                                  ",
"                                                  ",
"                                                  ",
"                                                  ",
"                                                  ",
"                                                  ",
"                                                  ",
"                                                  ",
"                                                  ",
"                                                  ",
"                                                  "};
