/* XPM */
static const char * seven_xpm[] = {
"50 90 6 1",
" 	c None",
".	c #000000",
"+	c #080808",
"@	c #0C0C0C",
"#	c #030303",
"$	c #090909",
"                                                  ",
"                                                  ",
"                                                  ",
"                                                  ",
"                                                  ",
"                                                  ",
"                                                  ",
"                                                  ",
"                                                  ",
"                                                  ",
"                                                  ",
"                                                  ",
"                                                  ",
"                                                  ",
"                                                  ",
"                                                  ",
"                                                  ",
"             ....................                 ",
"            ......................                ",
"           ........................               ",
"          +.........................              ",
"           @....................... .             ",
"            @..................... ...            ",
"                                  .....           ",
"                                 .......          ",
"                                 .......          ",
"                                 .......          ",
"                                 .......          ",
"                                 .......          ",
"                                 .......          ",
"                                 .......          ",
"                                 .......          ",
"                                 .......          ",
"                                 .......          ",
"                                 .......          ",
"                                 .......          ",
"                                 .......          ",
"                                 .......          ",
"                                 .......          ",
"                                 .......          ",
"                                 .......          ",
"                                 .......          ",
"                                 .......          ",
"                                  ......          ",
"                                   ....           ",
"                                    ..            ",
"                                                  ",
"                                                  ",
"                                    ..            ",
"                                   ....           ",
"                                  ......          ",
"                                 .......          ",
"                                 .......          ",
"                                 .......          ",
"                                 .......          ",
"                                 .......          ",
"                                 .......          ",
"                                 .......          ",
"                                 .......          ",
"                                 .......          ",
"                                 .......          ",
"                                 .......          ",
"                                 .......          ",
"                                 .......          ",
"                                 .......          ",
"                                 .......          ",
"                                 .......          ",
"                                 .......          ",
"                                 .......          ",
"                                 .......          ",
"                                  #....$          ",
"                                   #..@           ",
"                                    #@            ",
"                                                  ",
"                                                  ",
"                                                  ",
"                                                  ",
"                                                  ",
"                                                  ",
"                                                  ",
"                                                  ",
"                                                  ",
"                                                  ",
"                                                  ",
"                                                  ",
"                                                  ",
"                                                  ",
"                                                  ",
"                                                  ",
"                                                  "};
