/* XPM */
static const char * eight_xpm[] = {
"50 90 7 1",
" 	c None",
".	c #040404",
"+	c #000000",
"@	c #030303",
"#	c #050505",
"$	c #0C0C0C",
"%	c #090909",
"                                                  ",
"                                                  ",
"                                                  ",
"                                                  ",
"                                                  ",
"                                                  ",
"                                                  ",
"                                                  ",
"                                                  ",
"                                                  ",
"                                                  ",
"                                                  ",
"                                                  ",
"                                                  ",
"                                                  ",
"               .++++++++++++++++++.               ",
"              @++++++++++++++++++++@              ",
"             @++++++++++++++++++++++@             ",
"            #++++++++++++++++++++++++#            ",
"           . ++++++++++++++++++++++++ .           ",
"          @++ ++++++++++++++++++++++ @++          ",
"         @++++                      @++++         ",
"        +++++++                    +++++++        ",
"        +++++++                    +++++++        ",
"        +++++++                    +++++++        ",
"        +++++++                    +++++++        ",
"        +++++++                    +++++++        ",
"        +++++++                    +++++++        ",
"        +++++++                    +++++++        ",
"        +++++++                    +++++++        ",
"        +++++++                    +++++++        ",
"        +++++++                    +++++++        ",
"        +++++++                    +++++++        ",
"        +++++++                    +++++++        ",
"        +++++++                    +++++++        ",
"        +++++++                    +++++++        ",
"        +++++++                    +++++++        ",
"        +++++++                    +++++++        ",
"        +++++++                    +++++++        ",
"        +++++++                    +++++++        ",
"        +++++++                    +++++++        ",
"         ++++++                     ++++++        ",
"          ++++ ++++++++++++++++++++  ++++         ",
"           ++ ++++++++++++++++++++++  ++          ",
"             ++++++++++++++++++++++++             ",
"             ++++++++++++++++++++++++             ",
"           +$ ++++++++++++++++++++++  +$          ",
"          +++$ ++++++++++++++++++++  +++$         ",
"         +++++%                     +++++%        ",
"        +++++++                    +++++++        ",
"        +++++++                    +++++++        ",
"        +++++++                    +++++++        ",
"        +++++++                    +++++++        ",
"        +++++++                    +++++++        ",
"        +++++++                    +++++++        ",
"        +++++++                    +++++++        ",
"        +++++++                    +++++++        ",
"        +++++++                    +++++++        ",
"        +++++++                    +++++++        ",
"        +++++++                    +++++++        ",
"        +++++++                    +++++++        ",
"        +++++++                    +++++++        ",
"        +++++++                    +++++++        ",
"        +++++++                    +++++++        ",
"        +++++++                    +++++++        ",
"        +++++++                    +++++++        ",
"        +++++++                    +++++++        ",
"        +++++++                    +++++++        ",
"         +++++                      +++++         ",
"          +++  ++++++++++++++++++++  +++          ",
"           +  ++++++++++++++++++++++  +           ",
"             ++++++++++++++++++++++++             ",
"             ++++++++++++++++++++++++             ",
"              ++++++++++++++++++++++              ",
"               ++++++++++++++++++++               ",
"                                                  ",
"                                                  ",
"                                                  ",
"                                                  ",
"                                                  ",
"                                                  ",
"                                                  ",
"                                                  ",
"                                                  ",
"                                                  ",
"                                                  ",
"                                                  ",
"                                                  ",
"                                                  ",
"                                                  "};
