/* XPM */
static const char * alavanca_fechada_xpm[] = {
"40 22 137 2",
"  	c None",
". 	c #E50131",
"+ 	c #B50728",
"@ 	c #C90127",
"# 	c #D7012E",
"$ 	c #90102B",
"% 	c #8F0F2A",
"& 	c #C9012B",
"* 	c #E70132",
"= 	c #6F1121",
"- 	c #731121",
"; 	c #8B0F23",
"> 	c #950D23",
", 	c #D70129",
"' 	c #57111B",
") 	c #56101A",
"! 	c #63111D",
"~ 	c #BF0326",
"{ 	c #E1012B",
"] 	c #671323",
"^ 	c #A00008",
"/ 	c #FF3B0D",
"( 	c #59111B",
"_ 	c #420A14",
": 	c #980004",
"< 	c #EA1C00",
"[ 	c #FE2A00",
"} 	c #AE0400",
"| 	c #E21B00",
"1 	c #FF3E11",
"2 	c #C80E00",
"3 	c #DC1500",
"4 	c #FF2B01",
"5 	c #B20900",
"6 	c #EE2200",
"7 	c #FF390B",
"8 	c #BA0D00",
"9 	c #D61400",
"0 	c #A60008",
"a 	c #C80500",
"b 	c #F22300",
"c 	c #FF3405",
"d 	c #CD0119",
"e 	c #B60500",
"f 	c #E42100",
"g 	c #FE3A14",
"h 	c #EB011C",
"i 	c #E1013B",
"j 	c #D9012F",
"k 	c #AF0B2E",
"l 	c #980A1E",
"m 	c #78040C",
"n 	c #A80400",
"o 	c #CC0F00",
"p 	c #CB0106",
"q 	c #BE0017",
"r 	c #A10B24",
"s 	c #9C0E29",
"t 	c #A60A24",
"u 	c #A40A23",
"v 	c #C40226",
"w 	c #F10139",
"x 	c #73111F",
"y 	c #4E0E17",
"z 	c #55111A",
"A 	c #510D13",
"B 	c #5D070B",
"C 	c #9C0400",
"D 	c #9C0000",
"E 	c #5E0E18",
"F 	c #54101A",
"G 	c #541019",
"H 	c #500E17",
"I 	c #B00622",
"J 	c #EB0133",
"K 	c #FE023D",
"L 	c #DB012F",
"M 	c #561018",
"N 	c #280206",
"O 	c #36060B",
"P 	c #300408",
"Q 	c #2E0407",
"R 	c #5A0608",
"S 	c #840000",
"T 	c #920000",
"U 	c #58080C",
"V 	c #320409",
"W 	c #330509",
"X 	c #290306",
"Y 	c #A30923",
"Z 	c #F5013A",
"` 	c #BE0221",
" .	c #68101A",
"..	c #490B11",
"+.	c #4F0D15",
"@.	c #4D0D15",
"#.	c #520E16",
"$.	c #630B14",
"%.	c #8E0007",
"&.	c #BE0000",
"*.	c #8A0007",
"=.	c #4D0D14",
"-.	c #500E16",
";.	c #4A0C12",
">.	c #960C23",
",.	c #CF0128",
"'.	c #5D111C",
").	c #70101E",
"!.	c #BB0321",
"~.	c #D9012A",
"{.	c #D10128",
"].	c #D30128",
"^.	c #D50129",
"/.	c #DB012A",
"(.	c #DF0125",
"_.	c #8C0E23",
":.	c #61111C",
"<.	c #4B0B14",
"[.	c #5B111B",
"}.	c #B00827",
"|.	c #D1012D",
"1.	c #CF012D",
"2.	c #CC022D",
"3.	c #C7032D",
"4.	c #CD012C",
"5.	c #D3012D",
"6.	c #791122",
"7.	c #4F0D16",
"8.	c #5F111C",
"9.	c #831126",
"0.	c #950F2C",
"a.	c #930F2B",
"b.	c #6D1120",
"c.	c #871127",
"d.	c #8C102A",
"e.	c #791125",
"f.	c #92102C",
"    .                                                                           ",
"  + @ #                                                                         ",
"$ % $ & *                                                                       ",
"= -   ; > ,                                                                     ",
"' )     ! ~ {                                                                   ",
"    '     ] ^ /                                                                 ",
"    (     _ : < [                                                               ",
"      ( (     } | 1                                                             ",
"                2 3 4                                                           ",
"                  5 6 7                                                         ",
"                    8 9 /                                                       ",
"                    0 a b c                                                     ",
"                    * d e f g h i * * * * * * * * * * * * *                     ",
"                  j k l m n o p q r s t t t t t t t t t u t v                   ",
"                w , x y z A B C D E F G G ) ) ) ) ) ) ) H ) I J                 ",
"                K L M N O P Q R S T U V V W W W W W W W X W Y Z                 ",
"                , `  ...+.@.#.$.%.&.*.=.=.-.-.-.-.-.-.-.;.-.>.,.                ",
"                '.).!.~.{.{.].^./.(./.{.{.{.{.{.{.{.{.{., {._.:.                ",
"                <.[.}.L |.|.|.1.2.3.4.5.5.|.|.|.|.|.|.|.# |.6.7.                ",
"                G 8.9.0.$ $ $ $ $ $ $ $ $ $ $ $ $ $ $ $ a.% b.'                 ",
"                    c.% % % % % % % % % % % % % % % % % % d.e.                  ",
"                    f.$ $ $ $ $ $ $ $ $ $ $ $ $ $ $ $ $ $ $                     "};
