/* XPM */
static const char * alavanca_aberta_xpm[] = {
"40 22 123 2",
"  	c None",
". 	c #00E67C",
"+ 	c #00D870",
"@ 	c #00CA64",
"# 	c #00BC54",
"$ 	c #00E87E",
"% 	c #00A044",
"& 	c #009E43",
"* 	c #00A241",
"= 	c #009A3E",
"- 	c #008432",
"; 	c #00802D",
"> 	c #00E275",
", 	c #00C25B",
"' 	c #007426",
") 	c #00661F",
"! 	c #006820",
"~ 	c #0DFF57",
"{ 	c #00A035",
"] 	c #007A2B",
"^ 	c #00FE4E",
"/ 	c #00EA42",
"( 	c #00982B",
"_ 	c #004C15",
": 	c #006A20",
"< 	c #11FF54",
"[ 	c #00E240",
"} 	c #00AE29",
"| 	c #01FF4F",
"1 	c #00DC3E",
"2 	c #00C834",
"3 	c #0BFF56",
"4 	c #00EE43",
"5 	c #00B22A",
"6 	c #00D637",
"7 	c #00BA2C",
"8 	c #05FF4C",
"9 	c #00F244",
"0 	c #00C83D",
"a 	c #00A637",
"b 	c #00E280",
"c 	c #00EC75",
"d 	c #13FF61",
"e 	c #00E436",
"f 	c #00B62F",
"g 	c #00CE5C",
"h 	c #00C65D",
"i 	c #00B04B",
"j 	c #00AE4A",
"k 	c #00AA48",
"l 	c #00AC49",
"m 	c #00BE50",
"n 	c #00CC48",
"o 	c #00CC3A",
"p 	c #00A828",
"q 	c #007C23",
"r 	c #00A23D",
"s 	c #00BA58",
"t 	c #00DA71",
"u 	c #00EC80",
"v 	c #00B651",
"w 	c #005E1B",
"x 	c #00641C",
"y 	c #00641F",
"z 	c #006C21",
"A 	c #009C25",
"B 	c #009C21",
"C 	c #006415",
"D 	c #005E18",
"E 	c #005C1A",
"F 	c #00842F",
"G 	c #00F289",
"H 	c #00F68B",
"I 	c #00AC45",
"J 	c #00380B",
"K 	c #002C07",
"L 	c #00360A",
"M 	c #006014",
"N 	c #009222",
"O 	c #00841C",
"P 	c #006012",
"Q 	c #003208",
"R 	c #00340A",
"S 	c #003C0B",
"T 	c #002A07",
"U 	c #00661D",
"V 	c #00DC72",
"W 	c #01FF9C",
"X 	c #00D067",
"Y 	c #005614",
"Z 	c #005A17",
"` 	c #008A27",
" .	c #00BE36",
"..	c #008E2B",
"+.	c #006E1F",
"@.	c #006019",
"#.	c #005C18",
"$.	c #005414",
"%.	c #007825",
"&.	c #00C056",
"*.	c #007226",
"=.	c #009A3A",
"-.	c #00D268",
";.	c #00DC6D",
">.	c #00E074",
",.	c #00D66A",
"'.	c #00D469",
").	c #00BE55",
"!.	c #006E22",
"~.	c #008A34",
"{.	c #00D26D",
"].	c #00D46E",
"^.	c #00CE66",
"/.	c #00B852",
"(.	c #005616",
"_.	c #007E2C",
":.	c #00A245",
"<.	c #00A445",
"[.	c #00943B",
"}.	c #007025",
"|.	c #009C3E",
"1.	c #009E3F",
"2.	c #00983D",
"                                                                          .     ",
"                                                                        + @ #   ",
"                                                                      $ @ % & % ",
"                                                                    + * =   - ; ",
"                                                                  > , '     ) ! ",
"                                                                ~ { ]     !     ",
"                                                              ^ / ( _     :     ",
"                                                            < [ }     : :       ",
"                                                          | 1 2                 ",
"                                                        3 4 5                   ",
"                                                      ~ 6 7                     ",
"                                                    8 9 0 a                     ",
"                    $ $ $ $ $ $ $ $ $ $ $ $ $ b c d e f g $                     ",
"                  h i j i i i i i i i i i k l m n o p q r s t                   ",
"                u v ) w ) ) ) ) ) ) ) x x y z A B C D ) E F + G                 ",
"                H I J K J J J J J J J L L M N O P Q R S T U V W                 ",
"                X * D Y D D D D D D D Z Z `  ...+.@.Z #.$.%.&.+                 ",
"                *.=.-.+ -.-.-.-.-.-.-.-.-.;.>.;.,.'.-.-.t ).; !.                ",
"                E ~.-.+ {.{.{.{.{.{.{.].].^.@ ^.X {.{.{.V /.z (.                ",
"                ! _.& :.% % % % % % % % % % % % % % % % <.[.}.x                 ",
"                  ~.|.& 1.1.1.1.1.1.1.1.1.1.1.1.1.1.1.1.& 2.                    ",
"                    % % % % % % % % % % % % % % % % % % % :.                    "};
