/* XPM */
static const char * ammo_xpm[] = {
"32 16 59 1",
" 	c None",
".	c #000000",
"+	c #010101",
"@	c #040405",
"#	c #080809",
"$	c #0D0D0E",
"%	c #121215",
"&	c #18191B",
"*	c #171718",
"=	c #1E1E1C",
"-	c #070707",
";	c #070706",
">	c #030303",
",	c #070708",
"'	c #0C0C0D",
")	c #111112",
"!	c #161618",
"~	c #19191B",
"{	c #1A1A1D",
"]	c #1C1B1F",
"^	c #1B1C1E",
"/	c #222326",
"(	c #060605",
"_	c #202021",
":	c #1A1B1D",
"<	c #1B1B1E",
"[	c #1B1C1D",
"}	c #151618",
"|	c #222325",
"1	c #1B1C1F",
"2	c #18181B",
"3	c #1A1B1E",
"4	c #1A1A1C",
"5	c #171719",
"6	c #1D1E20",
"7	c #010100",
"8	c #1C1C1F",
"9	c #161719",
"0	c #141517",
"a	c #1E1E22",
"b	c #1E1F23",
"c	c #1D1E21",
"d	c #17181B",
"e	c #121315",
"f	c #050507",
"g	c #19191C",
"h	c #191A1C",
"i	c #1C1D1F",
"j	c #201F23",
"k	c #1E1F22",
"l	c #18191C",
"m	c #131416",
"n	c #0F1013",
"o	c #060707",
"p	c #1C1D21",
"q	c #141518",
"r	c #101113",
"s	c #09090B",
"t	c #000101",
"                                ",
"                                ",
"                                ",
"                     ..         ",
"               .......+..       ",
"        ........+@#$%&*=..      ",
"       .-;.>,')!~{]^^^^/..      ",
"       .(_~:<^:&[<}^^:{|.       ",
"       .+^<<^<<:1<^23456.       ",
"       .78<:^91:04abcdef.       ",
"       .7^ghijklmno.....        ",
"       .+pqrst.....             ",
"        ......                  ",
"                                ",
"                                ",
"                                "};
