/* XPM */
static const char * blueheart_xpm[] = {
"32 32 4 1",
" 	c None",
".	c #515E97",
"+	c #3E548C",
"@	c #41579D",
"    ....++++        ....@@@@    ",
"    ....++++        ....@@@@    ",
"    ....++++        ....@@@@    ",
"    ....++++        ....@@@@    ",
"........@@@@++++....@@@@@@@@++++",
"........@@@@++++....@@@@@@@@++++",
"........@@@@++++....@@@@@@@@++++",
"........@@@@++++....@@@@@@@@++++",
"....@@@@@@@@@@@@++++@@@@@@@@++++",
"....@@@@@@@@@@@@++++@@@@@@@@++++",
"....@@@@@@@@@@@@++++@@@@@@@@++++",
"....@@@@@@@@@@@@++++@@@@@@@@++++",
"....@@@@@@@@@@@@@@@@@@@@@@@@++++",
"....@@@@@@@@@@@@@@@@@@@@@@@@++++",
"....@@@@@@@@@@@@@@@@@@@@@@@@++++",
"....@@@@@@@@@@@@@@@@@@@@@@@@++++",
"....@@@@@@@@@@@@@@@@@@@@++++++++",
"....@@@@@@@@@@@@@@@@@@@@++++++++",
"....@@@@@@@@@@@@@@@@@@@@++++++++",
"....@@@@@@@@@@@@@@@@@@@@++++++++",
"    @@@@@@@@@@@@@@@@++++++++    ",
"    @@@@@@@@@@@@@@@@++++++++    ",
"    @@@@@@@@@@@@@@@@++++++++    ",
"    @@@@@@@@@@@@@@@@++++++++    ",
"        @@@@@@@@++++++++        ",
"        @@@@@@@@++++++++        ",
"        @@@@@@@@++++++++        ",
"        @@@@@@@@++++++++        ",
"            ++++++++            ",
"            ++++++++            ",
"            ++++++++            ",
"            ++++++++            "};
