/* XPM */
static const char * Bullet_xpm[] = {
"33 25 29 1",
" 	c None",
".	c #FFFFFF",
"+	c #B4B4B4",
"@	c #595959",
"#	c #B5B5B5",
"$	c #AFAFAF",
"%	c #393939",
"&	c #000000",
"*	c #3C3C3C",
"=	c #B6B6B6",
"-	c #A1A1A1",
";	c #1F1F1F",
">	c #1E1E1E",
",	c #ADADAD",
"'	c #FEFEFE",
")	c #5F5F5F",
"!	c #757575",
"~	c #FDFDFD",
"{	c #A6A6A6",
"]	c #202020",
"^	c #010101",
"/	c #B2B2B2",
"(	c #B1B1B1",
"_	c #3D3D3D",
":	c #404040",
"<	c #B8B8B8",
"[	c #AEAEAE",
"}	c #484848",
"|	c #B0B0B0",
".................................",
".................................",
".................................",
".................................",
".................................",
".................................",
".................................",
".................................",
".................................",
"...............+@#...............",
"..............$%&*=..............",
".............-;&&&>,'............",
".............)&&&&&!~............",
".............{]&^&]/'............",
"..............(_&:<..............",
"...............[}|...............",
".................................",
".................................",
".................................",
".................................",
".................................",
".................................",
".................................",
".................................",
"................................."};
