/* XPM */
static const char * door_v_2_xpm[] = {
"32 64 209 2",
"  	c None",
". 	c #523316",
"+ 	c #5C3716",
"@ 	c #704116",
"# 	c #7A4616",
"$ 	c #704216",
"% 	c #5E3816",
"& 	c #543316",
"* 	c #533315",
"= 	c #553416",
"- 	c #573516",
"; 	c #563416",
"> 	c #563516",
", 	c #513114",
"' 	c #4C2D11",
") 	c #4B2C0F",
"! 	c #4D2E10",
"~ 	c #4E2E10",
"{ 	c #643C17",
"] 	c #764619",
"^ 	c #7F4B1A",
"/ 	c #744519",
"( 	c #5E3917",
"_ 	c #5F3A18",
": 	c #623C19",
"< 	c #5F3A17",
"[ 	c #583516",
"} 	c #5C3816",
"| 	c #5E3916",
"1 	c #5D3816",
"2 	c #5A3717",
"3 	c #583617",
"4 	c #593617",
"5 	c #603B19",
"6 	c #603A18",
"7 	c #5A3513",
"8 	c #543111",
"9 	c #4F2F10",
"0 	c #834F1F",
"a 	c #8B5522",
"b 	c #8C5522",
"c 	c #7D4C1F",
"d 	c #5E3918",
"e 	c #5D3918",
"f 	c #794A1F",
"g 	c #824F20",
"h 	c #774719",
"i 	c #6A3F16",
"j 	c #5A3716",
"k 	c #6B3F17",
"l 	c #734317",
"m 	c #724317",
"n 	c #714317",
"o 	c #6E4117",
"p 	c #653E19",
"q 	c #5C3A18",
"r 	c #7A4B20",
"s 	c #814F20",
"t 	c #673C14",
"u 	c #543211",
"v 	c #4C2D10",
"w 	c #794616",
"x 	c #7E4A1A",
"y 	c #8A5422",
"z 	c #905926",
"A 	c #925A26",
"B 	c #814F22",
"C 	c #845223",
"D 	c #905823",
"E 	c #824D1A",
"F 	c #714216",
"G 	c #5B3716",
"H 	c #7D4917",
"I 	c #7C4817",
"J 	c #7B4717",
"K 	c #7B4817",
"L 	c #764618",
"M 	c #69411A",
"N 	c #5E3B19",
"O 	c #855223",
"P 	c #915823",
"Q 	c #844E1B",
"R 	c #704115",
"S 	c #573311",
"T 	c #774516",
"U 	c #7D4A1A",
"V 	c #885322",
"W 	c #8F5826",
"X 	c #915926",
"Y 	c #804F21",
"Z 	c #825022",
"` 	c #8E5623",
" .	c #814C1A",
"..	c #7D4817",
"+.	c #7A4717",
"@.	c #764518",
"#.	c #835122",
"$.	c #814C1B",
"%.	c #6F4015",
"&.	c #563311",
"*.	c #7C491A",
"=.	c #885321",
"-.	c #8F5825",
";.	c #905925",
">.	c #815022",
",.	c #804B1A",
"'.	c #6F4116",
").	c #754518",
"!.	c #744518",
"~.	c #714418",
"{.	c #68401A",
"].	c #5F3B19",
"^.	c #613B19",
"/.	c #8D5623",
"(.	c #804C1A",
"_.	c #6E4015",
":.	c #563211",
"<.	c #4B2C10",
"[.	c #643E19",
"}.	c #6A421A",
"|.	c #68411A",
"1.	c #66401B",
"2.	c #603C19",
"3.	c #5A3818",
"4.	c #5D3A18",
"5.	c #5E3B18",
"6.	c #5C3917",
"7.	c #553415",
"8.	c #503012",
"9.	c #4E2F11",
"0.	c #4F2F12",
"a.	c #4F2F11",
"b.	c #503011",
"c.	c #513012",
"d.	c #523214",
"e.	c #633C19",
"f.	c #543315",
"g.	c #553212",
"h.	c #553210",
"i.	c #553211",
"j.	c #513011",
"k.	c #5A3616",
"l.	c #693E15",
"m.	c #714215",
"n.	c #6F4115",
"o.	c #6C4016",
"p.	c #623C17",
"q.	c #5A3817",
"r.	c #543415",
"s.	c #744417",
"t.	c #7F4A18",
"u.	c #7D4918",
"v.	c #7C4818",
"w.	c #7E4917",
"x.	c #784718",
"y.	c #6B421B",
"z.	c #5F3C1A",
"A.	c #6A3E16",
"B.	c #633C18",
"C.	c #5B3817",
"D.	c #553315",
"E.	c #563312",
"F.	c #533112",
"G.	c #523113",
"H.	c #523215",
"I.	c #492B0F",
"J.	c #4A2C0F",
"K.	c #633D1A",
"L.	c #4E2F12",
"M.	c #4C2E12",
"N.	c #4F3011",
"O.	c #543519",
"P.	c #5E3A18",
"Q.	c #5F3B18",
"R.	c #69411B",
"S.	c #67401B",
"T.	c #704519",
"U.	c #835116",
"V.	c #663F1B",
"W.	c #744418",
"X.	c #6D4019",
"Y.	c #8F5513",
"Z.	c #DA8207",
"`.	c #DA8206",
" +	c #905513",
".+	c #693F1A",
"++	c #653F1B",
"@+	c #734218",
"#+	c #955712",
"$+	c #E08406",
"%+	c #E08405",
"&+	c #965712",
"*+	c #6E4019",
"=+	c #663F1A",
"-+	c #824C16",
";+	c #965812",
">+	c #834C16",
",+	c #734417",
"'+	c #6F4117",
")+	c #693E18",
"!+	c #704217",
"~+	c #6F4217",
"{+	c #5B3717",
"]+	c #523216",
"^+	c #533316",
"/+	c #543416",
"(+	c #503013",
"_+	c #4B2D10",
":+	c #4D2D10",
". + @ # # $ % & * * & = - - = = = = = = = = ; - - > = , ' ) ! ~ ",
"+ { ] ^ ^ / ( - _ : < + [ [ } | | % % % | 1 2 3 - 4 5 6 7 8 9 ! ",
"@ ] 0 a b c d e f g h i j j k l m n n m m o p q ; _ r s ] t u v ",
"w x y z A B d _ C D E F G + l H I J J K I L M N = : O P Q R S ) ",
"T U V W X Y d _ Z `  .@ G + m ..J +.+.J I @.M N = : #.` $.%.&.) ",
"T *.=.-.;.Y d _ >.b ,.'.G G o L ).!.!.).).~.{.].= ^.Z /.(._.:.<.",
"T *.=.-.;.Y d _ >.b ,.'.+ 3 [.}.M M M M M |.1.2.> ^.Z /.(._.:.<.",
"T *.=.-.;.Y d _ >.b ,.@ 1 > 3.4.q q q q q 4.5.6.7.: Z /.(._.:.<.",
"T *.=.-.;.Y d _ >.b ,.$ % * 8.9.0.0.0.0.0.a.b.c.d.e.#./.(._.:.<.",
"T *.=.-.;.Y d _ >.b ,.@ 1 f.g.h.i.i.i.i.i.8 j.c.d.e.#./.(._.:.<.",
"T *.=.-.;.Y d _ >.b ,.'.+ k.l.m.R n.n.n.R o.p.q.r.: Z /.(._.:.<.",
"T *.=.-.;.Y d _ >.b ,.'.G } s.t.u.v.v.v.w.x.y.z.> ^.Z /.(._.:.<.",
"T *.=.-.;.Y d _ >.b ,.'.G } s.t.u.v.v.v.w.x.y.z.> ^.Z /.(._.:.<.",
"T *.=.-.;.Y d _ >.b ,.'.+ k.A.F @ '.'.@ m.o.B.C.r.: Z /.(._.:.<.",
"T *.=.-.;.Y d _ >.b ,.@ 1 D.E.&.S S S S S :.F.G.d.e.#./.(._.:.<.",
"T *.=.-.;.Y d _ >.b ,.$ | H.' I.J.J.J.J.J.J.) ! , K.#./.(._.:.<.",
"T *.=.-.;.Y d _ >.b ,.$ | H.' I.J.J.J.J.J.J.) ! , K.#./.(._.:.<.",
"T *.=.-.;.Y d _ >.b ,.@ 1 D.E.&.S S S S S :.F.G.d.e.#./.(._.:.<.",
"T *.=.-.;.Y d _ >.b ,.'.+ k.A.F @ '.'.@ m.o.B.C.r.: Z /.(._.:.<.",
"T *.=.-.;.Y d _ >.b ,.'.G } s.t.u.v.v.v.w.x.y.z.> ^.Z /.(._.:.<.",
"T *.=.-.;.Y d _ >.b ,.'.G } s.t.u.v.v.v.w.x.y.z.> ^.Z /.(._.:.<.",
"T *.=.-.;.Y d _ >.b ,.'.+ k.l.m.R n.n.n.R o.p.q.r.: Z /.(._.:.<.",
"T *.=.-.;.Y d _ >.b ,.@ 1 f.g.h.i.i.i.i.i.8 j.c.d.e.#./.(._.:.<.",
"T *.=.-.;.Y d _ >.b ,.$ % * 8.9.a.L.M.M.L.N.b.c.d.e.#./.(._.:.<.",
"T *.=.-.;.Y d _ >.b ,.@ 1 > 3.4.4.3.O.O.3.P.Q.6.7.: Z /.(._.:.<.",
"T *.=.-.;.Y d _ >.b ,.'.+ 3 [.R.S.T.U.U.T.V.1.2.> ^.Z /.(._.:.<.",
"T *.=.-.;.Y d _ >.b ,.'.G G o W.X.Y.Z.`. +.+++].= ^.Z /.(._.:.<.",
"T U V W X Y d _ Z `  .@ G + m +.@+#+$+%+&+*+=+N = : #.` $.%.&.) ",
"w x y z A B d _ C D E F G + l ..+.-+#+;+>+!.M N = : O P Q R S ) ",
"@ ] 0 a b c d e f g h i j j k ,+l '+)+)+!+~+p q ; _ r s ] t u v ",
"+ { ] ^ ^ / ( - _ : < + [ [ } | | 1 {+{+1 1 {+3 - 4 5 6 7 8 9 ! ",
"]+G '.w w @ % & H.H.^+= - - = & & & & & & /+= ; - > f.(+_+J.:+~ ",
"]+G '.w w @ % & H.H.^+= - - = & & & & & & /+= ; - > f.(+_+J.:+~ ",
"+ { ] ^ ^ / ( - _ : < + [ [ } | | 1 {+{+1 1 {+3 - 4 5 6 7 8 9 ! ",
"@ ] 0 a b c d e f g h i j j k ,+l '+)+)+!+~+p q ; _ r s ] t u v ",
"w x y z A B d _ C D E F G + l ..+.-+#+;+>+!.M N = : O P Q R S ) ",
"T U V W X Y d _ Z `  .@ G + m +.@+#+$+%+&+*+=+N = : #.` $.%.&.) ",
"T *.=.-.;.Y d _ >.b ,.'.G G o W.X.Y.Z.`. +.+++].= ^.Z /.(._.:.<.",
"T *.=.-.;.Y d _ >.b ,.'.+ 3 [.R.S.T.U.U.T.V.1.2.> ^.Z /.(._.:.<.",
"T *.=.-.;.Y d _ >.b ,.@ 1 > 3.4.4.3.O.O.3.P.Q.6.7.: Z /.(._.:.<.",
"T *.=.-.;.Y d _ >.b ,.$ % * 8.9.a.L.M.M.L.N.b.c.d.e.#./.(._.:.<.",
"T *.=.-.;.Y d _ >.b ,.@ 1 f.g.h.i.i.i.i.i.8 j.c.d.e.#./.(._.:.<.",
"T *.=.-.;.Y d _ >.b ,.'.+ k.l.m.R n.n.n.R o.p.q.r.: Z /.(._.:.<.",
"T *.=.-.;.Y d _ >.b ,.'.G } s.t.u.v.v.v.w.x.y.z.> ^.Z /.(._.:.<.",
"T *.=.-.;.Y d _ >.b ,.'.G } s.t.u.v.v.v.w.x.y.z.> ^.Z /.(._.:.<.",
"T *.=.-.;.Y d _ >.b ,.'.+ k.A.F @ '.'.@ m.o.B.C.r.: Z /.(._.:.<.",
"T *.=.-.;.Y d _ >.b ,.@ 1 D.E.&.S S S S S :.F.G.d.e.#./.(._.:.<.",
"T *.=.-.;.Y d _ >.b ,.$ | H.' I.J.J.J.J.J.J.) ! , K.#./.(._.:.<.",
"T *.=.-.;.Y d _ >.b ,.$ | H.' I.J.J.J.J.J.J.) ! , K.#./.(._.:.<.",
"T *.=.-.;.Y d _ >.b ,.@ 1 D.E.&.S S S S S :.F.G.d.e.#./.(._.:.<.",
"T *.=.-.;.Y d _ >.b ,.'.+ k.A.F @ '.'.@ m.o.B.C.r.: Z /.(._.:.<.",
"T *.=.-.;.Y d _ >.b ,.'.G } s.t.u.v.v.v.w.x.y.z.> ^.Z /.(._.:.<.",
"T *.=.-.;.Y d _ >.b ,.'.G } s.t.u.v.v.v.w.x.y.z.> ^.Z /.(._.:.<.",
"T *.=.-.;.Y d _ >.b ,.'.+ k.l.m.R n.n.n.R o.p.q.r.: Z /.(._.:.<.",
"T *.=.-.;.Y d _ >.b ,.@ 1 f.g.h.i.i.i.i.i.8 j.c.d.e.#./.(._.:.<.",
"T *.=.-.;.Y d _ >.b ,.$ % * 8.9.0.0.0.0.0.a.b.c.d.e.#./.(._.:.<.",
"T *.=.-.;.Y d _ >.b ,.@ 1 > 3.4.q q q q q 4.5.6.7.: Z /.(._.:.<.",
"T *.=.-.;.Y d _ >.b ,.'.+ 3 [.}.M M M M M |.1.2.> ^.Z /.(._.:.<.",
"T *.=.-.;.Y d _ >.b ,.'.G G o L ).!.!.).).~.{.].= ^.Z /.(._.:.<.",
"T U V W X Y d _ Z `  .@ G + m ..J +.+.J I @.M N = : #.` $.%.&.) ",
"w x y z A B d _ C D E F G + l H I J J K I L M N = : O P Q R S ) ",
"@ ] 0 a b c d e f g h i j j k l m n n m m o p q ; _ r s ] t u v ",
"+ { ] ^ ^ / ( - _ : < + [ [ } | | % % % | 1 2 3 - 4 5 6 7 8 9 ! ",
". + @ # # $ % & * * & = - - = = = = = = = = ; - - > = , ' ) ! ~ "};
