/* XPM */
static const char * door_v_2_inv_xpm[] = {
"32 64 209 2",
"  	c None",
". 	c #4E2E10",
"+ 	c #4D2E10",
"@ 	c #4B2C0F",
"# 	c #4C2D11",
"$ 	c #513114",
"% 	c #553416",
"& 	c #563516",
"* 	c #573516",
"= 	c #563416",
"- 	c #543316",
"; 	c #533315",
"> 	c #5E3816",
", 	c #704216",
"' 	c #7A4616",
") 	c #704116",
"! 	c #5C3716",
"~ 	c #523316",
"{ 	c #4F2F10",
"] 	c #543111",
"^ 	c #5A3513",
"/ 	c #603A18",
"( 	c #603B19",
"_ 	c #593617",
": 	c #583617",
"< 	c #5A3717",
"[ 	c #5D3816",
"} 	c #5E3916",
"| 	c #5C3816",
"1 	c #583516",
"2 	c #5F3A17",
"3 	c #623C19",
"4 	c #5F3A18",
"5 	c #5E3917",
"6 	c #744519",
"7 	c #7F4B1A",
"8 	c #764619",
"9 	c #643C17",
"0 	c #4C2D10",
"a 	c #543211",
"b 	c #673C14",
"c 	c #814F20",
"d 	c #7A4B20",
"e 	c #5C3A18",
"f 	c #653E19",
"g 	c #6E4117",
"h 	c #724317",
"i 	c #714317",
"j 	c #734317",
"k 	c #6B3F17",
"l 	c #5A3716",
"m 	c #6A3F16",
"n 	c #774719",
"o 	c #824F20",
"p 	c #794A1F",
"q 	c #5D3918",
"r 	c #5E3918",
"s 	c #7D4C1F",
"t 	c #8C5522",
"u 	c #8B5522",
"v 	c #834F1F",
"w 	c #573311",
"x 	c #704115",
"y 	c #844E1B",
"z 	c #915823",
"A 	c #855223",
"B 	c #5E3B19",
"C 	c #69411A",
"D 	c #764618",
"E 	c #7C4817",
"F 	c #7B4817",
"G 	c #7B4717",
"H 	c #7D4917",
"I 	c #5B3716",
"J 	c #714216",
"K 	c #824D1A",
"L 	c #905823",
"M 	c #845223",
"N 	c #814F22",
"O 	c #925A26",
"P 	c #905926",
"Q 	c #8A5422",
"R 	c #7E4A1A",
"S 	c #794616",
"T 	c #563311",
"U 	c #6F4015",
"V 	c #814C1B",
"W 	c #8E5623",
"X 	c #835122",
"Y 	c #764518",
"Z 	c #7A4717",
"` 	c #7D4817",
" .	c #814C1A",
"..	c #825022",
"+.	c #804F21",
"@.	c #915926",
"#.	c #8F5826",
"$.	c #885322",
"%.	c #7D4A1A",
"&.	c #774516",
"*.	c #4B2C10",
"=.	c #563211",
"-.	c #6E4015",
";.	c #804C1A",
">.	c #8D5623",
",.	c #613B19",
"'.	c #5F3B19",
").	c #68401A",
"!.	c #714418",
"~.	c #754518",
"{.	c #744518",
"].	c #6F4116",
"^.	c #804B1A",
"/.	c #815022",
"(.	c #905925",
"_.	c #8F5825",
":.	c #885321",
"<.	c #7C491A",
"[.	c #603C19",
"}.	c #66401B",
"|.	c #68411A",
"1.	c #6A421A",
"2.	c #643E19",
"3.	c #553415",
"4.	c #5C3917",
"5.	c #5E3B18",
"6.	c #5D3A18",
"7.	c #5A3818",
"8.	c #633C19",
"9.	c #523214",
"0.	c #513012",
"a.	c #503011",
"b.	c #4F2F11",
"c.	c #4F2F12",
"d.	c #4E2F11",
"e.	c #503012",
"f.	c #513011",
"g.	c #553211",
"h.	c #553210",
"i.	c #553212",
"j.	c #543315",
"k.	c #543415",
"l.	c #5A3817",
"m.	c #623C17",
"n.	c #6C4016",
"o.	c #6F4115",
"p.	c #714215",
"q.	c #693E15",
"r.	c #5A3616",
"s.	c #5F3C1A",
"t.	c #6B421B",
"u.	c #784718",
"v.	c #7E4917",
"w.	c #7C4818",
"x.	c #7D4918",
"y.	c #7F4A18",
"z.	c #744417",
"A.	c #5B3817",
"B.	c #633C18",
"C.	c #6A3E16",
"D.	c #523113",
"E.	c #533112",
"F.	c #563312",
"G.	c #553315",
"H.	c #633D1A",
"I.	c #4A2C0F",
"J.	c #492B0F",
"K.	c #523215",
"L.	c #4F3011",
"M.	c #4E2F12",
"N.	c #4C2E12",
"O.	c #5F3B18",
"P.	c #5E3A18",
"Q.	c #543519",
"R.	c #663F1B",
"S.	c #704519",
"T.	c #835116",
"U.	c #67401B",
"V.	c #69411B",
"W.	c #653F1B",
"X.	c #693F1A",
"Y.	c #905513",
"Z.	c #DA8206",
"`.	c #DA8207",
" +	c #8F5513",
".+	c #6D4019",
"++	c #744418",
"@+	c #663F1A",
"#+	c #6E4019",
"$+	c #965712",
"%+	c #E08405",
"&+	c #E08406",
"*+	c #955712",
"=+	c #734218",
"-+	c #834C16",
";+	c #965812",
">+	c #824C16",
",+	c #6F4217",
"'+	c #704217",
")+	c #693E18",
"!+	c #6F4117",
"~+	c #734417",
"{+	c #5B3717",
"]+	c #4D2D10",
"^+	c #4B2D10",
"/+	c #503013",
"(+	c #543416",
"_+	c #533316",
":+	c #523216",
". + @ # $ % & * * = % % % % % % % % * * % - ; ; - > , ' ' ) ! ~ ",
"+ { ] ^ / ( _ * : < [ } > > > } } | 1 1 ! 2 3 4 * 5 6 7 7 8 9 ! ",
"0 a b 8 c d 4 = e f g h h i i h j k l l m n o p q r s t u v 8 ) ",
"@ w x y z A 3 % B C D E F G G E H j ! I J K L M 4 r N O P Q R S ",
"@ T U V W X 3 % B C Y E G Z Z G ` h ! I )  .W ..4 r +.@.#.$.%.&.",
"*.=.-.;.>...,.% '.).!.~.~.{.{.~.D g I I ].^.t /.4 r +.(._.:.<.&.",
"*.=.-.;.>...,.& [.}.|.C C C C C 1.2.: ! ].^.t /.4 r +.(._.:.<.&.",
"*.=.-.;.>...3 3.4.5.6.e e e e e 6.7.& [ ) ^.t /.4 r +.(._.:.<.&.",
"*.=.-.;.>.X 8.9.0.a.b.c.c.c.c.c.d.e.; > , ^.t /.4 r +.(._.:.<.&.",
"*.=.-.;.>.X 8.9.0.f.] g.g.g.g.g.h.i.j.[ ) ^.t /.4 r +.(._.:.<.&.",
"*.=.-.;.>...3 k.l.m.n.x o.o.o.x p.q.r.! ].^.t /.4 r +.(._.:.<.&.",
"*.=.-.;.>...,.& s.t.u.v.w.w.w.x.y.z.| I ].^.t /.4 r +.(._.:.<.&.",
"*.=.-.;.>...,.& s.t.u.v.w.w.w.x.y.z.| I ].^.t /.4 r +.(._.:.<.&.",
"*.=.-.;.>...3 k.A.B.n.p.) ].].) J C.r.! ].^.t /.4 r +.(._.:.<.&.",
"*.=.-.;.>.X 8.9.D.E.=.w w w w w T F.G.[ ) ^.t /.4 r +.(._.:.<.&.",
"*.=.-.;.>.X H.$ + @ I.I.I.I.I.I.J.# K.} , ^.t /.4 r +.(._.:.<.&.",
"*.=.-.;.>.X H.$ + @ I.I.I.I.I.I.J.# K.} , ^.t /.4 r +.(._.:.<.&.",
"*.=.-.;.>.X 8.9.D.E.=.w w w w w T F.G.[ ) ^.t /.4 r +.(._.:.<.&.",
"*.=.-.;.>...3 k.A.B.n.p.) ].].) J C.r.! ].^.t /.4 r +.(._.:.<.&.",
"*.=.-.;.>...,.& s.t.u.v.w.w.w.x.y.z.| I ].^.t /.4 r +.(._.:.<.&.",
"*.=.-.;.>...,.& s.t.u.v.w.w.w.x.y.z.| I ].^.t /.4 r +.(._.:.<.&.",
"*.=.-.;.>...3 k.l.m.n.x o.o.o.x p.q.r.! ].^.t /.4 r +.(._.:.<.&.",
"*.=.-.;.>.X 8.9.0.f.] g.g.g.g.g.h.i.j.[ ) ^.t /.4 r +.(._.:.<.&.",
"*.=.-.;.>.X 8.9.0.a.L.M.N.N.M.b.d.e.; > , ^.t /.4 r +.(._.:.<.&.",
"*.=.-.;.>...3 3.4.O.P.7.Q.Q.7.6.6.7.& [ ) ^.t /.4 r +.(._.:.<.&.",
"*.=.-.;.>...,.& [.}.R.S.T.T.S.U.V.2.: ! ].^.t /.4 r +.(._.:.<.&.",
"*.=.-.;.>...,.% '.W.X.Y.Z.`. +.+++g I I ].^.t /.4 r +.(._.:.<.&.",
"@ T U V W X 3 % B @+#+$+%+&+*+=+Z h ! I )  .W ..4 r +.@.#.$.%.&.",
"@ w x y z A 3 % B C {.-+;+*+>+Z ` j ! I J K L M 4 r N O P Q R S ",
"0 a b 8 c d 4 = e f ,+'+)+)+!+j ~+k l l m n o p q r s t u v 8 ) ",
"+ { ] ^ / ( _ * : {+[ [ {+{+[ } } | 1 1 ! 2 3 4 * 5 6 7 7 8 9 ! ",
". ]+I.^+/+j.& * = % (+- - - - - - % * * % _+K.K.- > ) S S ].I :+",
". ]+I.^+/+j.& * = % (+- - - - - - % * * % _+K.K.- > ) S S ].I :+",
"+ { ] ^ / ( _ * : {+[ [ {+{+[ } } | 1 1 ! 2 3 4 * 5 6 7 7 8 9 ! ",
"0 a b 8 c d 4 = e f ,+'+)+)+!+j ~+k l l m n o p q r s t u v 8 ) ",
"@ w x y z A 3 % B C {.-+;+*+>+Z ` j ! I J K L M 4 r N O P Q R S ",
"@ T U V W X 3 % B @+#+$+%+&+*+=+Z h ! I )  .W ..4 r +.@.#.$.%.&.",
"*.=.-.;.>...,.% '.W.X.Y.Z.`. +.+++g I I ].^.t /.4 r +.(._.:.<.&.",
"*.=.-.;.>...,.& [.}.R.S.T.T.S.U.V.2.: ! ].^.t /.4 r +.(._.:.<.&.",
"*.=.-.;.>...3 3.4.O.P.7.Q.Q.7.6.6.7.& [ ) ^.t /.4 r +.(._.:.<.&.",
"*.=.-.;.>.X 8.9.0.a.L.M.N.N.M.b.d.e.; > , ^.t /.4 r +.(._.:.<.&.",
"*.=.-.;.>.X 8.9.0.f.] g.g.g.g.g.h.i.j.[ ) ^.t /.4 r +.(._.:.<.&.",
"*.=.-.;.>...3 k.l.m.n.x o.o.o.x p.q.r.! ].^.t /.4 r +.(._.:.<.&.",
"*.=.-.;.>...,.& s.t.u.v.w.w.w.x.y.z.| I ].^.t /.4 r +.(._.:.<.&.",
"*.=.-.;.>...,.& s.t.u.v.w.w.w.x.y.z.| I ].^.t /.4 r +.(._.:.<.&.",
"*.=.-.;.>...3 k.A.B.n.p.) ].].) J C.r.! ].^.t /.4 r +.(._.:.<.&.",
"*.=.-.;.>.X 8.9.D.E.=.w w w w w T F.G.[ ) ^.t /.4 r +.(._.:.<.&.",
"*.=.-.;.>.X H.$ + @ I.I.I.I.I.I.J.# K.} , ^.t /.4 r +.(._.:.<.&.",
"*.=.-.;.>.X H.$ + @ I.I.I.I.I.I.J.# K.} , ^.t /.4 r +.(._.:.<.&.",
"*.=.-.;.>.X 8.9.D.E.=.w w w w w T F.G.[ ) ^.t /.4 r +.(._.:.<.&.",
"*.=.-.;.>...3 k.A.B.n.p.) ].].) J C.r.! ].^.t /.4 r +.(._.:.<.&.",
"*.=.-.;.>...,.& s.t.u.v.w.w.w.x.y.z.| I ].^.t /.4 r +.(._.:.<.&.",
"*.=.-.;.>...,.& s.t.u.v.w.w.w.x.y.z.| I ].^.t /.4 r +.(._.:.<.&.",
"*.=.-.;.>...3 k.l.m.n.x o.o.o.x p.q.r.! ].^.t /.4 r +.(._.:.<.&.",
"*.=.-.;.>.X 8.9.0.f.] g.g.g.g.g.h.i.j.[ ) ^.t /.4 r +.(._.:.<.&.",
"*.=.-.;.>.X 8.9.0.a.b.c.c.c.c.c.d.e.; > , ^.t /.4 r +.(._.:.<.&.",
"*.=.-.;.>...3 3.4.5.6.e e e e e 6.7.& [ ) ^.t /.4 r +.(._.:.<.&.",
"*.=.-.;.>...,.& [.}.|.C C C C C 1.2.: ! ].^.t /.4 r +.(._.:.<.&.",
"*.=.-.;.>...,.% '.).!.~.~.{.{.~.D g I I ].^.t /.4 r +.(._.:.<.&.",
"@ T U V W X 3 % B C Y E G Z Z G ` h ! I )  .W ..4 r +.@.#.$.%.&.",
"@ w x y z A 3 % B C D E F G G E H j ! I J K L M 4 r N O P Q R S ",
"0 a b 8 c d 4 = e f g h h i i h j k l l m n o p q r s t u v 8 ) ",
"+ { ] ^ / ( _ * : < [ } > > > } } | 1 1 ! 2 3 4 * 5 6 7 7 8 9 ! ",
". + @ # $ % & * * = % % % % % % % % * * % - ; ; - > , ' ' ) ! ~ "};
