/* XPM */
static const char * door_v_3_inv_xpm[] = {
"32 96 306 2",
"  	c None",
". 	c #4E2E10",
"+ 	c #4D2E10",
"@ 	c #4A2C0F",
"# 	c #4B2D11",
"$ 	c #503014",
"% 	c #543416",
"& 	c #563516",
"* 	c #573516",
"= 	c #563416",
"- 	c #553416",
"; 	c #533316",
"> 	c #523215",
", 	c #523315",
"' 	c #543316",
") 	c #5E3816",
"! 	c #704216",
"~ 	c #7A4616",
"{ 	c #704116",
"] 	c #5C3716",
"^ 	c #513316",
"/ 	c #513012",
"( 	c #593617",
"_ 	c #583516",
": 	c #583616",
"< 	c #583617",
"[ 	c #573616",
"} 	c #714317",
"| 	c #7C4818",
"1 	c #724317",
"2 	c #5F3916",
"3 	c #502F10",
"4 	c #573311",
"5 	c #5E3714",
"6 	c #653D19",
"7 	c #643D1A",
"8 	c #5A3717",
"9 	c #593717",
"0 	c #5C3817",
"a 	c #613A16",
"b 	c #613916",
"c 	c #5E3916",
"d 	c #623C17",
"e 	c #673F1A",
"f 	c #633C19",
"g 	c #5E3917",
"h 	c #75461A",
"i 	c #814C1B",
"j 	c #78471A",
"k 	c #673D17",
"l 	c #5F3816",
"m 	c #4C2D10",
"n 	c #533211",
"o 	c #643A14",
"p 	c #724418",
"q 	c #7C4C1F",
"r 	c #76491F",
"s 	c #5E3918",
"t 	c #5B3918",
"u 	c #633D19",
"v 	c #6C4017",
"w 	c #6F4217",
"x 	c #6F4117",
"y 	c #6E4117",
"z 	c #704217",
"A 	c #693E17",
"B 	c #5A3716",
"C 	c #683E16",
"D 	c #744519",
"E 	c #7E4C1F",
"F 	c #75481E",
"G 	c #5C3818",
"H 	c #7C4B1E",
"I 	c #8A5421",
"J 	c #895421",
"K 	c #814E1E",
"L 	c #734519",
"M 	c #6D4016",
"N 	c #4B2C10",
"O 	c #563311",
"P 	c #6D3F15",
"Q 	c #7F4B1A",
"R 	c #8B5522",
"S 	c #815022",
"T 	c #613B19",
"U 	c #5D3B19",
"V 	c #68401A",
"W 	c #734418",
"X 	c #784617",
"Y 	c #774617",
"Z 	c #794717",
"` 	c #704117",
" .	c #5B3716",
"..	c #6E4116",
"+.	c #7E4B1A",
"@.	c #804F22",
"#.	c #5E3A18",
"$.	c #804E21",
"%.	c #905824",
"&.	c #8E5824",
"*.	c #875221",
"=.	c #7B491A",
"-.	c #764416",
";.	c #4B2C0F",
">.	c #704115",
",.	c #844E1B",
"'.	c #925823",
").	c #855223",
"!.	c #623C19",
"~.	c #5E3B19",
"{.	c #69411A",
"].	c #774618",
"^.	c #7D4817",
"/.	c #7C4817",
"(.	c #7C4717",
"_.	c #7E4917",
":.	c #734317",
"<.	c #714216",
"[.	c #834D1A",
"}.	c #915823",
"|.	c #845223",
"1.	c #5F3A18",
"2.	c #814F22",
"3.	c #925A26",
"4.	c #905926",
"5.	c #8A5422",
"6.	c #7E4A1A",
"7.	c #794616",
"8.	c #6F4015",
"9.	c #824C1B",
"0.	c #8F5623",
"a.	c #835122",
"b.	c #764518",
"c.	c #7B4717",
"d.	c #7E4817",
"e.	c #814C1A",
"f.	c #825022",
"g.	c #804F21",
"h.	c #915926",
"i.	c #8F5826",
"j.	c #885322",
"k.	c #7D4A1A",
"l.	c #774516",
"m.	c #563211",
"n.	c #6E4015",
"o.	c #804C1A",
"p.	c #8D5623",
"q.	c #69401A",
"r.	c #744518",
"s.	c #794617",
"t.	c #7A4717",
"u.	c #714217",
"v.	c #6F4116",
"w.	c #804B1A",
"x.	c #8D5522",
"y.	c #7C4A1A",
"z.	c #5F3B19",
"A.	c #704418",
"B.	c #6D4117",
"C.	c #8C5522",
"D.	c #905925",
"E.	c #8F5825",
"F.	c #885321",
"G.	c #7C491A",
"H.	c #603C19",
"I.	c #67401B",
"J.	c #6A421A",
"K.	c #6B421A",
"L.	c #6C431A",
"M.	c #663F19",
"N.	c #613C19",
"O.	c #5F3B18",
"P.	c #633E1A",
"Q.	c #643E1A",
"R.	c #573617",
"S.	c #5C3816",
"T.	c #553415",
"U.	c #5A3816",
"V.	c #5C3917",
"W.	c #5B3817",
"X.	c #5A3817",
"Y.	c #583717",
"Z.	c #5D3816",
"`.	c #523214",
" +	c #523113",
".+	c #523112",
"++	c #503012",
"@+	c #503013",
"#+	c #4F3012",
"$+	c #513113",
"%+	c #533315",
"&+	c #502F11",
"*+	c #4F2F10",
"=+	c #4F2E10",
"-+	c #513011",
";+	c #533112",
">+	c #573312",
",+	c #583411",
"'+	c #593411",
")+	c #583312",
"!+	c #553315",
"~+	c #543415",
"{+	c #593716",
"]+	c #5F3A16",
"^+	c #683E15",
"/+	c #6C3F14",
"(+	c #6B3F14",
"_+	c #6D4014",
":+	c #663C15",
"<+	c #593616",
"[+	c #553516",
"}+	c #5D3A19",
"|+	c #684019",
"1+	c #744417",
"2+	c #774517",
"3+	c #5F3C1A",
"4+	c #6C421B",
"5+	c #794718",
"6+	c #7F4A17",
"7+	c #7D4818",
"8+	c #7E4A18",
"9+	c #804B18",
"0+	c #754417",
"a+	c #7F4917",
"b+	c #5E3A19",
"c+	c #734417",
"d+	c #784517",
"e+	c #613A17",
"f+	c #693E15",
"g+	c #6C3F15",
"h+	c #6D4015",
"i+	c #673C15",
"j+	c #533214",
"k+	c #553313",
"l+	c #593412",
"m+	c #5B3512",
"n+	c #5A3512",
"o+	c #593513",
"p+	c #563315",
"q+	c #633C1A",
"r+	c #513114",
"s+	c #4F2F11",
"t+	c #533215",
"u+	c #633D1A",
"v+	c #492C0F",
"w+	c #482A0F",
"x+	c #4E2F10",
"y+	c #4E2F11",
"z+	c #503112",
"A+	c #4F3013",
"B+	c #4C2E13",
"C+	c #5D3917",
"D+	c #503218",
"E+	c #643E19",
"F+	c #674019",
"G+	c #623E1A",
"H+	c #66401B",
"I+	c #673F1B",
"J+	c #754818",
"K+	c #905814",
"L+	c #68401B",
"M+	c #6B421B",
"N+	c #653F1B",
"O+	c #683F1A",
"P+	c #8C5314",
"Q+	c #D07C08",
"R+	c #D07C09",
"S+	c #8B5314",
"T+	c #6C4019",
"U+	c #653F1A",
"V+	c #6B3F1A",
"W+	c #965812",
"X+	c #E78904",
"Y+	c #E78905",
"Z+	c #955812",
"`+	c #704118",
" @	c #663F1A",
".@	c #6F4119",
"+@	c #945612",
"@@	c #D87F06",
"#@	c #D87F07",
"$@	c #935612",
"%@	c #744318",
"&@	c #864E15",
"*@	c #A25F10",
"=@	c #A15E10",
"-@	c #854E15",
";@	c #7C4916",
">@	c #7B4816",
",@	c #643D19",
"'@	c #6D4017",
")@	c #653C18",
"!@	c #6C3F17",
"~@	c #704317",
"{@	c #5D3817",
"]@	c #603916",
"^@	c #613B16",
"/@	c #563415",
"(@	c #7B4818",
"_@	c #4D2D10",
":@	c #4A2C10",
"<@	c #4F2F13",
"[@	c #533416",
"}@	c #523316",
"|@	c #513115",
"1@	c #513216",
". + @ # $ % & * * = - % % % % % % - * * - ; > , ' ) ! ~ ~ { ] ^ ",
". . . / = ( * * * * _ : _ _ _ : : : * * _ : < [ - ) } | | 1 2 = ",
"+ 3 4 5 6 7 8 * 9 0 2 a b a a a a c _ _ ) d e f : g h i i j k l ",
"m n o p q r s = t u v w x y y w z A B B C D E F G s H I J K L M ",
"N O P Q R S T - U V W X X Y Y X Z `  . ...+.R @.#.s $.%.&.*.=.-.",
";.4 >.,.'.).!.- ~.{.].^./.(.(.^._.:.]  .<.[.}.|.1.s 2.3.4.5.6.7.",
";.O 8.9.0.a.!.- ~.{.b.^.c.c.c.(.d.1 ]  .{ e.0.f.1.s g.h.i.j.k.l.",
"N m.n.o.p.f.!.- ~.q.r.Z s.X X s.t.u.]  .v.w.x.S 1.s g.4.i.j.y.l.",
"N m.n.o.p.f.T - z.V A.W W p p W r.B. . .v.w.C.S 1.s g.D.E.F.G.l.",
"N m.n.o.p.f.T & H.I.J.K.K.K.K.K.L.M.< ] v.w.C.S 1.s g.D.E.F.G.l.",
"N m.n.o.p.f.N.& O.P.P.P.P.P.P.P.Q.z.R.S.{ w.C.S 1.s g.D.E.F.G.l.",
"N m.n.o.p.f.!.T.U.V.W.X.X.X.X.X.X.Y.& Z.{ w.C.S 1.s g.D.E.F.G.l.",
"N m.n.o.p.a.f `. +.+++@+@+@+@+@+#+$+%+) ! w.C.S 1.s g.D.E.F.G.l.",
"N m.n.o.p.a.f `.&+*+=+&+&+&+&+&+*+-+%+) ! w.C.S 1.s g.D.E.F.G.l.",
"N m.n.o.p.a.f `. +;+>+,+,+,+,+,+'+)+!+Z.{ w.C.S 1.s g.D.E.F.G.l.",
"N m.n.o.p.f.!.~+{+]+^+/+(+(+(+/+_+:+<+] v.w.C.S 1.s g.D.E.F.G.l.",
"N m.n.o.p.f.N.[+}+|+1+7.2+2+2+X t.!  . .v.w.C.S 1.s g.D.E.F.G.l.",
"N m.n.o.p.f.T & 3+4+5+6+7+7+7+8+9+0+S. .v.w.C.S 1.s g.D.E.F.G.l.",
"N m.n.o.p.f.T & 3+4+5+a+7+7+7+8+9+0+S. .v.w.C.S 1.s g.D.E.F.G.l.",
"N m.n.o.p.f.N.[+b+V c+7.d+2+2+X t.z  . .v.w.C.S 1.s g.D.E.F.G.l.",
"N m.n.o.p.f.!.~+B e+f+_+g+g+g+g+h+i+<+] v.w.C.S 1.s g.D.E.F.G.l.",
"N m.n.o.p.a.f `.j+k+l+m+m+n+n+m+n+o+p+Z.{ w.C.S 1.s g.D.E.F.G.l.",
"N m.n.o.p.a.q+r+s+. =+*+*+*+*+*+. &+t+c ! w.C.S 1.s g.D.E.F.G.l.",
"N m.n.o.p.a.u+r++ @ v+v+v+v+v+v+w+# > c ! w.C.S 1.s g.D.E.F.G.l.",
"N m.n.o.p.a.u+r++ @ v+v+v+v+v+v+w+# > c ! w.C.S 1.s g.D.E.F.G.l.",
"N m.n.o.p.a.q+r+s+. =+*+*+*+*+*+. &+t+c ! w.C.S 1.s g.D.E.F.G.l.",
"N m.n.o.p.a.f `.j+k+l+m+m+n+n+m+n+o+p+Z.{ w.C.S 1.s g.D.E.F.G.l.",
"N m.n.o.p.f.!.~+B e+f+_+g+g+g+g+h+i+<+] v.w.C.S 1.s g.D.E.F.G.l.",
"N m.n.o.p.f.N.[+b+V c+7.d+2+2+X t.z  . .v.w.C.S 1.s g.D.E.F.G.l.",
"N m.n.o.p.f.T & 3+4+5+a+7+7+7+8+9+0+S. .v.w.C.S 1.s g.D.E.F.G.l.",
"N m.n.o.p.f.T & 3+4+5+6+7+7+7+8+9+0+S. .v.w.C.S 1.s g.D.E.F.G.l.",
"N m.n.o.p.f.N.[+}+|+1+7.2+2+2+X t.!  . .v.w.C.S 1.s g.D.E.F.G.l.",
"N m.n.o.p.f.!.~+{+]+^+/+(+(+(+/+_+:+<+] v.w.C.S 1.s g.D.E.F.G.l.",
"N m.n.o.p.a.f `. +;+>+,+'+'+,+,+'+)+!+Z.{ w.C.S 1.s g.D.E.F.G.l.",
"N m.n.o.p.a.f `.&+x+*+s+y+y+s+*+*+-+%+) ! w.C.S 1.s g.D.E.F.G.l.",
"N m.n.o.p.a.f `. +.+z+A+B+B+A+++#+$+%+) ! w.C.S 1.s g.D.E.F.G.l.",
"N m.n.o.p.f.!.T.U.C+0 R.D+D+R.W.X.Y.& Z.{ w.C.S 1.s g.D.E.F.G.l.",
"N m.n.o.p.f.N.& O.Q.u+E+F+F+E+G+P.z.R.S.{ w.C.S 1.s g.D.E.F.G.l.",
"N m.n.o.p.f.T & H.H+I+J+K+K+J+L+M+M.< ] v.w.C.S 1.s g.D.E.F.G.l.",
"N m.n.o.p.f.T - z.N+O+P+Q+R+S+T+p B. . .v.w.C.S 1.s g.D.E.F.G.l.",
"N m.n.o.p.f.!.- ~.U+V+W+X+Y+Z+`+X u.]  .v.w.x.S 1.s g.4.i.j.y.l.",
";.O 8.9.0.a.!.- ~. @.@+@@@#@$@%@c.1 ]  .{ e.0.f.1.s g.h.i.j.k.l.",
";.4 >.,.'.).!.- ~.{.r.&@*@=@-@t.^.:.]  .<.[.}.|.1.s 2.3.4.5.6.7.",
"N O P Q R S T - U V W t.;@>@X X t.`  . ...+.R @.#.s $.%.&.*.=.-.",
"m n o p q r s = t ,@B.'@)@)@!@z ~@A B B C D E F G s H I J K L M ",
"+ 3 4 5 6 7 8 * 9 {@]@]@{@{@2 ^@^@c _ _ ) d e f : g h i i j k l ",
". . . -+/@< * * * * * * * * * _ _ : * * _ : < * - ) } (@(@1 c = ",
". _@v+:@<@t+& * = - [@; ' ' ; ; ; - * * - }@|@|@' ) { 7.7.v.B 1@",
". _@v+:@<@t+& * = - [@; ' ' ; ; ; - * * - }@|@|@' ) { 7.7.v.B 1@",
". . . -+/@< * * * * * * * * * _ _ : * * _ : < * - ) } (@(@1 c = ",
"+ 3 4 5 6 7 8 * 9 {@]@]@{@{@2 ^@^@c _ _ ) d e f : g h i i j k l ",
"m n o p q r s = t ,@B.'@)@)@!@z ~@A B B C D E F G s H I J K L M ",
"N O P Q R S T - U V W t.;@>@X X t.`  . ...+.R @.#.s $.%.&.*.=.-.",
";.4 >.,.'.).!.- ~.{.r.&@*@=@-@t.^.:.]  .<.[.}.|.1.s 2.3.4.5.6.7.",
";.O 8.9.0.a.!.- ~. @.@+@@@#@$@%@c.1 ]  .{ e.0.f.1.s g.h.i.j.k.l.",
"N m.n.o.p.f.!.- ~.U+V+W+X+Y+Z+`+X u.]  .v.w.x.S 1.s g.4.i.j.y.l.",
"N m.n.o.p.f.T - z.N+O+P+Q+R+S+T+p B. . .v.w.C.S 1.s g.D.E.F.G.l.",
"N m.n.o.p.f.T & H.H+I+J+K+K+J+L+M+M.< ] v.w.C.S 1.s g.D.E.F.G.l.",
"N m.n.o.p.f.N.& O.Q.u+E+F+F+E+G+P.z.R.S.{ w.C.S 1.s g.D.E.F.G.l.",
"N m.n.o.p.f.!.T.U.C+0 R.D+D+R.W.X.Y.& Z.{ w.C.S 1.s g.D.E.F.G.l.",
"N m.n.o.p.a.f `. +.+z+A+B+B+A+++#+$+%+) ! w.C.S 1.s g.D.E.F.G.l.",
"N m.n.o.p.a.f `.&+x+*+s+y+y+s+*+*+-+%+) ! w.C.S 1.s g.D.E.F.G.l.",
"N m.n.o.p.a.f `. +;+>+,+,+,+,+,+'+)+!+Z.{ w.C.S 1.s g.D.E.F.G.l.",
"N m.n.o.p.f.!.~+{+]+^+/+(+(+(+/+_+:+<+] v.w.C.S 1.s g.D.E.F.G.l.",
"N m.n.o.p.f.N.[+}+|+1+7.2+2+2+X t.!  . .v.w.C.S 1.s g.D.E.F.G.l.",
"N m.n.o.p.f.T & 3+4+5+6+7+7+7+8+9+0+S. .v.w.C.S 1.s g.D.E.F.G.l.",
"N m.n.o.p.f.T & 3+4+5+a+7+7+7+8+9+0+S. .v.w.C.S 1.s g.D.E.F.G.l.",
"N m.n.o.p.f.N.[+b+V c+7.d+2+2+X t.z  . .v.w.C.S 1.s g.D.E.F.G.l.",
"N m.n.o.p.f.!.~+B e+f+_+g+g+g+g+h+i+<+] v.w.C.S 1.s g.D.E.F.G.l.",
"N m.n.o.p.a.f `.j+k+l+m+m+n+n+m+n+o+p+Z.{ w.C.S 1.s g.D.E.F.G.l.",
"N m.n.o.p.a.q+r+s+. =+*+*+*+*+*+. &+t+c ! w.C.S 1.s g.D.E.F.G.l.",
"N m.n.o.p.a.u+r++ @ v+v+v+v+v+v+w+# > c ! w.C.S 1.s g.D.E.F.G.l.",
"N m.n.o.p.a.u+r++ @ v+v+v+v+v+v+w+# > c ! w.C.S 1.s g.D.E.F.G.l.",
"N m.n.o.p.a.q+r+s+. =+*+*+*+*+*+. &+t+c ! w.C.S 1.s g.D.E.F.G.l.",
"N m.n.o.p.a.f `.j+k+l+m+m+n+n+m+n+o+p+Z.{ w.C.S 1.s g.D.E.F.G.l.",
"N m.n.o.p.f.!.~+B e+f+_+g+g+g+g+h+i+<+] v.w.C.S 1.s g.D.E.F.G.l.",
"N m.n.o.p.f.N.[+b+V c+7.d+2+2+X t.z  . .v.w.C.S 1.s g.D.E.F.G.l.",
"N m.n.o.p.f.T & 3+4+5+a+7+7+7+8+9+0+S. .v.w.C.S 1.s g.D.E.F.G.l.",
"N m.n.o.p.f.T & 3+4+5+6+7+7+7+8+9+0+S. .v.w.C.S 1.s g.D.E.F.G.l.",
"N m.n.o.p.f.N.[+}+|+1+7.2+2+2+X t.!  . .v.w.C.S 1.s g.D.E.F.G.l.",
"N m.n.o.p.f.!.~+{+]+^+/+(+(+(+/+_+:+<+] v.w.C.S 1.s g.D.E.F.G.l.",
"N m.n.o.p.a.f `. +;+>+,+,+,+,+,+'+)+!+Z.{ w.C.S 1.s g.D.E.F.G.l.",
"N m.n.o.p.a.f `.&+*+=+&+&+&+&+&+*+-+%+) ! w.C.S 1.s g.D.E.F.G.l.",
"N m.n.o.p.a.f `. +.+++@+@+@+@+@+#+$+%+) ! w.C.S 1.s g.D.E.F.G.l.",
"N m.n.o.p.f.!.T.U.V.W.X.X.X.X.X.X.Y.& Z.{ w.C.S 1.s g.D.E.F.G.l.",
"N m.n.o.p.f.N.& O.P.P.P.P.P.P.P.Q.z.R.S.{ w.C.S 1.s g.D.E.F.G.l.",
"N m.n.o.p.f.T & H.I.J.K.K.K.K.K.L.M.< ] v.w.C.S 1.s g.D.E.F.G.l.",
"N m.n.o.p.f.T - z.V A.W W p p W r.B. . .v.w.C.S 1.s g.D.E.F.G.l.",
"N m.n.o.p.f.!.- ~.q.r.Z s.X X s.t.u.]  .v.w.x.S 1.s g.4.i.j.y.l.",
";.O 8.9.0.a.!.- ~.{.b.^.c.c.c.(.d.1 ]  .{ e.0.f.1.s g.h.i.j.k.l.",
";.4 >.,.'.).!.- ~.{.].^./.(.(.^._.:.]  .<.[.}.|.1.s 2.3.4.5.6.7.",
"N O P Q R S T - U V W X X Y Y X Z `  . ...+.R @.#.s $.%.&.*.=.-.",
"m n o p q r s = t u v w x y y w z A B B C D E F G s H I J K L M ",
"+ 3 4 5 6 7 8 * 9 0 2 a b a a a a c _ _ ) d e f : g h i i j k l ",
". . . / = ( * * * * _ : _ _ _ : : : * * _ : < [ - ) } | | 1 2 = ",
". + @ # $ % & * * = - % % % % % % - * * - ; > , ' ) ! ~ ~ { ] ^ "};
