/* XPM */
static const char * door_v_3_xpm[] = {
"32 96 306 2",
"  	c None",
". 	c #513316",
"+ 	c #5C3716",
"@ 	c #704116",
"# 	c #7A4616",
"$ 	c #704216",
"% 	c #5E3816",
"& 	c #543316",
"* 	c #523315",
"= 	c #523215",
"- 	c #533316",
"; 	c #553416",
"> 	c #573516",
", 	c #543416",
"' 	c #563416",
") 	c #563516",
"! 	c #503014",
"~ 	c #4B2D11",
"{ 	c #4A2C0F",
"] 	c #4D2E10",
"^ 	c #4E2E10",
"/ 	c #5F3916",
"( 	c #724317",
"_ 	c #7C4818",
": 	c #714317",
"< 	c #573616",
"[ 	c #583617",
"} 	c #583616",
"| 	c #583516",
"1 	c #593617",
"2 	c #513012",
"3 	c #5F3816",
"4 	c #673D17",
"5 	c #78471A",
"6 	c #814C1B",
"7 	c #75461A",
"8 	c #5E3917",
"9 	c #633C19",
"0 	c #673F1A",
"a 	c #623C17",
"b 	c #5E3916",
"c 	c #613A16",
"d 	c #613916",
"e 	c #5C3817",
"f 	c #593717",
"g 	c #5A3717",
"h 	c #643D1A",
"i 	c #653D19",
"j 	c #5E3714",
"k 	c #573311",
"l 	c #502F10",
"m 	c #6D4016",
"n 	c #734519",
"o 	c #814E1E",
"p 	c #895421",
"q 	c #8A5421",
"r 	c #7C4B1E",
"s 	c #5E3918",
"t 	c #5C3818",
"u 	c #75481E",
"v 	c #7E4C1F",
"w 	c #744519",
"x 	c #683E16",
"y 	c #5A3716",
"z 	c #693E17",
"A 	c #704217",
"B 	c #6F4217",
"C 	c #6E4117",
"D 	c #6F4117",
"E 	c #6C4017",
"F 	c #633D19",
"G 	c #5B3918",
"H 	c #76491F",
"I 	c #7C4C1F",
"J 	c #724418",
"K 	c #643A14",
"L 	c #533211",
"M 	c #4C2D10",
"N 	c #764416",
"O 	c #7B491A",
"P 	c #875221",
"Q 	c #8E5824",
"R 	c #905824",
"S 	c #804E21",
"T 	c #5E3A18",
"U 	c #804F22",
"V 	c #8B5522",
"W 	c #7E4B1A",
"X 	c #6E4116",
"Y 	c #5B3716",
"Z 	c #704117",
"` 	c #794717",
" .	c #784617",
"..	c #774617",
"+.	c #734418",
"@.	c #68401A",
"#.	c #5D3B19",
"$.	c #613B19",
"%.	c #815022",
"&.	c #7F4B1A",
"*.	c #6D3F15",
"=.	c #563311",
"-.	c #4B2C10",
";.	c #794616",
">.	c #7E4A1A",
",.	c #8A5422",
"'.	c #905926",
").	c #925A26",
"!.	c #814F22",
"~.	c #5F3A18",
"{.	c #845223",
"].	c #915823",
"^.	c #834D1A",
"/.	c #714216",
"(.	c #734317",
"_.	c #7E4917",
":.	c #7D4817",
"<.	c #7C4717",
"[.	c #7C4817",
"}.	c #774618",
"|.	c #69411A",
"1.	c #5E3B19",
"2.	c #623C19",
"3.	c #855223",
"4.	c #925823",
"5.	c #844E1B",
"6.	c #704115",
"7.	c #4B2C0F",
"8.	c #774516",
"9.	c #7D4A1A",
"0.	c #885322",
"a.	c #8F5826",
"b.	c #915926",
"c.	c #804F21",
"d.	c #825022",
"e.	c #8F5623",
"f.	c #814C1A",
"g.	c #7E4817",
"h.	c #7B4717",
"i.	c #764518",
"j.	c #835122",
"k.	c #824C1B",
"l.	c #6F4015",
"m.	c #7C4A1A",
"n.	c #8D5522",
"o.	c #804B1A",
"p.	c #6F4116",
"q.	c #714217",
"r.	c #7A4717",
"s.	c #794617",
"t.	c #744518",
"u.	c #69401A",
"v.	c #8D5623",
"w.	c #804C1A",
"x.	c #6E4015",
"y.	c #563211",
"z.	c #7C491A",
"A.	c #885321",
"B.	c #8F5825",
"C.	c #905925",
"D.	c #8C5522",
"E.	c #6D4117",
"F.	c #704418",
"G.	c #5F3B19",
"H.	c #663F19",
"I.	c #6C431A",
"J.	c #6B421A",
"K.	c #6A421A",
"L.	c #67401B",
"M.	c #603C19",
"N.	c #5C3816",
"O.	c #573617",
"P.	c #643E1A",
"Q.	c #633E1A",
"R.	c #5F3B18",
"S.	c #613C19",
"T.	c #5D3816",
"U.	c #583717",
"V.	c #5A3817",
"W.	c #5B3817",
"X.	c #5C3917",
"Y.	c #5A3816",
"Z.	c #553415",
"`.	c #533315",
" +	c #513113",
".+	c #4F3012",
"++	c #503013",
"@+	c #503012",
"#+	c #523112",
"$+	c #523113",
"%+	c #523214",
"&+	c #513011",
"*+	c #4F2F10",
"=+	c #502F11",
"-+	c #4F2E10",
";+	c #553315",
">+	c #583312",
",+	c #593411",
"'+	c #583411",
")+	c #573312",
"!+	c #533112",
"~+	c #593616",
"{+	c #663C15",
"]+	c #6D4014",
"^+	c #6C3F14",
"/+	c #6B3F14",
"(+	c #683E15",
"_+	c #5F3A16",
":+	c #593716",
"<+	c #543415",
"[+	c #774517",
"}+	c #744417",
"|+	c #684019",
"1+	c #5D3A19",
"2+	c #553516",
"3+	c #754417",
"4+	c #804B18",
"5+	c #7E4A18",
"6+	c #7D4818",
"7+	c #7F4A17",
"8+	c #794718",
"9+	c #6C421B",
"0+	c #5F3C1A",
"a+	c #7F4917",
"b+	c #784517",
"c+	c #734417",
"d+	c #5E3A19",
"e+	c #673C15",
"f+	c #6D4015",
"g+	c #6C3F15",
"h+	c #693E15",
"i+	c #613A17",
"j+	c #563315",
"k+	c #593513",
"l+	c #5A3512",
"m+	c #5B3512",
"n+	c #593412",
"o+	c #553313",
"p+	c #533214",
"q+	c #533215",
"r+	c #4F2F11",
"s+	c #513114",
"t+	c #633C1A",
"u+	c #482A0F",
"v+	c #492C0F",
"w+	c #633D1A",
"x+	c #4E2F11",
"y+	c #4E2F10",
"z+	c #4F3013",
"A+	c #4C2E13",
"B+	c #503112",
"C+	c #503218",
"D+	c #5D3917",
"E+	c #623E1A",
"F+	c #643E19",
"G+	c #674019",
"H+	c #6B421B",
"I+	c #68401B",
"J+	c #754818",
"K+	c #905814",
"L+	c #673F1B",
"M+	c #66401B",
"N+	c #6C4019",
"O+	c #8B5314",
"P+	c #D07C09",
"Q+	c #D07C08",
"R+	c #8C5314",
"S+	c #683F1A",
"T+	c #653F1B",
"U+	c #704118",
"V+	c #955812",
"W+	c #E78905",
"X+	c #E78904",
"Y+	c #965812",
"Z+	c #6B3F1A",
"`+	c #653F1A",
" @	c #744318",
".@	c #935612",
"+@	c #D87F07",
"@@	c #D87F06",
"#@	c #945612",
"$@	c #6F4119",
"%@	c #663F1A",
"&@	c #854E15",
"*@	c #A15E10",
"=@	c #A25F10",
"-@	c #864E15",
";@	c #7B4816",
">@	c #7C4916",
",@	c #704317",
"'@	c #6C3F17",
")@	c #653C18",
"!@	c #6D4017",
"~@	c #643D19",
"{@	c #613B16",
"]@	c #5D3817",
"^@	c #603916",
"/@	c #7B4818",
"(@	c #563415",
"_@	c #513216",
":@	c #513115",
"<@	c #523316",
"[@	c #533416",
"}@	c #4F2F13",
"|@	c #4A2C10",
"1@	c #4D2D10",
". + @ # # $ % & * = - ; > > ; , , , , , , ; ' > > ) , ! ~ { ] ^ ",
"' / ( _ _ : % ; < [ } | > > } } } | | | } | > > > > 1 ' 2 ^ ^ ^ ",
"3 4 5 6 6 7 8 } 9 0 a % | | b c c c c d c / e f > g h i j k l ] ",
"m n o p q r s t u v w x y y z A B C C D B E F G ' s H I J K L M ",
"N O P Q R S s T U V W X Y Y Z `  ..... . .+.@.#.; $.%.V &.*.=.-.",
";.>.,.'.).!.s ~.{.].^./.Y + (._.:.<.<.[.:.}.|.1.; 2.3.4.5.6.k 7.",
"8.9.0.a.b.c.s ~.d.e.f.@ Y + ( g.<.h.h.h.:.i.|.1.; 2.j.e.k.l.=.7.",
"8.m.0.a.'.c.s ~.%.n.o.p.Y + q.r.s. . .s.` t.u.1.; 2.d.v.w.x.y.-.",
"8.z.A.B.C.c.s ~.%.D.o.p.Y Y E.t.+.J J +.+.F.@.G.; $.d.v.w.x.y.-.",
"8.z.A.B.C.c.s ~.%.D.o.p.+ [ H.I.J.J.J.J.J.K.L.M.) $.d.v.w.x.y.-.",
"8.z.A.B.C.c.s ~.%.D.o.@ N.O.G.P.Q.Q.Q.Q.Q.Q.Q.R.) S.d.v.w.x.y.-.",
"8.z.A.B.C.c.s ~.%.D.o.@ T.) U.V.V.V.V.V.V.W.X.Y.Z.2.d.v.w.x.y.-.",
"8.z.A.B.C.c.s ~.%.D.o.$ % `. +.+++++++++++@+#+$+%+9 j.v.w.x.y.-.",
"8.z.A.B.C.c.s ~.%.D.o.$ % `.&+*+=+=+=+=+=+-+*+=+%+9 j.v.w.x.y.-.",
"8.z.A.B.C.c.s ~.%.D.o.@ T.;+>+,+'+'+'+'+'+)+!+$+%+9 j.v.w.x.y.-.",
"8.z.A.B.C.c.s ~.%.D.o.p.+ ~+{+]+^+/+/+/+^+(+_+:+<+2.d.v.w.x.y.-.",
"8.z.A.B.C.c.s ~.%.D.o.p.Y Y $ r. .[+[+[+;.}+|+1+2+S.d.v.w.x.y.-.",
"8.z.A.B.C.c.s ~.%.D.o.p.Y N.3+4+5+6+6+6+7+8+9+0+) $.d.v.w.x.y.-.",
"8.z.A.B.C.c.s ~.%.D.o.p.Y N.3+4+5+6+6+6+a+8+9+0+) $.d.v.w.x.y.-.",
"8.z.A.B.C.c.s ~.%.D.o.p.Y Y A r. .[+[+b+;.c+@.d+2+S.d.v.w.x.y.-.",
"8.z.A.B.C.c.s ~.%.D.o.p.+ ~+e+f+g+g+g+g+]+h+i+y <+2.d.v.w.x.y.-.",
"8.z.A.B.C.c.s ~.%.D.o.@ T.j+k+l+m+l+l+m+m+n+o+p+%+9 j.v.w.x.y.-.",
"8.z.A.B.C.c.s ~.%.D.o.$ b q+=+^ *+*+*+*+*+-+^ r+s+t+j.v.w.x.y.-.",
"8.z.A.B.C.c.s ~.%.D.o.$ b = ~ u+v+v+v+v+v+v+{ ] s+w+j.v.w.x.y.-.",
"8.z.A.B.C.c.s ~.%.D.o.$ b = ~ u+v+v+v+v+v+v+{ ] s+w+j.v.w.x.y.-.",
"8.z.A.B.C.c.s ~.%.D.o.$ b q+=+^ *+*+*+*+*+-+^ r+s+t+j.v.w.x.y.-.",
"8.z.A.B.C.c.s ~.%.D.o.@ T.j+k+l+m+l+l+m+m+n+o+p+%+9 j.v.w.x.y.-.",
"8.z.A.B.C.c.s ~.%.D.o.p.+ ~+e+f+g+g+g+g+]+h+i+y <+2.d.v.w.x.y.-.",
"8.z.A.B.C.c.s ~.%.D.o.p.Y Y A r. .[+[+b+;.c+@.d+2+S.d.v.w.x.y.-.",
"8.z.A.B.C.c.s ~.%.D.o.p.Y N.3+4+5+6+6+6+a+8+9+0+) $.d.v.w.x.y.-.",
"8.z.A.B.C.c.s ~.%.D.o.p.Y N.3+4+5+6+6+6+7+8+9+0+) $.d.v.w.x.y.-.",
"8.z.A.B.C.c.s ~.%.D.o.p.Y Y $ r. .[+[+[+;.}+|+1+2+S.d.v.w.x.y.-.",
"8.z.A.B.C.c.s ~.%.D.o.p.+ ~+{+]+^+/+/+/+^+(+_+:+<+2.d.v.w.x.y.-.",
"8.z.A.B.C.c.s ~.%.D.o.@ T.;+>+,+'+'+,+,+'+)+!+$+%+9 j.v.w.x.y.-.",
"8.z.A.B.C.c.s ~.%.D.o.$ % `.&+*+*+r+x+x+r+*+y+=+%+9 j.v.w.x.y.-.",
"8.z.A.B.C.c.s ~.%.D.o.$ % `. +.+@+z+A+A+z+B+#+$+%+9 j.v.w.x.y.-.",
"8.z.A.B.C.c.s ~.%.D.o.@ T.) U.V.W.O.C+C+O.e D+Y.Z.2.d.v.w.x.y.-.",
"8.z.A.B.C.c.s ~.%.D.o.@ N.O.G.Q.E+F+G+G+F+w+P.R.) S.d.v.w.x.y.-.",
"8.z.A.B.C.c.s ~.%.D.o.p.+ [ H.H+I+J+K+K+J+L+M+M.) $.d.v.w.x.y.-.",
"8.z.A.B.C.c.s ~.%.D.o.p.Y Y E.J N+O+P+Q+R+S+T+G.; $.d.v.w.x.y.-.",
"8.m.0.a.'.c.s ~.%.n.o.p.Y + q. .U+V+W+X+Y+Z+`+1.; 2.d.v.w.x.y.-.",
"8.9.0.a.b.c.s ~.d.e.f.@ Y + ( h. @.@+@@@#@$@%@1.; 2.j.e.k.l.=.7.",
";.>.,.'.).!.s ~.{.].^./.Y + (.:.r.&@*@=@-@t.|.1.; 2.3.4.5.6.k 7.",
"N O P Q R S s T U V W X Y Y Z r. . .;@>@r.+.@.#.; $.%.V &.*.=.-.",
"m n o p q r s t u v w x y y z ,@A '@)@)@!@E.~@G ' s H I J K L M ",
"3 4 5 6 6 7 8 } 9 0 a % | | b {@{@/ ]@]@^@^@]@f > g h i j k l ] ",
"' b ( /@/@: % ; > [ } | > > } | | > > > > > > > > > [ (@&+^ ^ ^ ",
"_@y p.;.;.@ % & :@:@<@; > > ; - - - & & - [@; ' > ) q+}@|@v+1@^ ",
"_@y p.;.;.@ % & :@:@<@; > > ; - - - & & - [@; ' > ) q+}@|@v+1@^ ",
"' b ( /@/@: % ; > [ } | > > } | | > > > > > > > > > [ (@&+^ ^ ^ ",
"3 4 5 6 6 7 8 } 9 0 a % | | b {@{@/ ]@]@^@^@]@f > g h i j k l ] ",
"m n o p q r s t u v w x y y z ,@A '@)@)@!@E.~@G ' s H I J K L M ",
"N O P Q R S s T U V W X Y Y Z r. . .;@>@r.+.@.#.; $.%.V &.*.=.-.",
";.>.,.'.).!.s ~.{.].^./.Y + (.:.r.&@*@=@-@t.|.1.; 2.3.4.5.6.k 7.",
"8.9.0.a.b.c.s ~.d.e.f.@ Y + ( h. @.@+@@@#@$@%@1.; 2.j.e.k.l.=.7.",
"8.m.0.a.'.c.s ~.%.n.o.p.Y + q. .U+V+W+X+Y+Z+`+1.; 2.d.v.w.x.y.-.",
"8.z.A.B.C.c.s ~.%.D.o.p.Y Y E.J N+O+P+Q+R+S+T+G.; $.d.v.w.x.y.-.",
"8.z.A.B.C.c.s ~.%.D.o.p.+ [ H.H+I+J+K+K+J+L+M+M.) $.d.v.w.x.y.-.",
"8.z.A.B.C.c.s ~.%.D.o.@ N.O.G.Q.E+F+G+G+F+w+P.R.) S.d.v.w.x.y.-.",
"8.z.A.B.C.c.s ~.%.D.o.@ T.) U.V.W.O.C+C+O.e D+Y.Z.2.d.v.w.x.y.-.",
"8.z.A.B.C.c.s ~.%.D.o.$ % `. +.+@+z+A+A+z+B+#+$+%+9 j.v.w.x.y.-.",
"8.z.A.B.C.c.s ~.%.D.o.$ % `.&+*+*+r+x+x+r+*+y+=+%+9 j.v.w.x.y.-.",
"8.z.A.B.C.c.s ~.%.D.o.@ T.;+>+,+'+'+'+'+'+)+!+$+%+9 j.v.w.x.y.-.",
"8.z.A.B.C.c.s ~.%.D.o.p.+ ~+{+]+^+/+/+/+^+(+_+:+<+2.d.v.w.x.y.-.",
"8.z.A.B.C.c.s ~.%.D.o.p.Y Y $ r. .[+[+[+;.}+|+1+2+S.d.v.w.x.y.-.",
"8.z.A.B.C.c.s ~.%.D.o.p.Y N.3+4+5+6+6+6+7+8+9+0+) $.d.v.w.x.y.-.",
"8.z.A.B.C.c.s ~.%.D.o.p.Y N.3+4+5+6+6+6+a+8+9+0+) $.d.v.w.x.y.-.",
"8.z.A.B.C.c.s ~.%.D.o.p.Y Y A r. .[+[+b+;.c+@.d+2+S.d.v.w.x.y.-.",
"8.z.A.B.C.c.s ~.%.D.o.p.+ ~+e+f+g+g+g+g+]+h+i+y <+2.d.v.w.x.y.-.",
"8.z.A.B.C.c.s ~.%.D.o.@ T.j+k+l+m+l+l+m+m+n+o+p+%+9 j.v.w.x.y.-.",
"8.z.A.B.C.c.s ~.%.D.o.$ b q+=+^ *+*+*+*+*+-+^ r+s+t+j.v.w.x.y.-.",
"8.z.A.B.C.c.s ~.%.D.o.$ b = ~ u+v+v+v+v+v+v+{ ] s+w+j.v.w.x.y.-.",
"8.z.A.B.C.c.s ~.%.D.o.$ b = ~ u+v+v+v+v+v+v+{ ] s+w+j.v.w.x.y.-.",
"8.z.A.B.C.c.s ~.%.D.o.$ b q+=+^ *+*+*+*+*+-+^ r+s+t+j.v.w.x.y.-.",
"8.z.A.B.C.c.s ~.%.D.o.@ T.j+k+l+m+l+l+m+m+n+o+p+%+9 j.v.w.x.y.-.",
"8.z.A.B.C.c.s ~.%.D.o.p.+ ~+e+f+g+g+g+g+]+h+i+y <+2.d.v.w.x.y.-.",
"8.z.A.B.C.c.s ~.%.D.o.p.Y Y A r. .[+[+b+;.c+@.d+2+S.d.v.w.x.y.-.",
"8.z.A.B.C.c.s ~.%.D.o.p.Y N.3+4+5+6+6+6+a+8+9+0+) $.d.v.w.x.y.-.",
"8.z.A.B.C.c.s ~.%.D.o.p.Y N.3+4+5+6+6+6+7+8+9+0+) $.d.v.w.x.y.-.",
"8.z.A.B.C.c.s ~.%.D.o.p.Y Y $ r. .[+[+[+;.}+|+1+2+S.d.v.w.x.y.-.",
"8.z.A.B.C.c.s ~.%.D.o.p.+ ~+{+]+^+/+/+/+^+(+_+:+<+2.d.v.w.x.y.-.",
"8.z.A.B.C.c.s ~.%.D.o.@ T.;+>+,+'+'+'+'+'+)+!+$+%+9 j.v.w.x.y.-.",
"8.z.A.B.C.c.s ~.%.D.o.$ % `.&+*+=+=+=+=+=+-+*+=+%+9 j.v.w.x.y.-.",
"8.z.A.B.C.c.s ~.%.D.o.$ % `. +.+++++++++++@+#+$+%+9 j.v.w.x.y.-.",
"8.z.A.B.C.c.s ~.%.D.o.@ T.) U.V.V.V.V.V.V.W.X.Y.Z.2.d.v.w.x.y.-.",
"8.z.A.B.C.c.s ~.%.D.o.@ N.O.G.P.Q.Q.Q.Q.Q.Q.Q.R.) S.d.v.w.x.y.-.",
"8.z.A.B.C.c.s ~.%.D.o.p.+ [ H.I.J.J.J.J.J.K.L.M.) $.d.v.w.x.y.-.",
"8.z.A.B.C.c.s ~.%.D.o.p.Y Y E.t.+.J J +.+.F.@.G.; $.d.v.w.x.y.-.",
"8.m.0.a.'.c.s ~.%.n.o.p.Y + q.r.s. . .s.` t.u.1.; 2.d.v.w.x.y.-.",
"8.9.0.a.b.c.s ~.d.e.f.@ Y + ( g.<.h.h.h.:.i.|.1.; 2.j.e.k.l.=.7.",
";.>.,.'.).!.s ~.{.].^./.Y + (._.:.<.<.[.:.}.|.1.; 2.3.4.5.6.k 7.",
"N O P Q R S s T U V W X Y Y Z `  ..... . .+.@.#.; $.%.V &.*.=.-.",
"m n o p q r s t u v w x y y z A B C C D B E F G ' s H I J K L M ",
"3 4 5 6 6 7 8 } 9 0 a % | | b c c c c d c / e f > g h i j k l ] ",
"' / ( _ _ : % ; < [ } | > > } } } | | | } | > > > > 1 ' 2 ^ ^ ^ ",
". + @ # # $ % & * = - ; > > ; , , , , , , ; ' > > ) , ! ~ { ] ^ "};
