/* XPM */
static const char * door_h_2_inv_xpm[] = {
"64 32 209 2",
"  	c None",
". 	c #4E2E10",
"+ 	c #4D2E10",
"@ 	c #4C2D10",
"# 	c #4B2C0F",
"$ 	c #4B2C10",
"% 	c #4F2F10",
"& 	c #543211",
"* 	c #573311",
"= 	c #563311",
"- 	c #563211",
"; 	c #4D2D10",
"> 	c #543111",
", 	c #673C14",
"' 	c #704115",
") 	c #6F4015",
"! 	c #6E4015",
"~ 	c #4A2C0F",
"{ 	c #4C2D11",
"] 	c #5A3513",
"^ 	c #764619",
"/ 	c #844E1B",
"( 	c #814C1B",
"_ 	c #804C1A",
": 	c #4B2D10",
"< 	c #513114",
"[ 	c #603A18",
"} 	c #814F20",
"| 	c #915823",
"1 	c #8E5623",
"2 	c #8D5623",
"3 	c #503013",
"4 	c #553416",
"5 	c #603B19",
"6 	c #7A4B20",
"7 	c #855223",
"8 	c #835122",
"9 	c #825022",
"0 	c #543315",
"a 	c #563516",
"b 	c #593617",
"c 	c #5F3A18",
"d 	c #623C19",
"e 	c #613B19",
"f 	c #633C19",
"g 	c #633D1A",
"h 	c #573516",
"i 	c #563416",
"j 	c #553415",
"k 	c #523214",
"l 	c #543415",
"m 	c #583617",
"n 	c #5C3A18",
"o 	c #5E3B19",
"p 	c #5F3B19",
"q 	c #603C19",
"r 	c #5C3917",
"s 	c #513012",
"t 	c #5A3817",
"u 	c #5F3C1A",
"v 	c #5B3817",
"w 	c #523113",
"x 	c #5A3717",
"y 	c #653E19",
"z 	c #69411A",
"A 	c #68401A",
"B 	c #66401B",
"C 	c #5E3B18",
"D 	c #503011",
"E 	c #513011",
"F 	c #623C17",
"G 	c #6B421B",
"H 	c #633C18",
"I 	c #533112",
"J 	c #5F3B18",
"K 	c #653F1B",
"L 	c #663F1A",
"M 	c #5B3717",
"N 	c #5D3816",
"O 	c #6E4117",
"P 	c #764618",
"Q 	c #764518",
"R 	c #714418",
"S 	c #68411A",
"T 	c #5D3A18",
"U 	c #4F2F11",
"V 	c #6C4016",
"W 	c #784718",
"X 	c #4F3011",
"Y 	c #5E3A18",
"Z 	c #663F1B",
"` 	c #693F1A",
" .	c #6E4019",
"..	c #744518",
"+.	c #6F4217",
"@.	c #543416",
"#.	c #5E3916",
"$.	c #724317",
"%.	c #7C4817",
"&.	c #754518",
"*.	c #4F2F12",
"=.	c #553211",
"-.	c #7E4917",
";.	c #714215",
">.	c #4E2F12",
",.	c #5A3818",
"'.	c #704519",
").	c #905513",
"!.	c #965712",
"~.	c #834C16",
"{.	c #704217",
"].	c #543316",
"^.	c #5E3816",
"/.	c #7B4817",
"(.	c #7B4717",
"_.	c #6F4115",
":.	c #7C4818",
"<.	c #704116",
"[.	c #4C2E12",
"}.	c #543519",
"|.	c #835116",
"1.	c #DA8206",
"2.	c #E08405",
"3.	c #965812",
"4.	c #693E18",
"5.	c #714317",
"6.	c #7A4717",
"7.	c #6F4116",
"8.	c #DA8207",
"9.	c #E08406",
"0.	c #955712",
"a.	c #8F5513",
"b.	c #824C16",
"c.	c #6F4117",
"d.	c #7D4918",
"e.	c #67401B",
"f.	c #6D4019",
"g.	c #734218",
"h.	c #734317",
"i.	c #7D4917",
"j.	c #7D4817",
"k.	c #6A421A",
"l.	c #4E2F11",
"m.	c #553210",
"n.	c #7F4A18",
"o.	c #714216",
"p.	c #492B0F",
"q.	c #69411B",
"r.	c #744418",
"s.	c #734417",
"t.	c #5C3816",
"u.	c #6B3F17",
"v.	c #643E19",
"w.	c #503012",
"x.	c #553212",
"y.	c #693E15",
"z.	c #744417",
"A.	c #6A3E16",
"B.	c #563312",
"C.	c #583516",
"D.	c #5A3716",
"E.	c #5C3716",
"F.	c #5B3716",
"G.	c #533315",
"H.	c #5A3616",
"I.	c #553315",
"J.	c #523215",
"K.	c #6A3F16",
"L.	c #704216",
"M.	c #5F3A17",
"N.	c #774719",
"O.	c #824D1A",
"P.	c #814C1A",
"Q.	c #804B1A",
"R.	c #533316",
"S.	c #824F20",
"T.	c #905823",
"U.	c #8C5522",
"V.	c #794A1F",
"W.	c #845223",
"X.	c #815022",
"Y.	c #5D3918",
"Z.	c #5E3917",
"`.	c #5E3918",
" +	c #744519",
".+	c #7D4C1F",
"++	c #814F22",
"@+	c #804F21",
"#+	c #7A4616",
"$+	c #7F4B1A",
"%+	c #925A26",
"&+	c #915926",
"*+	c #905925",
"=+	c #794616",
"-+	c #8B5522",
";+	c #905926",
">+	c #8F5826",
",+	c #8F5825",
"'+	c #834F1F",
")+	c #8A5422",
"!+	c #885322",
"~+	c #885321",
"{+	c #643C17",
"]+	c #7E4A1A",
"^+	c #7D4A1A",
"/+	c #7C491A",
"(+	c #523316",
"_+	c #774516",
":+	c #523216",
". + @ # # $ $ $ $ $ $ $ $ $ $ $ $ $ $ $ $ $ $ $ $ $ $ # # @ + . . + @ # # $ $ $ $ $ $ $ $ $ $ $ $ $ $ $ $ $ $ $ $ $ $ # # @ + . ",
"+ % & * = - - - - - - - - - - - - - - - - - - - - - - = * & % ; ; % & * = - - - - - - - - - - - - - - - - - - - - - - = * & % + ",
"# > , ' ) ! ! ! ! ! ! ! ! ! ! ! ! ! ! ! ! ! ! ! ! ! ! ) ' , > ~ ~ > , ' ) ! ! ! ! ! ! ! ! ! ! ! ! ! ! ! ! ! ! ! ! ! ! ) ' , > # ",
"{ ] ^ / ( _ _ _ _ _ _ _ _ _ _ _ _ _ _ _ _ _ _ _ _ _ _ ( / ^ ] : : ] ^ / ( _ _ _ _ _ _ _ _ _ _ _ _ _ _ _ _ _ _ _ _ _ _ ( / ^ ] { ",
"< [ } | 1 2 2 2 2 2 2 2 2 2 2 2 2 2 2 2 2 2 2 2 2 2 2 1 | } [ 3 3 [ } | 1 2 2 2 2 2 2 2 2 2 2 2 2 2 2 2 2 2 2 2 2 2 2 1 | } [ < ",
"4 5 6 7 8 9 9 9 8 8 9 9 9 9 8 8 8 8 9 9 9 9 8 8 9 9 9 8 7 6 5 0 0 5 6 7 8 9 9 9 8 8 9 9 9 9 8 8 8 8 9 9 9 9 8 8 9 9 9 8 7 6 5 4 ",
"a b c d d e e d f f d e e d f g g f d e e d f f d e e d d c b a a b c d d e e d f f d e e d f g g f d e e d f f d e e d d c b a ",
"h h i 4 4 4 a j k k l a a l k < < k l a a l k k j a 4 4 4 i h h h h i 4 4 4 a j k k l a a l k < < k l a a l k k j a 4 4 4 i h h ",
"h m n o o p q r s s t u u v w + + w v u u t s s r q p o o n m i i m n o o p q r s s t u u v w + + w v u u t s s r q p o o n m h ",
"i x y z z A B C D E F G G H I # # I H G G F E D J B K L z y M 4 4 M y z L K B J D E F G G H I # # I H G G F E D C B A z z y x i ",
"4 N O P Q R S T U > V W W V - ~ ~ - V W W V > X Y Z `  ...+.N @.@.N +... .` Z Y X > V W W V - ~ ~ - V W W V > U T S R Q P O N 4 ",
"4 #.$.%.%.&.z n *.=.' -.-.;.* ~ ~ * ;.-.-.' =.>.,.'.).!.~.{.N ].].N {.~.!.).'.,.>.=.' -.-.;.* ~ ~ * ;.-.-.' =.*.n z &.%.%.$.#.4 ",
"4 ^.$./.(.&.z n *.=._.:.:.<.* ~ ~ * <.:.:._.=.[.}.|.1.2.3.4.M ].].M 4.3.2.1.|.}.[.=._.:.:.<.* ~ ~ * <.:.:._.=.*.n z &.(./.$.^.4 ",
"4 ^.5.(.6...z n *.=._.:.:.7.* ~ ~ * 7.:.:._.=.[.}.|.8.9.0.4.M ].].M 4.0.9.8.|.}.[.=._.:.:.7.* ~ ~ * 7.:.:._.=.*.n z ..6.(.5.^.4 ",
"4 ^.5.(.6...z n *.=._.:.:.7.* ~ ~ * 7.:.:._.=.>.,.'.a.0.b.c.N ].].N c.b.0.a.'.,.>.=._.:.:.7.* ~ ~ * 7.:.:._.=.*.n z ..6.(.5.^.4 ",
"4 #.$.%.(.&.z n *.=.' d.d.<.* ~ ~ * <.d.d.' =.U T e.f.g.6.h.#.].].#.h.6.g.f.e.T U =.' d.d.<.* ~ ~ * <.d.d.' =.*.n z &.(.%.$.#.4 ",
"4 #.h.i.j.P k.T l.m.;.n.n.o.= p.p.= o.n.n.;.m.l.T q.r.6.j.s.#.].].#.s.j.6.r.q.T l.m.;.n.n.o.= p.p.= o.n.n.;.m.l.T k.P j.i.h.#.4 ",
"4 t.u.h.$.O v.,.w.x.y.z.z.A.B.{ { B.A.z.z.y.x.w.,.v.O $.h.u.t.4 4 t.u.h.$.O v.,.w.x.y.z.z.A.B.{ { B.A.z.z.y.x.w.,.v.O $.h.u.t.4 ",
"h C.D.E.E.F.m a G.0 H.t.t.H.I.J.J.I.H.t.t.H.0 G.a m F.E.E.D.C.h h C.D.E.E.F.m a G.0 H.t.t.H.I.J.J.I.H.t.t.H.0 G.a m F.E.E.D.C.h ",
"h C.D.F.F.F.E.N ^.N E.F.F.E.N #.#.N E.F.F.E.N ^.N E.F.F.F.D.C.h h C.D.F.F.F.E.N ^.N E.F.F.E.N #.#.N E.F.F.E.N ^.N E.F.F.F.D.C.h ",
"4 E.K.o.<.7.7.<.L.<.7.7.7.7.<.L.L.<.7.7.7.7.<.L.<.7.7.<.o.K.E.4 4 E.K.o.<.7.7.<.L.<.7.7.7.7.<.L.L.<.7.7.7.7.<.L.<.7.7.<.o.K.E.4 ",
"].M.N.O.P.Q.Q.Q.Q.Q.Q.Q.Q.Q.Q.Q.Q.Q.Q.Q.Q.Q.Q.Q.Q.Q.Q.P.O.N.M.R.R.M.N.O.P.Q.Q.Q.Q.Q.Q.Q.Q.Q.Q.Q.Q.Q.Q.Q.Q.Q.Q.Q.Q.Q.Q.P.O.N.M.].",
"G.d S.T.1 U.U.U.U.U.U.U.U.U.U.U.U.U.U.U.U.U.U.U.U.U.U.1 T.S.d J.J.d S.T.1 U.U.U.U.U.U.U.U.U.U.U.U.U.U.U.U.U.U.U.U.U.U.1 T.S.d G.",
"G.c V.W.9 X.X.X.X.X.X.X.X.X.X.X.X.X.X.X.X.X.X.X.X.X.X.9 W.V.c J.J.c V.W.9 X.X.X.X.X.X.X.X.X.X.X.X.X.X.X.X.X.X.X.X.X.X.9 W.V.c G.",
"].h Y.c c c c c c c c c c c c c c c c c c c c c c c c c c Y.h ].].h Y.c c c c c c c c c c c c c c c c c c c c c c c c c c Y.h ].",
"^.Z.`.`.`.`.`.`.`.`.`.`.`.`.`.`.`.`.`.`.`.`.`.`.`.`.`.`.`.`.Z.^.^.Z.`.`.`.`.`.`.`.`.`.`.`.`.`.`.`.`.`.`.`.`.`.`.`.`.`.`.`.`.Z.^.",
"L. +.+++@+@+@+@+@+@+@+@+@+@+@+@+@+@+@+@+@+@+@+@+@+@+@+@+++.+ +<.<. +.+++@+@+@+@+@+@+@+@+@+@+@+@+@+@+@+@+@+@+@+@+@+@+@+@+++.+ +L.",
"#+$+U.%+&+*+*+*+*+*+*+*+*+*+*+*+*+*+*+*+*+*+*+*+*+*+*+&+%+U.$+=+=+$+U.%+&+*+*+*+*+*+*+*+*+*+*+*+*+*+*+*+*+*+*+*+*+*+*+&+%+U.$+#+",
"#+$+-+;+>+,+,+,+,+,+,+,+,+,+,+,+,+,+,+,+,+,+,+,+,+,+,+>+;+-+$+=+=+$+-+;+>+,+,+,+,+,+,+,+,+,+,+,+,+,+,+,+,+,+,+,+,+,+,+>+;+-+$+#+",
"<.^ '+)+!+~+~+~+~+~+~+~+~+~+~+~+~+~+~+~+~+~+~+~+~+~+~+!+)+'+^ 7.7.^ '+)+!+~+~+~+~+~+~+~+~+~+~+~+~+~+~+~+~+~+~+~+~+~+~+!+)+'+^ <.",
"E.{+^ ]+^+/+/+/+/+/+/+/+/+/+/+/+/+/+/+/+/+/+/+/+/+/+/+^+]+^ {+F.F.{+^ ]+^+/+/+/+/+/+/+/+/+/+/+/+/+/+/+/+/+/+/+/+/+/+/+^+]+^ {+E.",
"(+E.<.=+_+_+_+_+_+_+_+_+_+_+_+_+_+_+_+_+_+_+_+_+_+_+_+_+=+<.E.:+:+E.<.=+_+_+_+_+_+_+_+_+_+_+_+_+_+_+_+_+_+_+_+_+_+_+_+_+=+<.E.(+"};
