/* XPM */
static const char * door_h_2_xpm[] = {
"64 32 209 2",
"  	c None",
". 	c #523316",
"+ 	c #5C3716",
"@ 	c #704116",
"# 	c #794616",
"$ 	c #774516",
"% 	c #523216",
"& 	c #643C17",
"* 	c #764619",
"= 	c #7E4A1A",
"- 	c #7D4A1A",
"; 	c #7C491A",
"> 	c #5B3716",
", 	c #834F1F",
"' 	c #8A5422",
") 	c #885322",
"! 	c #885321",
"~ 	c #6F4116",
"{ 	c #7A4616",
"] 	c #7F4B1A",
"^ 	c #8B5522",
"/ 	c #905926",
"( 	c #8F5826",
"_ 	c #8F5825",
": 	c #8C5522",
"< 	c #925A26",
"[ 	c #915926",
"} 	c #905925",
"| 	c #704216",
"1 	c #744519",
"2 	c #7D4C1F",
"3 	c #814F22",
"4 	c #804F21",
"5 	c #5E3816",
"6 	c #5E3917",
"7 	c #5E3918",
"8 	c #543316",
"9 	c #573516",
"0 	c #5D3918",
"a 	c #5F3A18",
"b 	c #533315",
"c 	c #794A1F",
"d 	c #845223",
"e 	c #825022",
"f 	c #815022",
"g 	c #523215",
"h 	c #623C19",
"i 	c #824F20",
"j 	c #905823",
"k 	c #8E5623",
"l 	c #5F3A17",
"m 	c #774719",
"n 	c #824D1A",
"o 	c #814C1A",
"p 	c #804B1A",
"q 	c #533316",
"r 	c #553416",
"s 	c #6A3F16",
"t 	c #714216",
"u 	c #583516",
"v 	c #5A3716",
"w 	c #5D3816",
"x 	c #5E3916",
"y 	c #583617",
"z 	c #563516",
"A 	c #543315",
"B 	c #5A3616",
"C 	c #5C3816",
"D 	c #553315",
"E 	c #6B3F17",
"F 	c #734317",
"G 	c #724317",
"H 	c #6E4117",
"I 	c #643E19",
"J 	c #5A3818",
"K 	c #503012",
"L 	c #553212",
"M 	c #693E15",
"N 	c #744417",
"O 	c #6A3E16",
"P 	c #563312",
"Q 	c #4C2D11",
"R 	c #7D4917",
"S 	c #7D4817",
"T 	c #764618",
"U 	c #6A421A",
"V 	c #5D3A18",
"W 	c #4E2F11",
"X 	c #553210",
"Y 	c #714215",
"Z 	c #7F4A18",
"` 	c #563311",
" .	c #492B0F",
"..	c #69411B",
"+.	c #744418",
"@.	c #7A4717",
"#.	c #734417",
"$.	c #7C4817",
"%.	c #7B4717",
"&.	c #754518",
"*.	c #69411A",
"=.	c #5C3A18",
"-.	c #4F2F12",
";.	c #553211",
">.	c #704115",
",.	c #7D4918",
"'.	c #573311",
").	c #4A2C0F",
"!.	c #4F2F11",
"~.	c #67401B",
"{.	c #6D4019",
"].	c #734218",
"^.	c #714317",
"/.	c #744518",
"(.	c #6F4115",
"_.	c #7C4818",
":.	c #4E2F12",
"<.	c #704519",
"[.	c #8F5513",
"}.	c #955712",
"|.	c #824C16",
"1.	c #6F4117",
"2.	c #4C2E12",
"3.	c #543519",
"4.	c #835116",
"5.	c #DA8207",
"6.	c #E08406",
"7.	c #693E18",
"8.	c #5B3717",
"9.	c #7B4817",
"0.	c #DA8206",
"a.	c #E08405",
"b.	c #965812",
"c.	c #7E4917",
"d.	c #905513",
"e.	c #965712",
"f.	c #834C16",
"g.	c #704217",
"h.	c #764518",
"i.	c #714418",
"j.	c #68411A",
"k.	c #543111",
"l.	c #6C4016",
"m.	c #784718",
"n.	c #563211",
"o.	c #4F3011",
"p.	c #5E3A18",
"q.	c #663F1B",
"r.	c #693F1A",
"s.	c #6E4019",
"t.	c #6F4217",
"u.	c #543416",
"v.	c #563416",
"w.	c #5A3717",
"x.	c #653E19",
"y.	c #68401A",
"z.	c #66401B",
"A.	c #5E3B18",
"B.	c #503011",
"C.	c #513011",
"D.	c #623C17",
"E.	c #6B421B",
"F.	c #633C18",
"G.	c #533112",
"H.	c #4B2C0F",
"I.	c #5F3B18",
"J.	c #653F1B",
"K.	c #663F1A",
"L.	c #5E3B19",
"M.	c #5F3B19",
"N.	c #603C19",
"O.	c #5C3917",
"P.	c #513012",
"Q.	c #5A3817",
"R.	c #5F3C1A",
"S.	c #5B3817",
"T.	c #523113",
"U.	c #4D2E10",
"V.	c #553415",
"W.	c #523214",
"X.	c #543415",
"Y.	c #513114",
"Z.	c #593617",
"`.	c #613B19",
" +	c #633C19",
".+	c #633D1A",
"++	c #603B19",
"@+	c #7A4B20",
"#+	c #855223",
"$+	c #835122",
"%+	c #603A18",
"&+	c #814F20",
"*+	c #915823",
"=+	c #8D5623",
"-+	c #503013",
";+	c #5A3513",
">+	c #844E1B",
",+	c #814C1B",
"'+	c #804C1A",
")+	c #4B2D10",
"!+	c #673C14",
"~+	c #6F4015",
"{+	c #6E4015",
"]+	c #4F2F10",
"^+	c #543211",
"/+	c #4D2D10",
"(+	c #4E2E10",
"_+	c #4C2D10",
":+	c #4B2C10",
". + @ # $ $ $ $ $ $ $ $ $ $ $ $ $ $ $ $ $ $ $ $ $ $ $ $ # @ + % % + @ # $ $ $ $ $ $ $ $ $ $ $ $ $ $ $ $ $ $ $ $ $ $ $ $ # @ + . ",
"+ & * = - ; ; ; ; ; ; ; ; ; ; ; ; ; ; ; ; ; ; ; ; ; ; - = * & > > & * = - ; ; ; ; ; ; ; ; ; ; ; ; ; ; ; ; ; ; ; ; ; ; - = * & + ",
"@ * , ' ) ! ! ! ! ! ! ! ! ! ! ! ! ! ! ! ! ! ! ! ! ! ! ) ' , * ~ ~ * , ' ) ! ! ! ! ! ! ! ! ! ! ! ! ! ! ! ! ! ! ! ! ! ! ) ' , * @ ",
"{ ] ^ / ( _ _ _ _ _ _ _ _ _ _ _ _ _ _ _ _ _ _ _ _ _ _ ( / ^ ] # # ] ^ / ( _ _ _ _ _ _ _ _ _ _ _ _ _ _ _ _ _ _ _ _ _ _ ( / ^ ] { ",
"{ ] : < [ } } } } } } } } } } } } } } } } } } } } } } [ < : ] # # ] : < [ } } } } } } } } } } } } } } } } } } } } } } [ < : ] { ",
"| 1 2 3 4 4 4 4 4 4 4 4 4 4 4 4 4 4 4 4 4 4 4 4 4 4 4 4 3 2 1 @ @ 1 2 3 4 4 4 4 4 4 4 4 4 4 4 4 4 4 4 4 4 4 4 4 4 4 4 4 3 2 1 | ",
"5 6 7 7 7 7 7 7 7 7 7 7 7 7 7 7 7 7 7 7 7 7 7 7 7 7 7 7 7 7 6 5 5 6 7 7 7 7 7 7 7 7 7 7 7 7 7 7 7 7 7 7 7 7 7 7 7 7 7 7 7 7 6 5 ",
"8 9 0 a a a a a a a a a a a a a a a a a a a a a a a a a a 0 9 8 8 9 0 a a a a a a a a a a a a a a a a a a a a a a a a a a 0 9 8 ",
"b a c d e f f f f f f f f f f f f f f f f f f f f f f e d c a g g a c d e f f f f f f f f f f f f f f f f f f f f f f e d c a b ",
"b h i j k : : : : : : : : : : : : : : : : : : : : : : k j i h g g h i j k : : : : : : : : : : : : : : : : : : : : : : k j i h b ",
"8 l m n o p p p p p p p p p p p p p p p p p p p p p p o n m l q q l m n o p p p p p p p p p p p p p p p p p p p p p p o n m l 8 ",
"r + s t @ ~ ~ @ | @ ~ ~ ~ ~ @ | | @ ~ ~ ~ ~ @ | @ ~ ~ @ t s + r r + s t @ ~ ~ @ | @ ~ ~ ~ ~ @ | | @ ~ ~ ~ ~ @ | @ ~ ~ @ t s + r ",
"9 u v > > > + w 5 w + > > + w x x w + > > + w 5 w + > > > v u 9 9 u v > > > + w 5 w + > > + w x x w + > > + w 5 w + > > > v u 9 ",
"9 u v + + > y z b A B C C B D g g D B C C B A b z y > + + v u 9 9 u v + + > y z b A B C C B D g g D B C C B A b z y > + + v u 9 ",
"r C E F G H I J K L M N N O P Q Q P O N N M L K J I H G F E C r r C E F G H I J K L M N N O P Q Q P O N N M L K J I H G F E C r ",
"r x F R S T U V W X Y Z Z t `  . .` t Z Z Y X W V ..+.@.S #.x 8 8 x #.S @.+...V W X Y Z Z t `  . .` t Z Z Y X W V U T S R F x r ",
"r x G $.%.&.*.=.-.;.>.,.,.@ '.).).'.@ ,.,.>.;.!.V ~.{.].@.F x 8 8 x F @.].{.~.V !.;.>.,.,.@ '.).).'.@ ,.,.>.;.-.=.*.&.%.$.G x r ",
"r 5 ^.%.@./.*.=.-.;.(._._.~ '.).).'.~ _._.(.;.:.J <.[.}.|.1.w 8 8 w 1.|.}.[.<.J :.;.(._._.~ '.).).'.~ _._.(.;.-.=.*./.@.%.^.5 r ",
"r 5 ^.%.@./.*.=.-.;.(._._.~ '.).).'.~ _._.(.;.2.3.4.5.6.}.7.8.8 8 8.7.}.6.5.4.3.2.;.(._._.~ '.).).'.~ _._.(.;.-.=.*./.@.%.^.5 r ",
"r 5 G 9.%.&.*.=.-.;.(._._.@ '.).).'.@ _._.(.;.2.3.4.0.a.b.7.8.8 8 8.7.b.a.0.4.3.2.;.(._._.@ '.).).'.@ _._.(.;.-.=.*.&.%.9.G 5 r ",
"r x G $.$.&.*.=.-.;.>.c.c.Y '.).).'.Y c.c.>.;.:.J <.d.e.f.g.w 8 8 w g.f.e.d.<.J :.;.>.c.c.Y '.).).'.Y c.c.>.;.-.=.*.&.$.$.G x r ",
"r w H T h.i.j.V !.k.l.m.m.l.n.).).n.l.m.m.l.k.o.p.q.r.s./.t.w u.u.w t./.s.r.q.p.o.k.l.m.m.l.n.).).n.l.m.m.l.k.!.V j.i.h.T H w r ",
"v.w.x.*.*.y.z.A.B.C.D.E.E.F.G.H.H.G.F.E.E.D.C.B.I.z.J.K.*.x.8.r r 8.x.*.K.J.z.I.B.C.D.E.E.F.G.H.H.G.F.E.E.D.C.B.A.z.y.*.*.x.w.v.",
"9 y =.L.L.M.N.O.P.P.Q.R.R.S.T.U.U.T.S.R.R.Q.P.P.O.N.M.L.L.=.y v.v.y =.L.L.M.N.O.P.P.Q.R.R.S.T.U.U.T.S.R.R.Q.P.P.O.N.M.L.L.=.y 9 ",
"9 9 v.r r r z V.W.W.X.z z X.W.Y.Y.W.X.z z X.W.W.V.z r r r v.9 9 9 9 v.r r r z V.W.W.X.z z X.W.Y.Y.W.X.z z X.W.W.V.z r r r v.9 9 ",
"z Z.a h h `.`.h  + +h `.`.h  +.+.+ +h `.`.h  + +h `.`.h h a Z.z z Z.a h h `.`.h  + +h `.`.h  +.+.+ +h `.`.h  + +h `.`.h h a Z.z ",
"r ++@+#+$+e e e $+$+e e e e $+$+$+$+e e e e $+$+e e e $+#+@+++A A ++@+#+$+e e e $+$+e e e e $+$+$+$+e e e e $+$+e e e $+#+@+++r ",
"Y.%+&+*+k =+=+=+=+=+=+=+=+=+=+=+=+=+=+=+=+=+=+=+=+=+=+k *+&+%+-+-+%+&+*+k =+=+=+=+=+=+=+=+=+=+=+=+=+=+=+=+=+=+=+=+=+=+k *+&+%+Y.",
"Q ;+* >+,+'+'+'+'+'+'+'+'+'+'+'+'+'+'+'+'+'+'+'+'+'+'+,+>+* ;+)+)+;+* >+,+'+'+'+'+'+'+'+'+'+'+'+'+'+'+'+'+'+'+'+'+'+'+,+>+* ;+Q ",
"H.k.!+>.~+{+{+{+{+{+{+{+{+{+{+{+{+{+{+{+{+{+{+{+{+{+{+~+>.!+k.).).k.!+>.~+{+{+{+{+{+{+{+{+{+{+{+{+{+{+{+{+{+{+{+{+{+{+~+>.!+k.H.",
"U.]+^+'.` n.n.n.n.n.n.n.n.n.n.n.n.n.n.n.n.n.n.n.n.n.n.` '.^+]+/+/+]+^+'.` n.n.n.n.n.n.n.n.n.n.n.n.n.n.n.n.n.n.n.n.n.n.` '.^+]+U.",
"(+U._+H.H.:+:+:+:+:+:+:+:+:+:+:+:+:+:+:+:+:+:+:+:+:+:+H.H._+U.(+(+U._+H.H.:+:+:+:+:+:+:+:+:+:+:+:+:+:+:+:+:+:+:+:+:+:+H.H._+U.(+"};
