/* XPM */
static const char * door_h_3_inv_xpm[] = {
"96 32 306 2",
"  	c None",
". 	c #4E2E10",
"+ 	c #4D2E10",
"@ 	c #4C2D10",
"# 	c #4B2C10",
"$ 	c #4B2C0F",
"% 	c #502F10",
"& 	c #533211",
"* 	c #563311",
"= 	c #573311",
"- 	c #563211",
"; 	c #4D2D10",
"> 	c #4A2C0F",
", 	c #643A14",
"' 	c #6D3F15",
") 	c #704115",
"! 	c #6F4015",
"~ 	c #6E4015",
"{ 	c #492C0F",
"] 	c #4B2D11",
"^ 	c #513012",
"/ 	c #5E3714",
"( 	c #724418",
"_ 	c #7F4B1A",
": 	c #844E1B",
"< 	c #824C1B",
"[ 	c #804C1A",
"} 	c #513011",
"| 	c #4A2C10",
"1 	c #503014",
"2 	c #563416",
"3 	c #653D19",
"4 	c #7C4C1F",
"5 	c #8B5522",
"6 	c #925823",
"7 	c #8F5623",
"8 	c #8D5623",
"9 	c #563415",
"0 	c #4F2F13",
"a 	c #543416",
"b 	c #593617",
"c 	c #643D1A",
"d 	c #76491F",
"e 	c #815022",
"f 	c #855223",
"g 	c #835122",
"h 	c #825022",
"i 	c #583617",
"j 	c #533215",
"k 	c #563516",
"l 	c #573516",
"m 	c #5A3717",
"n 	c #5E3918",
"o 	c #613B19",
"p 	c #623C19",
"q 	c #613C19",
"r 	c #633C19",
"s 	c #633C1A",
"t 	c #633D1A",
"u 	c #553416",
"v 	c #553415",
"w 	c #523214",
"x 	c #543415",
"y 	c #553516",
"z 	c #513114",
"A 	c #593717",
"B 	c #5B3918",
"C 	c #5D3B19",
"D 	c #5E3B19",
"E 	c #5F3B19",
"F 	c #603C19",
"G 	c #5F3B18",
"H 	c #5A3816",
"I 	c #523113",
"J 	c #502F11",
"K 	c #593716",
"L 	c #5D3A19",
"M 	c #5F3C1A",
"N 	c #5E3A19",
"O 	c #5A3716",
"P 	c #533214",
"Q 	c #4F2F11",
"R 	c #5C3817",
"S 	c #633D19",
"T 	c #68401A",
"U 	c #69411A",
"V 	c #69401A",
"W 	c #67401B",
"X 	c #633E1A",
"Y 	c #5C3917",
"Z 	c #523112",
"` 	c #4F2F10",
" .	c #533112",
"..	c #5F3A16",
"+.	c #684019",
"@.	c #6C421B",
"#.	c #613A17",
"$.	c #553313",
"%.	c #4E2F10",
"&.	c #5D3917",
"*.	c #643E1A",
"=.	c #66401B",
"-.	c #653F1B",
";.	c #653F1A",
">.	c #663F1A",
",.	c #643D19",
"'.	c #5D3817",
").	c #583516",
"!.	c #5F3916",
"~.	c #6C4017",
"{.	c #734418",
"].	c #774618",
"^.	c #764518",
"/.	c #744518",
"(.	c #704418",
"_.	c #6A421A",
":.	c #5B3817",
"<.	c #503012",
"[.	c #4F2E10",
"}.	c #573312",
"|.	c #683E15",
"1.	c #744417",
"2.	c #794718",
"3.	c #734417",
"4.	c #693E15",
"5.	c #593412",
"6.	c #503112",
"7.	c #673F1B",
"8.	c #683F1A",
"9.	c #6B3F1A",
"0.	c #6F4119",
"a.	c #6D4117",
"b.	c #603916",
"c.	c #533416",
"d.	c #583616",
"e.	c #613A16",
"f.	c #6F4217",
"g.	c #784617",
"h.	c #7D4817",
"i.	c #794717",
"j.	c #6B421A",
"k.	c #5A3817",
"l.	c #503013",
"m.	c #583411",
"n.	c #6C3F14",
"o.	c #794616",
"p.	c #7F4A17",
"q.	c #7F4917",
"r.	c #6D4014",
"s.	c #5B3512",
"t.	c #4F3013",
"u.	c #573617",
"v.	c #643E19",
"w.	c #754818",
"x.	c #8C5314",
"y.	c #965812",
"z.	c #945612",
"A.	c #864E15",
"B.	c #7A4717",
"C.	c #6D4017",
"D.	c #533316",
"E.	c #613916",
"F.	c #6F4117",
"G.	c #7C4817",
"H.	c #7B4717",
"I.	c #794617",
"J.	c #6B3F14",
"K.	c #774517",
"L.	c #7D4818",
"M.	c #784517",
"N.	c #6C3F15",
"O.	c #593411",
"P.	c #4E2F11",
"Q.	c #4C2E13",
"R.	c #503218",
"S.	c #674019",
"T.	c #905814",
"U.	c #D07C08",
"V.	c #E78904",
"W.	c #D87F06",
"X.	c #A25F10",
"Y.	c #7C4916",
"Z.	c #653C18",
"`.	c #543316",
" +	c #6E4117",
".+	c #774617",
"++	c #7C4717",
"@+	c #5A3512",
"#+	c #D07C09",
"$+	c #E78905",
"%+	c #D87F07",
"&+	c #A15E10",
"*+	c #7B4816",
"=+	c #8B5314",
"-+	c #955812",
";+	c #935612",
">+	c #854E15",
",+	c #6C3F17",
"'+	c #7E4A18",
")+	c #623E1A",
"!+	c #68401B",
"~+	c #6C4019",
"{+	c #704118",
"]+	c #744318",
"^+	c #704217",
"/+	c #613B16",
"(+	c #7E4917",
"_+	c #7E4817",
":+	c #6C431A",
"<+	c #4F3012",
"[+	c #804B18",
"}+	c #6D4015",
"|+	c #482A0F",
"1+	c #6B421B",
"2+	c #704317",
"3+	c #5E3916",
"4+	c #693E17",
"5+	c #704117",
"6+	c #734317",
"7+	c #724317",
"8+	c #714217",
"9+	c #663F19",
"0+	c #583717",
"a+	c #513113",
"b+	c #583312",
"c+	c #663C15",
"d+	c #704216",
"e+	c #754417",
"f+	c #673C15",
"g+	c #593513",
"h+	c #5B3716",
"i+	c #5C3716",
"j+	c #533315",
"k+	c #553315",
"l+	c #593616",
"m+	c #5C3816",
"n+	c #563315",
"o+	c #523215",
"p+	c #5D3816",
"q+	c #5E3816",
"r+	c #683E16",
"s+	c #6E4116",
"t+	c #714216",
"u+	c #704116",
"v+	c #6F4116",
"w+	c #623C17",
"x+	c #744519",
"y+	c #7E4B1A",
"z+	c #834D1A",
"A+	c #814C1A",
"B+	c #804B1A",
"C+	c #523316",
"D+	c #673F1A",
"E+	c #7E4C1F",
"F+	c #915823",
"G+	c #8D5522",
"H+	c #8C5522",
"I+	c #513115",
"J+	c #523315",
"K+	c #573616",
"L+	c #75481E",
"M+	c #804F22",
"N+	c #845223",
"O+	c #5C3818",
"P+	c #5E3A18",
"Q+	c #5F3A18",
"R+	c #5E3917",
"S+	c #714317",
"T+	c #75461A",
"U+	c #7C4B1E",
"V+	c #804E21",
"W+	c #814F22",
"X+	c #804F21",
"Y+	c #7A4616",
"Z+	c #7C4818",
"`+	c #814C1B",
" @	c #8A5421",
".@	c #905824",
"+@	c #925A26",
"@@	c #915926",
"#@	c #905926",
"$@	c #905925",
"%@	c #7B4818",
"&@	c #895421",
"*@	c #8E5824",
"=@	c #8F5826",
"-@	c #8F5825",
";@	c #78471A",
">@	c #814E1E",
",@	c #875221",
"'@	c #8A5422",
")@	c #885322",
"!@	c #885321",
"~@	c #673D17",
"{@	c #734519",
"]@	c #7B491A",
"^@	c #7E4A1A",
"/@	c #7D4A1A",
"(@	c #7C4A1A",
"_@	c #7C491A",
":@	c #513316",
"<@	c #5F3816",
"[@	c #6D4016",
"}@	c #764416",
"|@	c #774516",
"1@	c #513216",
". . + @ # $ $ # # # # # # # # # # # # # # # # # # # # # # # # # # # # # # # # # # $ $ # @ + . . . . + @ # $ $ # # # # # # # # # # # # # # # # # # # # # # # # # # # # # # # # # # $ $ # @ + . . ",
"+ . % & * = * - - - - - - - - - - - - - - - - - - - - - - - - - - - - - - - - - - * = * & % . ; ; . % & * = * - - - - - - - - - - - - - - - - - - - - - - - - - - - - - - - - - - * = * & % . + ",
"> . = , ' ) ! ~ ~ ~ ~ ~ ~ ~ ~ ~ ~ ~ ~ ~ ~ ~ ~ ~ ~ ~ ~ ~ ~ ~ ~ ~ ~ ~ ~ ~ ~ ~ ~ ~ ~ ! ) ' , = . { { . = , ' ) ! ~ ~ ~ ~ ~ ~ ~ ~ ~ ~ ~ ~ ~ ~ ~ ~ ~ ~ ~ ~ ~ ~ ~ ~ ~ ~ ~ ~ ~ ~ ~ ~ ~ ~ ! ) ' , = . > ",
"] ^ / ( _ : < [ [ [ [ [ [ [ [ [ [ [ [ [ [ [ [ [ [ [ [ [ [ [ [ [ [ [ [ [ [ [ [ [ [ < : _ ( / } | | } / ( _ : < [ [ [ [ [ [ [ [ [ [ [ [ [ [ [ [ [ [ [ [ [ [ [ [ [ [ [ [ [ [ [ [ [ [ < : _ ( / ^ ] ",
"1 2 3 4 5 6 7 8 8 8 8 8 8 8 8 8 8 8 8 8 8 8 8 8 8 8 8 8 8 8 8 8 8 8 8 8 8 8 8 8 8 7 6 5 4 3 9 0 0 9 3 4 5 6 7 8 8 8 8 8 8 8 8 8 8 8 8 8 8 8 8 8 8 8 8 8 8 8 8 8 8 8 8 8 8 8 8 8 8 7 6 5 4 3 2 1 ",
"a b c d e f g h h h h h g g g h h h h h h g g g g g g h h h h h h g g g h h h h h g f e d c i j j i c d e f g h h h h h g g g h h h h h h g g g g g g h h h h h h g g g h h h h h g f e d c b a ",
"k l m n o p p p o o q p r r r p q o o q p r s t t s r p q o o q p r r r p q o o p p p o n m l k k l m n o p p p o o q p r r r p q o o q p r s t t s r p q o o q p r r r p q o o p p p o n m l k ",
"l l l 2 u u u u u k k v w w w x y k k y x w z z z z w x y k k y x w w w v k k u u u u u 2 l l l l l l 2 u u u u u k k v w w w x y k k y x w z z z z w x y k k y x w w w v k k u u u u u 2 l l l ",
"l l A B C D D D E F G H I J I K L M M N O P Q + + Q P O N M M L K I J I H G F E D D D C B A l 2 2 l A B C D D D E F G H I J I K L M M N O P Q + + Q P O N M M L K I J I H G F E D D D C B A l l ",
"2 l R S T U U V T W X Y Z `  ...+.@.@.T #.$.. > > . $.#.T @.@.+... .%.Z &.*.=.-.;.>.U T ,.'.l u u l '.,.T U >.;.-.=.*.&.Z %. ...+.@.@.T #.$.. > > . $.#.T @.@.+... .` Z Y X W T V U U T S R l 2 ",
"u ).!.~.{.].^./.(._.X :.<.[.}.|.1.2.2.3.4.5.[.{ { [.5.4.3.2.2.1.|.}.` 6.R t 7.8.9.0./.{.a.b.l c.c.l b.a.{./.0.9.8.7.t R 6.` }.|.1.2.2.3.4.5.[.{ { [.5.4.3.2.2.1.|.}.[.<.:.X _.(./.^.].{.~.!.).u ",
"a d.e.f.g.h.h.i.{.j.X k.l.J m.n.o.p.q.o.r.s.` { { ` s.r.o.q.p.o.n.m.Q t.u.v.w.x.y.z.A.B.C.b.l D.D.l b.C.B.A.z.y.x.w.v.u.t.Q m.n.o.p.q.o.r.s.` { { ` s.r.o.q.p.o.n.m.J l.k.X j.{.i.h.h.g.f.e.d.a ",
"a ).E.F.g.G.H.I.{.j.X k.l.J m.J.K.L.L.M.N.s.` { { ` s.N.M.L.L.K.J.O.P.Q.R.S.T.U.V.W.X.Y.Z.'.l `.`.l '.Z.Y.X.W.V.U.T.S.R.Q.P.m.J.K.L.L.M.N.s.` { { ` s.N.M.L.L.K.J.m.J l.k.X j.{.I.H.G.g.F.E.).a ",
"a ).e. +.+++H.g.( j.X k.l.J m.J.K.L.L.K.N.@+` { { ` @+N.K.L.L.K.J.O.P.Q.R.S.T.#+$+%+&+*+Z.'.l `.`.l '.Z.*+&+%+$+#+T.S.R.Q.P.m.J.K.L.L.K.N.@+` { { ` @+N.K.L.L.K.J.m.J l.k.X j.( g.H.++.+ +e.).a ",
"a ).e. +.+++H.g.( j.X k.l.J m.J.K.L.L.K.N.@+` { { ` @+N.K.L.L.K.J.m.Q t.u.v.w.=+-+;+>+g.,+!.l D.D.l !.,+g.>+;+-+=+w.v.u.t.Q m.J.K.L.L.K.N.@+` { { ` @+N.K.L.L.K.J.m.J l.k.X j.( g.H.++.+ +e.).a ",
"a d.e.f.g.h.++I.{.j.X k.l.J m.n.g.'+'+g.N.s.` { { ` s.N.g.'+'+g.n.m.` <.:.)+!+~+{+]+B.g.^+/+).D.D.)./+^+g.B.]+{+~+!+)+:.<.` m.n.g.'+'+g.N.s.` { { ` s.N.g.'+'+g.n.m.J l.k.X j.{.I.++h.g.f.e.d.a ",
"a d.e.^+i.(+_+B./.:+*.k.<+` O.r.B.[+[+B.}+@+. |+|+. @+}+B.[+[+B.r.O.` <+k.X 1+( g.H.h.B.2+/+).D.D.)./+2+B.h.H.g.( 1+X k.<+` O.r.B.[+[+B.}+@+. |+|+. @+}+B.[+[+B.r.O.` <+k.*.:+/.B._+(+i.^+e.d.a ",
"u d.3+4+5+6+7+8+a.9+E 0+a+} b+c+d+e+e+^+f+g+J ] ] J g+f+^+e+e+d+c+b+} a+0+E 9+a.8+7+6+5+4+3+d.u u d.3+4+5+6+7+8+a.9+E 0+a+} b+c+d+e+e+^+f+g+J ] ] J g+f+^+e+e+d+c+b+} a+0+E 9+a.8+7+6+5+4+3+d.u ",
"l l ).O h+i+i+i+h+i u.k j+j+k+l+h+m+m+h+l+n+j o+o+j n+l+h+m+m+h+l+k+j+j+k u.i h+i+i+i+h+O ).l l l l ).O h+i+i+i+h+i u.k j+j+k+l+h+m+m+h+l+n+j o+o+j n+l+h+m+m+h+l+k+j+j+k u.i h+i+i+i+h+O ).l l ",
"l l ).O h+h+h+h+h+i+m+p+q+q+p+i+h+h+h+h+i+p+3+3+3+3+p+i+h+h+h+h+i+p+q+q+p+m+i+h+h+h+h+h+O ).l l l l ).O h+h+h+h+h+i+m+p+q+q+p+i+h+h+h+h+i+p+3+3+3+3+p+i+h+h+h+h+i+p+q+q+p+m+i+h+h+h+h+h+O ).l l ",
"u ).q+r+s+t+u+v+v+v+u+u+d+d+u+v+v+v+v+v+v+u+d+d+d+d+u+v+v+v+v+v+v+u+d+d+u+u+v+v+v+u+t+s+r+q+).u u ).q+r+s+t+u+v+v+v+u+u+d+d+u+v+v+v+v+v+v+u+d+d+d+d+u+v+v+v+v+v+v+u+d+d+u+u+v+v+v+u+t+s+r+q+).u ",
"D.d.w+x+y+z+A+B+B+B+B+B+B+B+B+B+B+B+B+B+B+B+B+B+B+B+B+B+B+B+B+B+B+B+B+B+B+B+B+B+B+A+z+y+x+w+d.C+C+d.w+x+y+z+A+B+B+B+B+B+B+B+B+B+B+B+B+B+B+B+B+B+B+B+B+B+B+B+B+B+B+B+B+B+B+B+B+B+B+A+z+y+x+w+d.D.",
"o+i D+E+5 F+7 G+H+H+H+H+H+H+H+H+H+H+H+H+H+H+H+H+H+H+H+H+H+H+H+H+H+H+H+H+H+H+H+H+G+7 F+5 E+D+i I+I+i D+E+5 F+7 G+H+H+H+H+H+H+H+H+H+H+H+H+H+H+H+H+H+H+H+H+H+H+H+H+H+H+H+H+H+H+H+H+G+7 F+5 E+D+i o+",
"J+K+r L+M+N+h e e e e e e e e e e e e e e e e e e e e e e e e e e e e e e e e e e h N+M+L+r l I+I+l r L+M+N+h e e e e e e e e e e e e e e e e e e e e e e e e e e e e e e e e e e h N+M+L+r K+J+",
"`.u d.O+P+Q+Q+Q+Q+Q+Q+Q+Q+Q+Q+Q+Q+Q+Q+Q+Q+Q+Q+Q+Q+Q+Q+Q+Q+Q+Q+Q+Q+Q+Q+Q+Q+Q+Q+Q+Q+Q+Q+P+O+d.u `.`.u d.O+P+Q+Q+Q+Q+Q+Q+Q+Q+Q+Q+Q+Q+Q+Q+Q+Q+Q+Q+Q+Q+Q+Q+Q+Q+Q+Q+Q+Q+Q+Q+Q+Q+Q+Q+Q+Q+Q+Q+P+O+d.u `.",
"q+q+R+n n n n n n n n n n n n n n n n n n n n n n n n n n n n n n n n n n n n n n n n n n R+q+q+q+q+R+n n n n n n n n n n n n n n n n n n n n n n n n n n n n n n n n n n n n n n n n n n R+q+q+",
"d+S+T+U+V+W+X+X+X+X+X+X+X+X+X+X+X+X+X+X+X+X+X+X+X+X+X+X+X+X+X+X+X+X+X+X+X+X+X+X+X+X+W+V+U+T+S+u+u+S+T+U+V+W+X+X+X+X+X+X+X+X+X+X+X+X+X+X+X+X+X+X+X+X+X+X+X+X+X+X+X+X+X+X+X+X+X+X+X+X+W+V+U+T+S+d+",
"Y+Z+`+ @.@+@@@#@$@$@$@$@$@$@$@$@$@$@$@$@$@$@$@$@$@$@$@$@$@$@$@$@$@$@$@$@$@$@$@$@#@@@+@.@ @`+%@o.o.%@`+ @.@+@@@#@$@$@$@$@$@$@$@$@$@$@$@$@$@$@$@$@$@$@$@$@$@$@$@$@$@$@$@$@$@$@$@$@#@@@+@.@ @`+Z+Y+",
"Y+Z+`+&@*@#@=@=@-@-@-@-@-@-@-@-@-@-@-@-@-@-@-@-@-@-@-@-@-@-@-@-@-@-@-@-@-@-@-@-@=@=@#@*@&@`+%@o.o.%@`+&@*@#@=@=@-@-@-@-@-@-@-@-@-@-@-@-@-@-@-@-@-@-@-@-@-@-@-@-@-@-@-@-@-@-@-@-@=@=@#@*@&@`+Z+Y+",
"u+7+;@>@,@'@)@)@!@!@!@!@!@!@!@!@!@!@!@!@!@!@!@!@!@!@!@!@!@!@!@!@!@!@!@!@!@!@!@!@)@)@'@,@>@;@7+v+v+7+;@>@,@'@)@)@!@!@!@!@!@!@!@!@!@!@!@!@!@!@!@!@!@!@!@!@!@!@!@!@!@!@!@!@!@!@!@!@)@)@'@,@>@;@7+u+",
"i+!.~@{@]@^@/@(@_@_@_@_@_@_@_@_@_@_@_@_@_@_@_@_@_@_@_@_@_@_@_@_@_@_@_@_@_@_@_@_@(@/@^@]@{@~@3+O O 3+~@{@]@^@/@(@_@_@_@_@_@_@_@_@_@_@_@_@_@_@_@_@_@_@_@_@_@_@_@_@_@_@_@_@_@_@_@_@(@/@^@]@{@~@!.i+",
":@2 <@[@}@o.|@|@|@|@|@|@|@|@|@|@|@|@|@|@|@|@|@|@|@|@|@|@|@|@|@|@|@|@|@|@|@|@|@|@|@|@o.}@[@<@2 1@1@2 <@[@}@o.|@|@|@|@|@|@|@|@|@|@|@|@|@|@|@|@|@|@|@|@|@|@|@|@|@|@|@|@|@|@|@|@|@|@|@|@o.}@[@<@2 :@"};
