/* XPM */
static const char * door_h_3_xpm[] = {
"96 32 306 2",
"  	c None",
". 	c #513316",
"+ 	c #563416",
"@ 	c #5F3816",
"# 	c #6D4016",
"$ 	c #764416",
"% 	c #794616",
"& 	c #774516",
"* 	c #513216",
"= 	c #5C3716",
"- 	c #5F3916",
"; 	c #673D17",
"> 	c #734519",
", 	c #7B491A",
"' 	c #7E4A1A",
") 	c #7D4A1A",
"! 	c #7C4A1A",
"~ 	c #7C491A",
"{ 	c #5E3916",
"] 	c #5A3716",
"^ 	c #704116",
"/ 	c #724317",
"( 	c #78471A",
"_ 	c #814E1E",
": 	c #875221",
"< 	c #8A5422",
"[ 	c #885322",
"} 	c #885321",
"| 	c #6F4116",
"1 	c #7A4616",
"2 	c #7C4818",
"3 	c #814C1B",
"4 	c #895421",
"5 	c #8E5824",
"6 	c #905926",
"7 	c #8F5826",
"8 	c #8F5825",
"9 	c #7B4818",
"0 	c #8A5421",
"a 	c #905824",
"b 	c #925A26",
"c 	c #915926",
"d 	c #905925",
"e 	c #704216",
"f 	c #714317",
"g 	c #75461A",
"h 	c #7C4B1E",
"i 	c #804E21",
"j 	c #814F22",
"k 	c #804F21",
"l 	c #5E3816",
"m 	c #5E3917",
"n 	c #5E3918",
"o 	c #543316",
"p 	c #553416",
"q 	c #583616",
"r 	c #5C3818",
"s 	c #5E3A18",
"t 	c #5F3A18",
"u 	c #523315",
"v 	c #573616",
"w 	c #633C19",
"x 	c #75481E",
"y 	c #804F22",
"z 	c #845223",
"A 	c #825022",
"B 	c #815022",
"C 	c #573516",
"D 	c #513115",
"E 	c #523215",
"F 	c #583617",
"G 	c #673F1A",
"H 	c #7E4C1F",
"I 	c #8B5522",
"J 	c #915823",
"K 	c #8F5623",
"L 	c #8D5522",
"M 	c #8C5522",
"N 	c #533316",
"O 	c #623C17",
"P 	c #744519",
"Q 	c #7E4B1A",
"R 	c #834D1A",
"S 	c #814C1A",
"T 	c #804B1A",
"U 	c #523316",
"V 	c #583516",
"W 	c #683E16",
"X 	c #6E4116",
"Y 	c #714216",
"Z 	c #5B3716",
"` 	c #5C3816",
" .	c #5D3816",
"..	c #573617",
"+.	c #563516",
"@.	c #533315",
"#.	c #553315",
"$.	c #593616",
"%.	c #563315",
"&.	c #533215",
"*.	c #693E17",
"=.	c #704117",
"-.	c #734317",
";.	c #714217",
">.	c #6D4117",
",.	c #663F19",
"'.	c #5F3B19",
").	c #583717",
"!.	c #513113",
"~.	c #513011",
"{.	c #583312",
"].	c #663C15",
"^.	c #754417",
"/.	c #704217",
"(.	c #673C15",
"_.	c #593513",
":.	c #502F11",
"<.	c #4B2D11",
"[.	c #543416",
"}.	c #613A16",
"|.	c #794717",
"1.	c #7E4917",
"2.	c #7E4817",
"3.	c #7A4717",
"4.	c #744518",
"5.	c #6C431A",
"6.	c #643E1A",
"7.	c #5A3817",
"8.	c #4F3012",
"9.	c #4F2F10",
"0.	c #593411",
"a.	c #6D4014",
"b.	c #804B18",
"c.	c #6D4015",
"d.	c #5A3512",
"e.	c #4E2E10",
"f.	c #482A0F",
"g.	c #633E1A",
"h.	c #6B421B",
"i.	c #724418",
"j.	c #784617",
"k.	c #7B4717",
"l.	c #7D4817",
"m.	c #704317",
"n.	c #613B16",
"o.	c #6F4217",
"p.	c #7C4717",
"q.	c #794617",
"r.	c #734418",
"s.	c #6B421A",
"t.	c #503013",
"u.	c #583411",
"v.	c #6C3F14",
"w.	c #7E4A18",
"x.	c #6C3F15",
"y.	c #5B3512",
"z.	c #492C0F",
"A.	c #503012",
"B.	c #5B3817",
"C.	c #623E1A",
"D.	c #68401B",
"E.	c #6C4019",
"F.	c #704118",
"G.	c #744318",
"H.	c #6E4117",
"I.	c #774617",
"J.	c #6B3F14",
"K.	c #774517",
"L.	c #7D4818",
"M.	c #4F2F11",
"N.	c #4F3013",
"O.	c #643E19",
"P.	c #754818",
"Q.	c #8B5314",
"R.	c #955812",
"S.	c #935612",
"T.	c #854E15",
"U.	c #6C3F17",
"V.	c #4E2F11",
"W.	c #4C2E13",
"X.	c #503218",
"Y.	c #674019",
"Z.	c #905814",
"`.	c #D07C09",
" +	c #E78905",
".+	c #D87F07",
"++	c #A15E10",
"@+	c #7B4816",
"#+	c #653C18",
"$+	c #5D3817",
"%+	c #613916",
"&+	c #6F4117",
"*+	c #7C4817",
"=+	c #784517",
"-+	c #D07C08",
";+	c #E78904",
">+	c #D87F06",
",+	c #A25F10",
"'+	c #7C4916",
")+	c #7F4A17",
"!+	c #7F4917",
"~+	c #8C5314",
"{+	c #965812",
"]+	c #945612",
"^+	c #864E15",
"/+	c #6D4017",
"(+	c #603916",
"_+	c #6C4017",
":+	c #774618",
"<+	c #764518",
"[+	c #704418",
"}+	c #6A421A",
"|+	c #4F2E10",
"1+	c #573312",
"2+	c #683E15",
"3+	c #744417",
"4+	c #794718",
"5+	c #734417",
"6+	c #693E15",
"7+	c #593412",
"8+	c #503112",
"9+	c #5C3817",
"0+	c #633D1A",
"a+	c #673F1B",
"b+	c #683F1A",
"c+	c #6B3F1A",
"d+	c #6F4119",
"e+	c #533416",
"f+	c #633D19",
"g+	c #68401A",
"h+	c #69411A",
"i+	c #69401A",
"j+	c #67401B",
"k+	c #5C3917",
"l+	c #523112",
"m+	c #533112",
"n+	c #5F3A16",
"o+	c #684019",
"p+	c #6C421B",
"q+	c #613A17",
"r+	c #553313",
"s+	c #4A2C0F",
"t+	c #4E2F10",
"u+	c #5D3917",
"v+	c #66401B",
"w+	c #653F1B",
"x+	c #653F1A",
"y+	c #663F1A",
"z+	c #643D19",
"A+	c #593717",
"B+	c #5B3918",
"C+	c #5D3B19",
"D+	c #5E3B19",
"E+	c #603C19",
"F+	c #5F3B18",
"G+	c #5A3816",
"H+	c #523113",
"I+	c #593716",
"J+	c #5D3A19",
"K+	c #5F3C1A",
"L+	c #5E3A19",
"M+	c #533214",
"N+	c #4D2E10",
"O+	c #553415",
"P+	c #523214",
"Q+	c #543415",
"R+	c #553516",
"S+	c #513114",
"T+	c #5A3717",
"U+	c #613B19",
"V+	c #623C19",
"W+	c #613C19",
"X+	c #633C1A",
"Y+	c #593617",
"Z+	c #643D1A",
"`+	c #76491F",
" @	c #855223",
".@	c #835122",
"+@	c #503014",
"@@	c #653D19",
"#@	c #7C4C1F",
"$@	c #925823",
"%@	c #8D5623",
"&@	c #563415",
"*@	c #4F2F13",
"=@	c #513012",
"-@	c #5E3714",
";@	c #7F4B1A",
">@	c #844E1B",
",@	c #824C1B",
"'@	c #804C1A",
")@	c #4A2C10",
"!@	c #573311",
"~@	c #643A14",
"{@	c #6D3F15",
"]@	c #704115",
"^@	c #6F4015",
"/@	c #6E4015",
"(@	c #502F10",
"_@	c #533211",
":@	c #563311",
"<@	c #563211",
"[@	c #4D2D10",
"}@	c #4C2D10",
"|@	c #4B2C10",
"1@	c #4B2C0F",
". + @ # $ % & & & & & & & & & & & & & & & & & & & & & & & & & & & & & & & & & & & & % $ # @ + * * + @ # $ % & & & & & & & & & & & & & & & & & & & & & & & & & & & & & & & & & & & & % $ # @ + . ",
"= - ; > , ' ) ! ~ ~ ~ ~ ~ ~ ~ ~ ~ ~ ~ ~ ~ ~ ~ ~ ~ ~ ~ ~ ~ ~ ~ ~ ~ ~ ~ ~ ~ ~ ~ ~ ! ) ' , > ; { ] ] { ; > , ' ) ! ~ ~ ~ ~ ~ ~ ~ ~ ~ ~ ~ ~ ~ ~ ~ ~ ~ ~ ~ ~ ~ ~ ~ ~ ~ ~ ~ ~ ~ ~ ~ ~ ! ) ' , > ; - = ",
"^ / ( _ : < [ [ } } } } } } } } } } } } } } } } } } } } } } } } } } } } } } } } [ [ < : _ ( / | | / ( _ : < [ [ } } } } } } } } } } } } } } } } } } } } } } } } } } } } } } } } [ [ < : _ ( / ^ ",
"1 2 3 4 5 6 7 7 8 8 8 8 8 8 8 8 8 8 8 8 8 8 8 8 8 8 8 8 8 8 8 8 8 8 8 8 8 8 8 8 7 7 6 5 4 3 9 % % 9 3 4 5 6 7 7 8 8 8 8 8 8 8 8 8 8 8 8 8 8 8 8 8 8 8 8 8 8 8 8 8 8 8 8 8 8 8 8 7 7 6 5 4 3 2 1 ",
"1 2 3 0 a b c 6 d d d d d d d d d d d d d d d d d d d d d d d d d d d d d d d d 6 c b a 0 3 9 % % 9 3 0 a b c 6 d d d d d d d d d d d d d d d d d d d d d d d d d d d d d d d d 6 c b a 0 3 2 1 ",
"e f g h i j k k k k k k k k k k k k k k k k k k k k k k k k k k k k k k k k k k k k j i h g f ^ ^ f g h i j k k k k k k k k k k k k k k k k k k k k k k k k k k k k k k k k k k k k j i h g f e ",
"l l m n n n n n n n n n n n n n n n n n n n n n n n n n n n n n n n n n n n n n n n n n n m l l l l m n n n n n n n n n n n n n n n n n n n n n n n n n n n n n n n n n n n n n n n n n n m l l ",
"o p q r s t t t t t t t t t t t t t t t t t t t t t t t t t t t t t t t t t t t t t t s r q p o o p q r s t t t t t t t t t t t t t t t t t t t t t t t t t t t t t t t t t t t t t t s r q p o ",
"u v w x y z A B B B B B B B B B B B B B B B B B B B B B B B B B B B B B B B B B B A z y x w C D D C w x y z A B B B B B B B B B B B B B B B B B B B B B B B B B B B B B B B B B B A z y x w v u ",
"E F G H I J K L M M M M M M M M M M M M M M M M M M M M M M M M M M M M M M M M L K J I H G F D D F G H I J K L M M M M M M M M M M M M M M M M M M M M M M M M M M M M M M M M L K J I H G F E ",
"N q O P Q R S T T T T T T T T T T T T T T T T T T T T T T T T T T T T T T T T T T S R Q P O q U U q O P Q R S T T T T T T T T T T T T T T T T T T T T T T T T T T T T T T T T T T S R Q P O q N ",
"p V l W X Y ^ | | | ^ ^ e e ^ | | | | | | ^ e e e e ^ | | | | | | ^ e e ^ ^ | | | ^ Y X W l V p p V l W X Y ^ | | | ^ ^ e e ^ | | | | | | ^ e e e e ^ | | | | | | ^ e e ^ ^ | | | ^ Y X W l V p ",
"C C V ] Z Z Z Z Z = `  .l l  .= Z Z Z Z =  .{ { { {  .= Z Z Z Z =  .l l  .` = Z Z Z Z Z ] V C C C C V ] Z Z Z Z Z = `  .l l  .= Z Z Z Z =  .{ { { {  .= Z Z Z Z =  .l l  .` = Z Z Z Z Z ] V C C ",
"C C V ] Z = = = Z F ..+.@.@.#.$.Z ` ` Z $.%.&.E E &.%.$.Z ` ` Z $.#.@.@.+...F Z = = = Z ] V C C C C V ] Z = = = Z F ..+.@.@.#.$.Z ` ` Z $.%.&.E E &.%.$.Z ` ` Z $.#.@.@.+...F Z = = = Z ] V C C ",
"p q { *.=.-./ ;.>.,.'.).!.~.{.].e ^.^./.(._.:.<.<.:._.(./.^.^.e ].{.~.!.).'.,.>.;./ -.=.*.{ q p p q { *.=.-./ ;.>.,.'.).!.~.{.].e ^.^./.(._.:.<.<.:._.(./.^.^.e ].{.~.!.).'.,.>.;./ -.=.*.{ q p ",
"[.q }./.|.1.2.3.4.5.6.7.8.9.0.a.3.b.b.3.c.d.e.f.f.e.d.c.3.b.b.3.a.0.9.8.7.g.h.i.j.k.l.3.m.n.V N N V n.m.3.l.k.j.i.h.g.7.8.9.0.a.3.b.b.3.c.d.e.f.f.e.d.c.3.b.b.3.a.0.9.8.7.6.5.4.3.2.1.|./.}.q [.",
"[.q }.o.j.l.p.q.r.s.g.7.t.:.u.v.j.w.w.j.x.y.9.z.z.9.y.x.j.w.w.j.v.u.9.A.B.C.D.E.F.G.3.j./.n.V N N V n./.j.3.G.F.E.D.C.B.A.9.u.v.j.w.w.j.x.y.9.z.z.9.y.x.j.w.w.j.v.u.:.t.7.g.s.r.q.p.l.j.o.}.q [.",
"[.V }.H.I.p.k.j.i.s.g.7.t.:.u.J.K.L.L.K.x.d.9.z.z.9.d.x.K.L.L.K.J.u.M.N...O.P.Q.R.S.T.j.U.- C N N C - U.j.T.S.R.Q.P.O...N.M.u.J.K.L.L.K.x.d.9.z.z.9.d.x.K.L.L.K.J.u.:.t.7.g.s.i.j.k.p.I.H.}.V [.",
"[.V }.H.I.p.k.j.i.s.g.7.t.:.u.J.K.L.L.K.x.d.9.z.z.9.d.x.K.L.L.K.J.0.V.W.X.Y.Z.`. +.+++@+#+$+C o o C $+#+@+++.+ +`.Z.Y.X.W.V.u.J.K.L.L.K.x.d.9.z.z.9.d.x.K.L.L.K.J.u.:.t.7.g.s.i.j.k.p.I.H.}.V [.",
"[.V %+&+j.*+k.q.r.s.g.7.t.:.u.J.K.L.L.=+x.y.9.z.z.9.y.x.=+L.L.K.J.0.V.W.X.Y.Z.-+;+>+,+'+#+$+C o o C $+#+'+,+>+;+-+Z.Y.X.W.V.u.J.K.L.L.=+x.y.9.z.z.9.y.x.=+L.L.K.J.u.:.t.7.g.s.r.q.k.*+j.&+%+V [.",
"[.q }.o.j.l.l.|.r.s.g.7.t.:.u.v.% )+!+% a.y.9.z.z.9.y.a.% !+)+% v.u.M.N...O.P.~+{+]+^+3./+(+C N N C (+/+3.^+]+{+~+P.O...N.M.u.v.% )+!+% a.y.9.z.z.9.y.a.% !+)+% v.u.:.t.7.g.s.r.|.l.l.j.o.}.q [.",
"p V - _+r.:+<+4.[+}+g.B.A.|+1+2+3+4+4+5+6+7+|+z.z.|+7+6+5+4+4+3+2+1+9.8+9+0+a+b+c+d+4.r.>.(+C e+e+C (+>.r.4.d+c+b+a+0+9+8+9.1+2+3+4+4+5+6+7+|+z.z.|+7+6+5+4+4+3+2+1+|+A.B.g.}+[+4.<+:+r._+- V p ",
"+ C 9+f+g+h+h+i+g+j+g.k+l+9.m+n+o+p+p+g+q+r+e.s+s+e.r+q+g+p+p+o+n+m+t+l+u+6.v+w+x+y+h+g+z+$+C p p C $+z+g+h+y+x+w+v+6.u+l+t+m+n+o+p+p+g+q+r+e.s+s+e.r+q+g+p+p+o+n+m+9.l+k+g.j+g+i+h+h+g+f+9+C + ",
"C C A+B+C+D+D+D+'.E+F+G+H+:.H+I+J+K+K+L+] M+M.N+N+M.M+] L+K+K+J+I+H+:.H+G+F+E+'.D+D+D+C+B+A+C + + C A+B+C+D+D+D+'.E+F+G+H+:.H+I+J+K+K+L+] M+M.N+N+M.M+] L+K+K+J+I+H+:.H+G+F+E+'.D+D+D+C+B+A+C C ",
"C C C + p p p p p +.+.O+P+P+P+Q+R++.+.R+Q+P+S+S+S+S+P+Q+R++.+.R+Q+P+P+P+O++.+.p p p p p + C C C C C C + p p p p p +.+.O+P+P+P+Q+R++.+.R+Q+P+S+S+S+S+P+Q+R++.+.R+Q+P+P+P+O++.+.p p p p p + C C C ",
"+.C T+n U+V+V+V+U+U+W+V+w w w V+W+U+U+W+V+w X+0+0+X+w V+W+U+U+W+V+w w w V+W+U+U+V+V+V+U+n T+C +.+.C T+n U+V+V+V+U+U+W+V+w w w V+W+U+U+W+V+w X+0+0+X+w V+W+U+U+W+V+w w w V+W+U+U+V+V+V+U+n T+C +.",
"[.Y+Z+`+B  @.@A A A A A .@.@.@A A A A A A .@.@.@.@.@.@A A A A A A .@.@.@A A A A A .@ @B `+Z+F &.&.F Z+`+B  @.@A A A A A .@.@.@A A A A A A .@.@.@.@.@.@A A A A A A .@.@.@A A A A A .@ @B `+Z+Y+[.",
"+@+ @@#@I $@K %@%@%@%@%@%@%@%@%@%@%@%@%@%@%@%@%@%@%@%@%@%@%@%@%@%@%@%@%@%@%@%@%@%@K $@I #@@@&@*@*@&@@@#@I $@K %@%@%@%@%@%@%@%@%@%@%@%@%@%@%@%@%@%@%@%@%@%@%@%@%@%@%@%@%@%@%@%@%@%@K $@I #@@@+ +@",
"<.=@-@i.;@>@,@'@'@'@'@'@'@'@'@'@'@'@'@'@'@'@'@'@'@'@'@'@'@'@'@'@'@'@'@'@'@'@'@'@'@,@>@;@i.-@~.)@)@~.-@i.;@>@,@'@'@'@'@'@'@'@'@'@'@'@'@'@'@'@'@'@'@'@'@'@'@'@'@'@'@'@'@'@'@'@'@'@'@,@>@;@i.-@=@<.",
"s+e.!@~@{@]@^@/@/@/@/@/@/@/@/@/@/@/@/@/@/@/@/@/@/@/@/@/@/@/@/@/@/@/@/@/@/@/@/@/@/@^@]@{@~@!@e.z.z.e.!@~@{@]@^@/@/@/@/@/@/@/@/@/@/@/@/@/@/@/@/@/@/@/@/@/@/@/@/@/@/@/@/@/@/@/@/@/@/@^@]@{@~@!@e.s+",
"N+e.(@_@:@!@:@<@<@<@<@<@<@<@<@<@<@<@<@<@<@<@<@<@<@<@<@<@<@<@<@<@<@<@<@<@<@<@<@<@<@:@!@:@_@(@e.[@[@e.(@_@:@!@:@<@<@<@<@<@<@<@<@<@<@<@<@<@<@<@<@<@<@<@<@<@<@<@<@<@<@<@<@<@<@<@<@<@<@:@!@:@_@(@e.N+",
"e.e.N+}@|@1@1@|@|@|@|@|@|@|@|@|@|@|@|@|@|@|@|@|@|@|@|@|@|@|@|@|@|@|@|@|@|@|@|@|@|@1@1@|@}@N+e.e.e.e.N+}@|@1@1@|@|@|@|@|@|@|@|@|@|@|@|@|@|@|@|@|@|@|@|@|@|@|@|@|@|@|@|@|@|@|@|@|@|@1@1@|@}@N+e.e."};
