/* XPM */
static const char * player_reload_2_blue_xpm[] = {
"64 64 355 2",
"  	c None",
". 	c #000000",
"+ 	c #000404",
"@ 	c #000808",
"# 	c #001C1C",
"$ 	c #000A0A",
"% 	c #001C1B",
"& 	c #002E2C",
"* 	c #001E1D",
"= 	c #00423E",
"- 	c #2C5F6E",
"; 	c #0E6162",
"> 	c #004640",
", 	c #000E0E",
"' 	c #001E1E",
") 	c #002828",
"! 	c #003433",
"~ 	c #003836",
"{ 	c #003A39",
"] 	c #003C3B",
"^ 	c #00302F",
"/ 	c #000606",
"( 	c #000C0C",
"_ 	c #002C2A",
": 	c #004642",
"< 	c #002423",
"[ 	c #00302E",
"} 	c #01554E",
"| 	c #01554C",
"1 	c #065E59",
"2 	c #0D6362",
"3 	c #015B54",
"4 	c #005853",
"5 	c #1D616B",
"6 	c #00302D",
"7 	c #000202",
"8 	c #002D2E",
"9 	c #005453",
"0 	c #006261",
"a 	c #00605F",
"b 	c #005857",
"c 	c #004645",
"d 	c #00403E",
"e 	c #001212",
"f 	c #003835",
"g 	c #004440",
"h 	c #004A46",
"i 	c #00403C",
"j 	c #001818",
"k 	c #002222",
"l 	c #003C38",
"m 	c #08584E",
"n 	c #003E3A",
"o 	c #00524B",
"p 	c #005A55",
"q 	c #08605B",
"r 	c #2D566D",
"s 	c #435173",
"t 	c #004241",
"u 	c #00696A",
"v 	c #006B6C",
"w 	c #006566",
"x 	c #004443",
"y 	c #004240",
"z 	c #001616",
"A 	c #001A1A",
"B 	c #00544D",
"C 	c #0A5E59",
"D 	c #00504B",
"E 	c #001615",
"F 	c #002A28",
"G 	c #003C37",
"H 	c #055950",
"I 	c #195D61",
"J 	c #2A5768",
"K 	c #155E5F",
"L 	c #001414",
"M 	c #002B2C",
"N 	c #005C5B",
"O 	c #004E4D",
"P 	c #017879",
"Q 	c #02787A",
"R 	c #006F70",
"S 	c #005E5D",
"T 	c #004A49",
"U 	c #003230",
"V 	c #045C55",
"W 	c #00564F",
"X 	c #002C29",
"Y 	c #004844",
"Z 	c #001010",
"` 	c #001A19",
" .	c #01534A",
"..	c #185D60",
"+.	c #245966",
"@.	c #003833",
"#.	c #002C2B",
"$.	c #005A59",
"%.	c #007276",
"&.	c #006768",
"*.	c #004C4B",
"=.	c #002A2A",
"-.	c #175E69",
";.	c #395A71",
">.	c #185E60",
",.	c #002A29",
"'.	c #002221",
").	c #005851",
"!.	c #00403B",
"~.	c #004847",
"{.	c #017677",
"].	c #00403F",
"^.	c #004C46",
"/.	c #004C48",
"(.	c #004A44",
"_.	c #1E5B66",
":.	c #2A566A",
"<.	c #1B5B5F",
"[.	c #003633",
"}.	c #025C55",
"|.	c #035B54",
"1.	c #035D56",
"2.	c #0B5B54",
"3.	c #003231",
"4.	c #005251",
"5.	c #007172",
"6.	c #006D6E",
"7.	c #003E3C",
"8.	c #00322F",
"9.	c #002625",
"0.	c #002827",
"a.	c #075950",
"b.	c #285766",
"c.	c #295867",
"d.	c #002E2B",
"e.	c #003A37",
"f.	c #185D68",
"g.	c #275C6D",
"h.	c #0D6061",
"i.	c #135F61",
"j.	c #0A5850",
"k.	c #001413",
"l.	c #007374",
"m.	c #006364",
"n.	c #002E2D",
"o.	c #295667",
"p.	c #095F5C",
"q.	c #002826",
"r.	c #004442",
"s.	c #003432",
"t.	c #00443E",
"u.	c #575377",
"v.	c #6F607E",
"w.	c #095F5A",
"x.	c #355771",
"y.	c #125F60",
"z.	c #027678",
"A.	c #007576",
"B.	c #002424",
"C.	c #00423D",
"D.	c #0E6364",
"E.	c #003634",
"F.	c #1D5D6B",
"G.	c #015B56",
"H.	c #0B5B57",
"I.	c #245E6C",
"J.	c #116267",
"K.	c #2D5C6D",
"L.	c #00100F",
"M.	c #03777B",
"N.	c #003E3D",
"O.	c #007478",
"P.	c #06564E",
"Q.	c #005049",
"R.	c #0B6362",
"S.	c #005651",
"T.	c #185C68",
"U.	c #0A6261",
"V.	c #025E59",
"W.	c #003A38",
"X.	c #095B55",
"Y.	c #004E49",
"Z.	c #004842",
"`.	c #2A5668",
" +	c #195D5F",
".+	c #2A576A",
"++	c #165D5E",
"@+	c #00524D",
"#+	c #116063",
"$+	c #055F5A",
"%+	c #003C3A",
"&+	c #015B53",
"*+	c #455173",
"=+	c #405272",
"-+	c #006E72",
";+	c #003837",
">+	c #002624",
",+	c #0E5C55",
"'+	c #2C556C",
")+	c #2B556B",
"!+	c #1B5D61",
"~+	c #015952",
"{+	c #06564B",
"]+	c #1C5A6A",
"^+	c #29586B",
"/+	c #2D576D",
"(+	c #045E57",
"_+	c #005C57",
":+	c #4F4E76",
"<+	c #6A5A7E",
"[+	c #525274",
"}+	c #037579",
"|+	c #085A51",
"1+	c #0E5A54",
"2+	c #145F68",
"3+	c #255A69",
"4+	c #395671",
"5+	c #1E5C68",
"6+	c #32576E",
"7+	c #695B7D",
"8+	c #705F7F",
"9+	c #475573",
"0+	c #065C55",
"a+	c #017377",
"b+	c #002020",
"c+	c #001817",
"d+	c #0A6162",
"e+	c #0E5F62",
"f+	c #2E586E",
"g+	c #115F5C",
"h+	c #306366",
"i+	c #DB9171",
"j+	c #C6766E",
"k+	c #465F76",
"l+	c #135E5F",
"m+	c #475173",
"n+	c #67597D",
"o+	c #71617F",
"p+	c #3E5672",
"q+	c #00504F",
"r+	c #045E59",
"s+	c #08605D",
"t+	c #002626",
"u+	c #085A53",
"v+	c #1D606D",
"w+	c #003D3E",
"x+	c #002F30",
"y+	c #495173",
"z+	c #1C5D66",
"A+	c #001211",
"B+	c #056564",
"C+	c #076564",
"D+	c #056563",
"E+	c #046463",
"F+	c #125E5B",
"G+	c #345970",
"H+	c #0B5F5A",
"I+	c #3C5372",
"J+	c #7E6D7F",
"K+	c #066463",
"L+	c #016160",
"M+	c #046462",
"N+	c #036362",
"O+	c #02605F",
"P+	c #003738",
"Q+	c #136067",
"R+	c #265B6A",
"S+	c #0A605D",
"T+	c #003431",
"U+	c #2C566C",
"V+	c #70627E",
"W+	c #086463",
"X+	c #036564",
"Y+	c #086665",
"Z+	c #005655",
"`+	c #1D5C69",
" @	c #265866",
".@	c #3A5472",
"+@	c #026261",
"@@	c #026463",
"#@	c #08625F",
"$@	c #004845",
"%@	c #1D5C63",
"&@	c #003635",
"*@	c #015D58",
"=@	c #225A68",
"-@	c #445472",
";@	c #525076",
">@	c #00201F",
",@	c #046664",
"'@	c #00393A",
")@	c #004344",
"!@	c #003536",
"~@	c #003334",
"{@	c #003F40",
"]@	c #16605A",
"^@	c #2F626F",
"/@	c #14605A",
"(@	c #035754",
"_@	c #0C5C57",
":@	c #4A4F74",
"<@	c #32586E",
"[@	c #505B78",
"}@	c #4C5B78",
"|@	c #0F6564",
"1@	c #29686B",
"2@	c #156766",
"3@	c #076160",
"4@	c #29596B",
"5@	c #61557B",
"6@	c #045E5D",
"7@	c #156968",
"8@	c #1B5D69",
"9@	c #075F5A",
"0@	c #125E5D",
"a@	c #036160",
"b@	c #035F57",
"c@	c #1C5E66",
"d@	c #1D5C61",
"e@	c #04605F",
"f@	c #007074",
"g@	c #003E39",
"h@	c #065C5B",
"i@	c #0F6160",
"j@	c #0F6362",
"k@	c #0B6160",
"l@	c #02767A",
"m@	c #146867",
"n@	c #1C676A",
"o@	c #015B5A",
"p@	c #1B6869",
"q@	c #106663",
"r@	c #003132",
"s@	c #003A3C",
"t@	c #005152",
"u@	c #003B3C",
"v@	c #29696B",
"w@	c #146663",
"x@	c #00595A",
"y@	c #00383A",
"z@	c #003E40",
"A@	c #003C3E",
"B@	c #04787C",
"C@	c #037A7B",
"D@	c #1B6767",
"E@	c #27696B",
"F@	c #007778",
"G@	c #08605F",
"H@	c #2E696C",
"I@	c #166464",
"J@	c #12625F",
"K@	c #14605D",
"L@	c #006162",
"M@	c #0D615E",
"N@	c #006463",
"                                                                                                                                ",
"                                                                                                                                ",
"                                                                                                                                ",
"                                                                                                                                ",
"                                                                                                                                ",
"                                                                                                                                ",
"                                                                                                                                ",
"                                                                                                                                ",
"                        . . . . . . .   . + . .                                   . . . . . . . .                               ",
"                      . @ # + $ % & * . = - ; > , .                     . . . . , ' ) ! ~ { ] ^ / .                             ",
"                  . . ( _ : < . # [ } | 1 2 3 4 5 6 .               . . 7 ( 8 9 0 0 a b c d d d ^ .                             ",
"                . . e f g h i j $ k l m n o p q r s , .         . . . e { t u u u v w a 9 x d d y z .                           ",
"              . . A B f n C D [ / , E F G H I J J K +         . . L M c a N O P Q R v 0 S T d d d ^ .                           ",
"              . L U V n W X Y U / Z L @ 7 `  ...+.@..     . . 7 #.S v O b u N $.Q Q %.&.a *.d d y =..                           ",
"          . . F W & > -.;.>.,.< / '.o ).l * 7 , !.. . . 7 z ) ~.t R {.u c w R b 0 Q P v a T ].d { / .                           ",
"        . . A ^./.D _ (._.:.<.6 $ [.}.|.1.).2.6 . . 7 # 3.~.w &.T ~.&.].u 4.w 5.$.&.6.6.0 x 7.# + .                             ",
"      . 7 8.n 9.y p D 0.a.b.c.d.@ e.f.g.h.i.J I j.k.7 A ! a l.v &.S ].$.6.w ~.S m.*.m.w b n.$ / 7 .                             ",
"      . X o.p.F q.r.h s.t.[.q.7 e.0., ^.u.v.w.4 x.y.7 . A x v z.&.&.a t 9 c A.O O O ].x L . B.3..                               ",
"    . E C.l l D.h _ E.0.C.< . }.F.G.i j , H.I.J.K.g ` L.. L t M.A.u u a N.T O.6.x ] ' . 7 t *.( .                               ",
"    / P.Q.k h R.S.& 0.8.# . Q.T.U.V.4 W.^.( , X.Y./ Z.`.q.. Z 4.Q z.6.v 0 N.].~.#./ . j 4.4.#..                                 ",
"  . <  +.+++_ l p @+!.> / h F.#+$+V.@+%+Z.7 7 . ( _ &+*+=+F . ( ].u P z.R w #.. . 7 Z -+u ;+7 .                                 ",
"  . >+,+'+)+!+& ~+S.{+$ l ]+^+/+(+_+d _ @ @ N.' . L #+:+<+[+i . @ ^ b 6.}+m., 3.T + k P a # .                                   ",
"  . 7 @ G |+1+e.j X ( '.2+3+x.4+5+d 9.. 0.0.. #.z . $ 6+7+8+9+0+/ 7 B.O 0 5.a+v b+. ;+l.~.+ .                                   ",
"  . % c+/ / $ / ( e @ }.d+e+f+g+, + . h+i+j+k+$ . 7 . 7 l+m+n+o+p+, . e N.q+q+b+. ) ~.t j .                                     ",
"  . % a.q., ( k E.n + E.r+s+% . . $ L 3.3.B.t+n.# Z + . . . . k.> ).9.. @ B.' . @ 0 v ;+7 .                                     ",
"  . . u+& c+$ i /.v+e ` ^.( . A ].w+;+4.b b N S N c x+# e =.t+Z + . & [ 7 / + Z @ . b+, .                                       ",
"    . q.[ >++ & }.y+z+$ A+7 =.O b $.q+N B+C+D+E+a c T 9 B.' 4.] { ) / U s.. . F+# . . .                                         ",
"  . [ G+Y.n A+, H+I+J+c+. # *.N a K+L+M+K+N+M+O+T P+b O+b ' x a ~.].N.. $ # + B.e 7 7                                           ",
"  . Q+R+S+Y.T++ h U+V+q., n.S L+W+X+E+M+K+N+K+a 9 x+L+D+a n.;+Y+b Z+T B.+ Y.Y + . b++                                           ",
"  . (+`+ @V.g L < r .@` A ~.N +@E+N+K++@K+K+K+K+@@] X+Y++@x ) C+L+a $.9 . 4 l E 7 Z .                                           ",
"  . 7 #@= @+$@E.7 Q.%@( ' &@].$.a M++@T $.C+K+K+N+~.X+Y+E+x t+D+X+S S N + @+E.@ / +                                             ",
"    . l *@=@0+i Z j 1 Z ' c 9 a L+E+K+Z+N+K+K+K+N+x +@Y+C+~.t+D+L+N N N . 7.b+. 7 .                                             ",
"      7 -@;@C.+ 7 . l >@L ] 9 L++@M+B+K+K+K+,@O+a c +@C+D+N.#.C+$.b T *.. j / .                                                 ",
"      . , . . . . . . / / t+q+N L+K+O+N++@+@L+q+T { a C+O+=.! a O x c , . . .                                                   ",
"        . .   . A + + . . , N.9 $.$.c Z+a a N 4.;+'@x Z+! B.N.w+t { t+.                                                         ",
"              @ ;+) + + + . , ] T c ] Z+N N S a $.~.n.#.B.] )@!@# + . .                                                         ",
"            . b+] ;+B.Z 7 @ . + A k ~@] t c t ].{@! # @ L e @ . . .                                                             ",
"            . ~@9 N O =.L . ,.% . . @ ]@^@/@(@^ Z . 7 Z Z , k A .                                                               ",
"            7 4.&.&.w $.#.e . _@:@<@% ' [@}@_ 7 ' |@1@2@$.3@q+7                                                                 ",
"          . 7 S A.Q P 5.$.=.( 7 4@J+5@o !.+ . k 6@1@7@$.S ;+7                                                                   ",
"          . / m.P Q Q Q A.S ) / + G+8@9@6+0@/ . ].Z+9 a@Z++                                                                     ",
"          . @ &.Q Q Q Q Q 5.b k . , W.V.b@c@d@@ $ '@e@] 7                                                                       ",
"            @ &.Q Q Q Q Q Q 6.f@R T + . * = 8., + Z e . .                                                                       ",
"            + v Q Q Q P P Q A.5.w 4.;+j / . . ` ^.. .                                   . + @ +                                 ",
"            7 a Q Q Q Q Q 6.u m.c '@w a N.t+7 . >@g@.                           . . # { h@i@j@k@L . 7 .                         ",
"            . ;+a+Q l@Q 6.&.w T t S l@$.c x &@A . + .             . . . . . + 7 @ b m@n@4.@ $ ( , e j j e L L z z j j j A z .   ",
"            . 7 $.P P 5.u w *.Z+0 c 9 *.m.*.S 0 N.( 7 . . . + ( $ / / , b+! 4.) / o@p@q@Z @ r@s@t@P+'@'@P+!@8 u@!@P+P+P+r@8 A . ",
"              . ( S 5.v S ~.].q+A.b b 6.$.N 6.u N ^ . / j n.N.*.*.T O S -+c N $.. c v@w@Z $ ) s@x@~@P+'@y@u@~@z@w+w+A@{@A@A@A . ",
"                . $ $.N N.0 a+*.Z+Z+A.m.$.P l.u S N.! ~.b &.v v 6.R P }+B@b T C@( L D@E@x . B.B.t+) ) ) k Z Z A j j z L L Z .   ",
"                  . / B.~.u F@S 4.R m.*.P Q O.&.S t ].O S Q Q Q Q Q Q Q Q l.N.{.t + G@H@H@I@J@K@#.7 .                           ",
"                    . . L *.$.*.L@m.*.%.Q A.6.0 S t N.4.$.Q z.z.%.w R u %.Q ~.S O 7 $ j ~.M@h@( .                               ",
"                      . . . e ;+4.T 0 %.f@R &.a b ].N.Z+N@z.z.z.Q w $.w m.m.c &@b+7 . . . . .                                   ",
"                          . . . A ! S 0 a a a N *.7.N.T $.m.5.-+&.a c ! ! # @ . . .                                             ",
"                              . . . / A r@t ~.T y y ] ] T 9 9 T ] k @ . . . .                                                   ",
"                                    . . . . 7 @ Z e , . 7 / / 7 . . .                                                           ",
"                                              . . . .       .                                                                   ",
"                                                                                                                                ",
"                                                                                                                                ",
"                                                                                                                                ",
"                                                                                                                                ",
"                                                                                                                                ",
"                                                                                                                                ",
"                                                                                                                                ",
"                                                                                                                                "};
