/* XPM */
static const char * player_shoot_2_blue_xpm[] = {
"64 64 345 2",
"  	c None",
". 	c #000000",
"+ 	c #000202",
"@ 	c #000A0A",
"# 	c #000606",
"$ 	c #000404",
"% 	c #000808",
"& 	c #002221",
"* 	c #003E3A",
"= 	c #001212",
"- 	c #001E1D",
"; 	c #002E2B",
"> 	c #00100F",
", 	c #000E0E",
"' 	c #00524D",
") 	c #001A19",
"! 	c #001817",
"~ 	c #003633",
"{ 	c #003836",
"] 	c #00423E",
"^ 	c #002E2C",
"/ 	c #001A1A",
"( 	c #003230",
"_ 	c #005049",
": 	c #00403B",
"< 	c #06605B",
"[ 	c #26616E",
"} 	c #145F66",
"| 	c #136061",
"1 	c #002423",
"2 	c #003432",
"3 	c #004A46",
"4 	c #003431",
"5 	c #004E49",
"6 	c #00544F",
"7 	c #00403C",
"8 	c #001010",
"9 	c #005249",
"0 	c #005851",
"a 	c #005A53",
"b 	c #004E4B",
"c 	c #245F6C",
"d 	c #003C37",
"e 	c #001615",
"f 	c #002222",
"g 	c #085E59",
"h 	c #003A37",
"i 	c #00443E",
"j 	c #035B52",
"k 	c #00201F",
"l 	c #00302D",
"m 	c #004842",
"n 	c #025C57",
"o 	c #185F64",
"p 	c #2C566C",
"q 	c #3C5472",
"r 	c #00322F",
"s 	c #0E5C57",
"t 	c #315B6F",
"u 	c #002A29",
"v 	c #003E3C",
"w 	c #001414",
"x 	c #0A5A51",
"y 	c #215A65",
"z 	c #295869",
"A 	c #295867",
"B 	c #04564E",
"C 	c #000C0C",
"D 	c #003C38",
"E 	c #00302E",
"F 	c #205B6A",
"G 	c #2B556B",
"H 	c #085A53",
"I 	c #002827",
"J 	c #001616",
"K 	c #004C48",
"L 	c #004C44",
"M 	c #1B5C61",
"N 	c #205A64",
"O 	c #002422",
"P 	c #1E5B62",
"Q 	c #00564F",
"R 	c #005853",
"S 	c #002A28",
"T 	c #0F5D5B",
"U 	c #2A5668",
"V 	c #285868",
"W 	c #002624",
"X 	c #00524B",
"Y 	c #045C57",
"Z 	c #025C55",
"` 	c #002C29",
" .	c #004A42",
"..	c #004440",
"+.	c #004642",
"@.	c #00423D",
"#.	c #1D5C61",
"$.	c #002C2A",
"%.	c #1B5B69",
"&.	c #065E59",
"*.	c #035B54",
"=.	c #165E60",
"-.	c #08584F",
";.	c #001818",
">.	c #002424",
",.	c #00302F",
"'.	c #003A39",
").	c #003433",
"!.	c #005655",
"~.	c #002626",
"{.	c #001E1E",
"].	c #0E5A54",
"^.	c #06605D",
"/.	c #1B616B",
"(.	c #003C3A",
"_.	c #003A38",
":.	c #001C1B",
"<.	c #215969",
"[.	c #375B6F",
"}.	c #235A69",
"|.	c #2A576A",
"1.	c #155E61",
"2.	c #1A5E60",
"3.	c #003231",
"4.	c #004241",
"5.	c #006364",
"6.	c #006566",
"7.	c #006F70",
"8.	c #006B6C",
"9.	c #00605F",
"0.	c #003C3B",
"a.	c #005E5D",
"b.	c #005C5B",
"c.	c #001C1C",
"d.	c #215A63",
"e.	c #105E5B",
"f.	c #00504B",
"g.	c #002625",
"h.	c #195B69",
"i.	c #155E67",
"j.	c #005A55",
"k.	c #75657F",
"l.	c #156067",
"m.	c #345770",
"n.	c #195D63",
"o.	c #004C4B",
"p.	c #00696A",
"q.	c #027678",
"r.	c #006162",
"s.	c #006E72",
"t.	c #007374",
"u.	c #005251",
"v.	c #004A49",
"w.	c #07574D",
"x.	c #125E5D",
"y.	c #003835",
"z.	c #106164",
"A.	c #08625F",
"B.	c #015D57",
"C.	c #165E64",
"D.	c #136067",
"E.	c #2A5C6C",
"F.	c #025851",
"G.	c #002C2B",
"H.	c #02787A",
"I.	c #006768",
"J.	c #004645",
"K.	c #006261",
"L.	c #0C5C57",
"M.	c #265766",
"N.	c #265966",
"O.	c #004E46",
"P.	c #00504D",
"Q.	c #0C5C56",
"R.	c #003632",
"S.	c #004A44",
"T.	c #245C6C",
"U.	c #125D64",
"V.	c #0F6061",
"W.	c #025E59",
"X.	c #00544B",
"Y.	c #075B54",
"Z.	c #004442",
"`.	c #05554D",
" +	c #006D6E",
".+	c #017879",
"++	c #00403F",
"@+	c #004443",
"#+	c #005453",
"$+	c #001413",
"%+	c #004E48",
"&+	c #215B69",
"*+	c #31576F",
"=+	c #1F5C67",
"-+	c #116161",
";+	c #3E5372",
">+	c #004E4D",
",+	c #03777B",
"'+	c #004847",
")+	c #00504F",
"!+	c #002E2D",
"~+	c #145F68",
"{+	c #195E67",
"]+	c #375571",
"^+	c #355771",
"/+	c #2E586E",
"(+	c #225C6A",
"_+	c #455273",
":+	c #63567C",
"<+	c #007172",
"[+	c #003635",
"}+	c #135D5C",
"|+	c #08605D",
"1+	c #0D6061",
"2+	c #185E66",
"3+	c #31556F",
"4+	c #155E5F",
"5+	c #225A68",
"6+	c #61547C",
"7+	c #70607E",
"8+	c #3D5871",
"9+	c #003837",
"0+	c #005857",
"a+	c #02767A",
"b+	c #007276",
"c+	c #004240",
"d+	c #005651",
"e+	c #1A616C",
"f+	c #075F5C",
"g+	c #B4687C",
"h+	c #AA6680",
"i+	c #32626E",
"j+	c #175F61",
"k+	c #2D576D",
"l+	c #4C4F74",
"m+	c #395A71",
"n+	c #005A59",
"o+	c #01554C",
"p+	c #015951",
"q+	c #425772",
"r+	c #035950",
"s+	c #002A2A",
"t+	c #002828",
"u+	c #003E3D",
"v+	c #2F5C6D",
"w+	c #285A6A",
"x+	c #215B65",
"y+	c #695B7D",
"z+	c #1E5B66",
"A+	c #003536",
"B+	c #255F6D",
"C+	c #004844",
"D+	c #464F72",
"E+	c #475473",
"F+	c #026463",
"G+	c #066463",
"H+	c #056563",
"I+	c #046463",
"J+	c #002D2E",
"K+	c #075D58",
"L+	c #2E576E",
"M+	c #115F5E",
"N+	c #036362",
"O+	c #026261",
"P+	c #046462",
"Q+	c #003738",
"R+	c #007478",
"S+	c #007074",
"T+	c #015952",
"U+	c #004A47",
"V+	c #235967",
"W+	c #015F5E",
"X+	c #003B3C",
"Y+	c #076564",
"Z+	c #002020",
"`+	c #076362",
" @	c #2A5D6E",
".@	c #3E5672",
"+@	c #035D56",
"@@	c #046664",
"#@	c #086665",
"$@	c #017677",
"%@	c #0E5E5B",
"&@	c #001211",
"*@	c #065C55",
"=@	c #003F40",
"-@	c #016160",
";@	c #036564",
">@	c #056564",
",@	c #086463",
"'@	c #02605F",
")@	c #002F30",
"!@	c #00524F",
"~@	c #0E5E57",
"{@	c #065A55",
"]@	c #2B586B",
"^@	c #BF716F",
"/@	c #D98E71",
"(@	c #715E82",
"_@	c #126261",
":@	c #136363",
"<@	c #056160",
"[@	c #106665",
"}@	c #165E62",
"|@	c #003334",
"1@	c #196764",
"2@	c #2E696C",
"3@	c #186768",
"4@	c #0B6362",
"5@	c #007576",
"6@	c #002220",
"7@	c #116362",
"8@	c #096362",
"9@	c #0C6463",
"0@	c #055F5E",
"a@	c #176766",
"b@	c #0A605D",
"c@	c #0F6562",
"d@	c #1B6869",
"e@	c #025C5B",
"f@	c #166867",
"g@	c #1C6768",
"h@	c #003132",
"i@	c #004F50",
"j@	c #136361",
"k@	c #27686B",
"l@	c #004D50",
"m@	c #005B5E",
"n@	c #004446",
"o@	c #004748",
"p@	c #00494A",
"q@	c #004546",
"r@	c #004042",
"s@	c #003C3E",
"t@	c #004344",
"u@	c #004244",
"v@	c #29686B",
"w@	c #017579",
"x@	c #017377",
"y@	c #23696B",
"z@	c #2F6A6D",
"A@	c #2D696D",
"B@	c #2C6A6C",
"C@	c #316A6F",
"D@	c #006463",
"                                                                                                                                ",
"                                                                                                                                ",
"                                                                                                                                ",
"                                                                                                                                ",
"                                                                                                                                ",
"                                                                                                                                ",
"                                                                                                                                ",
"                                                                                                                                ",
"                                . .                                                                                             ",
"                            . + @ . # $ . .   . . .                                                                             ",
"                        . . % & * = + - ; > . , ' ) +                                                                           ",
"                      . $ ! ~ { ] ^ . / ( _ : < [ } | 1 .                                                                       ",
"                    . % 2 3 4 5 6 7 8 8 1 ] 9 7 0 a b c d .                                                                     ",
"                . . e f 5 g h i j 3 k # , l m : 5 n o p q $ .                                                                   ",
"              . + r s ( i 7 t g u v w @ w # % & x y z A B .                                                                     ",
"            . C 1 D 3 6 E ] F G H I @ J h K & @ # L M N ! .                                                                     ",
"          . O P Q 1 { R 5 S T U V _ @ W X Y Z _ ` + ) S . . . . . . . . . . . . .                                               ",
"        . )  .| ..4 I +.3 E @.T #.S # $.} %.&.*.=.-.= . . # ;.>.,.'.).!.!.~.{.w . . . .                                         ",
"      . ) ].u 1 ^./.(.( _.$. .$.% @ ] 1 :.<.[.}.|.1.2.:.. / 3.4.5.6.7.8.9.0.a.b.'.c.% . .                                       ",
"      $ B d.e.& 5 R f.g.$.>.` % :.h.i.j.( % m k.l.R m.n.. + f o.6.p.q.8.r.0.s.t.a.u.v.,.8 . .                                   ",
"    . = w.U G x.I 5 j.v L y.+ I %.z.A.B.f.( ! W C.D.E.F.C . # G.!.s.H.p.I.v.p.7.o.b.9.J.K.0., .                                 ",
"    . + , L.M.N.O.7 P.Q.R.C S.T.U.V.W.W.f._.X.% + Y.Z.% : `.. @ G. +.+I.I.v.++@+J.I.r.#+ +K.9.{.. .                             ",
"    . $+, . :.@.` 8 - W $ %+%.&+*+=+W.f.(.~ , + $ # C 2 -+;+9 . , >+,+p.I.'+K.t.)+8.r.b.,+7.9.b.!+$ .                           ",
"    . S m k % $ # , 8 + ..~+{+]+^+/+f.{ {.. + 0.'+@ + 7 (+_+:+h . w <+ +I.J.#+5.o.7.5.6.,+t. +9.#+[+% .                         ",
"    . ! }+; 8 = ^ _.(.$ * |+1+2+3+4+( + :.{ % , @+,.# . 5+6+7+8+u . 9+t.p.++>+0+o.8.9. +a+b+p.K.!.c+0.% .                       ",
"    . $ K I e C 7 d+e+, g.a f+i :.@ . K g+h+i+f . $ # . C j+k+l+m+` C .+I.4.9.,+'+9.n+t.H.7.!.u.o.++++0.#                       ",
"  . $ o+p+D - $ c+-+q+u ! r+g.. + % 8 f {.f ~.s+t+/ # + . . . . + X.w ).8.'+>+ +v.b.#+p.8.= ,.u+u+u+u+u+8 .                     ",
"  . $.v+w+X y.$ { x+y+z+@ 8 . J ++4.,.v.#+!.n+a.n+u.u+t+J {.A+>.% . % C $ % w u+u+'+4.I.~.+ u+J.>+'+4.v % .                     ",
"  . $.B+p R C+= 1 n.D+E+. . f >+0+n+>+0+F+G+H+G+I+u.[+#+u+/ 0.>+'.J+/ # = . . . = >.3.!.J C )+!.>+9.b.'+@ .                     ",
"    . < _ K+3 E $ x+L+M+. J '+a.a.G+N+O+G+I+P+O+#+0.>+O+9.,.>.a.v.J.Q+c.8 J + + . . . % + c.9.R+,+S+9.)+C .                     ",
"    . 6 ..T+U+(.# ] V+; @ t+b.W+G+G+P+I+G+N+I+F+)+X+#+Y+O+!.Z+b.`+0+>+#+@ Z+. . .     + . !+6.,+H.H.7.!., .                     ",
"    . ;. @.@| D 8 ;.+@) / ++9.O+G+P+@@F+N+G+G+G+G+'+v.#@H+b.t+J.Y+a.9.a.t++ g.% .       % @+p.a+q.$@R+u.C .                     ",
"      + %@o+&@$ + . *@= c.3.=@!.9.P+P+)+#+Y+G+G+G+)+>+#@Y+b.t+J.Y+9.9.b.3.@ ' D + .     C o.8.a+q.$@<+o.% .                     ",
"      . . . . . . . = C {.++o.b.-@N+I+b.a.G+G+G+Y+u.v.#@#@-@t+J.#@b.9.a.,.8 ' y.$ .     % o. +,+7.t.p.+++                       ",
"            . # 8 + . . J '.u.-@F+;@I+G+G+P+I+>@-@u.v.,@#@O+~.o.H+#+0+a.>.c.7 g..     . $ o.b+H.7.n+b.f .                       ",
"            . t+).@ % . $ >.>+b.-@P+O+P+O+N+N+#+#+++b.Y+I+)+~.>+b.>+4.>+. E 2 % .     . % #+H.H. +K.@+# .                       ",
"          . , 0.'.s+% $ . , u+#+n+a.o.!.9.W+a.!.[+0.4.!.)+~.3.4.9+++0.C . @ = .       . / K.H.H.7.I.9+.                         ",
"          . >.v.u.++f , . . = u+>+o.[+u.a.a.9.'@'@#+).'.t+s+++u+X+Z+$ + . . .         . G. +H.H.H.6.)..                         ",
"          . @+5.I.5.>+>.% + . % f )@[+@+>+)+o.v.@+0.[+w J ;.w @ + . + .               . 0.4.@+0+s.9.{..                         ",
"        . . !.S+.+t.6.4./ + e e . . % !@~@{@!@0.~.8 . . # # C c.% $ .                 $ u. +a.o.4.4.@ .                         ",
"        . % 8.H.H.H.H.6.[+= . ]@n.: # _.^@/@(@Z+. 4._@:@<@0+[@J+.                     . @ [+s.,+ +'..                           ",
"        . Z+<+H.H.H.H.$@a.>.. C %@}@*.S.C + + |@1@2@3@a.a.4@f .                       . . . + {.s+w .                           ",
"        . ,.5@H.H.H.H.H. +5.I.J.# . . % 6@+ $ o.7@8@0+W+o.# .                       . $ @ ;.;.@ + . . .                         ",
"        . 0.H.H.H.H.H.H.H.$@8.!.'.'.G.8 . . . , u+!.9@'+$ .           . . . . . + [+0@a@b@@+4.'.. + + + .                       ",
"        . ++.+H.H.H..+H.<+p.b.'.b. +>+++[+f 8 . # ,.Z+. . + . . . . . . # = c.. [+c@d@e@. J / ;.{.f >.c./ ;./ / / ;./ ;.;..     ",
"        . s+$@H.H..+H.7.p.6.@+'+R+8.@+n+++K.b.0.{.$ . + $ C t+s+f / >.'.'+'+6.8 ;.f@g@!+# c.h@i@|@Q+A+A+A+)@Q+A+Q+Q+Q+A+|@;..   ",
"        . . a.H.H.H.S+I.6.v.!.#+v.)+K.a.#+ +I.a.0.;.t+9+J.)+!.0+0+9.p.t.p.++t.9+$ j@k@3.# h@l@m@n@o@p@q@r@s@n@n@n@t@t@u@u@/ .   ",
"          . >. +q.H.p.p.n+@+r.$@)+K.8.u.<+7.8.a.J.++'+a.5@R+$@q.q.,+a+H.R+4.p.9.. v.v@7@# / c.{.Z+Z+Z+{.C C J J J J J w = .     ",
"            . ~.8.<+p.0+'+u.4.K.#+R+K.5.a+q.8.9.'+u+v.#+.+H.H.H..+w@.+H.,+0+!.x@% ,.y@z@A@B@C@%@. % '..                         ",
"            . . / p.b.u+p.H.K.'+8.I.v.x@H.b+I.K.'+u+>+n+q.q.q.q.D@K.8.8.$@ +@+9./ . , Z+u+)+{.C '+J #                           ",
"              . . c.h@4.5. +0+#+6.#+6.,+b+7.5.a.J.0.v.9.7.H.q.x@5@n+0+b.n+'+).Z+% .   . . . . + . .                             ",
"                  . . % G.0.4.0+n+o.7.8.I.6.9.n+4.u+++#+n+9.6.a.u.4.G.;., $ . . .                                               ",
"                    . . . . C {.s+4.b.a.9.a.!.o.@+[+c.t+).[+J+>.;.# . . . .                                                     ",
"                          . . . . . $ @ 8 , @ % $ . . . . . . . . .                                                             ",
"                                      .   . . .                                                                                 ",
"                                                                                                                                ",
"                                                                                                                                ",
"                                                                                                                                ",
"                                                                                                                                ",
"                                                                                                                                ",
"                                                                                                                                ",
"                                                                                                                                ",
"                                                                                                                                ",
"                                                                                                                                "};
