/* XPM */
static const char * player_shoot_1_blue_xpm[] = {
"64 64 348 2",
"  	c None",
". 	c #000000",
"+ 	c #000606",
"@ 	c #000404",
"# 	c #000808",
"$ 	c #000202",
"% 	c #001010",
"& 	c #002C2A",
"* 	c #003A37",
"= 	c #000E0E",
"- 	c #002625",
"; 	c #002A29",
"> 	c #002221",
", 	c #004440",
"' 	c #000A0A",
") 	c #00201F",
"! 	c #003C38",
"~ 	c #003A38",
"{ 	c #00403C",
"] 	c #001A19",
"^ 	c #04564E",
"/ 	c #1C606A",
"( 	c #205F6C",
"_ 	c #125F62",
": 	c #035952",
"< 	c #001414",
"[ 	c #003633",
"} 	c #005651",
"| 	c #004E49",
"1 	c #003230",
"2 	c #001E1E",
"3 	c #002827",
"4 	c #05574F",
"5 	c #003E39",
"6 	c #005049",
"7 	c #015B53",
"8 	c #00544F",
"9 	c #005853",
"0 	c #2B5D6D",
"a 	c #000C0C",
"b 	c #001C1C",
"c 	c #00302E",
"d 	c #004640",
"e 	c #00403B",
"f 	c #003C37",
"g 	c #00443E",
"h 	c #00423E",
"i 	c #00504B",
"j 	c #085E59",
"k 	c #235967",
"l 	c #405372",
"m 	c #165F60",
"n 	c #02544B",
"o 	c #003431",
"p 	c #0B6160",
"q 	c #2C5A6E",
"r 	c #003634",
"s 	c #003632",
"t 	c #265966",
"u 	c #2A566A",
"v 	c #295867",
"w 	c #002C29",
"x 	c #001616",
"y 	c #003E3A",
"z 	c #004844",
"A 	c #004A46",
"B 	c #0F6063",
"C 	c #255869",
"D 	c #2A5768",
"E 	c #002222",
"F 	c #001817",
"G 	c #001C1B",
"H 	c #0A5A53",
"I 	c #215A63",
"J 	c #0B5B55",
"K 	c #004842",
"L 	c #225A66",
"M 	c #003835",
"N 	c #00524D",
"O 	c #002A28",
"P 	c #255865",
"Q 	c #2A5668",
"R 	c #215963",
"S 	c #045C57",
"T 	c #005A53",
"U 	c #001615",
"V 	c #00322F",
"W 	c #065C57",
"X 	c #00302D",
"Y 	c #01534A",
"Z 	c #145F60",
"` 	c #0D5B55",
" .	c #004A44",
"..	c #1D5B6B",
"+.	c #116065",
"@.	c #035D56",
"#.	c #055D58",
"$.	c #1D5C61",
"%.	c #00423D",
"&.	c #002828",
"*.	c #003433",
"=.	c #003837",
"-.	c #003A39",
";.	c #005C5B",
">.	c #004847",
",.	c #001A1A",
"'.	c #01574E",
").	c #156067",
"!.	c #0F6465",
"~.	c #003432",
"{.	c #004840",
"].	c #001E1D",
"^.	c #365970",
"/.	c #295A6D",
"(.	c #285868",
"_.	c #235B67",
":.	c #165E60",
"<.	c #06564B",
"[.	c #002424",
"}.	c #00504F",
"|.	c #006566",
"1.	c #007576",
"2.	c #006B6C",
"3.	c #005251",
"4.	c #004645",
"5.	c #005E5D",
"6.	c #005453",
"7.	c #001212",
"8.	c #135D5A",
"9.	c #245966",
"0.	c #004C46",
"a.	c #002423",
"b.	c #225B6C",
"c.	c #08605D",
"d.	c #001211",
"e.	c #275969",
"f.	c #6D5F7D",
"g.	c #025E56",
"h.	c #0E6261",
"i.	c #375571",
"j.	c #002E2D",
"k.	c #007172",
"l.	c #017879",
"m.	c #004A49",
"n.	c #007374",
"o.	c #007074",
"p.	c #003C3B",
"q.	c #002020",
"r.	c #185D5E",
"s.	c #002E2C",
"t.	c #005048",
"u.	c #004E48",
"v.	c #175E69",
"w.	c #0D6263",
"x.	c #04605A",
"y.	c #025E59",
"z.	c #1C5E6A",
"A.	c #126166",
"B.	c #375871",
"C.	c #003E3D",
"D.	c #00605F",
"E.	c #00696A",
"F.	c #006D6E",
"G.	c #006768",
"H.	c #004443",
"I.	c #006364",
"J.	c #005857",
"K.	c #002626",
"L.	c #205964",
"M.	c #225A64",
"N.	c #015952",
"O.	c #08584F",
"P.	c #115F63",
"Q.	c #195C69",
"R.	c #175D65",
"S.	c #065E59",
"T.	c #005A55",
"U.	c #004442",
"V.	c #0F6061",
"W.	c #0B5B54",
"X.	c #002422",
"Y.	c #007276",
"Z.	c #006162",
"`.	c #00403F",
" +	c #004E4D",
".+	c #006261",
"++	c #002E2B",
"@+	c #0E5F62",
"#+	c #175D67",
"$+	c #31586F",
"%+	c #345470",
"&+	c #0D6160",
"*+	c #025C55",
"=+	c #004644",
"-+	c #003E3C",
";+	c #2C586C",
">+	c #395671",
",+	c #017377",
"'+	c #004C4B",
")+	c #006F70",
"!+	c #005655",
"~+	c #28586A",
"{+	c #365570",
"]+	c #1C5C66",
"^+	c #004642",
"/+	c #00302F",
"(+	c #365770",
"_+	c #484F74",
":+	c #3C5772",
"<+	c #003635",
"[+	c #02787A",
"}+	c #03554D",
"|+	c #00544D",
"1+	c #0C6162",
"2+	c #0D6061",
"3+	c #29596B",
"4+	c #2C566C",
"5+	c #015750",
"6+	c #4D4E75",
"7+	c #65587C",
"8+	c #72627E",
"9+	c #145F66",
"0+	c #00403E",
"a+	c #002624",
"b+	c #004845",
"c+	c #08625F",
"d+	c #015B56",
"e+	c #0A605D",
"f+	c #075B54",
"g+	c #966289",
"h+	c #B36B79",
"i+	c #4E5B76",
"j+	c #1E5B64",
"k+	c #185E66",
"l+	c #007478",
"m+	c #037579",
"n+	c #005A59",
"o+	c #004240",
"p+	c #115F5C",
"q+	c #265B6A",
"r+	c #355D6F",
"s+	c #002A2A",
"t+	c #106366",
"u+	c #375971",
"v+	c #045E57",
"w+	c #7F6D7F",
"x+	c #003738",
"y+	c #002D2E",
"z+	c #004241",
"A+	c #002B2C",
"B+	c #001818",
"C+	c #003536",
"D+	c #002C2B",
"E+	c #1D5F6B",
"F+	c #235A69",
"G+	c #1E5C66",
"H+	c #2A576A",
"I+	c #71627E",
"J+	c #016160",
"K+	c #066463",
"L+	c #056563",
"M+	c #036362",
"N+	c #003B3C",
"O+	c #065C55",
"P+	c #015B54",
"Q+	c #4C4F74",
"R+	c #046462",
"S+	c #004748",
"T+	c #0D5F5C",
"U+	c #076564",
"V+	c #046463",
"W+	c #027678",
"X+	c #004C48",
"Y+	c #2E5B6E",
"Z+	c #00524B",
"`+	c #1D5C65",
" @	c #015F5E",
".@	c #036564",
"+@	c #026261",
"@@	c #003231",
"#@	c #017677",
"$@	c #125E5D",
"%@	c #003A35",
"&@	c #345670",
"*@	c #086665",
"=@	c #001413",
"-@	c #003132",
";@	c #046460",
">@	c #02767A",
",@	c #02605F",
"'@	c #003334",
")@	c #004142",
"!@	c #002826",
"~@	c #002F30",
"{@	c #006E72",
"]@	c #0E5E57",
"^@	c #0B5B57",
"/@	c #005451",
"(@	c #6D5E7E",
"_@	c #33586F",
":@	c #916389",
"<@	c #DA8E70",
"[@	c #AF677D",
"}@	c #10625F",
"|@	c #025C5B",
"1@	c #015D5C",
"2@	c #096160",
"3@	c #185E62",
"4@	c #166064",
"5@	c #145F64",
"6@	c #095B52",
"7@	c #1A6663",
"8@	c #286A6C",
"9@	c #0F6564",
"0@	c #076362",
"a@	c #065E5D",
"b@	c #046261",
"c@	c #036160",
"d@	c #025E5D",
"e@	c #0C6463",
"f@	c #055F5E",
"g@	c #156562",
"h@	c #025A57",
"i@	c #03777B",
"j@	c #0E6461",
"k@	c #1C676A",
"l@	c #166867",
"m@	c #1E686A",
"n@	c #003436",
"o@	c #004B4C",
"p@	c #0E625F",
"q@	c #2B696D",
"r@	c #00474A",
"s@	c #004D50",
"t@	c #005758",
"u@	c #004042",
"v@	c #003F40",
"w@	c #004446",
"x@	c #004548",
"y@	c #004344",
"z@	c #2B686B",
"A@	c #017579",
"B@	c #22676A",
"C@	c #2E6A6E",
"D@	c #2C686C",
"E@	c #2C6A6C",
"F@	c #316A6F",
"G@	c #0E5E5B",
"                                                                                                                                ",
"                                                                                                                                ",
"                                                                                                                                ",
"                                                                                                                                ",
"                                                                                                                                ",
"                                                                                                                                ",
"                                                                                                                                ",
"                                                                                                                                ",
"                                . .                                                                                             ",
"                          . . + @ . # $ . .   . .                                                                               ",
"                        . . % & * . = - ; + . > , ' .                                                                           ",
"                    . . ' ) ! ~ { ] @ > * ^ ! / ( _ : '                                                                         ",
"                  . . < , [ ! } | 1 @ 2 3 4 5 6 7 8 9 0 a                                                                       ",
"                . @ b c 7 d e d 9 ! a a < f g h i j k l m .                                                                     ",
"            . . + n i o d p q g c r # = % @ = s m t u v w .                                                                     ",
"          . $ x 1 y z A ; B C D y E + > A f F + G H I J . .                                                                     ",
"        . $ K L M - N } h O P Q R O ' M 7 S T z U $ V = . . . . . . . . . . . . .                                               ",
"      . $ V 4 W * X c A , & Y Z ` = %  ...+.@.#.$.%.. . . a b &.*.=.-.;.>.,.2 # . . .                                           ",
"      . f '.2 c ).!.& ~ ~.~.{.b $ ]., x * ^./.(._.:.<.+ + [.*.}.|.|.1.2.3.4.5.6.[.7.@ . .                                       ",
"    . ].8.9.0.- 9 } ~ - c a.> @ z b.c.i G d.e.f.g.h.i.* . # j.5.|.k.l.2.6.m.n.o.m.6.p.q.$ . .                                   ",
"    . w r.Q Q 0.s.7 9 ! t.G @ u.v.w.x.y.h ; a 6 z.A.B.O # . % C.D.l.1.E.D.m.F.G.H.I.J.J.6.K.$ .                                 ",
"    . @ > L.P M.V N.i O.G 7.P.Q.R.S.y.T.U.0.[ $ U V.) ' W.X.. < C.l.Y.E.Z.`.`.H. +2.J.G.E..+>.' .                               ",
"    . ] @ + w %.G 7.++U % @+#+$+%+&+*+=+* X $ # . ' < -+;+>+G . ,.E.,+E.5.>.G.k.'+)+!+n.l.G.D.'+x .                             ",
"    . d X ] @ @ # % # = c.B ~+i.{+]+^+~.< . ' 4./+. = 9 (+_+:+' . <+[+E.5.4.;..+ +,+3.l.[+)+|.5.m.2 .                           ",
"    . g }+3 + > 1 -+) % |+1+2+3+4+5+1 + = 1 x @ &.2 . < 6+7+8+9+@ $ F.)+5.p.}.6.3.)+6.[+[+)+|.5. +0+K..                         ",
"    . a+~.3 # ].b+c+d+@ { @.e+f+X.# $ # g+h+i+b+$ $ $ . O j+3+:+k+' <+n.;.-.Y.)+>.|.J.l+m+n+3.}.4.-+o+E .                       ",
"  . = p+^+X 7.% 8 q+r+# M V.0.. . + a q.q.q.K.s+s+2 ' $ . . . . . G @ D.D.p..+|.4.D.3.F.4.@ p.C.C.C.C.~ $                       ",
"  . t+u+v+0.> + } %+w+[ O ++. a x+>.y+4.3.6.J.;.;.!+z+A+,.B+C+s+% . $ $ # ' &.4.C.z+3.E.@ x 4.m.m.z+C.D+.                       ",
"  . E+F+G+i M + =+H+I+f++ . 7.H.!+n+6.6.J+K+L+K+M+;.-. +'+b s+3.N+<+2 @ $ . . + ,.s+z+ +. j.n+3.J.D.3./+.                       ",
"  . - x.O+P+, 7.X 4+Q+e.. = p.J.5.M+K+5.K+R+K+M+5.4.-.D.J+m.2  +n+S+-.<+. @ @ . . . . # @ >.1.l+l+G.!+-..                       ",
"    @ y.z } U.& # T+4+:.. b 6.D.K+U+M+V+K+V+R+R+6.S+p.L+R+5.K.4.U+J.!+3.q.@ . .     . $ 7.6.[+[+W+W+5.C..                       ",
"    . X+Y+>+Z+{ + 1 `+0.a s+;. @V+K+.@.@+@K+K+K+U+!+-.U+U+D.@@*.U+.+5.n+H.. ) .       . j.;.l.[+#@[+|./+.                       ",
"    . a.$@%@# @ . = &@[ x y+=.}.5.M+V+3.}..@K+K+K+;.H.L+*@D.<+@@*@+@5.n+'+@ 6 > .     . <+5.[+W+[+W+;.2 .                       ",
"      . . . . . . . d =@< <+4.;.D.+@K+J+J.K+K+K+K+5.C.K+*@M+<+-@*@J+;.n+m.$ { ; .     . *.D.[+Y.2.n.3.# .                       ",
"            . % # $ . + ' s+m. @+@R+M+K+K+K+R+K+J+;.`.K+*@;@@@=.*@J.!+}.z+@ r x .     . <+E.[+o.!+I.=..                         ",
"            # <+K.@ $ a . ,.H.J.J+M+M+M+M+M+.@n+3.>.'+K+K+5.K.C.R+}.>.}.7.b - . .   . . `.Y.[+k.G.'+q..                         ",
"          . E -.=.b ' $ $ + y+3.J.5.!+3.5. @D.n+p.p.-.}.n+D+&.`.C.`.p.E . B+# .     . # ;.>@[+o.E.m.@ .                         ",
"          $ x+3.'+-.x # + $ + *.m.}.p.>.5.5.D.J+,@n+`.'@/+K.p.)@x+s+' . . . .       . [.I.,+[+[+G.H..                           ",
"        . ' 5.G.|..+-.b . !@a @ B+~@A+`.'+}.}.'+4.C.=.b % b B+a @ . . .             $ C.4.`.3.{@E.K..                           ",
"        . x 2.#@,+)+D./+% . Z a+. . @ r ]@^@/@b+D+x . . $ @ a % $ . .               + m.)+|. +H.z+= .                           ",
"        . =.o.[+[+[+Y.n+E + ].(@_@ .% $ :@<@[@| . K.}@|@n+1@2@' .                   . @ K.G.[+2.C.$ .                           ",
"        . }.l+[+[+[+[+k.'+< . [ 3@4@5@6@. + @ -.7@8@9@n+0@J.a .                     . $ . . ,.j.2 .                             ",
"        $ J.[+[+[+[+[+l.G.E.;.x . . $ G a.. ,.a@9@b@!+c@/+. .                     . @ ' B+B+' . . . .                           ",
"        @ I.[+[+[+[+[+[+W+)+.+z+-.*.,.@ . . . [.m.d@e@K..             . . . . @ <+f@g@h@4.z+C.$ . $ . .                         ",
"        + .+i@[+[+W+[+Y.2.G.H.4.F.D.p.p.&.x @ . 2 *.= . $ . . . . . . @ % 2 $ D+j@k@*.$ B+,.B+2 [.q.,.,.,.,.,.,.,.B+B+@         ",
"        $ !+[+[+l.[+#@E.G.}.C.G.[+'+6.4.3.D. +E # . . @ ' [.D+[.b q.=.m.4.D.,.7.l@m@' a A+n@o@C+C+x+'@C+-@x+C+x+x+C+~@2 @       ",
"        . q.n.[+[+l.E.G.;.>.;.4.3.6.I.}.E.F..+4.B+[.*.H. +!+J.J.5.G.n.1.z+G.>.. p@q@a 7.r@s@t@S+S+S+u@u@v@w@x@y@y@w@u@E $       ",
"        . . >.1.[+o.E.I.>.n+k.E.}.k.D.|.)+k..+}.`.4.n+n.l+#@W+W+[+>@[+m+'+J.o.+ @@z@m.+ 2 b 2 E q.q.% a < x x x x < < .         ",
"          . @ '+1.2..+H.5.C.n+ +F.)+'+#@[+o.I.6.`.m.'+1.[+[+[+[+A@l.A@[+.+4.i@E B+B@C@D@E@F@G@@ + K..                           ",
"            . $ 3.|.z+!+[+Y.m.D.)+6.2.[+,+F.I.3.C.m.n+l.W+#@W+2.5.2.2.n.k.`.5./+. = 2 C.3.q.= &.= $                             ",
"              . a @@/+;.E.)+m.I..+3.i@W+)+E..+}.C.4..+F.[+#@#@#@5.!+5.n+'+<+[.a . . . . . . $ .                                 ",
"                  . $ 2 p.`. +5.>.I.)+E.G.D.5.'+C.C.6.n+D.G.D.!+4./+x % + $ . .                                                 ",
"                    . . . @ x &.*.!+5.D.5.J.}.4.`.2 &.@@<+@@K.,.# . . . .                                                       ",
"                        . . . . . $ # = % ' ' + $ . . . . . . . .                                                               ",
"                                    .   . . .                                                                                   ",
"                                                                                                                                ",
"                                                                                                                                ",
"                                                                                                                                ",
"                                                                                                                                ",
"                                                                                                                                ",
"                                                                                                                                ",
"                                                                                                                                ",
"                                                                                                                                ",
"                                                                                                                                "};
