/* XPM */
static const char * player_shoot_0_blue_xpm[] = {
"64 64 356 2",
"  	c None",
". 	c #000000",
"+ 	c #000C0C",
"@ 	c #000404",
"# 	c #000606",
"$ 	c #001C1B",
"% 	c #003230",
"& 	c #002221",
"* 	c #001C1C",
"= 	c #002A29",
"- 	c #001A18",
"; 	c #000202",
"> 	c #004440",
", 	c #001414",
"' 	c #00322F",
") 	c #003A38",
"! 	c #00403C",
"~ 	c #003836",
"{ 	c #001212",
"] 	c #004844",
"^ 	c #004C46",
"/ 	c #004C48",
"( 	c #28606E",
"_ 	c #175E69",
": 	c #0F5F5E",
"< 	c #003A37",
"[ 	c #002625",
"} 	c #005049",
"| 	c #00302D",
"1 	c #004A46",
"2 	c #00564F",
"3 	c #004642",
"4 	c #000808",
"5 	c #002423",
"6 	c #003432",
"7 	c #08584F",
"8 	c #003431",
"9 	c #00544D",
"0 	c #015B53",
"a 	c #004E4B",
"b 	c #0F6263",
"c 	c #095D56",
"d 	c #002020",
"e 	c #003E3C",
"f 	c #125F60",
"g 	c #003835",
"h 	c #004840",
"i 	c #035950",
"j 	c #00504B",
"k 	c #002C2A",
"l 	c #000E0E",
"m 	c #00443E",
"n 	c #00423D",
"o 	c #004E48",
"p 	c #005853",
"q 	c #116061",
"r 	c #295867",
"s 	c #4A4E74",
"t 	c #135D5C",
"u 	c #003E3A",
"v 	c #003C37",
"w 	c #245C6C",
"x 	c #195D67",
"y 	c #000A0A",
"z 	c #001817",
"A 	c #005048",
"B 	c #1E5B62",
"C 	c #2A5668",
"D 	c #165F60",
"E 	c #002C29",
"F 	c #195C69",
"G 	c #2A566A",
"H 	c #185D60",
"I 	c #002E2C",
"J 	c #001616",
"K 	c #001010",
"L 	c #003833",
"M 	c #225A64",
"N 	c #003633",
"O 	c #001211",
"P 	c #115B57",
"Q 	c #0D5F5C",
"R 	c #00524D",
"S 	c #2B576B",
"T 	c #285768",
"U 	c #0B5B55",
"V 	c #004842",
"W 	c #045C57",
"X 	c #035D56",
"Y 	c #00524B",
"Z 	c #003E39",
"` 	c #00403B",
" .	c #10605F",
"..	c #002A28",
"+.	c #0C5A56",
"@.	c #205B64",
"#.	c #001E1D",
"$.	c #08605D",
"%.	c #1E5C6C",
"&.	c #09615E",
"*.	c #025C55",
"=.	c #0F5E5F",
"-.	c #135D5A",
";.	c #00201F",
">.	c #002222",
",.	c #002E2D",
"'.	c #003635",
").	c #004C4B",
"!.	c #005E5D",
"~.	c #00302F",
"{.	c #07574F",
"].	c #004E49",
"^.	c #1D606D",
"/.	c #003C3A",
"(.	c #00302E",
"_.	c #0A5E5B",
":.	c #3B5A71",
"<.	c #225A6A",
"[.	c #2C566C",
"}.	c #175F61",
"|.	c #1B5B61",
"1.	c #003632",
"2.	c #003C3B",
"3.	c #00605F",
"4.	c #006566",
"5.	c #006B6C",
"6.	c #007172",
"7.	c #006768",
"8.	c #00403F",
"9.	c #005A59",
"0.	c #004645",
"a.	c #1B5C61",
"b.	c #1D5C63",
"c.	c #002827",
"d.	c #005A55",
"e.	c #005651",
"f.	c #0E5F62",
"g.	c #1C5C6A",
"h.	c #015D55",
"i.	c #5F537B",
"j.	c #335B6F",
"k.	c #00544F",
"l.	c #235B69",
"m.	c #2C556C",
"n.	c #001818",
"o.	c #017579",
"p.	c #004443",
"q.	c #007576",
"r.	c #006D6E",
"s.	c #004E4D",
"t.	c #005251",
"u.	c #003837",
"v.	c #001A1A",
"w.	c #004C44",
"x.	c #285866",
"y.	c #215A63",
"z.	c #002E2B",
"A.	c #00423E",
"B.	c #015B56",
"C.	c #004644",
"D.	c #004640",
"E.	c #135E65",
"F.	c #136067",
"G.	c #096362",
"H.	c #025E59",
"I.	c #001413",
"J.	c #0F6160",
"K.	c #176069",
"L.	c #1B5D69",
"M.	c #1C5C64",
"N.	c #00504F",
"O.	c #02787A",
"P.	c #00696A",
"Q.	c #005453",
"R.	c #006463",
"S.	c #005655",
"T.	c #006364",
"U.	c #006162",
"V.	c #265766",
"W.	c #265966",
"X.	c #0B5B54",
"Y.	c #035B54",
"Z.	c #275C6D",
"`.	c #126164",
" +	c #015D57",
".+	c #05574F",
"++	c #001615",
"@+	c #004A44",
"#+	c #005C57",
"$+	c #002624",
"%+	c #155D5C",
"&+	c #002424",
"*+	c #004847",
"=+	c #004A49",
"-+	c #006F70",
";+	c #006261",
">+	c #1B5E67",
",+	c #30576E",
"'+	c #29596B",
")+	c #00403E",
"!+	c #001A19",
"~+	c #025A53",
"{+	c #3C5372",
"]+	c #1E5D64",
"^+	c #03777B",
"/+	c #007276",
"(+	c #003E3D",
"_+	c #01574E",
":+	c #155E67",
"<+	c #116063",
"[+	c #365570",
"}+	c #355771",
"|+	c #002A2A",
"1+	c #145F64",
"2+	c #435273",
"3+	c #5D517B",
"4+	c #0E605D",
"5+	c #005C5B",
"6+	c #02767A",
"7+	c #017377",
"8+	c #006E72",
"9+	c #115D5A",
"0+	c #045E59",
"a+	c #0D6061",
"b+	c #125F64",
"c+	c #33566F",
"d+	c #225864",
"e+	c #003433",
"f+	c #003A39",
"g+	c #02584F",
"h+	c #61547C",
"i+	c #6B5C7E",
"j+	c #545276",
"k+	c #007478",
"l+	c #005857",
"m+	c #017677",
"n+	c #1B606B",
"o+	c #075F5C",
"p+	c #005851",
"q+	c #002826",
"r+	c #966289",
"s+	c #B36B79",
"t+	c #4E5B76",
"u+	c #004845",
"v+	c #28586A",
"w+	c #445272",
"x+	c #3E5672",
"y+	c #06787C",
"z+	c #017879",
"A+	c #065E59",
"B+	c #3B5871",
"C+	c #002626",
"D+	c #001E1E",
"E+	c #1F606B",
"F+	c #156063",
"G+	c #4A4F74",
"H+	c #4D5075",
"I+	c #002422",
"J+	c #003738",
"K+	c #002D2E",
"L+	c #004241",
"M+	c #002B2C",
"N+	c #003536",
"O+	c #003F40",
"P+	c #24616E",
"Q+	c #285868",
"R+	c #045C55",
"S+	c #0D615E",
"T+	c #31556F",
"U+	c #7E6D7F",
"V+	c #016160",
"W+	c #066463",
"X+	c #056563",
"Y+	c #036362",
"Z+	c #003B3C",
"`+	c #002C2B",
" @	c #003231",
".@	c #0C605F",
"+@	c #085C55",
"@@	c #435373",
"#@	c #046462",
"$@	c #004748",
"%@	c #007374",
"&@	c #1A5E64",
"*@	c #075950",
"=@	c #076564",
"-@	c #046463",
";@	c #027678",
">@	c #1B5B69",
",@	c #355B6F",
"'@	c #245968",
")@	c #015F5E",
"!@	c #036564",
"~@	c #026261",
"{@	c #002828",
"]@	c #075B54",
"^@	c #086665",
"/@	c #003132",
"(@	c #046460",
"_@	c #004240",
":@	c #003634",
"<@	c #007074",
"[@	c #02605F",
"}@	c #003334",
"|@	c #004142",
"1@	c #002F30",
"2@	c #0E5E57",
"3@	c #0B5B57",
"4@	c #005451",
"5@	c #04584F",
"6@	c #31586F",
"7@	c #916389",
"8@	c #DA8E70",
"9@	c #AF677D",
"0@	c #156161",
"a@	c #0E605F",
"b@	c #0B6362",
"c@	c #0E6463",
"d@	c #02564D",
"e@	c #155E61",
"f@	c #075D58",
"g@	c #03574E",
"h@	c #2E6A6E",
"i@	c #1E686A",
"j@	c #046261",
"k@	c #0D6362",
"l@	c #00393A",
"m@	c #086261",
"n@	c #08605F",
"o@	c #186664",
"p@	c #0B6160",
"q@	c #106663",
"r@	c #196869",
"s@	c #025C5B",
"t@	c #1C6768",
"u@	c #156764",
"v@	c #003638",
"w@	c #002E30",
"x@	c #20676A",
"y@	c #216769",
"z@	c #004F52",
"A@	c #004F50",
"B@	c #004042",
"C@	c #003D3E",
"D@	c #004446",
"E@	c #004344",
"F@	c #004244",
"G@	c #00383A",
"H@	c #055F5E",
"I@	c #2B696B",
"J@	c #106463",
"K@	c #29696B",
"L@	c #2D696D",
"M@	c #2C6A6C",
"N@	c #336C6F",
"O@	c #035754",
"                                                                                                                                ",
"                                                                                                                                ",
"                                                                                                                                ",
"                                                                                                                                ",
"                                                                                                                                ",
"                                                                                                                                ",
"                                                                                                                                ",
"                                                                                                                                ",
"                                . .                                                                                             ",
"                            . . + . @ # . .   . . .                                                                             ",
"                        . . @ $ % & . * = - ; # > = ; .                                                                         ",
"                      . ; , ' ) ! ~ @ { = ] ^ / ( _ : < .                                                                       ",
"                    . ; [ } | 1 2 3 & 4 5 6 7 8 9 0 a b c .                                                                     ",
"                . . + d e f g h i j k # l & m n o p q r s $ .                                                                   ",
"              . . $ t u v 8 w x ' ) & 4 { y # z A B r C D ; .                                                                   ",
"            . # d g > j u E F G H I J + ' } k K @ L D M N .                                                                     ",
"          . O P Q [ k p R E 9 S T U O $ V W X Y g 4 l Z . . . . . . . . . . . . . .                                             ",
"        . + `  .^ N ..! 1 ) 8 +.@.` # #.$.%.&.*.=.-.;.. . ; { >.,.'.'.).!.~.* * ; . . .                                         ",
"      . + {.< & ].^.R k /.I n L { ; g (.J _.:.<.[.}.|.1.. K ,.2.3.4.5.6.7.8.9.!.0.>.l ; .                                       ",
"      . ` a.b.c.! d.e.k = c.k { 4 f.g.h.! + ..i.j.k.l.m.K . n.8.4.4.o.6.7.p.5.q.r.s.t.u.v.. .                                   ",
"      # w.x.S y.z.A.B.C.n D.4 J E.F.G.H.p ~ & I.J.K.L.M.K @ . d N.5.O.5.P.Q.R.r.9.S.T.0.U.).v.. .                               ",
"      . 4 ^ V.W.X.g e.Y.w.l k Z.E.`.X  +k.) .+++. @+#++ $+%+4 @ &+!.O.5.7.S.8.p.*+T.7.=+-+4.;+'.; .                             ",
"    . y z . K Z L { n.z.4 z.F >+,+'+ +e.)+N !+. y ; l [ ~+{+]+. # '.^+r.7.t.!.-+;+T.P.).O./+T.3.(++ .                           ",
"    . O _+[ l @ # y { ; ..:+<+[+}+[+p e [ @ . |+N.J . I 1+2+3+4+. 4 5+6.P.t.N.!.9.4.r.S.6+7+8+;+9.p.J .                         ",
"    . ; 9+8 z y c.~ )+y c.0+a+b+c+d+~ l l % J @ e+f+l . g+h+i+j+].. * k+r.N.*+l+t.4.T.9.^+m+r.;+9.p.)+n..                       ",
"    . . n c.#.# ~ / n+& J j o+p+q++ @ 4 r+s+t+u+; ; # . ; .+v+w+x+j . -+r.N.0.y+5+9.3.4.z+k+!.Q.).)+e )+K .                     ",
"    . < : A.c.# 6 A+B+} y Y m . . # + d d d C+|+|+D+y ; . . . . . m [ , 5.Q.(+5.5+S.l+T.-+f+d (+(+(+(+(+>..                     ",
"  . + E+}+9 A.y ;.F+G+H+@ I+. + J+*+K+0.t.Q.l+5+5+S.L+M+v.n.N+|+K . ; K @ 4 y e+L+p.O+4.*+. ,.0.).).0.(+{ .                     ",
"    # P+Q+R+/ [ + S+T+U+y . { p.S.9.Q.Q.V+W+X+W+Y+5+f+s.).* |+t.Z+'.D+; K . . . y D+`+). @. (+9.N.!.3.N.v..                     ",
"    . X / .@j /.; +@C @@. l 2.l+!.Y+W+!.W+#@W+Y+!.0.f+3.V+=+D+s.9.$@f+'.; & . @ . . . ; # 4 =+%@z+z+P.l+C+.                     ",
"    . u j p+].)++ = &@*@; * Q.3.W+=@Y+-@W+-@#@#@Q.$@2.X+#@!.C+0.=@l+S.t.d K @ . .     . . l t.z+O.z+;@5+`+.                     ",
"      ; >@,@'@A.#.+ e.L + |+5+)@-@W+!@!@~@W+W+W+=@S.f+=@=@3. @e+=@;+!.9.p.. * O .       . &+l+z+;@z+O.T.{@.                     ",
"      . o ]@& ; @ . % E J K+u.N.!.Y+-@t.N.!@W+W+W+5+p.X+^@3.'. @^@~@!.9.).. 1 @+@ .     . `+l+z+O.O.7+!.d .                     ",
"        . . . . . ; ; O , '.0.5+3.~@W+V+l+W+W+W+W+!.(+W+^@Y+'./@^@V+5+9.=+; j ! { .     . C+l+z+;@7.k+t., .                     ",
"              ; J ; . . y |+=+)@~@#@Y+W+W+W+#@W+V+5+8.W+^@(@ @u.^@l+S.N.L+# > I @       . v.5+O.z+!.!._@# .                     ",
"            . v.u.J 4 . ; v.p.l+V+Y+Y+Y+Y+Y+!@9.t.*+).W+W+!.C+(+#@N.*+N.{ J :@, .       . * 7.6+;@5.S. @.                       ",
"            @ f+f+ @y @ . # K+t.l+!.S.t.!.)@3.9.2.2.f+N.9.`+{@8.(+8.2.>.. @ v.. .       . ~.<@O.O.5.3.* .                       ",
"          . J L+Q.p.,., . . 4 e+=+N.2.*+!.!.3.V+[@9.8.}@~.C+2.|@J+|+y . . . . .       . . *+k+O.O.7+5+, .                       ",
"          . ,.T.7.4.5+|+K . . @ n.1@M+8.).N.N.).0.(+u.* K * n.+ @ . . .               . 4 0.L+=+3.q.t.; .                       ",
"          . 8.r.z+q.P.N.d # K I+. . @ :@2@3@4@u+`+J . . @ # 4 n.y @ .                 . J !.4.S.*+L+'..                         ",
"        . . l+z+O.O.O.5.0.n.. 5@6@^ I.; 7@8@9@].. >.0@a@b@S.c@*+. .                   . ; D+Q.k+O.3.|+.                         ",
"        . @ 7.O.O.O.O.O.4.e+# ; d@e@f@g@z # . >..@h@i@j@9.c@u..                         . . . y >.|+{ .                         ",
"          l 6.O.O.O.O.O.<@3.T.5+J . . @ z # . u.J.k@5+9.9.{ .                       . . @ + v., 4 ; . ; .                       ",
"        . n.k+O.O.O.O.O.O.z+-+U.8.l@ @v.@ . . # /@t.m@5++ .             . . . . . 4 L+n@o@p@p.p.e+. # ; @ .                     ",
"        . D+k+O.O.O.;@O./+5.4.p.0.r.;+(+(+|+J # . >.{@@ . . . . . . . . . + n.{ ; t.q@r@s@. { v.v.D+D+&+D+v.n.v.v.v.v.n.v.v.K . ",
"        . + -+O.O.O.O.7+P.4.N.8.P.z+).Q.=+Q.3.s.C++ ; . ; # J `+|+D+* ~.p.p.S.).. 8.t@u@ @# n./@v@O+J+N+J+}@N+K+J+N+J+J+N+1@w@+ ",
"          . *+k+O.O.z+5.P.5+=+9.0.N.S.T.t.P.5.3.=+|+* ,.2.).t.l+S.9.T.r.z+Q.N.6.# D+x@y@f+@ {@z@A@A@$@$@$@O+B@C@D@$@E@E@F@B@G@y ",
"          . { T.z+O.<@P.U.p.l+-+4.N.6.5+;+-+8+;+S.8.L+t.7.m+m+;@;@O.^+O.O.P.L+O.~.; H@I@J@+ J * d * d d >.l + { J J J J , , y . ",
"            . { 3.q.5.;+*+!.8.l+).5.6.t.;@O.<@T.9.8.p.).T.O.;@O.O.o.o.o.O.m+L+r.3.. ).K@L@h@M@N@t.. K S.@                       ",
"              . # t.7.L+Q.;@%@*+;+-+Q.5.O.m+5.T.9.8.8.l+4.O.m+O.k+!.7.P.-+;@N.s.l+# @ K &+p.N., l O@* .                         ",
"                . y e+ @!.P.5.*+U.3.N.;@z+-+7.3.S.(+(+9.T.m+O.m+z+5.Q.!.5+Q.2.,.J ; .   . . . . . . .                           ",
"                    . ; * 2.8.).!.).7.-+P.4.;+!.s.e (+=+S.!.4.T.5+).f+D+J y ; . . .                                             ",
"                      . . . @ n.{@e+Q.!.3.!.l+N.0._@{@>.`+'.e+`+d K ; . . .                                                     ",
"                          . . . . . ; 4 + l + y # . . . . . . . . . .                                                           ",
"                                      .   . . .                                                                                 ",
"                                                                                                                                ",
"                                                                                                                                ",
"                                                                                                                                ",
"                                                                                                                                ",
"                                                                                                                                ",
"                                                                                                                                ",
"                                                                                                                                ",
"                                                                                                                                ",
"                                                                                                                                "};
