/* XPM */
static const char * player_reload_0_blue_xpm[] = {
"64 64 350 2",
"  	c None",
". 	c #000000",
"+ 	c #000808",
"@ 	c #000202",
"# 	c #000404",
"$ 	c #001616",
"% 	c #002E2C",
"& 	c #00302D",
"* 	c #001818",
"= 	c #002423",
"- 	c #002C29",
"; 	c #003C3A",
"> 	c #004440",
", 	c #000A0A",
"' 	c #002625",
") 	c #003A37",
"! 	c #00403C",
"~ 	c #001010",
"{ 	c #004844",
"] 	c #01554C",
"^ 	c #003E3A",
"/ 	c #255F6D",
"( 	c #155E63",
"_ 	c #003835",
": 	c #000606",
"< 	c #004E48",
"[ 	c #00524D",
"} 	c #00302E",
"| 	c #001E1D",
"1 	c #002C2A",
"2 	c #0C5A51",
"3 	c #003C38",
"4 	c #00544D",
"5 	c #035D56",
"6 	c #00544F",
"7 	c #005853",
"8 	c #185E64",
"9 	c #001E1E",
"0 	c #003230",
"a 	c #065C55",
"b 	c #00443E",
"c 	c #005651",
"d 	c #003633",
"e 	c #000E0E",
"f 	c #001414",
"g 	c #003C37",
"h 	c #116161",
"i 	c #255A65",
"j 	c #475073",
"k 	c #095950",
"l 	c #004E49",
"m 	c #004640",
"n 	c #145D66",
"o 	c #275D6D",
"p 	c #001212",
"q 	c #004842",
"r 	c #1B5B61",
"s 	c #285866",
"t 	c #2A5668",
"u 	c #225864",
"v 	c #000C0C",
"w 	c #001C1C",
"x 	c #004A46",
"y 	c #002826",
"z 	c #0B6061",
"A 	c #255869",
"B 	c #265966",
"C 	c #00201F",
"D 	c #002827",
"E 	c #005049",
"F 	c #001413",
"G 	c #00201E",
"H 	c #135D5A",
"I 	c #225A64",
"J 	c #01534A",
"K 	c #185E62",
"L 	c #003432",
"M 	c #2B5569",
"N 	c #185D60",
"O 	c #00423E",
"P 	c #055D58",
"Q 	c #015952",
"R 	c #001211",
"S 	c #003632",
"T 	c #065850",
"U 	c #005851",
"V 	c #002E2B",
"W 	c #003634",
"X 	c #03554D",
"Y 	c #1D5D63",
"Z 	c #04564E",
"` 	c #015B54",
" .	c #215C6B",
"..	c #0B6160",
"+.	c #045C57",
"@.	c #075F59",
"#.	c #1D5C61",
"$.	c #00322F",
"%.	c #002222",
"&.	c #003132",
"*.	c #003A39",
"=.	c #004A49",
"-.	c #006364",
";.	c #004443",
">.	c #004A42",
",.	c #004A44",
"'.	c #002020",
").	c #185F6A",
"!.	c #08625F",
"~.	c #003836",
"{.	c #001A19",
"].	c #405672",
"^.	c #355A6F",
"/.	c #2A576A",
"(.	c #155E61",
"_.	c #135F5F",
":.	c #005249",
"<.	c #002A2A",
"[.	c #005C5B",
"}.	c #00696A",
"|.	c #017677",
"1.	c #006B6C",
"2.	c #004645",
"3.	c #005655",
"4.	c #006261",
"5.	c #004C4B",
"6.	c #145E5D",
"7.	c #235B67",
"8.	c #005A55",
"9.	c #002A29",
"0.	c #295B6D",
"a.	c #055F5A",
"b.	c #001615",
"c.	c #395771",
"d.	c #5B5478",
"e.	c #156065",
"f.	c #345470",
"g.	c #003837",
"h.	c #006566",
"i.	c #007374",
"j.	c #007276",
"k.	c #007576",
"l.	c #006F70",
"m.	c #005453",
"n.	c #003E3D",
"o.	c #003A35",
"p.	c #2A566A",
"q.	c #295867",
"r.	c #004C44",
"s.	c #0F6063",
"t.	c #136067",
"u.	c #0C6162",
"v.	c #025E56",
"w.	c #015B56",
"x.	c #003A38",
"y.	c #02564D",
"z.	c #1B5F69",
"A.	c #16616A",
"B.	c #345970",
"C.	c #02767A",
"D.	c #005857",
"E.	c #006463",
"F.	c #004E4D",
"G.	c #00504F",
"H.	c #002626",
"I.	c #002422",
"J.	c #165D60",
"K.	c #255865",
"L.	c #1B5B5F",
"M.	c #045C55",
"N.	c #185D68",
"O.	c #175D67",
"P.	c #135F63",
"Q.	c #025E59",
"R.	c #00403E",
"S.	c #07574F",
"T.	c #085E59",
"U.	c #001817",
"V.	c #155C5D",
"W.	c #03777B",
"X.	c #005A59",
"Y.	c #005E5D",
"Z.	c #006D6E",
"`.	c #00605F",
" +	c #004241",
".+	c #00423D",
"++	c #003431",
"@+	c #145F68",
"#+	c #1C5B66",
"$+	c #375671",
"%+	c #33566F",
"&+	c #045E59",
"*+	c #002221",
"=+	c #3C5472",
"-+	c #375571",
";+	c #007478",
">+	c #006768",
",+	c #017879",
"'+	c #004847",
")+	c #001C1B",
"!+	c #105F64",
"~+	c #2B586B",
"{+	c #355771",
"]+	c #395371",
"^+	c #0F6160",
"/+	c #002828",
"(+	c #08605D",
"_+	c #425272",
":+	c #524F77",
"<+	c #2A5A6C",
"[+	c #027678",
"}+	c #017377",
"|+	c #00564F",
"1+	c #0D6061",
"2+	c #30576E",
"3+	c #115750",
"4+	c #5B517B",
"5+	c #6B5C7E",
"6+	c #695A7E",
"7+	c #02787A",
"8+	c #00403F",
"9+	c #005251",
"0+	c #004240",
"a+	c #002424",
"b+	c #004642",
"c+	c #015B53",
"d+	c #002A28",
"e+	c #796183",
"f+	c #C27970",
"g+	c #A76582",
"h+	c #2A6364",
"i+	c #2E586E",
"j+	c #485074",
"k+	c #495273",
"l+	c #065E57",
"m+	c #007172",
"n+	c #003C3B",
"o+	c #004C48",
"p+	c #001A1A",
"q+	c #2A5C6C",
"r+	c #005048",
"s+	c #002E2D",
"t+	c #00302F",
"u+	c #002F30",
"v+	c #006162",
"w+	c #126368",
"x+	c #2E596E",
"y+	c #085E57",
"z+	c #82707C",
"A+	c #002D2E",
"B+	c #002C2B",
"C+	c #1D5F6B",
"D+	c #195D65",
"E+	c #136061",
"F+	c #2B556B",
"G+	c #796A7E",
"H+	c #016160",
"I+	c #066463",
"J+	c #076564",
"K+	c #056563",
"L+	c #046463",
"M+	c #003D3E",
"N+	c #003433",
"O+	c #003E3C",
"P+	c #00403B",
"Q+	c #595179",
"R+	c #003334",
"S+	c #026261",
"T+	c #046462",
"U+	c #036362",
"V+	c #00393A",
"W+	c #02605F",
"X+	c #07615B",
"Y+	c #146162",
"Z+	c #275767",
"`+	c #003635",
" @	c #002B2C",
".@	c #086665",
"+@	c #325A6E",
"@@	c #345770",
"#@	c #035952",
"$@	c #04584F",
"%@	c #026463",
"&@	c #00524B",
"*@	c #036564",
"=@	c #056564",
"-@	c #015F5E",
";@	c #004845",
">@	c #017579",
",@	c #003738",
"'@	c #003536",
")@	c #004142",
"!@	c #006A6E",
"~@	c #115D57",
"{@	c #1B615D",
"]@	c #004A47",
"^@	c #007074",
"/@	c #535076",
"(@	c #33586F",
"_@	c #0B5B55",
":@	c #115953",
"<@	c #96628B",
"[@	c #565A78",
"}@	c #216767",
"|@	c #136361",
"1@	c #055F5E",
"2@	c #0D6564",
"3@	c #04787C",
"4@	c #03574E",
"5@	c #055950",
"6@	c #0D6160",
"7@	c #306A6E",
"8@	c #196869",
"9@	c #04605F",
"0@	c #086261",
"a@	c #025C5B",
"b@	c #056160",
"c@	c #096362",
"d@	c #0A6261",
"e@	c #176764",
"f@	c #015958",
"g@	c #106663",
"h@	c #186768",
"i@	c #002C2E",
"j@	c #1C6768",
"k@	c #1D6869",
"l@	c #004B4C",
"m@	c #146462",
"n@	c #27696B",
"o@	c #005558",
"p@	c #00595C",
"q@	c #005354",
"r@	c #005356",
"s@	c #004042",
"t@	c #003E40",
"u@	c #00494A",
"v@	c #004548",
"w@	c #004546",
"x@	c #004244",
"y@	c #003638",
"z@	c #037A7B",
"A@	c #006E72",
"B@	c #29696B",
"C@	c #25696B",
"D@	c #1C6867",
"E@	c #2D696D",
"F@	c #2E6A6E",
"G@	c #2C686C",
"H@	c #2A696C",
"I@	c #003231",
"                                                                                                                                ",
"                                                                                                                                ",
"                                                                                                                                ",
"                                                                                                                                ",
"                                                                                                                                ",
"                                                                                                                                ",
"                                                                                                                                ",
"                                                                                                                                ",
"                                .                                                                                               ",
"                          . . + @ @ # . .     . .                                                                               ",
"                      . . . $ % & . * = - @ . ; > @ .                                                                           ",
"                    . . , ' ; ) ! ~ + ' { ] ^ / / ( _ :                                                                         ",
"                  . . * < & ^ [ { } # | 1 2 3 4 5 6 7 8 .                                                                       ",
"                . + 9 0 a ^ b < c d + e f g b < 7 h i j b .                                                                     ",
"            . . + k l & m n o d d } : ~ e # p q r s t u v .                                                                     ",
"          . . w & ) x x y z A B ) C + D E ^ F @ G H I m .                                                                       ",
"        . : J K L D [ c _ d M t N | p O 5 P Q ^ R : b : . . . . . . . , . . . . .                                               ",
"      . # S T U 0 V W x O % X Y Z : F `  ...+.@.#.$.@ . . v %.&.*.*.=.-.;.* * # . . .                                           ",
"    . # >.,.'.3 ).!.1 ~.} g b {.. $.O * ) ].^./.(._.:.# + <.*.[.-.}.|.1.2.3.4.5.<.* @ . .                                       ",
"    . = 6.7.^ 0 8.[ L D V 9.G : 4 0.a.x f b.c.d.8.e.f.= . ~ g.4.h.i.j.}.=.4.k.l.=.m.n.9 : .                                     ",
"    . o.#.p.q.q } 5 6 3 r.b.: s.t.u.v.w.x.1 v y.z.A.B.b.: . $ 2.h.C.l.}.D.[.l.E.F.h.G.h.D.H.. .                                 ",
"    . : I.J.K.L.d M.7 X F C N.O.P.a.Q.7 R.S.C . - T.~ U.V.F . w G.W.l.}.X.2.5.5.Y.Z.G.l.}.`. ++ .                               ",
"    . C : @ - .+* p ++v {.@+#+$+%+&+8.O W *+. e . , w x =+-+e @ 9 ;+i.>+3.D.l.Z.Y.l.5.,+;+h.4.'+p .                             ",
"  . . Z - )+: : , $ + | !+u.~+{+]+^+R.D + . /+m./+. f (+_+:+<+. @ ;.|.}.3.5.3.3.`.k.F.[+}+l.-.[.;.'..                           ",
"    . r.> C : = W > * * |+z 1+2+K.> * v 3+{ . <.*.$ . ++4+5+6+a.@ ~ 7+Z.3.8+X.D.4.1.9+7+|.Z.-.[.2.0+a+.                         ",
"    . ' % ' : 9.b+@+O , O P c+d+. . . e+f+g+h+: . @ . . d i+j+k+l+@ G.m+m.n+|.h.m.`.X.;+;+`.m.F.R.n.0+$ .                       ",
"  . ' ~+o+++v p+8.{+q+. r+,.# . : ~ 9 s+t+s+u+t+'.$ : . . . . + | ' : X.[.n+v+4.5.D.X.l.n+f n.8+8+n.n.s+.                       ",
"  @ w+x+` ,.C + y+%+z+| y . , u+=.*.;.m.X.[.Y.`.Y.2.u+'.f A+B+p++ . v . @ v /+*.8+n.`.`.. '.'+=.F.=. +* .                       ",
"  . C+D+E+l x.# [ F+G+< . v 8+9+[.X.3.H+I+J+K+L+[.8+9+3.H.'.9+M+n.A+, $ @ . . @ p <.;.2.. N+X.F.D.4.3.<..                       ",
"  . O 6 M.c O+v P+F+Q+F + R+3.Y.S+I+Y.I+T+U+U+`. +V+X.W+3.w '+H+=. + +# | . @ . . . @ + # 2.i.|.}+m+X.n+.                       ",
"  . f X+[ ` 0+C ~ Y+Z+. w '+`.U+J+U+I+I+I+T+I+Y.m.`+U+K+`. @V+.@D.D.=.s++ + . .     . @ v G.,+7+[+7+-.8+.                       ",
"    . { +@@@#@^ . O $@# '.D.Y.%@I+U+I+S+I+I+I+I+H+n+J+.@W+ +/+J+H+`.X.D.. * | .       . %.3.,+[+7+[+1.*..                       ",
"    . )+&@- + : . p m , %.N+=.[.S+L+Y.=.Y.I+I+I+H+2.J+.@U+ +H.K+*@Y.Y.Y.@ x &@p .     . a+D.,+7+,+[+4.B+.                       ",
"      . . . . . @ . U., H.=.D.H+S+I+=@3.I+I+I+I+S+ +K+.@K+2./+K+H+[.[.Y.. c ^ C .     . 9 3.,+[+h.;+D.p+.                       ",
"            . '.+ # . # w  +[.H+U+T+I+I+I+L+I+-@`.;.I+J+K+n+s+J+X.D.'+G.# ;@0 : .     . * X.,+>@>+Y.'+@ .                       ",
"          . e g.H.# @ . ~ ,@D.Y.S+L+S+%@S+S+Y.F.=.8+W+I+`./+'@H+F.;.2.f ~ W $ .       . * `.7+,+>+[.t+.                         ",
"          . s+n+g.* , . . p+5.3.[.m.5.X.`.`.[.F.V+*.2.D.&.a+n.n.)@n+<.. . p+@ .       . /+Z.7+7+!@4./+.                         ",
"        . , ;.`.3.8+p++ . @ 9 2.5.8+2.X.Y.Y.`.Y.D.;.s+B+H.n+;.,@'.: . . . . .         . g.m+W.W.>@4.9 .                         ",
"        . p+h.1.>+-.g.p+. : . e H.H.n+ +2.'+;.;.8+N+w v p+$ , . . . .                 .  +8+ +3.}.9+e .                         ",
"        . B+1.7+7+m+`.s+~ . 3 + . . w ~@{@]@n+u+e . @ : : + * w # .                   : D.Z.>+9+ +n.. .                         ",
"        . 8+^@7+7+7+k.3.'.# I./@(@_@. :@<@[@) . *.}@|@1@m.2@2.@ .                     . ~ B+`.3@Z.B+.                           ",
"        . m.[+7+7+7+C.m+F.* : d+4@&@5@y . . w 6@7@8@9@D.0@,@. .                       . . . . e p+e .                           ",
"        . `.7+7+7+7+7+,+h.j.i.n+: . . @ , . w a@b@X.X.[., .                       . @ # , /+9 : + @ # .                         ",
"        . }.7+7+7+7+,+7+}+m+v+2. +8+B+* @ . . * F.c@9+e .           . . . . . . p 5.d@e@f@s+t+H.. @ . . . . . . . . . . .       ",
"        @ }.7+7+7+C.7+;+1.>+'+ +l.}.8+ +*.H.~ . + p+. . . @ @ @ . . @ : ~ 9 '.. '+g@h@0@. ~ '.%.a+a+i@/+'.'.'.a+%.%.%.%.%.$ @   ",
"        . 9+C.7+7+7+}+}.>+m.8+9+[+G.3.9+F.4.[.g.%.. . @ e 9 *.n+N+t+n+F.5.9+-.. <.j@k@;.: v  @M+l@,@'@,@R+'@ @'@'@'@,@'@<.A+f   ",
"        . a+m+7+7+7+1.}.`.=.4.m.5.m.-.m.>+l.-.m.`+a+`+'+3.X.Y.Y.`.1.m+[+-. +7+%.+ m@n@X.@ '.o@p@p@q@r@q@s@V+t@u@u@u@v@w@x@y@v   ",
"          . 2.^@7+j.}.-.=.5.}.i.F.j.E.`.m+m+h.[. +8+F.`.z@3@3@3@W.7+7+7+A@n.l.m.. F.B@C@/+v v , . . # . . . . . . . . . . .     ",
"          . @ g.i.}.4. +h.m.2.F.>+l.F.k.7+i.h.`. +8+9+[.C.[+7+[+i.k.j.7+7+5.4.}.@ t+D@E@F@G@H@B+. 9 8+.                         ",
"            . . <.h.'+F.j.W.m.X.l.X.h.W.;+Z.-.[. +n.D.4.C.|.[+,+`.`.}.1.k.[.2.G.+ . . v <.g.# + =.9 .                           ",
"              . . ~ '.=.4.Z.=.v+`.F.,+C.l.}.4.D.8+n.G.Y.l.[+,+k.m+D.G.3.5.N+%.+ . .       .   . . .                             ",
"                  . . + w <. +9+'+4.1.h.E.4.Y.G.O+n. +9+D.Y.Y.m.2.I@p , # @ . .                                                 ",
"                      . . . : * a+n.F.m.m.F.;.n+g.a+f w H./+9 f : . . . .                                                       ",
"                          . . . . . . . @ @ @ @ . . . . . . . .                                                                 ",
"                                                                                                                                ",
"                                                                                                                                ",
"                                                                                                                                ",
"                                                                                                                                ",
"                                                                                                                                ",
"                                                                                                                                ",
"                                                                                                                                ",
"                                                                                                                                ",
"                                                                                                                                ",
"                                                                                                                                "};
