/* XPM */
static const char * player_reload_1_blue_xpm[] = {
"64 64 374 2",
"  	c None",
". 	c #000000",
"+ 	c #000202",
"@ 	c #000404",
"# 	c #000E0E",
"$ 	c #002C2A",
"% 	c #00201E",
"& 	c #001A1A",
"* 	c #002827",
"= 	c #002E2B",
"- 	c #000C0C",
"; 	c #116265",
"> 	c #0B615E",
", 	c #001E1D",
"' 	c #001818",
") 	c #003634",
"! 	c #00423E",
"~ 	c #003C38",
"{ 	c #000808",
"] 	c #004844",
"^ 	c #06564C",
"/ 	c #004C46",
"( 	c #1A606A",
"_ 	c #0D6061",
": 	c #125F62",
"< 	c #08625F",
"[ 	c #000606",
"} 	c #002A28",
"| 	c #00524D",
"1 	c #004644",
"2 	c #002A29",
"3 	c #002221",
"4 	c #002E2C",
"5 	c #0A5850",
"6 	c #00322F",
"7 	c #00524B",
"8 	c #015B53",
"9 	c #005451",
"0 	c #116061",
"a 	c #475073",
"b 	c #001615",
"c 	c #00302E",
"d 	c #0A605D",
"e 	c #003C37",
"f 	c #00544D",
"g 	c #005651",
"h 	c #003A38",
"i 	c #000A0A",
"j 	c #001414",
"k 	c #00302D",
"l 	c #00403B",
"m 	c #0B5F5A",
"n 	c #225A66",
"o 	c #2B5569",
"p 	c #2C566C",
"q 	c #001817",
"r 	c #00201F",
"s 	c #004C48",
"t 	c #195D67",
"u 	c #003432",
"v 	c #001010",
"w 	c #002C29",
"x 	c #105C58",
"y 	c #1F5A63",
"z 	c #285766",
"A 	c #105E5B",
"B 	c #002020",
"C 	c #001212",
"D 	c #001616",
"E 	c #05574F",
"F 	c #00544F",
"G 	c #004440",
"H 	c #145D66",
"I 	c #275A6B",
"J 	c #235965",
"K 	c #003835",
"L 	c #002423",
"M 	c #002625",
"N 	c #005049",
"O 	c #004E48",
"P 	c #003833",
"Q 	c #1B5B5F",
"R 	c #00403F",
"S 	c #004645",
"T 	c #003E3D",
"U 	c #004A49",
"V 	c #005251",
"W 	c #004847",
"X 	c #006B6C",
"Y 	c #006261",
"Z 	c #00605F",
"` 	c #005E5D",
" .	c #004241",
"..	c #003837",
"+.	c #002A2A",
"@.	c #004C49",
"#.	c #005C57",
"$.	c #265766",
"%.	c #2A566A",
"&.	c #205B64",
"*.	c #003A37",
"=.	c #025C55",
"-.	c #045C57",
";.	c #035B54",
">.	c #002C2B",
",.	c #004E4D",
"'.	c #005857",
").	c #006768",
"!.	c #006D6E",
"~.	c #00504F",
"{.	c #006364",
"].	c #00696A",
"^.	c #007276",
"/.	c #006468",
"(.	c #005A59",
"_.	c #004443",
":.	c #004240",
"<.	c #00302F",
"[.	c #004A42",
"}.	c #2A576A",
"|.	c #003431",
"1.	c #05554D",
"2.	c #1E5B62",
"3.	c #004640",
"4.	c #1F5C6B",
"5.	c #1B5B69",
"6.	c #065E59",
"7.	c #0E605F",
"8.	c #255865",
"9.	c #145E5D",
"0.	c #002626",
"a.	c #003635",
"b.	c #006F70",
"c.	c #02787A",
"d.	c #006463",
"e.	c #005453",
"f.	c #007478",
"g.	c #00403E",
"h.	c #003A35",
"i.	c #003E3A",
"j.	c #015B56",
"k.	c #00403C",
"l.	c #004A46",
"m.	c #195D65",
"n.	c #5A5478",
"o.	c #445272",
"p.	c #0C5E5B",
"q.	c #045C55",
"r.	c #225A64",
"s.	c #003433",
"t.	c #017879",
"u.	c #006162",
"v.	c #007172",
"w.	c #004C4B",
"x.	c #017377",
"y.	c #007074",
"z.	c #002424",
"A.	c #126166",
"B.	c #0F6465",
"C.	c #002828",
"D.	c #1E5B6A",
"E.	c #136067",
"F.	c #005853",
"G.	c #4F5075",
"H.	c #4B4E73",
"I.	c #01554E",
"J.	c #02767A",
"K.	c #007576",
"L.	c #006566",
"M.	c #03554D",
"N.	c #265966",
"O.	c #245966",
"P.	c #00443E",
"Q.	c #001A19",
"R.	c #0E6162",
"S.	c #08605D",
"T.	c #015D57",
"U.	c #003836",
"V.	c #195E69",
"W.	c #055F58",
"X.	c #005C5B",
"Y.	c #005048",
"Z.	c #295869",
"`.	c #025851",
" +	c #1D5B6B",
".+	c #115E65",
"++	c #09615E",
"@+	c #025E59",
"#+	c #004642",
"$+	c #001C1C",
"%+	c #185E62",
"&+	c #33566F",
"*+	c #003D3E",
"=+	c #004442",
"-+	c #0D5B57",
";+	c #1B5D61",
">+	c #0B5B54",
",+	c #00544B",
"'+	c #24596A",
")+	c #2E576E",
"!+	c #1D5D67",
"~+	c #004E49",
"{+	c #003C3A",
"]+	c #215B69",
"^+	c #455173",
"/+	c #405372",
"(+	c #007374",
"_+	c #004142",
":+	c #003231",
"<+	c #001211",
"[+	c #175E69",
"}+	c #145F64",
"|+	c #395371",
"1+	c #355771",
"2+	c #375571",
"3+	c #055B5A",
"4+	c #425472",
"5+	c #5D527A",
"6+	c #71617F",
"7+	c #2C5C6C",
"8+	c #005655",
"9+	c #0B5B55",
"0+	c #003633",
"a+	c #06605C",
"b+	c #0C6162",
"c+	c #185E66",
"d+	c #31576F",
"e+	c #96628B",
"f+	c #866389",
"g+	c #001C1B",
"h+	c #4C4F74",
"i+	c #70627E",
"j+	c #71627E",
"k+	c #365B70",
"l+	c #027678",
"m+	c #002222",
"n+	c #04564E",
"o+	c #0B6263",
"p+	c #075F5C",
"q+	c #30626C",
"r+	c #376071",
"s+	c #145E58",
"t+	c #004E4B",
"u+	c #01554C",
"v+	c #205C66",
"w+	c #345970",
"x+	c #002826",
"y+	c #002E2D",
"z+	c #03777B",
"A+	c #1A5E6A",
"B+	c #003C3B",
"C+	c #30576E",
"D+	c #0E605D",
"E+	c #425072",
"F+	c #65587C",
"G+	c #002422",
"H+	c #016160",
"I+	c #026261",
"J+	c #00393A",
"K+	c #001E1E",
"L+	c #003A39",
"M+	c #16616A",
"N+	c #26596A",
"O+	c #035D56",
"P+	c #31556F",
"Q+	c #7F6F7E",
"R+	c #046664",
"S+	c #066463",
"T+	c #076564",
"U+	c #003230",
"V+	c #165F68",
"W+	c #155E63",
"X+	c #215B65",
"Y+	c #2C556C",
"Z+	c #6E617D",
"`+	c #026463",
" @	c #046463",
".@	c #036362",
"+@	c #00595A",
"@@	c #046462",
"#@	c #086665",
"$@	c #055F5A",
"%@	c #265866",
"&@	c #3A5372",
"*@	c #015F5E",
"=@	c #036564",
"-@	c #056563",
";@	c #02605F",
">@	c #002B2C",
",@	c #035F5A",
"'@	c #0D6160",
")@	c #145F60",
"!@	c #066261",
"~@	c #005152",
"{@	c #5E547A",
"]@	c #4A5074",
"^@	c #002624",
"/@	c #0E5E5B",
"(@	c #004B4C",
"_@	c #003F40",
":@	c #02564D",
"<@	c #26686A",
"[@	c #29696B",
"}@	c #196869",
"|@	c #0B635F",
"1@	c #22676A",
"2@	c #29676B",
"3@	c #136764",
"4@	c #186768",
"5@	c #003334",
"6@	c #004344",
"7@	c #003B3C",
"8@	c #0E6463",
"9@	c #1E686A",
"0@	c #035B5A",
"a@	c #002D2E",
"b@	c #186867",
"c@	c #0C6463",
"d@	c #2B696B",
"e@	c #146261",
"f@	c #1C6768",
"g@	c #2B666B",
"h@	c #5C5979",
"i@	c #BC6E71",
"j@	c #95638A",
"k@	c #30636C",
"l@	c #346B70",
"m@	c #025E5D",
"n@	c #0F6362",
"o@	c #017677",
"p@	c #0D5D58",
"q@	c #77677F",
"r@	c #08605F",
"s@	c #2F6A6D",
"t@	c #1C676A",
"u@	c #046261",
"v@	c #21686B",
"w@	c #2D596D",
"x@	c #106164",
"y@	c #285768",
"z@	c #005249",
"A@	c #1D6869",
"B@	c #156766",
"C@	c #015952",
"D@	c #001413",
"E@	c #025A59",
"F@	c #0E6461",
"G@	c #003536",
"H@	c #003638",
"I@	c #004748",
"J@	c #00383A",
"K@	c #003738",
"L@	c #002F30",
"M@	c #0E625F",
"N@	c #26696C",
"O@	c #025C5B",
"P@	c #003A3C",
"Q@	c #005556",
"R@	c #003132",
"S@	c #27696B",
"T@	c #1B6767",
"U@	c #004446",
"V@	c #004042",
"W@	c #004548",
"X@	c #003234",
"Y@	c #003032",
"Z@	c #006E72",
"`@	c #216769",
" #	c #306A6E",
".#	c #206768",
"+#	c #0A5E5D",
"@#	c #0B5D5C",
"##	c #1B6764",
"$#	c #045857",
"                                                                                                                                ",
"                                                                                                                                ",
"                                                                                                                                ",
"                                                                                                                                ",
"                                                                                                                                ",
"                                                                                                                                ",
"                                                                                                                                ",
"                                                                                                                                ",
"                                                                                                                                ",
"                          . + . @ + . .   . . . .                                                                               ",
"                      . . # $ % . & * = . - ; > , .                                                                             ",
"                    . + ' ) ! ~ { # * ] ^ / ( _ : < , .                                                                         ",
"                  . [ $ } ] | 1 2 @ 3 4 5 6 7 8 9 0 a b .                                                                       ",
"                . [ c d ] e f g h i - j k l 7 m n o p q .               . . . . . . . . . .                                     ",
"            . . r ! 3 s ! t = ) u { v j [ [ w x y z A .           . . . + @ i v j & B ' C [ @ . . .                             ",
"          . . D E F G = H I J K L [ M N O w - @ P Q r .   . . . . @ v R S T U V W X Y Z ` V  ...+.# . .                         ",
"        . @ k 4 2 @.#.) 6 $.%.&.w - *.=.-.;.7 e { v + . + C B >.,.'.R ).!.Z ~.{.~.].^.X /.Y (._.:._.<.+                         ",
"      . + [.}.f * |.s ] 2 1.n 2.j - 3.4.5.6.7.8.9., + + 0.a.U ).b.).R ` c.].W X d.e.c.f.!.{.` ,.g.g.g.v .                       ",
"      . 6 h.] i.j.$ k.:.c [.$ # - l.r q m.n.o.p.q.r.k . C s.Z X t.].u.W S W (.{.v.w.x.c.y.{.Z ,.g.g.g.z..                       ",
"    . } x 4 L A.B.! C.2 C.h.i , D.E.F.4 [ e G.E.< H.I.+ . D  .{.J.X ].(.w.).K.W K.Y ].c.f.L.` ,.g.g.g.<..                       ",
"    @ M.N.O.|.c | F.$ P.*.@ Q.4.R.S.T.l.U.} - I.V.W.{ e b . ' S c.y.].{.R ` V U ` L.e.!.v.{.X._.g.g.g.+..                       ",
"  . i Y.Z.%.8.|.s F.`.[.b k  +.+++@+T.l.#+~ + . k ' $+%+&+M . D ` c.b.].'.*+` K.U Y ,.{.X Y ,.T :.=+s.[ .                       ",
"    + @ k -+;+>+4 ~ ,+- L  +'+)+!+T.~+{+* + j & . { s ]+^+/+j . & u.t.b.). .,.(+(._+_.~.X.~.:+>.& - . .                         ",
"  . i L [ @ <+i @ { @ 3 [+}+|+1+2+| U.# . . >.3+z.. D 4+5+6+7+& . & 8+c.!.X.T ~.S ..<.$+i + + i C 0.$+.                         ",
"  . { 9+} D [ v B * [ 0+a+b+c+d+M.B { ~+e+f+] + C # . g+h+i+j+k+3 . j ,.!.,.j [ [ + . . # a.(.X l+X.m+.                         ",
"    . n+K g+{ ) G o+j $+| p+#+[ . . [ q+r+s+t+& [ + . . @ 6 u+v+w+x+. C  .<.$+$+- . . y+!.z+(+8+!. .+                           ",
"    . L $ M @ 4 | A+#+[ / } . @ & z.<.R S W w.,.B++.& + . i . . + C 3 . [ 0.a.B . . @ V l+c.v.{.w.B .                           ",
"  . |.C+~+K # D D+E+F+i G+. D  .V W  .e.Z H+I+I+H+U J+B+$+y+W <.K+{ { 4 . i $+. . . C.X c.c.b.).L++ .                           ",
"  + M+N+O+/ 2 @ F.P+Q+|.. C S '.` I+X.R+S+T+T+S+` ..e.Z L+$+,.W T ..B - U+. . . . @ T X.(+c.K.Z +..                             ",
"  . V+W+X+F h { l.Y+Z+} i :+(.` S+S+`+S+ @I+.@+@S :+Z @@H+z._+#@~.~.w.v j @ . . . D (.S R X.J.~.i .                             ",
"  . 3 $@| g G & Q.%@&@# $+U *@S+T+=@S+T+S+S+S+`+'.a.-@#@;@T >@S+H+X.8+S . c 0+. . # ,.c.).w._.:+.                               ",
"    . ,@F '@] ~ @ i.)@{ m+w.8+Z @@!@.@~@H+S+S+T+.@B+@@#@I+W C.`+=@` X.e.. ] l.C . . . m+X l+,.v .                               ",
"    . L {@]@,+^@[ j /@[ B ..U X.H+S+I+(@` S+S+S+.@_@.@#@.@W 0..@=@X.X.8+. s *.C . @ ' @ @ ' C..                                 ",
"      { = # . . . . :@{ B _.'.H+`+.@S+`+S+@@S+@@.@R I+#@T+W +.=@H+8+'.8+. U.4 + K+~.,.B+B # . .                                 ",
"      . . . . . @ + . . D B+8+H+I+@@ @S+S+S+S+` '.T  @T+ @T :+T+8+8+w.T + U+C . w.<@[@}@|@a..                                   ",
"            . $+C.+ + . @ m+V '.Z `+8+` Z Z X.U J+B+8+.@w.0...w._+B+T @ . { + $+L+1@2@3@4@S .                                   ",
"            @ L+..B i . . [ 5@~.8+U R (.H+H+` '.,._+B+S 0.>@6@7@T +.# . . . <.V s.V '.8@9@0@.                                   ",
"          . C L+R L+' # . . [ >. ..._.8+(.(.8+8+~._.a@K+a@R a.& + . . .   @ b@c@s.:+R 2@d@W .                                   ",
"          . +.Z L.Y W B [ @ i . { v C.0.0.>@>@L+:+& { . + . . . + .       . e@f@L+y+L+2@g@<..                                   ",
"          . T ].y.!.L._.$++ |.u+Q.{ [ h@i@j@k@& . K+m+a.:+..8+& .         . y+l@(.V m@2@n@#                                     ",
"          . V o@c.c.l+).B+D . p@q@j+/ . M ' + D r@s@t@u@(.8@& .             + K+,.d@v@W [                                       ",
"        . . Y c.c.c.c.l+{.:+{ [ w@k+x@y@z@. { ,.A@B@` (.V v .                   . { i .                                         ",
"          [ ].c.c.c.c.c.K.X.a.m+[ i 2 C@O.3.. $+_.V ;@;@- .                                                                     ",
"          { b.c.c.c.c.c.c.o@x.X '.' + . @ } D@. >.(.B+[                               . . . . .                                 ",
"          { b.c.c.c.t.c.l+v.X X.B+w.U >.j . . + [ i . .                         . i C.T 8+E@E@S @ + +                           ",
"          + ).c.c.c.c.t.X ].` L+8+t.).R  .:+v + . .               . . . . + [ . $+S.4@t@a.+ + [ [ i i { [ [ [ [ [ [ [ [ [ @     ",
"          . s.^.c.J.l+X ].u.W ,.U b._.` w.e.` _.D @ . . . . - v - [ i & <.R ,.{ B F@}@a+. - G@H@I@H@J+J@5@5@a@K@G@G@G@G@L@a@-   ",
"          . { X.x.c.v.].L.W (.).X.W {.{.e.X ].`  .v i ' +...U ~.,.w.8+L.X _.b.z.[ M@N@O@. - 5@P@Q@G@J+J+K@J+L@7@J+J+J+K@R@R@'   ",
"            . # (.(+X Y W w. .K.~.d.b.V !.b.b.Z ,.L+_.e.L.X !.b.b.^.J.c.l+ .L.X..  .S@T@# # U@V@_+U@W@U@R@m++.G@G@5@X@R@Y@m+.   ",
"              . @ '.u.T X.c.{.S ` v.X.{.z+c.Z@Z ,.T S V (+c.c.c.c.J.J.c.c.e.V c.# z.`@ #.#+#/@@#j . .                           ",
"                . i C.L+L.b.L.w.].{.,.l+c.y.L.Y ,.T U ~.f.c.l+t.!.].!.b.c.X _.b.$+{ y+U D+##$#v .                               ",
"                  . . [ L+w.W Z {.(@b.c.(+!.{.` U T S Y v.c.o@l+^.8+Y L.{.X.T B+j . . . . . .                                   ",
"                      . . @ ' B+W '.!.L.{.L.Y '.:.T R (.` ].y.].{.V R :+C.C { . . .                                             ",
"                        . . . . i z.R ~.8+8+V U :.g.<.B+S w.U T <.& @ . . . .                                                   ",
"                              . . . . . @ [ [ i # - + . . . . . . . .                                                           ",
"                                          . . .                                                                                 ",
"                                                                                                                                ",
"                                                                                                                                ",
"                                                                                                                                ",
"                                                                                                                                ",
"                                                                                                                                ",
"                                                                                                                                ",
"                                                                                                                                ",
"                                                                                                                                "};
