/* XPM */
static const char * player_idle_0_blue_xpm[] = {
"64 64 347 2",
"  	c None",
". 	c #000000",
"+ 	c #000404",
"@ 	c #000202",
"# 	c #000A0A",
"$ 	c #002423",
"% 	c #002220",
"& 	c #001616",
"* 	c #001A19",
"= 	c #001010",
"- 	c #001818",
"; 	c #001C1C",
"> 	c #003230",
", 	c #003A37",
"' 	c #003E3A",
") 	c #002827",
"! 	c #004E48",
"~ 	c #004A44",
"{ 	c #002E2B",
"] 	c #25606D",
"^ 	c #275D6D",
"/ 	c #0E5E5D",
"( 	c #000E0E",
"_ 	c #00423E",
": 	c #00504B",
"< 	c #004642",
"[ 	c #002625",
"} 	c #00201F",
"| 	c #002C2A",
"1 	c #085A51",
"2 	c #003835",
"3 	c #015D55",
"4 	c #045E57",
"5 	c #005853",
"6 	c #08625F",
"7 	c #075D58",
"8 	c #001212",
"9 	c #003836",
"0 	c #0A605D",
"a 	c #004C46",
"b 	c #00403B",
"c 	c #015750",
"d 	c #00544F",
"e 	c #000808",
"f 	c #005048",
"g 	c #003C37",
"h 	c #004A46",
"i 	c #005651",
"j 	c #015B53",
"k 	c #1A5E64",
"l 	c #554F79",
"m 	c #003633",
"n 	c #004E46",
"o 	c #004844",
"p 	c #002C29",
"q 	c #004842",
"r 	c #035D56",
"s 	c #1C5B68",
"t 	c #002A29",
"u 	c #003C38",
"v 	c #003432",
"w 	c #000606",
"x 	c #000C0C",
"y 	c #001E1D",
"z 	c #1A5E62",
"A 	c #285868",
"B 	c #2A566A",
"C 	c #265966",
"D 	c #00524B",
"E 	c #002A28",
"F 	c #215C6B",
"G 	c #2D596D",
"H 	c #1F5C63",
"I 	c #002020",
"J 	c #002221",
"K 	c #00403C",
"L 	c #195D5F",
"M 	c #095B54",
"N 	c #003632",
"O 	c #0E5E5B",
"P 	c #005C57",
"Q 	c #003431",
"R 	c #295869",
"S 	c #2A576A",
"T 	c #155E5F",
"U 	c #025C55",
"V 	c #045C57",
"W 	c #005049",
"X 	c #00302D",
"Y 	c #001414",
"Z 	c #06564C",
"` 	c #135F5E",
" .	c #0F6160",
"..	c #002624",
"+.	c #0E5A56",
"@.	c #245966",
"#.	c #165D60",
"$.	c #001413",
"%.	c #015952",
"&.	c #175E69",
"*.	c #065E59",
"=.	c #035B54",
"-.	c #0E5C57",
";.	c #001817",
">.	c #002222",
",.	c #002626",
"'.	c #003334",
").	c #00504F",
"!.	c #00302F",
"~.	c #0C6261",
"{.	c #025E59",
"].	c #004240",
"^.	c #003634",
"/.	c #00302E",
"(.	c #0C605F",
"_.	c #37596F",
":.	c #175F67",
"<.	c #265866",
"[.	c #225A66",
"}.	c #1B5D61",
"|.	c #00322F",
"1.	c #002C2B",
"2.	c #003A39",
"3.	c #006261",
"4.	c #006768",
"5.	c #007374",
"6.	c #004443",
"7.	c #004E4D",
"8.	c #005C5B",
"9.	c #115B57",
"0.	c #1B5D63",
"a.	c #04605A",
"b.	c #002E2C",
"c.	c #002828",
"d.	c #2A5B6E",
"e.	c #055F5A",
"f.	c #004440",
"g.	c #695B7D",
"h.	c #495273",
"i.	c #00524D",
"j.	c #195F65",
"k.	c #006463",
"l.	c #007074",
"m.	c #005E5D",
"n.	c #007172",
"o.	c #006F70",
"p.	c #004847",
"q.	c #004A49",
"r.	c #1D5C61",
"s.	c #235963",
"t.	c #005A53",
"u.	c #004C44",
"v.	c #185D68",
"w.	c #0D6063",
"x.	c #035F5A",
"y.	c #015D57",
"z.	c #001A1A",
"A.	c #185F6A",
"B.	c #126166",
"C.	c #3C5572",
"D.	c #001C1B",
"E.	c #006566",
"F.	c #02787A",
"G.	c #00696A",
"H.	c #005655",
"I.	c #00605F",
"J.	c #017677",
"K.	c #006364",
"L.	c #005857",
"M.	c #00403F",
"N.	c #00423D",
"O.	c #255865",
"P.	c #285768",
"Q.	c #1A5E60",
"R.	c #06564B",
"S.	c #002826",
"T.	c #08605D",
"U.	c #225B6C",
"V.	c #125F64",
"W.	c #09615E",
"X.	c #005A55",
"Y.	c #00403E",
"Z.	c #00443E",
"`.	c #136267",
" +	c #01534A",
".+	c #003E3D",
"++	c #006B6C",
"@+	c #004640",
"#+	c #05574F",
"$+	c #001E1E",
"%+	c #0E5F62",
"&+	c #145F66",
"*+	c #32576E",
"=+	c #31556F",
"-+	c #045E59",
";+	c #004644",
">+	c #003C3A",
",+	c #31576F",
"'+	c #215A65",
")+	c #005453",
"!+	c #005A59",
"~+	c #007276",
"{+	c #001211",
"]+	c #2C586C",
"^+	c #365570",
"/+	c #106162",
"(+	c #004241",
"_+	c #3C5472",
":+	c #4C4E74",
"<+	c #135F5F",
"[+	c #005251",
"}+	c #03777B",
"|+	c #017879",
"1+	c #015B54",
"2+	c #0C6162",
"3+	c #0F6063",
"4+	c #33586F",
"5+	c #2C566C",
"6+	c #004C4B",
"7+	c #544F77",
"8+	c #695A7E",
"9+	c #67597D",
"0+	c #007478",
"a+	c #006D6E",
"b+	c #006162",
"c+	c #106366",
"d+	c #055F59",
"e+	c #001615",
"f+	c #7F6187",
"g+	c #DA8E70",
"h+	c #B96B78",
"i+	c #25615F",
"j+	c #595179",
"k+	c #71627E",
"l+	c #4E5274",
"m+	c #02767A",
"n+	c #027678",
"o+	c #005C59",
"p+	c #003E3C",
"q+	c #04584F",
"r+	c #225A6A",
"s+	c #215E6B",
"t+	c #045A53",
"u+	c #003231",
"v+	c #002A2A",
"w+	c #055950",
"x+	c #002424",
"y+	c #0D6465",
"z+	c #405672",
"A+	c #065E57",
"B+	c #3C5372",
"C+	c #78687E",
"D+	c #002F30",
"E+	c #002B2C",
"F+	c #29616F",
"G+	c #2B5A6B",
"H+	c #156063",
"I+	c #004E49",
"J+	c #2A576C",
"K+	c #77697D",
"L+	c #036564",
"M+	c #066463",
"N+	c #046463",
"O+	c #036362",
"P+	c #004344",
"Q+	c #003B3C",
"R+	c #003433",
"S+	c #136061",
"T+	c #2B556B",
"U+	c #575078",
"V+	c #016160",
"W+	c #056563",
"X+	c #056564",
"Y+	c #046462",
"Z+	c #026261",
"`+	c #004645",
" @	c #00393A",
".@	c #1D5C63",
"+@	c #004142",
"@@	c #076564",
"#@	c #086665",
"$@	c #003635",
"%@	c #2E586E",
"&@	c #00564F",
"*@	c #3A5472",
"=@	c #0C5C57",
"-@	c #0C5C58",
";@	c #004B4C",
">@	c #02605F",
",@	c #026463",
"'@	c #00544D",
")@	c #003C3B",
"!@	c #004546",
"~@	c #046664",
"{@	c #017579",
"]@	c #003837",
"^@	c #003536",
"/@	c #003D3E",
"(@	c #002E2D",
"_@	c #002D2E",
":@	c #004A47",
"<@	c #28586A",
"[@	c #002422",
"}@	c #91638A",
"|@	c #D08470",
"1@	c #BE706E",
"2@	c #3E5F74",
"3@	c #025C5B",
"4@	c #025E5D",
"5@	c #086261",
"6@	c #04787C",
"7@	c #017377",
"8@	c #185E66",
"9@	c #055B54",
"0@	c #2E6A6E",
"a@	c #21686B",
"b@	c #0C6463",
"c@	c #0A6463",
"d@	c #0D6160",
"e@	c #0F6564",
"f@	c #036160",
"g@	c #007576",
"h@	c #076160",
"i@	c #0A605F",
"j@	c #0F6360",
"k@	c #085E5B",
"l@	c #0D6362",
"m@	c #196869",
"n@	c #0A6261",
"o@	c #186768",
"p@	c #003738",
"q@	c #003132",
"r@	c #1C6768",
"s@	c #22676A",
"t@	c #004042",
"u@	c #003A3C",
"v@	c #00383A",
"w@	c #29696B",
"x@	c #156562",
"y@	c #24676A",
"z@	c #306A6E",
"A@	c #29686B",
"B@	c #196564",
"C@	c #1B6562",
"D@	c #006E72",
"E@	c #0E605F",
"F@	c #055958",
"                                                                                                                                ",
"                                                                                                                                ",
"                                                                                                                                ",
"                                                                                                                                ",
"                                                                                                                                ",
"                                                                                                                                ",
"                                                                                                                                ",
"                                                                                                                                ",
"                                                                                                                                ",
"                            . + . @ @ . .     . .                                                                               ",
"                        . . # $ % . & * = . . - ; . .                                                                           ",
"                    . . + ; > , ' # # ) ! ~ { ] ^ / $ .                                                                         ",
"                  . . ( , { _ : < [ + } | 1 2 3 4 5 6 7 .                                                                       ",
"                . @ 8 9 0 a b c d , e & $ f g h i j k l m .                                                                     ",
"              . . n o p q r s t u v w x e e y f z A B C * .                                                                     ",
"          . . x { D h o E F G H t I w J K [ # e b L C M @                                                                       ",
"        . . N O | t i P Q m R S T y ( u U V W X w Y Z w .   . . . . . . . . . .                                                 ",
"      . . p `  .v ..9 h _ ) +.@.#.= $.%.&.*.V =.-.;.@ . . + & >.,.,.'.).!.( x . . . .                                           ",
"      . X W >.9 ~.{.t ].^.2 b ) w ;./.} (._.:.<.[.}.|.. # 1.2.).3.4.5.4.6.7.8.2.& e . .                                         ",
"    . } 9.0.X ^.a.5 b.c.[ | p @ X d.e.f.( E g.h.i.j.S & . & 2.k.4.l.5.4.6.m.n.o.p.q.'.# . .                                     ",
"    . m r.B s., 9 t.: Q u.* . < v.w.x.y.2 z.* j.A.B.C.D.. @ I ).E.F.o.G.H.I.J.E.7.K.p.L.M.8 .                                   ",
"    . x N.O.P.Q.) U d R.S.x T.U.V.W.y.X.Y.D J . Z.`.} =  +# @ >.H.F.o.G.m..+.+p.L.4.q.++4.I.1.@ .                               ",
"    . ( @ = @+#+J $+Z.;.# %+&+*+=+-+y.;+>+, + @ @ - Y f.,+'+. w !.F.o.G.L.)+G.E.!+++q.F.~+3.m.2.w .                             ",
"  . . ~ $ {++ + + x w = *.V.]+^+^+/+o > & . z.(+z.. J e._+:+<+. e !+~+G.H.7.3.m.8.5.[+}+|+o.3.8..+8 .                           ",
"    .  +f [ w D.t 9 - D.1+2+3+4+5+! ) . Y ( e 6+6+( . h 7+8+9+h . = 0+a+)+M.p.6+m.++L.}+|+a+b+m.p.Y.= .                         ",
"    . 2 v ) w [ f.c+f.# o d+T.q e+# . f+g+h+i+. + e @ @ M j+k+l+h . m.n.)+M.}+3.)+b+3.m+n+G.o+[+(+p+Y.8 .                       ",
"  . x q+K { x - d r+s++ _ t+e+. . e Y >+u+z.>.v+Y # @ . . . @ J w+$ ; ++m..+a+I.7.I.m.o.)+x+.+.+.+.+p+x+.                       ",
"  . y+z+t.q ;.x A+B+C+e+X @ @ z..+D+M.).)+)+L.8.H.M.E+Y ( x+; w . @ ( . x & .+6.(+(+m.8.@ >.6.6.6.(+.+- .                       ",
"  . F+G+H+I+> w i.J+K+m . + u+).L.).7.8.L+M+N+O+I.M.P+6+$+,.)+Q+!.$+w = . . @ ( >.R+)+p.. u+L.6+H.m.).>..                       ",
"  . K r S+5 _ x _ T+U+J @ ,.).m.V+W+m.M+M+X+Y+Z+).R+8.V+6+; `+H.(+ @R+@ z.. + . . . e Y @ M.a+l.n.4.H.1..                       ",
"  . ( 5 o d f.$ ( .@S # 8 +@m.Z+@@Y+Y+M+X+O+Y+!+).R+Z+M+Z+E+ @#@L.L.6+v+8 = . .   . . @ + 6+0+F.F.|+m.$@.                       ",
"    . i F %@&@K + K <+e >.H.I.N+M+Y+M+L+M+M+M+Y+m.R+W+#@V+(+c.Y+Z+8.!+[+@ 8 Y .       . z.)+J.F.|+n+E.u+.                       ",
"    . f.*@=@e+x @ } -@= c.(+[+m.O+Y+I.;@I.M+M+M+Z+M.N+#@>@`+c.,@L+m.8.H.@ , '@e .     . c.H.|+F.F.0+3.c..                       ",
"      . . . . . . . g 8 c.6.H.I.>@M+O+6+,@M+M+M+O+)@,@#@N+`+c.L+L+!+m.L.@ o f.;..     . I H.J.F.a+F.L.$+.                       ",
"            . ( + @ . + x+!@8.>@,@Y+M+@@M+M+M+O+V+.+O+#@@@6.E+~@m.L.)+H.. f.v # .     . 8 L.F.{@I.I.p.x .                       ",
"            e ]@; w . . 8 2.L.I.O+O+O+M+O+L+Z+)+[+M.M+W+Z+$@^@N+).).q.1.( , } .       . 8 I.}+F.a+H.)@.                         ",
"          . ,.)@$@8 # . + >.7.L.m.8.7.!+I.I.!+`+R+]@7.I.)@x+/@(+.+2.!.. . y @ .       . ,.a+F.F.++3.>..                         ",
"          @ 2.7.p.R+8 @ . + 1.6+[+(+(+m.I.V+I.m.!+6.$@]@x+$@6. @u+z.+ @ . . .         . 2.~+m+F.~+I.; .                         ",
"        . x I.E.4.3.(@& . @ . z.2._@6.).)+)+[+).`+)@c.& _@c.& @ . . . .   .         . + M.M.6+++F.!+# .                         ",
"        . z.G.0+~+a+L.c.# + } . . + I (+:@>.>.'.; e . . . . @ 8 + .                 . ( L.3.L.6.(+.+@ .                         ",
"        . )@l.F.F.}+n.).; @ a <@b [@# }@|@1@2@e = p.(+3@).4@5@( .                   . + (@8.l.6@K.R+.                           ",
"        . H.7@F.F.F.F.++(+= . W ]+8@9@x + + ( L.0@a@b@L.c@L.+ .                       . . . e >.$@; .                           ",
"        + 3.F.F.F.F.F.|+3.!+!+x+. . 8 [ x . c.d@e@f@H.f@v+@ .                       . . . Y # . + . + .                         ",
"        w 4.m+F.F.F.F.F.n+g@E.).^@c.& w . . . E+6+m.h@x+.               . . . . w x+q.i@j@k@d@q.. . + + .                       ",
"        e 4.F.F.F.n+F.F.a+G.).2.G.4.M. @!.8 . . & (@# . @ @ . . . . . . @ ( 8 . (+l@m@n@w ( = Y Y Y $+z.8 Y Y Y Y Y Y Y Y # .   ",
"        + I.F.F.F.F.n+++G.m..+H.}+!+q.[+p.m.).x+Y . . . + = x+x+$+z.x+$@M.).L.@ u+o@o@`++ z.p@p@;@/@Q+Q+^@ @q@ @ @ @Q+ @'.q@#   ",
"        . (@5.F.F.F.o.G.K.`+L.p.L.7.K.H.3.a+k.7.u+( I ]@p.[+H.L.H.m.4.g@8.p.5.8 & r@s@q.+ z.t@t@;@Q+u@Q+^@p@q@v@u@ @p@v@^@'.=   ",
"        . . )+g@m+J.G.4.).).G.n.`+G.E.L.o.n.3.!+M..+7.m.7@|+|+|+|+F.F.F.o.M.g@)@. L.w@x@+ + ( ( 8 Y 8 Y x x ( = = = = = = # .   ",
"          . x [+7@o.E.).[+`+H.!+I.g@)+l.}+~+E.8.(+Y.6+L.n+F.F.F.|+|+|+F.}+p.K.G.. )@y@z@A@B@C@p.. x )@e                         ",
"            . . (+4.).6.~+F.[+)+o.m.L.F.n+D@K.8.(+.+)+!+F.|+n+0+I.G.G.o.F.8.q.m.# . @ I H.E@& @ F@u+.                           ",
"              . + c.!.)+4.l.6+m.E.6+g@F.n.++3.8.M..+[+3.~+}+n+m+n.!+!+I.8.6.!.z.+ .   . . . . w # .                             ",
"                  . . ; )@M.p.m.)+m.l.a+G.E.I.[+.+.+`+H.8.4.4.I.)+M.c.>.8 w . . .                                               ",
"                    . . . @ 8 v+$@H.I.I.I.m.[+`+Y.u+>.u+(+(+]@c.8 @ . . . .                                                     ",
"                          . . . . w = Y & 8 8 = ( + . . . . . . . .                                                             ",
"                                    . . . . . . .                                                                               ",
"                                                                                                                                ",
"                                                                                                                                ",
"                                                                                                                                ",
"                                                                                                                                ",
"                                                                                                                                ",
"                                                                                                                                ",
"                                                                                                                                ",
"                                                                                                                                ",
"                                                                                                                                "};
