/* XPM */
static const char * player_reload_4_blue_xpm[] = {
"64 64 396 2",
"  	c None",
". 	c #000000",
"+ 	c #000202",
"@ 	c #000404",
"# 	c #000606",
"$ 	c #001E1D",
"% 	c #003633",
"& 	c #000808",
"* 	c #002020",
"= 	c #002C2A",
"- 	c #00201E",
"; 	c #001E1E",
"> 	c #146166",
", 	c #00524B",
"' 	c #001010",
") 	c #000A0A",
"! 	c #003836",
"~ 	c #004642",
"{ 	c #002827",
"] 	c #001A1A",
"^ 	c #00302E",
"/ 	c #015750",
"( 	c #005249",
"_ 	c #0A625F",
": 	c #1B616B",
"< 	c #0D6061",
"[ 	c #185E66",
"} 	c #005651",
"| 	c #001C1C",
"1 	c #002E2B",
"2 	c #00322F",
"3 	c #00504B",
"4 	c #004E49",
"5 	c #003A37",
"6 	c #000E0E",
"7 	c #002423",
"8 	c #00443E",
"9 	c #06564B",
"0 	c #00403C",
"a 	c #00564F",
"b 	c #015B55",
"c 	c #00504D",
"d 	c #205D68",
"e 	c #2A586C",
"f 	c #000C0C",
"g 	c #001818",
"h 	c #0C605D",
"i 	c #003C38",
"j 	c #035B54",
"k 	c #002221",
"l 	c #002624",
"m 	c #003A35",
"n 	c #00403B",
"o 	c #00544D",
"p 	c #095D58",
"q 	c #235967",
"r 	c #2B5569",
"s 	c #345470",
"t 	c #001A19",
"u 	c #005049",
"v 	c #002625",
"w 	c #003E3A",
"x 	c #003835",
"y 	c #125F64",
"z 	c #004E48",
"A 	c #004844",
"B 	c #001414",
"C 	c #004840",
"D 	c #1B5B61",
"E 	c #235965",
"F 	c #295869",
"G 	c #0D5B55",
"H 	c #002828",
"I 	c #003231",
"J 	c #004C4B",
"K 	c #005C5B",
"L 	c #005E5D",
"M 	c #00605F",
"N 	c #005A59",
"O 	c #004443",
"P 	c #00403E",
"Q 	c #003837",
"R 	c #002C2B",
"S 	c #055950",
"T 	c #00423E",
"U 	c #315B6F",
"V 	c #2B576B",
"W 	c #085A53",
"X 	c #001C1B",
"Y 	c #05554D",
"Z 	c #001413",
"` 	c #003E3D",
" .	c #004645",
"..	c #005857",
"+.	c #005655",
"@.	c #007172",
"#.	c #006B6C",
"$.	c #006768",
"%.	c #006364",
"&.	c #004240",
"*.	c #003C3A",
"=.	c #003634",
"-.	c #003E3C",
";.	c #004C48",
">.	c #2A576A",
",.	c #04564E",
"'.	c #004A44",
").	c #045C57",
"!.	c #005A53",
"~.	c #003A39",
"{.	c #005453",
"].	c #007074",
"^.	c #006566",
"/.	c #004E4D",
"(.	c #02767A",
"_.	c #006D6E",
":.	c #006261",
"<.	c #004A49",
"[.	c #002424",
"}.	c #285766",
"|.	c #116161",
"1.	c #002A29",
"2.	c #004A46",
"3.	c #215963",
"4.	c #295867",
"5.	c #04564C",
"6.	c #096160",
"7.	c #215B6B",
"8.	c #0B6160",
"9.	c #035D56",
"0.	c #145E60",
"a.	c #1E5B62",
"b.	c #004E46",
"c.	c #003334",
"d.	c #00403F",
"e.	c #02787A",
"f.	c #00504F",
"g.	c #006F70",
"h.	c #017879",
"i.	c #003432",
"j.	c #004644",
"k.	c #002E2C",
"l.	c #003230",
"m.	c #3B5871",
"n.	c #395A71",
"o.	c #2D576D",
"p.	c #0F6061",
"q.	c #1B5D63",
"r.	c #0E5C57",
"s.	c #005251",
"t.	c #007576",
"u.	c #007374",
"v.	c #007778",
"w.	c #003A38",
"x.	c #0D5951",
"y.	c #025E59",
"z.	c #17606B",
"A.	c #002A28",
"B.	c #2D5C6F",
"C.	c #035F57",
"D.	c #004845",
"E.	c #001212",
"F.	c #00100F",
"G.	c #395771",
"H.	c #4E5374",
"I.	c #156065",
"J.	c #435173",
"K.	c #002626",
"L.	c #017377",
"M.	c #00696A",
"N.	c #004847",
"O.	c #00423D",
"P.	c #1F5C63",
"Q.	c #265766",
"R.	c #004842",
"S.	c #005853",
"T.	c #004C46",
"U.	c #175E69",
"V.	c #0D6263",
"W.	c #035F5A",
"X.	c #015B56",
"Y.	c #185F68",
"Z.	c #03777B",
"`.	c #004442",
" +	c #004640",
".+	c #225A64",
"++	c #2A5668",
"@+	c #025C57",
"#+	c #00544F",
"$+	c #01534A",
"%+	c #005851",
"&+	c #115E63",
"*+	c #08605D",
"=+	c #015D57",
"-+	c #005A55",
";+	c #205B64",
">+	c #0D5B54",
",+	c #002A2A",
"'+	c #007276",
")+	c #027678",
"!+	c #003C3B",
"~+	c #002E2D",
"{+	c #001616",
"]+	c #00201F",
"^+	c #115F5E",
"/+	c #1F5A61",
"(+	c #165D5E",
"_+	c #065A51",
":+	c #015B54",
"<+	c #165E66",
"[+	c #2C586C",
"}+	c #2E576E",
"|+	c #045E59",
"1+	c #002C29",
"2+	c #2E586E",
"3+	c #445072",
"4+	c #085A51",
"5+	c #002220",
"6+	c #155E67",
"7+	c #355571",
"8+	c #365570",
"9+	c #125F62",
"0+	c #415473",
"a+	c #544F77",
"b+	c #73637F",
"c+	c #003433",
"d+	c #075950",
"e+	c #00302D",
"f+	c #0A6162",
"g+	c #0F6063",
"h+	c #31576F",
"i+	c #0B5750",
"j+	c #002222",
"k+	c #225A66",
"l+	c #65587C",
"m+	c #6D5E7E",
"n+	c #475573",
"o+	c #007478",
"p+	c #004241",
"q+	c #017579",
"r+	c #075F5C",
"s+	c #0A6261",
"t+	c #A2608A",
"u+	c #846387",
"v+	c #2A6164",
"w+	c #145F60",
"x+	c #355771",
"y+	c #525175",
"z+	c #1D5C67",
"A+	c #00302F",
"B+	c #003132",
"C+	c #126166",
"D+	c #015B53",
"E+	c #001817",
"F+	c #002D2E",
"G+	c #275967",
"H+	c #6C5F7D",
"I+	c #001211",
"J+	c #003833",
"K+	c #004748",
"L+	c #002F30",
"M+	c #07615E",
"N+	c #2E5A6C",
"O+	c #085E59",
"P+	c #285868",
"Q+	c #75667E",
"R+	c #10605F",
"S+	c #036362",
"T+	c #066463",
"U+	c #056563",
"V+	c #046463",
"W+	c #00393A",
"X+	c #0E6162",
"Y+	c #176067",
"Z+	c #1F5A65",
"`+	c #00524D",
" @	c #555078",
".@	c #195D63",
"+@	c #016160",
"@@	c #046462",
"#@	c #026261",
"$@	c #08625F",
"%@	c #004440",
"&@	c #2A5768",
"*@	c #3A5272",
"=@	c #076564",
"-@	c #004344",
";@	c #065E59",
">@	c #1D5D65",
",@	c #036564",
"'@	c #026463",
")@	c #2D5C6D",
"!@	c #37586F",
"~@	c #175F61",
"{@	c #065C55",
"]@	c #046664",
"^@	c #086665",
"/@	c #003635",
"(@	c #01554C",
"_@	c #11615E",
":@	c #146260",
"<@	c #186462",
"[@	c #2E686E",
"}@	c #035958",
"|@	c #066462",
"1@	c #002B2C",
"2@	c #003D3E",
"3@	c #1D6565",
"4@	c #1F6764",
"5@	c #226867",
"6@	c #30696E",
"7@	c #2B686B",
"8@	c #1B6563",
"9@	c #236766",
"0@	c #2C696C",
"a@	c #346B70",
"b@	c #3A6C72",
"c@	c #015F5E",
"d@	c #12625F",
"e@	c #276669",
"f@	c #316A6F",
"g@	c #396D71",
"h@	c #436B73",
"i@	c #125E5B",
"j@	c #02605F",
"k@	c #003536",
"l@	c #176469",
"m@	c #2D696D",
"n@	c #366B70",
"o@	c #3E6B72",
"p@	c #356A71",
"q@	c #00524F",
"r@	c #006463",
"s@	c #206663",
"t@	c #29676B",
"u@	c #001615",
"v@	c #135F58",
"w@	c #0D5D58",
"x@	c #005653",
"y@	c #225A68",
"z@	c #B0667E",
"A@	c #DA8E70",
"B@	c #9C608A",
"C@	c #136160",
"D@	c #106261",
"E@	c #0D6362",
"F@	c #0E6463",
"G@	c #4B4E73",
"H@	c #7D6E7E",
"I@	c #2D5A6D",
"J@	c #025C5B",
"K@	c #2E6A6E",
"L@	c #21686B",
"M@	c #086261",
"N@	c #005758",
"O@	c #205B6A",
"P@	c #04605A",
"Q@	c #195D65",
"R@	c #33556F",
"S@	c #065E5D",
"T@	c #025E5D",
"U@	c #04605F",
"V@	c #025E56",
"W@	c #0F6160",
"X@	c #285866",
"Y@	c #035F5E",
"Z@	c #017677",
"`@	c #085C55",
" #	c #003431",
".#	c #003E39",
"+#	c #0B635F",
"@#	c #196869",
"##	c #1E696A",
"$#	c #146665",
"%#	c #176869",
"&#	c #22676A",
"*#	c #1B6767",
"=#	c #003C3E",
"-#	c #003E40",
";#	c #003436",
">#	c #186867",
",#	c #26686A",
"'#	c #004F52",
")#	c #004F50",
"!#	c #004142",
"~#	c #003738",
"{#	c #0B6362",
"]#	c #2E6A6C",
"^#	c #1D6869",
"/#	c #004446",
"(#	c #00494C",
"_#	c #004D4E",
":#	c #00474A",
"<#	c #256769",
"[#	c #316B6F",
"}#	c #346C70",
"                                                                                                                                ",
"                                                                                                                                ",
"                                                                                                                                ",
"                                                                                                                                ",
"                                                                                                                                ",
"                                                                                                                                ",
"                                                                                                                                ",
"                          . + @ . # + . .   . . .                                                                               ",
"                      . . @ $ % # & * = - . ; > , ' .                                                                           ",
"                    . . ) = ! ~ { + ] ^ / ( _ : < [ } )                                                                         ",
"                  . . | 1 2 3 4 5 6 6 7 8 9 0 a b c d e f .                         . .   . .                                   ",
"                . + g 3 h 2 i j 4 k & ' l m n o p q r s t .             . . . . . + & f 6 ) & # + . . .                         ",
"              . & u v w x y z { A | # B ) @ ' C D E F G .           . . . . ' H I J K L M N J O P Q R # .                       ",
"          . . ) n S ~ m T U V W 7 ' 6 2 u 5 X + t Y D Z .     . . . . * ` O  .L ..+.@.#.$.%.M +.&.P &.*.# .                     ",
"        . + $ =.= -.} ;.{ S >.>.,.' t '.).).!.~ $ . t . . + & ' | ~.Q {.$.].J K ^./.].(.@._.:.K <.P P P [..                     ",
"      . . 1 }.|.= 1.2.2.% 2 3.4.5.& $ 6.7.8.9.0.a.b.@ . & [.c.O :.$.{.d.].e.+.f.g.M {.e.h.@.%.M /.P P P I .                     ",
"      . - 8 u i 3 % i.j.i.n x k.. 1.l.X , m.n.o.p.q.r.& @ * Q :.@.g.$.f.s. .f.N M t.s.u.(.v.$.L /.P P P w..                     ",
"    . Z x.i k y.z.} v 1.v x A.@ i B.C.D.E.F.G.H.y.I.J.1 . @ K.{.#.L.M.$.f.{.$.u.N.#.$.K u.].^.L O d.P P R .                     ",
"    . O.P.Q.R.= 4 S.-.^ 8 ] . T.U.V.W.X.*.= 6 n Y.z.|.6 l . @ K.N Z._.M.:.O N <.{.s.%.{.%.g.%...d.`.&.H @ .                     ",
"    @  +.+V ++'.^ @+#+$+2 ) %+7.&+*+=+-+P u v . F.a ' t ;+>++ & ,+'+)+#.$.K !++.Z.{.s.+.J %.L !+~+{+. . . .                     ",
"    . # ]+^+/+(+i.T _+1 @ :+<+[+}+|+=+`.w.1+. 6 + + X 4 2+3+4+. # ~.h.)+_.M.N.` @.M.d.d.~.H E.+ # * !+!+.                       ",
"    # k # + $ 5+& # 6 & o 6+[+7+8+9+2.i.6 . # /.O & # 2.0+a+b+#+. & c+%.(.].%.<.!+Q [.B @ . ) c+..Z.M K..                       ",
"  . + d+e+$ # ) B 7 ' t |+f+g+h+o.o 1.+ i i+1.@ K.j+@ . k+l+m+n+#+. & c+N o+u.,++ . . . & p+o+q+N $. .) .                       ",
"    . b. +k # { P y.i.) ~ r+s+n 6 @ . = t+u+v+w.@ . + . @  +w+x+y+z+. @ R +.L A+p+!+6 . B+L.e.'+$.f.~+.                         ",
"    . ]+l.v # ]+2.C+s++ =.D+E+. @ 6 B ,+[.K.F+c+I j+' # . . . . . % i & + [.O +.J E.. f M (.e.u.#.<.@ .                         ",
"  . E+G+3 5 B 6 S.h+H+I+J+I++ ] K+J B+J {...N M M N p+L+; ; ` B+B . + k f . ] H # . + c++.u.e.(.^.d.. .                         ",
"  . M+N+O+T.e++ 2.P+Q+R+. . [.J ..K +.K S+T+U+U+V+N ~.{./.| ,+{.W+Q K.@ { 6 + ) . . f f.<.` {.].:.* .                           ",
"  . X+Y+Z+`+T f l.4. @.@. g <.K M T+S++@T+@@T+#@..p+d.+@+@N.* s.K <.!+!+. i @ . . . ) {.t.#./.d.p+& .                           ",
"  . v $@a :+%@* ' &@*@5 f ,+K +@=@T+@@V+T+V+T+@@{.-@O =@S+N [.<.=@..+.s.j+@ {+& . & ) + ] ^.Z.L R .                             ",
"    + M+2.;@`.w.+ 0 >@I+{+!+L #@,@T+@@'@+@T+T+T+=@{.p+=@=@L ~+Q =@:.L N O . ~ A @ # ~+j+& . * c+# .                             ",
"    . ] )@!@~@'.6 ' {@. ] L+~.+.L @@V+J /.]@T+T+T++.<.=@^@L L+/@^@#@L N J + 3 T {+& J /.<. .6 . .                               ",
"      # (@5 6 + . . T.& {+` J L M S+T++@L T+T+T+T+N O =@^@'@L+/@^@M K N <.+ A i.& R _@:@<@[@}@. ' @                             ",
"      . . . . . + + @ @ E.I /.+@'@@@@@T+T+T+@@T+M .. .|@=@S+1@2@^@..+.f.d.@ =.j+. N.3@4@5@6@7@) | @                             ",
"            . f j++ + . @ [.f.N +@@@#@S+'@#@'@{.s.p+f.T+U+..[.p+S+f. .f.' + 1.@ + Q 8@9@0@a@b@!+) #                             ",
"            . H /@g # . . ) W+{.N L /.+.M c@M N ~.` ` f.+.,+,+p+!+d.` | . . + ' f * d@e@f@g@h@i@& )                             ",
"            # ~.!+/@B ) . . 6 ~.J J ~./.L L M +@j@+.!+k@R H ` d.k@K.# . .   . l@1.E.m@n@o@p@e@q@. .                             ",
"          . ] s.r@+.!+] # + . # | L+I d./.f./.<.O !+/@g E.] B ) @ . . .       & . g d@s@t@_@!+g .                               ",
"          . L+^.#.M.:.Q g . t u@. . # D.v@w@x@O ,+B . . # # ) | & . .             g s.J N.,+. .                                 ",
"          . p+@.e.e.u.M ~+E.. Z+y@'.6 B z@A@B@i.. H C@D@E@..F@O .                 . & ) + .                                     ",
"        . . K o+e.e.e.t.L ,+& ) G@H@I@T.Z + . | J@K@L@M@N@M@/@.                                                                 ",
"        . # %.h.e.e.e.e.@.+.; . 5+O@P@Q@R@% . | S@F@T@..U@{+.                                                                   ",
"          ) $.e.e.e.e.e.e.%.<.B . { y.V@W@X@v . ,+N.Y@M@| .                                                                     ",
"          f _.e.e.e.e.e.e.Z@L.e.%.f # l.`+`@ #. # ` /@& .                                                                       ",
"          ) M.e.e.e.e.e.h.@._.$...d.f . + ) #  #+ . . .                                                                         ",
"          . ..e.e.e.e.g.M.M.%.N.~.+.s.A+# . X %+.#. .                                                                           ",
"          . ] g.e.e.g.$.$.L O p+:.e.$.d.~.' . E.'.) .                                                                           ",
"            . ` g._.M.%...N.M K  .:.O +. .~.] . + .                                       .                                     ",
"            . . N.$.{.p+K p+%.o+J +.%.M J r@L A+@ .                 . . . . . . . 6 | [.~+d.~.{+.                               ",
"              . # d.!+%.e.$.O /.K t.^.s.M._.%.+.A++ . + + @ ) # + . + @ # ) ) . ~.+#@###..,+Q O + . .                           ",
"                . . H L @.M. .^._.M s.Z@h.].%.N j+| H c+`  .J  .` /@d.J p+..N.. O $#%#N . B ,+[.] B E.) + . . . . .             ",
"                  . . K.<.J L ^.M f.Z@e.e.g.:.s.p+p++.^._.#.M.$.$.g.u.e.f.s.g.. ~+&#*#A+& 6 F+2@-@=#2@-#;#c.F+F+K.* | {+E.f .   ",
"                    . . # ~.{.s./.h.e.t.g.^.:./.` N.f.g.e.e.e.e.e.e.e.e.N N.Z.] ' >#,#d.+ F+'#)#!#k@k@k@B+c.L+~#~#k@~#~#B+c.6 . ",
"                      . . + ; d.#.M.#._.M.:.L N.` J ..h.e.)+h.].@.].'+e.#.p+e.Q # {#]#^#K.E.f B ; K.1@B+K.,+~#/#(#_#:#/#W+~#B . ",
"                          . . @ F++.L M M L s.&.` N.:.].e.o+)+_...$.M.].t.d.$.~.+ /@W@<#[#}#0@d.@ .   . . . . . . . & B * g .   ",
"                              . . # g /@<.J &.-.` d...L _.L.@._.M /.+.K /.d./@] . . . ) [.K.@ .                                 ",
"                                    . . @ B K.~+I K./@N.f.s.<.p+~+; B E.f + . . .       .                                       ",
"                                        . . . . . . . . . + @ . . . . . . .                                                     ",
"                                                          .                                                                     ",
"                                                                                                                                ",
"                                                                                                                                ",
"                                                                                                                                ",
"                                                                                                                                ",
"                                                                                                                                ",
"                                                                                                                                "};
