/* XPM */
static const char * player_idle_2_blue_xpm[] = {
"64 64 340 2",
"  	c None",
". 	c #000000",
"+ 	c #000A0A",
"@ 	c #001010",
"# 	c #000606",
"$ 	c #000404",
"% 	c #001A1A",
"& 	c #00302E",
"* 	c #004E48",
"= 	c #000C0C",
"- 	c #000808",
"; 	c #002423",
"> 	c #003835",
", 	c #001211",
"' 	c #002221",
") 	c #00524D",
"! 	c #001212",
"~ 	c #001413",
"{ 	c #002624",
"] 	c #004440",
"^ 	c #00423E",
"/ 	c #00403C",
"( 	c #002625",
"_ 	c #00201F",
": 	c #003230",
"< 	c #00544D",
"[ 	c #003E3A",
"} 	c #166168",
"| 	c #215F6D",
"1 	c #145F64",
"2 	c #055B54",
"3 	c #000202",
"4 	c #001E1D",
"5 	c #00564F",
"6 	c #003833",
"7 	c #00544F",
"8 	c #01554C",
"9 	c #003E39",
"0 	c #004A46",
"a 	c #005A53",
"b 	c #2A5C6C",
"c 	c #001817",
"d 	c #002222",
"e 	c #00524B",
"f 	c #003A37",
"g 	c #00302D",
"h 	c #00443E",
"i 	c #075F5A",
"j 	c #1F5C65",
"k 	c #3C5372",
"l 	c #125E5D",
"m 	c #001C1C",
"n 	c #03554D",
"o 	c #003633",
"p 	c #125F64",
"q 	c #385C70",
"r 	c #0D5D58",
"s 	c #002827",
"t 	c #002E2B",
"u 	c #185E5E",
"v 	c #235965",
"w 	c #2A5668",
"x 	c #265966",
"y 	c #002826",
"z 	c #004842",
"A 	c #002E2C",
"B 	c #002C2A",
"C 	c #004E49",
"D 	c #005A55",
"E 	c #002C29",
"F 	c #004640",
"G 	c #225A66",
"H 	c #2A576A",
"I 	c #05574F",
"J 	c #005049",
"K 	c #004A44",
"L 	c #001615",
"M 	c #085A51",
"N 	c #225A64",
"O 	c #0E5C57",
"P 	c #135D5A",
"Q 	c #265866",
"R 	c #003C38",
"S 	c #004C48",
"T 	c #002A29",
"U 	c #1D5C61",
"V 	c #295869",
"W 	c #245966",
"X 	c #002A28",
"Y 	c #000E0E",
"Z 	c #035D56",
"` 	c #045C57",
" .	c #015B53",
"..	c #001A19",
"+.	c #003A35",
"@.	c #005249",
"#.	c #004844",
"$.	c #004240",
"%.	c #004A42",
"&.	c #01554E",
"*.	c #00423D",
"=.	c #001414",
"-.	c #245C6C",
";.	c #175E69",
">.	c #045C55",
",.	c #095F5C",
"'.	c #1E5D62",
").	c #00403B",
"!.	c #002424",
"~.	c #002A2A",
"{.	c #002C2B",
"].	c #00504F",
"^.	c #003A39",
"/.	c #001818",
"(.	c #0B5951",
"_.	c #0C5E59",
":.	c #003432",
"<.	c #156069",
"[.	c #08625F",
"}.	c #30596E",
"|.	c #385A70",
"1.	c #2D576D",
"2.	c #1C5E64",
"3.	c #1A5C62",
"4.	c #01534A",
"5.	c #002828",
"6.	c #003837",
"7.	c #006261",
"8.	c #006566",
"9.	c #007374",
"0.	c #00696A",
"a.	c #004C4B",
"b.	c #00605F",
"c.	c #005251",
"d.	c #002626",
"e.	c #005853",
"f.	c #135E65",
"g.	c #195C69",
"h.	c #055F5A",
"i.	c #005651",
"j.	c #225C66",
"k.	c #585377",
"l.	c #126164",
"m.	c #375571",
"n.	c #003635",
"o.	c #006768",
"p.	c #006F70",
"q.	c #017377",
"r.	c #007276",
"s.	c #007576",
"t.	c #004E4D",
"u.	c #005857",
"v.	c #004241",
"w.	c #002E2D",
"x.	c #004E46",
"y.	c #2B556B",
"z.	c #2A566A",
"A.	c #145E5D",
"B.	c #00544B",
"C.	c #004039",
"D.	c #185C68",
"E.	c #116065",
"F.	c #0D6061",
"G.	c #025E59",
"H.	c #025C57",
"I.	c #1B5F69",
"J.	c #145F68",
"K.	c #2B5A6B",
"L.	c #006364",
"M.	c #027678",
"N.	c #006162",
"O.	c #006D6E",
"P.	c #004A49",
"Q.	c #005453",
"R.	c #00403F",
"S.	c #0B5B54",
"T.	c #0F5D58",
"U.	c #00322F",
"V.	c #215B6B",
"W.	c #175D65",
"X.	c #215967",
"Y.	c #003E3C",
"Z.	c #002220",
"`.	c #06605B",
" +	c #0E5A56",
".+	c #001E1E",
"++	c #02787A",
"@+	c #003E3D",
"#+	c #004847",
"$+	c #006B6C",
"%+	c #005C5B",
"&+	c #001C1B",
"*+	c #165D68",
"=+	c #225A68",
"-+	c #355771",
";+	c #355571",
">+	c #0A605D",
",+	c #00403E",
"'+	c #375671",
")+	c #285868",
"!+	c #007172",
"~+	c #007478",
"{+	c #07574F",
"]+	c #0C6162",
"^+	c #235A69",
"/+	c #3A5472",
"(+	c #001616",
"_+	c #005655",
":+	c #09615E",
"<+	c #3E5472",
"[+	c #534F77",
"}+	c #195D63",
"|+	c #004645",
"1+	c #003C3B",
"2+	c #003634",
"3+	c #06605D",
"4+	c #0A6261",
"5+	c #035D58",
"6+	c #A35F8A",
"7+	c #A4608A",
"8+	c #09554F",
"9+	c #003433",
"0+	c #504E76",
"a+	c #65587C",
"b+	c #63567C",
"c+	c #006E72",
"d+	c #003A38",
"e+	c #00504B",
"f+	c #004642",
"g+	c #004845",
"h+	c #0E5A54",
"i+	c #004E4B",
"j+	c #002020",
"k+	c #045A53",
"l+	c #003231",
"m+	c #037879",
"n+	c #007074",
"o+	c #02767A",
"p+	c #004443",
"q+	c #106164",
"r+	c #415673",
"s+	c #0A605B",
"t+	c #4B4E75",
"u+	c #4B5473",
"v+	c #002F30",
"w+	c #004344",
"x+	c #355F6F",
"y+	c #2E596E",
"z+	c #055D56",
"A+	c #73637F",
"B+	c #026261",
"C+	c #02605F",
"D+	c #003738",
"E+	c #116265",
"F+	c #085E59",
"G+	c #165E62",
"H+	c #0A5E59",
"I+	c #2F566F",
"J+	c #265868",
"K+	c #005E5D",
"L+	c #026463",
"M+	c #046463",
"N+	c #066463",
"O+	c #046462",
"P+	c #003334",
"Q+	c #005A59",
"R+	c #2A576C",
"S+	c #036362",
"T+	c #056563",
"U+	c #03777B",
"V+	c #017879",
"W+	c #096360",
"X+	c #175F65",
"Y+	c #0F6160",
"Z+	c #076564",
"`+	c #036564",
" @	c #046664",
".@	c #003836",
"+@	c #017677",
"@@	c #017579",
"#@	c #375871",
"$@	c #0B5B55",
"%@	c #005152",
"&@	c #016160",
"*@	c #086665",
"=@	c #007778",
"-@	c #00302F",
";@	c #003F40",
">@	c #002B2C",
",@	c #006463",
"'@	c #00393A",
")@	c #002D2E",
"!@	c #135F5F",
"~@	c #346070",
"{@	c #C2726E",
"]@	c #B66C75",
"^@	c #545B78",
"/@	c #075D5C",
"(@	c #0D6362",
"_@	c #075952",
":@	c #445472",
"<@	c #405572",
"[@	c #296A6D",
"}@	c #346C70",
"|@	c #1F686B",
"1@	c #0C6463",
"2@	c #29696B",
"3@	c #246A6C",
"4@	c #106665",
"5@	c #096362",
"6@	c #036160",
"7@	c #046261",
"8@	c #035B5A",
"9@	c #035B58",
"0@	c #1B6869",
"a@	c #0B6160",
"b@	c #186768",
"c@	c #146663",
"d@	c #003436",
"e@	c #003536",
"f@	c #26686A",
"g@	c #196869",
"h@	c #004B4C",
"i@	c #004546",
"j@	c #003B3C",
"k@	c #003C3E",
"l@	c #003D3E",
"m@	c #156764",
"n@	c #29686B",
"o@	c #003A3C",
"p@	c #004042",
"q@	c #035F5E",
"r@	c #2E6A6E",
"s@	c #2C6A6C",
"t@	c #146260",
"u@	c #0D5F5E",
"v@	c #16625F",
"w@	c #035958",
"x@	c #156361",
"y@	c #196563",
"                                                                                                                                ",
"                                                                                                                                ",
"                                                                                                                                ",
"                                                                                                                                ",
"                                                                                                                                ",
"                                                                                                                                ",
"                                                                                                                                ",
"                                                                                                                                ",
"                              . . .                                                                                             ",
"                          . . + @ . + # . .   . . .                                                                             ",
"                      . . $ % & * = - ; > , . ' ) ! .                                                                           ",
"                    . . ~ { ] ^ / ( . _ : < [ } | 1 2 -                                                                         ",
"                  . 3 4 5 < 6 < 7 [ + % ; 8 9 0 a 7 7 b =                                                                       ",
"              . . c ] d ) [ e f 7 / ! - = g h ] ) i j k l .                                                                     ",
"            . 3 m n < [ o p q r s : - ! c # + t u v w x y .                                                                     ",
"          . ~ z A B C D E F G H I ; - ; J K _ # L M N O $ .                                                                     ",
"        . ! P Q K y R S ] T U V W X Y R Z `  .S ..3 +.- . . . . . . . . . . . . .                                               ",
"      . ..@.B [ ) ) T #.$.& %.&.*.# =.^ -.;.>.,.'.).. . . - % !.~.~.{.].^.=./.3 . . . .                                         ",
"    . Y (._.B :.<.[.B A s A h Y 3 #.) m s }.|.1.2.3.4.3 # 5.6.].7.8.9.0.a.a.b.c.d./.+ . .                                       ",
"    . B '.w U B ] e.0 ( ).' + + f.g.h.i.' + j.k.D l.m.T . @ n.7.o.p.q.0.c.c.r.s.t.u.v.w.Y . .                                   ",
"    . ~ x.y.z.A.( Z 7 B.C.= ( D.E.F.G.H./ : Y z I.J.K...$ . % a.L.M.r.o.N.c.p.O.P.L.Q.u.b.R.@ . .                               ",
"    . - . s S.T.U.f 5 ).# > V.W.X.G.G.7 Y.< ' . Z.`.=.!  +, . .+].++9.0.L.v.@+#+c.$+Q.L.O.7.%+.+3 .                             ",
"  . . R &++ + = $ # = # ] *+=+-+;+>+D ,+:.... = . - .+0 '+)+. # ~.!+q.o.L.a.8.~+].p.].$+++O.b.%+n.# .                           ",
"    . {+F ; # ! &+s Y ; ]+]+^+/+'+>.(+$ . . .+_+{.. m :+<+[+}+. - |+M.$+L.#+u.7.].s.].9.++p.0.b.].1+@ .                         ",
"    . z 2+( # t ] 3+!.(+7 4+5+8 F = f 6+7+8+# m 9+Y . / 0+a+b+0 . Y 8.!+8.@+a.Q.c.O.].9.++c+L.b.t.,+,+=..                       ",
"  . # F d+y - ; e+;.e.# f+o # . . $ g+h+i+d+j+@ # . . . , ; ).k+o . l+m+o.1+L.++P.L.c.n+o+6.1+p+R.@+@+6..                       ",
"  $ q+r+C [ Y (+s+t+u+- _ . + !.~.v+R.w+#+a.t.|+n.!.Y - ! ! $ . - Y . c.o.|+c.$+P.b.t.O.9+3 6.R.R.@+@+^.-                       ",
"  - x+y+z+K ' =  ./+A+~ . (+|+c.].p+c.b.B+B+B+C+t.D+w+d d |+1+~.@ 3 + . $ + /.@+^.|+#+0.- @ a.].u.u.P.9+.                       ",
"  . E+F+G+7 2+# H+I+J+3 =.p+u.K+L+%+L+M+N+N+O+%+p+].K+t..+1+_+R.1+P+# @ . $ . $ = % ~.p+. d.K+b.L.L.Q+v..                       ",
"  . & S S e+^ + h R+' + v+Q+b.O+N+S+O+M+B+S+%+P.l+u.M+b.v+v+T+u.].v.~.= ! 3 ! . . . . . . n.O.U+U+V+b.a..                       ",
"    $ W+X+Y+^ ; =  .+ /.R.b.O+Z+`+ @N+N+N+N+O+K+1+B+Z+B+#+d.C+B+%+Q+_+- .@$ . .       . # #+O.+++@@@O.#+.                       ",
"    . G+#@$@; ..3 o # .+v.].K+B+O+S+%@%+N+N+N+`+#+&@*@M+].d.Q+T+K+K+K+! - =.3 .       . (+].c+++++q.O.@+.                       ",
"      . . . . . . @ - m n.p+%+b.O+S+t.%+N+N+N+O+P.&@*@Z+Q.!.%+T+%+K+b.(+Y C R . .     . /.c.9.++~+M.L.w..                       ",
"      .     . # 3 3 3 % v.u.C+B+S+ @O+N+O+M+N+L+a.b.*@Z+Q.!.K+B+_+Q+b.Y .@) R - .     . @ Q.=@V+b.O.Q.% .                       ",
"          . ! -@$ $ . ! l+Q.b.B+O+O+N+O+`+S+Q+u.v.C+Z+M+|+5.B+Q+c.p+p+# i.f+A $       . @ K+U+++o._+v.- .                       ",
"          . l+6.d.- . 3 .+t._+b.L+u.K+b.b.K+t.1+6.a.C+u.5.l+#+v.;@R.@ # ] :.! .       . ~.$+++++$+b.5..                         ",
"        . =.^.R.n.% Y . $ >@a._+t.R._+&@&@&@K+_+P.6.p+~.~.R.R.R.{.! = . @ &+. .     . 3 v.V+++++p.K+/..                         ",
"        . l+,@0.K+R.% 3 . 3 d 1+'@1+].u.u._+_+t.p+v+.+d.v+)@m + . ! =.. . . .       . + p+Q.o.V+M.Q.+ .                         ",
"      . . c.O.9.0.b.l+=.. Y . $ Y d l+n.6.n.9+-@d - . . . . 3 @ {.@ .     .         . % Q+t.R.v.u.'@3                           ",
"      . + L.q.++++9.Q+!.+ Y !@( + . ~@{@]@^@!.. @ d.c./@|+|+(@1++ .                 . Y P.q.+@$+P.{..                           ",
"      . (+0.++++++o+!+t./.. _@:@<@K + f R $ =.#+[@}@|@C+%+1@5..                       . . + v.7.c.Y .                           ",
"      . !.r.++++++++++o.v.1+5.3 3 # Y - . /._+2@3@4@Q+K+5@/..                       . . 3 . . . # 3 .                           ",
"      . w.M.++++++++++9.+@9.o.^.d.j+Y . . 3 !.u.6@_+7@6.# .               .   . . .+n.c.8@9@u.d.. $ 3 .                         ",
"      . ^.++++++++M.@@M.p.o.v.p+0.Q.1+^.j+= 3 . !.c.v+. 3 3 . . . . . . 3 - $ . #+4@0@a@- 3 $ # - + = + - - + + + + = = = $     ",
"      . l+V+++++++++M.$+0.Q.@+n+V+P.Q.R.u.%+|+5.! . . . - (+{.5.% =.j+l+^.t.R.. P.b@c@n.# !.P+;@;@D+D+d@P+P+v+e@e@D+D+e@v+!.#   ",
"      . =.O.++++++++$+0.K+v.t.P.K+Q.L.a.$+$+7.|+l+j+-@v.a.Q.u._+u.K+8.!+a._+$+$ l+f@g@-@Y d '@h@i@'@j@'@j@j@e@k@l@j@l@l@e@)@-   ",
"        . a.s.++++9.o.o.t.b.p.8.a.O.K+o.O.p.b.c.R.R.c.8.++M.M.V+M.++++++Q+P.++=.@ m@n@Q.# v+k@k@o@p@p@o@% (+d.~.5.5.!.!.d + .   ",
"        . # Q.s.o+O.o.].|+R.$+c.$+c+].++++c+7._+,+v.a.o.++M.++o+M.++o+++n+v.M.1+3 q@r@s@t@u@v@|+3 + {..                         ",
"          . $ ^.$+0.t.|+++8.p+%+p.c.8.++@@$+7._+@+R.Q+o.+++@M.9.b.$+$+r.U+P.7.P.. (+6.w@x@y@n.Y {.d.3                           ",
"            . . ~.u.1+b.p.r.#+7.o.t.m+++p.o.b.Q.1+@+Q+7.V+++q.M.0._+L.7.b.p+@+~.3 . . . . . 3 ! - .                             ",
"                . $ = ^.Q.c.].L.].N.c+$+o.L.b.t.@+R.a.Q.K+8.L.%+].@+d.d.=.+ 3 . .                                               ",
"                  . . . 3 + 5.9+^.%+b.b.K+u.a.,+^.% j+{.6.n.w.!.@ 3 . . . . .                                                   ",
"                        . . . . . # = Y = + - $ 3 . . . . . . . . .                                                             ",
"                                  . . . . . .                                                                                   ",
"                                                                                                                                ",
"                                                                                                                                ",
"                                                                                                                                ",
"                                                                                                                                ",
"                                                                                                                                ",
"                                                                                                                                ",
"                                                                                                                                ",
"                                                                                                                                ",
"                                                                                                                                ",
"                                                                                                                                "};
