/* XPM */
static const char * player_reload_5_blue_xpm[] = {
"64 64 344 2",
"  	c None",
". 	c #000000",
"+ 	c #000808",
"@ 	c #000404",
"# 	c #000202",
"$ 	c #001414",
"% 	c #002C2A",
"& 	c #003633",
"* 	c #002221",
"= 	c #002E2B",
"- 	c #000606",
"; 	c #003432",
"> 	c #004E49",
", 	c #000A0A",
"' 	c #002423",
") 	c #003C3A",
"! 	c #003A38",
"~ 	c #00423E",
"{ 	c #001212",
"] 	c #002625",
"^ 	c #03554D",
"/ 	c #215F6D",
"( 	c #255F6D",
"_ 	c #175E65",
": 	c #00403C",
"< 	c #001616",
"[ 	c #004E48",
"} 	c #003431",
"| 	c #003A37",
"1 	c #00524D",
"2 	c #004A46",
"3 	c #003634",
"4 	c #001C1B",
"5 	c #002827",
"6 	c #095950",
"7 	c #003E39",
"8 	c #00524B",
"9 	c #035D56",
"0 	c #005651",
"a 	c #225C6A",
"b 	c #001E1E",
"c 	c #00302E",
"d 	c #065C55",
"e 	c #004842",
"f 	c #004C46",
"g 	c #000C0C",
"h 	c #003833",
"i 	c #00443E",
"j 	c #0E605F",
"k 	c #205A64",
"l 	c #405172",
"m 	c #04564E",
"n 	c #075950",
"o 	c #004640",
"p 	c #0E5F62",
"q 	c #2C5A6E",
"r 	c #003230",
"s 	c #001010",
"t 	c #00403B",
"u 	c #1A5E60",
"v 	c #265766",
"w 	c #2A5668",
"x 	c #255865",
"y 	c #001615",
"z 	c #001A1A",
"A 	c #002624",
"B 	c #075F5C",
"C 	c #245968",
"D 	c #285866",
"E 	c #00423D",
"F 	c #001A18",
"G 	c #0E5A54",
"H 	c #225A64",
"I 	c #05574F",
"J 	c #005048",
"K 	c #195D63",
"L 	c #00504B",
"M 	c #00322F",
"N 	c #2A576A",
"O 	c #1D5D63",
"P 	c #003C37",
"Q 	c #025C55",
"R 	c #045C57",
"S 	c #015952",
"T 	c #001817",
"U 	c #000E0E",
"V 	c #015B53",
"W 	c #01534A",
"X 	c #1B5D63",
"Y 	c #0A5A53",
"Z 	c #00544D",
"` 	c #215C6B",
" .	c #055D58",
"..	c #1D5C61",
"+.	c #002020",
"@.	c #002F30",
"#.	c #003837",
"$.	c #003C3B",
"%.	c #004443",
"&.	c #006364",
"*.	c #004E4D",
"=.	c #001C1C",
"-.	c #004840",
";.	c #185F6A",
">.	c #0A6261",
",.	c #003836",
"'.	c #003835",
").	c #002A29",
"!.	c #004644",
"~.	c #001A19",
"{.	c #00302D",
"].	c #395971",
"^.	c #37596F",
"/.	c #2A576C",
"(.	c #1A5E64",
"_.	c #105F60",
":.	c #06564C",
"<.	c #002626",
"[.	c #005857",
"}.	c #006566",
"|.	c #006768",
"1.	c #017677",
"2.	c #006B6C",
"3.	c #00504F",
"4.	c #006261",
"5.	c #005453",
"6.	c #002D2E",
"7.	c #135D5C",
"8.	c #235B67",
"9.	c #005A55",
"0.	c #00544F",
"a.	c #002422",
"b.	c #2A5B6E",
"c.	c #08625F",
"d.	c #2C586C",
"e.	c #67597D",
"f.	c #005C57",
"g.	c #0A625F",
"h.	c #395371",
"i.	c #003231",
"j.	c #00605F",
"k.	c #007172",
"l.	c #007478",
"m.	c #00696A",
"n.	c #005655",
"o.	c #007576",
"p.	c #002424",
"q.	c #1B5C61",
"r.	c #2A566A",
"s.	c #295667",
"t.	c #004A44",
"u.	c #002E2C",
"v.	c #004C44",
"w.	c #095F5C",
"x.	c #165F68",
"y.	c #0D6063",
"z.	c #035F5A",
"A.	c #015B56",
"B.	c #004E46",
"C.	c #1C5E6A",
"D.	c #136067",
"E.	c #375971",
"F.	c #001E1D",
"G.	c #003E3D",
"H.	c #02787A",
"I.	c #007374",
"J.	c #004A49",
"K.	c #005A59",
"L.	c #005E5D",
"M.	c #003433",
"N.	c #155E5F",
"O.	c #035B54",
"P.	c #07574F",
"Q.	c #155E67",
"R.	c #185C68",
"S.	c #135F63",
"T.	c #06605B",
"U.	c #025E59",
"V.	c #005853",
"W.	c #004240",
"X.	c #02564D",
"Y.	c #00201F",
"Z.	c #0C605D",
"`.	c #001818",
" +	c #155D5D",
".+	c #004645",
"++	c #03777B",
"@+	c #004847",
"#+	c #004D4E",
"$+	c #006D6E",
"%+	c #005251",
"&+	c #002C29",
"*+	c #125F66",
"=+	c #1B5C67",
"-+	c #355771",
";+	c #345670",
">+	c #004440",
",+	c #004642",
"'+	c #365570",
")+	c #3D5373",
"!+	c #006F70",
"~+	c #007276",
"{+	c #004C4B",
"]+	c #0F6063",
"^+	c #0C6162",
"/+	c #28586A",
"(+	c #395671",
"_+	c #156063",
":+	c #3E5372",
"<+	c #4D4E75",
"[+	c #425472",
"}+	c #002E2D",
"|+	c #005C5B",
"1+	c #027678",
"2+	c #0B6061",
"3+	c #0D6061",
"4+	c #2E586E",
"5+	c #0E5650",
"6+	c #034F4B",
"7+	c #4E4E74",
"8+	c #695B7D",
"9+	c #6D5E7E",
"0+	c #126166",
"a+	c #003D3E",
"b+	c #017879",
"c+	c #00302F",
"d+	c #004C48",
"e+	c #4D5B77",
"f+	c #C3796F",
"g+	c #AB677D",
"h+	c #356171",
"i+	c #435373",
"j+	c #4C5074",
"k+	c #136063",
"l+	c #00403E",
"m+	c #002828",
"n+	c #32576E",
"o+	c #305A6E",
"p+	c #005049",
"q+	c #003132",
"r+	c #002222",
"s+	c #003635",
"t+	c #116267",
"u+	c #2E596E",
"v+	c #30566E",
"w+	c #82707C",
"x+	c #002C2B",
"y+	c #004241",
"z+	c #003A39",
"A+	c #002A2A",
"B+	c #195F65",
"C+	c #145F62",
"D+	c #74657F",
"E+	c #035950",
"F+	c #066463",
"G+	c #076564",
"H+	c #056563",
"I+	c #046463",
"J+	c #002B2C",
"K+	c #006162",
"L+	c #003E3A",
"M+	c #045C55",
"N+	c #2B576B",
"O+	c #534F77",
"P+	c #026261",
"Q+	c #046664",
"R+	c #046462",
"S+	c #036362",
"T+	c #016160",
"U+	c #003536",
"V+	c #07615E",
"W+	c #116160",
"X+	c #285766",
"Y+	c #086665",
"Z+	c #003738",
"`+	c #00403F",
" @	c #325A6E",
".@	c #345770",
"+@	c #045A53",
"@@	c #055950",
"#@	c #026463",
"$@	c #02605F",
"%@	c #003E3C",
"&@	c #00393A",
"*@	c #007074",
"=@	c #006463",
"-@	c #0E5C57",
";@	c #1D615D",
">@	c #004E4B",
",@	c #365770",
"'@	c #135F5F",
")@	c #06524E",
"!@	c #8F638B",
"~@	c #665B7D",
"{@	c #004844",
"]@	c #1F6766",
"^@	c #156362",
"/@	c #086261",
"(@	c #096362",
"_@	c #047A7C",
":@	c #02584F",
"<@	c #045A51",
"[@	c #065E5D",
"}@	c #306A6E",
"|@	c #1C696A",
"1@	c #076160",
"2@	c #015958",
"3@	c #056160",
"4@	c #017377",
"5@	c #006E72",
"6@	c #086463",
"7@	c #08605F",
"8@	c #156764",
"9@	c #02767A",
"0@	c #0E6461",
"a@	c #186768",
"b@	c #025C5B",
"c@	c #136764",
"d@	c #216769",
"e@	c #003334",
"f@	c #004546",
"g@	c #065E5B",
"h@	c #29686B",
"i@	c #00575A",
"j@	c #005558",
"k@	c #005356",
"l@	c #003C3E",
"m@	c #003B3C",
"n@	c #003F40",
"o@	c #00474A",
"p@	c #00494A",
"q@	c #004548",
"r@	c #004446",
"s@	c #037879",
"t@	c #04787C",
"u@	c #23686B",
"v@	c #22676A",
"w@	c #146463",
"x@	c #2C686C",
"y@	c #2D696D",
"z@	c #2C6A6C",
"A@	c #2E696C",
"B@	c #0A605D",
"C@	c #037579",
"                                                                                                                                ",
"                                                                                                                                ",
"                                                                                                                                ",
"                                                                                                                                ",
"                                                                                                                                ",
"                                                                                                                                ",
"                                                                                                                                ",
"                                                                                                                                ",
"                                .                                                                                               ",
"                          . . + @ # @ . .     . .                                                                               ",
"                        . . $ % & . $ * = - . ; > - .                                                                           ",
"                    . . , ' ) ! ~ { - ] ~ ^ & / ( _ : ,                                                                         ",
"                  . . < [ } | 1 2 3 @ 4 5 6 7 8 9 0 1 a .                                                                       ",
"                . - b c d ~ e f 0 | g g { h i f 0 j k l m .                                                                     ",
"            . . + n 8 = o p q | r ; + s s @ g t u v w x y .                                                                     ",
"          . . z = | 2 > A B C D E ' - ] [ ~ y # F G H I .                                                                       ",
"        . - J K 3 5 L 0 | M N w O * s P Q R S ~ T # E U . . . . . . . + # . . . .                                               ",
"      . @ & I V r = 3 2 ~ % W X Y + { Z ` p R  ...P @ # . , +.@.#.$.%.&.*.=.=.- . . .                                           ",
"      @ -.[ +.! ;.>.% ,.c '.o 4 . ).!.~.{.].^./.(._.:.+ @ <.#.[.}.|.1.2.*.3.4.5.6.+.- . .                                       ",
"    . * 7.8.t r 9.0.,.] {.5 a.@ f b.c.> z s d.e.f.g.h.| . g i.j.}.k.l.m.n.n.1.o.*.n.%.p.g . .                                   ",
"    . | q.r.s.t.u.9 0 | v.~.@ w.x.y.z.A.) u.U B.C.D.E.F.+ . s G.4.H.I.|.j.n.k.2.J.}.n.K.L.M.# .                                 ",
"    . - a.N.x q.& O.0 P.T 4 Q.R.S.T.U.V.W.X.).. Y.Z.`.s  +A . < .+++I.m.4.@+@+#+n.$+%+}.$+j.*.{ . .                             ",
"    . Y.- . &+i ~.s M U < *+=+-+;+T.A.>+3 5 . g . , `.,+'+)+~.. z !+~+|.j.%+2.1.n.k.{+!+H.m.j.5.=.. .                           ",
"  . . m = 4 - - , < , T ]+^+/+-+(+_+~ u., . +.5.i.. g 9 :+<+[+, . }+1.m.j.@+5.|+[.1.J.1.1+!+|.j.J.}+. .                         ",
"    . t.,+Y.- ' ; >+=.$ Z 2+3+4+D t.z @ 5+6+. p.$.z . * 7+8+9+0+, - !+k.j.a+K.|+[.2.*.b+H.!+&.j.{+W.c+@ .                       ",
"    . ' c ] - 5 ,+D.d++ :  .V = . . . e+f+g+h+g . # . . * d.i+j+k+- G.o.L.#.k.I.*.&.5.b+1+}.[.%+%.G.l+m+.                       ",
"  . ' d.d+} g `.V.n+o+. f p+- . @ s =.}+c+}+c+q+r+< - . . . . + ~.] - @+4.G.L.m.@+j.5.!+j.{ G.G.G.G.G.s+.                       ",
"  # t+u+Q t.* - d v+w+a.A # + x+@+$.y+5.K.|+L.j.L.J.q+<.$ m+c+=., . , # . + +.z+G.%.n.m.# s .+@+*.{+y+A+.                       ",
"  . C.B+C+> ) @ > r.D+E+. , $.%+K.K.5.j.F+G+H+I+j..+{+n.J+=.*.y+$.@.s U @ . . . U <.$.5.. r+[.%+%+K+K.G..                       ",
"  . L+0.M+0 L+U '.N+O+T - }+5.L.P+F+j.Q+R+S+S+T+%.U+[.P+|+r+z+P+{+.+%.U ~., # . . . . + . i.m.~+b+o.L.*..                       ",
"  . $ V+1 V W.* g W+X+. z %.j.S+Y+S+F+F+F+R+F+j.n.i.T+G+j.Z+6.F+j.K.J.`+# U . .     . # # G.2.H.1+H.$+%+.                       ",
"    . >+ @.@+@: . L+@@# b n.|+#@F+S+F+P+F+F+F+F+#@$.#@Y+P+J.p.S+#@L.K.|+@ { u..         , J.$+H.H.1.o.3..                       ",
"    . 4 8 &++ - . g f , +.M.@+|+$@I+j.J.|+F+F+F+P+@+S+Y+I+J.p.#@Q+L.L.L., | Z F..       , *.2.H.b+H.$+%..                       ",
"      . . . . . . . T + p.J.[.j.P+F+F+n.F+F+F+F+#@%.P+Y+G+*.p.P+#@K.|+L.- >+>+% .       - @+2.H.$+$+m.s+.                       ",
"            . b + @ . @ z `+K.T+S+R+F+F+F+I+Q+$@j..+$@G+H+.+m+R+j.5.@+[.# %@; g .       @ %.!+H.k.[.n.b .                       ",
"          . g #.<.@ # . U M.n.L.P+Q+P+#@P+P+T+3.J.z+j.G+P+@.c+j.3.@+%.<.@ 3 Y..       . # .+l.H.!+|..+U .                       ",
"          . x+$.#.z , . . `.J.5.|+n.J.[.j.j.|+3.Z+&@%.n.#.r+$.G.G.$.c+. . < @ .       . + 5.H.H.*@|.J.- .                       ",
"        . , y+j.n.`+z , . . z %.{+%.y+[.L.|+j.j.K.@+c+}+p.z+%.&@p.+ # . . . .         . s 4.1+++H.!+.+#                         ",
"        . `.}.2.|.&.$.=.. - . g p.p.z+`+.+@+.+%.`+s++., z < g . . . . .               . +.%.`+*.=@|.i..                         ",
"        . m+m.H.H.I.4.c+s . t , . . $ -@;@>@$.q+{ . # - - - $ +.- .                   . M.|.|.[.@+`+b .                         ",
"        . $.*@H.H.H.~+K.r+- ~.j+,@'@# )@!@~@{@. x+]@^@/@5.(@[.+ .                     . + p.*.o._@%+- .                         ",
"        . %+b+H.H.H.H.k.3.z - a.:@Z <@&+. . `.[@}@|@1@[.1@%.. .                         . . . - < +.. .                         ",
"        . L.H.H.H.H.H.b+}.*@o.y++ . . # , . { 2@3@|+[.$@s .                       . . @ , r+m++ , , # m+.                       ",
"        . |.H.H.H.H.b+H.4@5@&.@+`+y+}+z @ . . $ .+6@K.< .           . . . . . . , %.7@8@%+c+x+c+# . . <.< . . . . . . . .       ",
"        . |.H.H.H.9@H.4@2.|.{+`+$+2.%.y+z+m+{ # - =.. . . # . # . . . - U =.<.. M.0@a@b@. `.r+r+p.p.6.<.+.r++.r+r+r+r+r++.$ .   ",
"        . *.9@H.H.H.1.m.|.n.`+*.1+5.5.[.J.K+L.$.m+# . . g =.z+$.s+c+z+{+%+{+}., z c@d@G.+ < 6.e@f@Z+U+Z+q+U+6.Z+Z+U+Z+Z+@.@.g   ",
"        . r+!+H.H.H.2.m.j.J.4.n.{+%+&.n.}.!+&.n.z+p.i..+5.K.L.j.j.m.k.b+k.`+I.M.. g@h@*.# U+i@j@j@k@k@k@l@m@n@o@p@p@q@q@r@U++   ",
"          . %.k.H.~+m.&.{+J.|.I.*.I.}.K.k.k.}.L.%.l+{+L.s@t@t@++++H.H.H.b+y+&.2.. i.u@v@`.g , g # . . + . . . . . . . . . .     ",
"          . # s+I.m.&.%.&.[.%.#+}.k.3.I.H.o.|.j..+`+3.%+H.1+1+1+o.l.~+b+H.[.%+H.U =.w@x@y@z@A@.+. `.B@z .                       ",
"            . . <.&.J.J.I.C@n.n.!+L.4.++b+!+&.L.%.G.%+j.H.b+1+1+&.|+m.2.*@&.y+n.< . . @ p.#.$ . s .+< .                         ",
"              . . U +..+j.2.J.j.j.J.o.H.!+2.4.K.%.G.{+j.2.b+1+o.I.|+3.5.*.#.<., . .       .                                     ",
"                  . . - z A+y+%+J.L.$+}.=@4.j.%+l+G.y+%+[.L.j.n.J.s+< , - # . .                                                 ",
"                      . . . - `.r+$.*.%+5.*..+$.#.m+{ =.<.m++.< , . . . .                                                       ",
"                          . . . . . . # # . # # . . . . . . . . .                                                               ",
"                                                                                                                                ",
"                                                                                                                                ",
"                                                                                                                                ",
"                                                                                                                                ",
"                                                                                                                                ",
"                                                                                                                                ",
"                                                                                                                                ",
"                                                                                                                                ",
"                                                                                                                                ",
"                                                                                                                                "};
