/* XPM */
static const char * player_idle_4_blue_xpm[] = {
"64 64 353 2",
"  	c None",
". 	c #000000",
"+ 	c #000606",
"@ 	c #000404",
"# 	c #000808",
"$ 	c #000202",
"% 	c #001010",
"& 	c #002A29",
"* 	c #003A37",
"= 	c #00201F",
"- 	c #001E1E",
"; 	c #002C2A",
"> 	c #000A0A",
", 	c #002221",
"' 	c #003835",
") 	c #003A38",
"! 	c #003E3A",
"~ 	c #001414",
"{ 	c #002423",
"] 	c #00403C",
"^ 	c #03554D",
"/ 	c #003633",
"( 	c #20606C",
"_ 	c #255F6D",
": 	c #166064",
"< 	c #003C38",
"[ 	c #001616",
"} 	c #004844",
"| 	c #003833",
"1 	c #00544F",
"2 	c #004C48",
"3 	c #003230",
"4 	c #002020",
"5 	c #002827",
"6 	c #05574F",
"7 	c #00544D",
"8 	c #025C55",
"9 	c #025E59",
"0 	c #195E67",
"a 	c #002E2C",
"b 	c #055D56",
"c 	c #004A44",
"d 	c #004842",
"e 	c #004C46",
"f 	c #005651",
"g 	c #003E3C",
"h 	c #000C0C",
"i 	c #000E0E",
"j 	c #001A19",
"k 	c #00443D",
"l 	c #00423D",
"m 	c #045E57",
"n 	c #1B5D63",
"o 	c #4B4E75",
"p 	c #08584F",
"q 	c #00524B",
"r 	c #003431",
"s 	c #003E39",
"t 	c #0E6162",
"u 	c #2F5C6F",
"v 	c #00403B",
"w 	c #001211",
"x 	c #00443E",
"y 	c #1A5C60",
"z 	c #265966",
"A 	c #2A566A",
"B 	c #001C1C",
"C 	c #00302E",
"D 	c #00504B",
"E 	c #002826",
"F 	c #0D6061",
"G 	c #275769",
"H 	c #295867",
"I 	c #002E2B",
"J 	c #135D5C",
"K 	c #255865",
"L 	c #0C5C58",
"M 	c #01534A",
"N 	c #003634",
"O 	c #002625",
"P 	c #285866",
"Q 	c #2A5668",
"R 	c #1F5C63",
"S 	c #045C57",
"T 	c #00564F",
"U 	c #004C44",
"V 	c #003C37",
"W 	c #005049",
"X 	c #005851",
"Y 	c #003836",
"Z 	c #00302D",
"` 	c #004A46",
" .	c #004442",
"..	c #175F61",
"+.	c #095952",
"@.	c #001212",
"#.	c #1E5C6C",
"$.	c #035D56",
"%.	c #065E59",
"&.	c #155E5F",
"*.	c #002A28",
"=.	c #001818",
"-.	c #002424",
";.	c #002A2A",
">.	c #002828",
",.	c #00302F",
"'.	c #00504F",
").	c #003433",
"!.	c #004A42",
"~.	c #025851",
"{.	c #003432",
"].	c #185F6A",
"^.	c #0B6362",
"/.	c #004640",
"(.	c #385870",
"_.	c #245C6C",
":.	c #285768",
"<.	c #215965",
"[.	c #1C5D62",
"}.	c #003A39",
"|.	c #006261",
"1.	c #006566",
"2.	c #007374",
"3.	c #006768",
"4.	c #004847",
"5.	c #004E4D",
"6.	c #005E5D",
"7.	c #004645",
"8.	c #185E5E",
"9.	c #2A576A",
"0.	c #004E48",
"a.	c #002626",
"b.	c #265B6C",
"c.	c #06605B",
"d.	c #004E49",
"e.	c #001615",
"f.	c #4C5074",
"g.	c #505274",
"h.	c #30566E",
"i.	c #001E1D",
"j.	c #003837",
"k.	c #006463",
"l.	c #006E72",
"m.	c #007276",
"n.	c #00696A",
"o.	c #004A49",
"p.	c #005A59",
"q.	c #007074",
"r.	c #003C3B",
"s.	c #001A1A",
"t.	c #165D5E",
"u.	c #004E46",
"v.	c #075F5A",
"w.	c #155E67",
"x.	c #035F57",
"y.	c #015D57",
"z.	c #003C3A",
"A.	c #095D58",
"B.	c #1C5E6A",
"C.	c #136267",
"D.	c #365870",
"E.	c #001C1B",
"F.	c #02787A",
"G.	c #007172",
"H.	c #005C5B",
"I.	c #005857",
"J.	c #007576",
"K.	c #006364",
"L.	c #004C4B",
"M.	c #005251",
"N.	c #165D60",
"O.	c #215963",
"P.	c #1E5B62",
"Q.	c #00524D",
"R.	c #05554D",
"S.	c #1B5B69",
"T.	c #175E67",
"U.	c #055F5A",
"V.	c #005853",
"W.	c #00403E",
"X.	c #003430",
"Y.	c #0F6063",
"Z.	c #07574D",
"`.	c #005453",
" +	c #00605F",
".+	c #00403F",
"++	c #003E3D",
"@+	c #005655",
"#+	c #00322F",
"$+	c #165D68",
"%+	c #135E65",
"&+	c #33566F",
"*+	c #365570",
"=+	c #015B56",
"-+	c #00423E",
";+	c #004642",
">+	c #345770",
",+	c #245966",
"'+	c #002C2B",
")+	c #017677",
"!+	c #006D6E",
"~+	c #027678",
"{+	c #01554C",
"]+	c #0D6063",
"^+	c #0E5F62",
"/+	c #2C586C",
"(+	c #375571",
"_+	c #355771",
":+	c #0C605D",
"<+	c #3E5572",
"[+	c #4F4E76",
"}+	c #165E62",
"|+	c #017879",
"1+	c #006F70",
"2+	c #005048",
"3+	c #002624",
"4+	c #0C6162",
"5+	c #2A586C",
"6+	c #235965",
"7+	c #105852",
"8+	c #003231",
"9+	c #585179",
"0+	c #6A5C7E",
"a+	c #67597D",
"b+	c #037579",
"c+	c #106166",
"d+	c #906489",
"e+	c #836387",
"f+	c #2C6368",
"g+	c #135E5F",
"h+	c #395A71",
"i+	c #007478",
"j+	c #004240",
"k+	c #002222",
"l+	c #275969",
"m+	c #015B55",
"n+	c #345970",
"o+	c #305C6E",
"p+	c #002F30",
"q+	c #003635",
"r+	c #25606D",
"s+	c #33586F",
"t+	c #015D55",
"u+	c #3A5372",
"v+	c #77687E",
"w+	c #001817",
"x+	c #004344",
"y+	c #004443",
"z+	c #003132",
"A+	c #002E2D",
"B+	c #004241",
"C+	c #1F5A67",
"D+	c #1A5E64",
"E+	c #015952",
"F+	c #2C556C",
"G+	c #73647E",
"H+	c #036564",
"I+	c #066463",
"J+	c #056563",
"K+	c #076564",
"L+	c #002B2C",
"M+	c #015B53",
"N+	c #2C566C",
"O+	c #046462",
"P+	c #036362",
"Q+	c #02605F",
"R+	c #003F40",
"S+	c #016160",
"T+	c #015F5E",
"U+	c #003738",
"V+	c #015B54",
"W+	c #004440",
"X+	c #0F6160",
"Y+	c #085A51",
"Z+	c #046664",
"`+	c #046463",
" @	c #00494A",
".@	c #086463",
"+@	c #0D6160",
"@@	c #4F5075",
"#@	c #375671",
"$@	c #026261",
"%@	c #086867",
"&@	c #086665",
"*@	c #006B6C",
"=@	c #003536",
"-@	c #004D4E",
";@	c #004644",
">@	c #017377",
",@	c #003334",
"'@	c #004546",
")@	c #02767A",
"!@	c #003B3C",
"~@	c #002D2E",
"{@	c #004748",
"]@	c #03777B",
"^@	c #004845",
"/@	c #495E75",
"(@	c #3E5F72",
"_@	c #226364",
":@	c #025855",
"<@	c #03574E",
"[@	c #485174",
"}@	c #205C66",
"|@	c #455C75",
"1@	c #9E608C",
"2@	c #4B5B77",
"3@	c #216767",
"4@	c #1D6869",
"5@	c #146867",
"6@	c #0C6463",
"7@	c #075B54",
"8@	c #186664",
"9@	c #2E6A6E",
"0@	c #1C6768",
"a@	c #036160",
"b@	c #106665",
"c@	c #0B6160",
"d@	c #096362",
"e@	c #006C70",
"f@	c #156766",
"g@	c #1F6A6B",
"h@	c #126663",
"i@	c #18696A",
"j@	c #003234",
"k@	c #003436",
"l@	c #003A3C",
"m@	c #003032",
"n@	c #20676A",
"o@	c #176766",
"p@	c #002E30",
"q@	c #006162",
"r@	c #1B6767",
"s@	c #25696B",
"t@	c #005558",
"u@	c #005154",
"v@	c #004F52",
"w@	c #003E40",
"x@	c #003C3E",
"y@	c #004042",
"z@	c #004B4C",
"A@	c #00474A",
"B@	c #00494C",
"C@	c #015B5A",
"D@	c #29686B",
"E@	c #21686B",
"F@	c #017579",
"G@	c #0F615E",
"H@	c #236769",
"I@	c #32696E",
"J@	c #366B70",
"K@	c #015756",
"L@	c #037879",
"                                                                                                                                ",
"                                                                                                                                ",
"                                                                                                                                ",
"                                                                                                                                ",
"                                                                                                                                ",
"                                                                                                                                ",
"                                                                                                                                ",
"                                                                                                                                ",
"                                .                                                                                               ",
"                          . . + @ . # . .     . .                                                                               ",
"                        . $ % & * . % = = @ . - ; + .                                                                           ",
"                    . . > , ' ) ! ~ + { ] ^ / ( _ : < .                                                                         ",
"                  . . [ } | < 1 2 3 @ 4 5 6 / 7 8 1 9 0 $                                                                       ",
"                . # = a b c d e f g h i j k l } 1 m n o c .                                                                     ",
"            . . # p q r s t u v a r # i h @ w x y z A z = .                                                                     ",
"          . @ B C < 2 D E F G H < = + { } / ~ $ I J K L @ .                                                                     ",
"        . + M z N O D f ! I P Q R { i < 8 S T ! # # U + . . . . . . . . . . . .                                                 ",
"      . @ V W X Y Z 3 `  .a M ..+.> @.7 #.F $.%.&.*.. . . # =.-.;.>.,.'.).@.@.. . . .                                           ",
"      @ !.~.4 {.].^.& ) C r /.=.. & ! [ q (._.:.<.[.s . > ;.}.'.|.1.2.3.4.5.6.7.B i @ . .                                       ",
"    . { 8.9.0.5 D f ) a.a { j @ W b.c.d.~ e.f.g.1 : h.i.. ~ j.k.3.l.m.n.o.p.q.q.o.'.r.s.. .                                     ",
"    . I t.Q A u.; 8 1 v U ~ + v.w.F x.y.z.{ i A.B.C.D.E.. . - 5.1.F.G.n.H.I.J.n.o.K.L.H.M.a.. .                                 ",
"    . $ E.N.O.P.C Q.1 R.e.E.S.S.T.U.9 V.W.q { . X.Y.s.% Z.h . 4 `.F.G.n. +.+++7.@+n.L.n.3.|.7.# .                               ",
"    . { + @ i.#+% h O h E.$+%+&+*+v.=+-+z.*.$ + . i =.;+>+,+. + '+)+2.n.6.'.1.!+`.!+o.m.~+3. +o.=..                             ",
"  . . {+r E.@ + h [ # j ]+^+/+(+_+:+W.B # . - 5.4 . = v.<+[+}+. # 5.|+n.6.o.H.|.@+J.5.|+F.1+1. +o.>.. .                         ",
"    . 2+e 3++ O Y ;+B =.X 4+4+5+6+! # Y 7+{.+ 8+4.% . ;+9+0+a+` . h l.!+6.r.o.5.p.n.'.b+F.1+K.6.o.W.;.$                         ",
"    . *.a 5 # { ` c+Q.> ;+%.! % @ . >.d+e+f+}.+ . @ . . s g+_+h+2 . L.J.6.}.i+1+5.K.I.F.F.6.'.L.j+++W.k+.                       ",
"  . a l+} #+h [ m+n+o++ x *.. $ % ~ >.-.>.p+q+).a.@.+ . . . . . Z =.h K.K.++K.n.o. +@+1+o.h ++++++++++,..                       ",
"  @ r+s+t+c E.h b u+v+w+> . [ x+5.).L.@+I.H. + +H.y+z+- - r.z+~ @ $ > . + i A+B+.+7.@+|.. s.4.o.5.4..+-..                       ",
"  . _ C+D+Q.3 + E+F+G+i.. B 4.I.H.@+p.H+I+J+K+J+@+j.@+M.- L+`.}.}.L++ % . . . # [ >.B+L.. '+p.@+@+|.@+,..                       ",
"  . C Q.M+f -+h x N+>+@ @.y+H.6.O+I+ +I+P+O+Q+I.R+4.S+T+.+- p.I.o.U+8+$ =.. # . . . . > . r.1+)+F.G.H.}..                       ",
"    > V+f V.W+-.i X+Y++ -.p. +K+K+O+Z+I+O+`+I+@+ @o.K+`+6.k+5..@@+@+@+s.{ > . .     . $ @ 4.G.F.~+F.K.++.                       ",
"    . +@@@#@c ' @ ;+' ~ ).H.S+P+I+O+$@6.I+I+I+K+@+B+%@K+T+,.q+&@6. +H.++. ~ h .       . B M.J.F.~+|+*@j..                       ",
"    . 5 v @.. . . { O =.;.=@M.6.P+I+`.-@P+I+I+I+I.4.%@&@Q+,.j.K+S+ +H.7.$ ;@e @ .     . 4 `.m.F.|+>@|.'+.                       ",
"      . . . . . $ $ i ~ ,@L.p.S+$@`+P+ +I+I+I+K+H.y+%@&@`+8+U+&@6.6.6.y+@ V.] @..     . [ @+>@F.K.i+I.B .                       ",
"            . 4 @ $ . h ;.4. +$@O+O+I+K+I+I+I+ +I.4.&@&@`+L+y+K+`.I.I.,.- d.3 + .     . % p.b+F.K.p.7.> .                       ",
"          . s.}.4 + . . [ '@I. +P+$@$@$@$@$@`.-@y+`.P+`+'.-..+I.5.++y+. N / s..       . =.K.)@F.*@p.)..                         ",
"          . 8+}.=@~ h . @ a.'.I.H.o.5. +Q+ +p.B+B+!@L.'.a.~@B+}.B+++i $ + = . .       . ,.G.F.F.!+ +4 .                         ",
"        . % L.6.M.j.[ @ . @ ;.{@L.q+5.H.H.6. + +@+r.p+>.~@B+r.'+=.$ @ . . . .       . $ B+n.m.]@)+6.~ .                         ",
"        . a.1.3.1.|.,.~ . @ . i a.'+r.y+o.4.x+++).,.@.> h # . . $ # .     .         . h 4..+B+I.G.5.@ .                         ",
"        . B+G.F.|+G.I.a.> # v . . . ^@/@(@_@:@- + . . ~ ~ =.}.8+> .                 . ~ K.G.3.@+y+q+$                           ",
"      . $ 6.>@F.F.)@G.5.B $ <@[@}@v h |@1@2@{ > 4.3@4@5@H.6@M.. .                   . . h j.K.i+|.a..                           ",
"      . > 1.F.F.F.F.F.*@.+i . j { / 7@*.. + }.8@9@0@a@@+b@}.$                         . $ . $ > s.> .                           ",
"      . % !+F.F.F.F.F.J.3.1+*@).# . . @ $ . 8+c@d@H.H.I.[ .                     . . $ % >.5.7.=.$ . $ .                         ",
"      . [ m.F.F.F.F.F.F.|+e@H..+L.4.,.~ + . . s.4.a@p.# .           . . . . . . =.I.f@g@I.-.-.k+. # @ $ . $ $ $ $ $ $ $ $ .     ",
"      . [ G.F.F.F.F.F.q.*@1..+M.2.K.++7.}.j.B $ + h $ . . . $ . . . . + =.,.;.. 4.h@i@`.$ k+j@,@k@k@l@k@~@p+p+z+z+,@z+z+m@k+.   ",
"      . > n.F.F.F.F.m.n.3.5.B+@+m.4.H.5.p.3.6.r.-.. + @.4 A+B+B+}.j.y+I.o.`.K.$ 8+n@o@r.# [ ~@=@{@,@z+=@p+,@L+=@=@,@=@,@;.p@i   ",
"        . ++J.F.~+~+3.3.p.4.K.`.o. +K.5.*@1+|.M.j.).7.`.6. +q@q@K.1+>@]@I.4.~+% ~ r@s@5.$ ~@t@u@u@v@v@v@w@x@y@ @z@A@B@A@A@p@$   ",
"        . $ @+J.F.G.n.K.y+o.1+3.'.2.H.1+J.q.|.p.++.+5. +~+F.F.F.F.F.F.F.q.++|+++. C@D@E@;.@.[ - h @ ~ # $ $ @ @ $ $ $ $ $ .     ",
"          . > o.2.*@ +.+1.'.L.'.1+!+'.F.b+G.|.H..+.+'.6.)@~+F.F@G.m.G.F@]@4.1.|.. 8+G@H@I@J@3@A+h a.,..                         ",
"            . . r.1.B+@+i+F.5.6.!+5.*@F.2.!+|.p.++++I.|.F.)+)@~+H. +*@3.J.`.7.5.+ . . . ~ - . 4 K@$ .                           ",
"              . . ~ B '.|.n.L.K. +`.L@|+G.n. +@+++++'.6.*@F@i+G.n.'.L.'.B+;.[ # . .           . .                               ",
"                  . . > k+>.++M.4.K.n.K.|.|.H.L.g }.++L.@+I.@+L.j.>.h + . . . .                                                 ",
"                      . . . $ i =.z+o.`.M.y+r.q+,.% @ # i i h + . . . .                                                         ",
"                          . . . . . . . . . . . . . . . . . .                                                                   ",
"                                                                                                                                ",
"                                                                                                                                ",
"                                                                                                                                ",
"                                                                                                                                ",
"                                                                                                                                ",
"                                                                                                                                ",
"                                                                                                                                ",
"                                                                                                                                ",
"                                                                                                                                ",
"                                                                                                                                "};
