/* XPM */
static const char * player_reload_3_blue_xpm[] = {
"64 64 373 2",
"  	c None",
". 	c #000000",
"+ 	c #000202",
"@ 	c #000606",
"# 	c #001E1D",
"$ 	c #00201F",
"% 	c #001414",
"& 	c #002E2B",
"* 	c #000C0C",
"= 	c #00423E",
"- 	c #146168",
"; 	c #003E3A",
"> 	c #000808",
", 	c #002E2C",
"' 	c #003836",
") 	c #004A44",
"! 	c #000E0E",
"~ 	c #000404",
"{ 	c #002625",
"] 	c #07574F",
"^ 	c #165F68",
"/ 	c #16616A",
"( 	c #09615E",
"_ 	c #156065",
": 	c #004E4B",
"< 	c #000A0A",
"[ 	c #002826",
"} 	c #004440",
"| 	c #004E49",
"1 	c #004844",
"2 	c #003432",
"3 	c #001818",
"4 	c #002423",
"5 	c #00544B",
"6 	c #004A46",
"7 	c #005851",
"8 	c #005A55",
"9 	c #00524D",
"0 	c #365870",
"a 	c #135E5F",
"b 	c #002222",
"c 	c #003E3D",
"d 	c #004C4B",
"e 	c #004645",
"f 	c #004241",
"g 	c #00403E",
"h 	c #003E3C",
"i 	c #00302F",
"j 	c #002020",
"k 	c #00564F",
"l 	c #005049",
"m 	c #003431",
"n 	c #00524B",
"o 	c #015B53",
"p 	c #00403C",
"q 	c #001212",
"r 	c #00302D",
"s 	c #00403B",
"t 	c #004640",
"u 	c #015951",
"v 	c #136061",
"w 	c #285768",
"x 	c #2A576A",
"y 	c #225A64",
"z 	c #001C1C",
"A 	c #002D2E",
"B 	c #005857",
"C 	c #006768",
"D 	c #006364",
"E 	c #006261",
"F 	c #005655",
"G 	c #004443",
"H 	c #004240",
"I 	c #002626",
"J 	c #002424",
"K 	c #003A37",
"L 	c #075D58",
"M 	c #00322F",
"N 	c #003633",
"O 	c #001010",
"P 	c #001A19",
"Q 	c #04544C",
"R 	c #1B5B61",
"S 	c #245966",
"T 	c #265866",
"U 	c #003833",
"V 	c #005A59",
"W 	c #00504F",
"X 	c #007374",
"Y 	c #017879",
"Z 	c #007172",
"` 	c #006F70",
" .	c #005E5D",
"..	c #003C3A",
"+.	c #03554D",
"@.	c #003E39",
"#.	c #0A6261",
"$.	c #365C70",
"%.	c #002C2A",
"&.	c #003C38",
"*.	c #004E48",
"=.	c #0A5A51",
"-.	c #145E5D",
";.	c #002828",
">.	c #005453",
",.	c #02787A",
"'.	c #027678",
").	c #006566",
"!.	c #00302E",
"~.	c #004845",
"{.	c #005651",
"].	c #155E61",
"^.	c #2A5668",
"/.	c #255865",
"(.	c #003C37",
"_.	c #045C57",
":.	c #045E59",
"<.	c #001615",
"[.	c #002C2B",
"}.	c #006D6E",
"|.	c #007478",
"1.	c #00696A",
"2.	c #006B6C",
"3.	c #002C29",
"4.	c #235965",
"5.	c #003A38",
"6.	c #00544F",
"7.	c #004C49",
"8.	c #285666",
"9.	c #2A5768",
"0.	c #00443E",
"a.	c #116065",
"b.	c #1C5A6A",
"c.	c #075F59",
"d.	c #025C55",
"e.	c #1A5C62",
"f.	c #1D5C61",
"g.	c #002A2A",
"h.	c #003635",
"i.	c #005251",
"j.	c #007276",
"k.	c #004A49",
"l.	c #007074",
"m.	c #006E72",
"n.	c #005249",
"o.	c #0F5F5E",
"p.	c #002A29",
"q.	c #003230",
"r.	c #002827",
"s.	c #475573",
"t.	c #3B5871",
"u.	c #2B556B",
"v.	c #075D56",
"w.	c #1C5C64",
"x.	c #0C5A53",
"y.	c #00403F",
"z.	c #007576",
"A.	c #002E2D",
"B.	c #00100F",
"C.	c #095950",
"D.	c #07615E",
"E.	c #1B606B",
"F.	c #004644",
"G.	c #00423D",
"H.	c #002221",
"I.	c #004642",
"J.	c #265C6E",
"K.	c #005853",
"L.	c #001C1B",
"M.	c #455173",
"N.	c #455673",
"O.	c #045E57",
"P.	c #1E5C68",
"Q.	c #445072",
"R.	c #004847",
"S.	c #00605F",
"T.	c #135F5F",
"U.	c #001616",
"V.	c #155E67",
"W.	c #0D6063",
"X.	c #015D55",
"Y.	c #003634",
"Z.	c #185E66",
"`.	c #1D5F6B",
" +	c #003632",
".+	c #037879",
"++	c #004E4D",
"@+	c #003C3B",
"#+	c #003433",
"$+	c #001A1A",
"%+	c #06564C",
"&+	c #1B5B5F",
"*+	c #015B56",
"=+	c #00504B",
"-+	c #005048",
";+	c #003430",
">+	c #215B6B",
",+	c #0F6063",
"'+	c #075F5A",
")+	c #015D57",
"!+	c #065850",
"~+	c #165F60",
"{+	c #03777B",
"]+	c #003231",
"^+	c #003A39",
"/+	c #0D5B55",
"(+	c #285766",
"_+	c #265766",
":+	c #0E5C57",
"<+	c #055B54",
"[+	c #015952",
"}+	c #195C69",
"|+	c #26586A",
"1+	c #2C586C",
"2+	c #025E56",
"3+	c #002624",
"4+	c #33596F",
"5+	c #435173",
"6+	c #195D63",
"7+	c #017377",
"8+	c #165D68",
"9+	c #375571",
"0+	c #365570",
"a+	c #116263",
"b+	c #4D4F75",
"c+	c #5E537B",
"d+	c #71627E",
"e+	c #08605B",
"f+	c #017677",
"g+	c #004C46",
"h+	c #0A6162",
"i+	c #0C6162",
"j+	c #195D67",
"k+	c #345670",
"l+	c #2B586B",
"m+	c #23615D",
"n+	c #001E1E",
"o+	c #0E5E5B",
"p+	c #65587C",
"q+	c #6E5E7E",
"r+	c #5A5478",
"s+	c #125F64",
"t+	c #003837",
"u+	c #005C5B",
"v+	c #0E5A56",
"w+	c #08605D",
"x+	c #94628A",
"y+	c #665B7D",
"z+	c #256362",
"A+	c #275969",
"B+	c #4C5074",
"C+	c #415573",
"D+	c #116267",
"E+	c #003835",
"F+	c #001413",
"G+	c #32576E",
"H+	c #495373",
"I+	c #003A35",
"J+	c #00494A",
"K+	c #003132",
"L+	c #016160",
"M+	c #003334",
"N+	c #00393A",
"O+	c #395971",
"P+	c #035D56",
"Q+	c #7C6C7E",
"R+	c #046462",
"S+	c #066463",
"T+	c #076564",
"U+	c #056563",
"V+	c #136267",
"W+	c #1A5E66",
"X+	c #166062",
"Y+	c #5C527A",
"Z+	c #145F62",
"`+	c #036362",
" @	c #026261",
".@	c #02605F",
"+@	c #004142",
"@@	c #2D696D",
"#@	c #096362",
"$@	c #285866",
"%@	c #3A5372",
"&@	c #046463",
"*@	c #046664",
"=@	c #0A5C5B",
"-@	c #0C6261",
";@	c #1E5B66",
">@	c #003B3C",
",@	c #026463",
"'@	c #086665",
")@	c #002B2C",
"!@	c #001817",
"~@	c #33586F",
"{@	c #065C55",
"]@	c #045C55",
"^@	c #002F30",
"/@	c #004D4E",
"(@	c #015F5E",
"_@	c #0B5D5C",
":@	c #31586F",
"<@	c #175F61",
"[@	c #036564",
"}@	c #066261",
"|@	c #004546",
"1@	c #00524F",
"2@	c #3A6072",
"3@	c #30626E",
"4@	c #18605C",
"5@	c #045855",
"6@	c #375871",
"7@	c #115F5E",
"8@	c #5F5A7A",
"9@	c #B16B7A",
"0@	c #796084",
"a@	c #1D6766",
"b@	c #186665",
"c@	c #146867",
"d@	c #0D6564",
"e@	c #235967",
"f@	c #445372",
"g@	c #065E59",
"h@	c #28686A",
"i@	c #20676A",
"j@	c #086463",
"k@	c #1C5D66",
"l@	c #0A605D",
"m@	c #055F5E",
"n@	c #02767A",
"o@	c #005C57",
"p@	c #025E59",
"q@	c #0A625F",
"r@	c #085A51",
"s@	c #004842",
"t@	c #02584F",
"u@	c #086261",
"v@	c #166867",
"w@	c #1E686A",
"x@	c #136361",
"y@	c #0B6160",
"z@	c #015B5A",
"A@	c #146663",
"B@	c #176869",
"C@	c #037579",
"D@	c #26696C",
"E@	c #136562",
"F@	c #003738",
"G@	c #004244",
"H@	c #004748",
"I@	c #003C3E",
"J@	c #004042",
"K@	c #003436",
"L@	c #23686B",
"M@	c #1D6869",
"N@	c #004B4C",
"O@	c #003536",
"P@	c #00383A",
"Q@	c #04787C",
"R@	c #2C686C",
"S@	c #085E5D",
"T@	c #003E40",
"U@	c #004446",
"V@	c #003D3E",
"W@	c #006162",
"X@	c #015958",
"Y@	c #206768",
"Z@	c #346C70",
"`@	c #256769",
" #	c #12605D",
".#	c #003234",
"+#	c #003A3C",
"@#	c #004548",
"##	c #003032",
"                                                                                                                                ",
"                                                                                                                                ",
"                                                                                                                                ",
"                                                                                                                                ",
"                                                                                                                                ",
"                                                                                                                                ",
"                          . + . + + . . . . . . .                                                                               ",
"                      . . @ # $ . % # & * . = - ; > .                                     . . . .                               ",
"                    . . * , ' ) ! ~ { ; ] ; ^ / ( _ : ~                         . . . + + ~ > < > < + .                         ",
"                  . + # [ } | 1 2 @ 3 4 5 ) 6 7 8 9 0 a . .             . . . . @ b c d d e f g h h i + .                       ",
"                . + j k l m n o p q * q r s t u v w x y . .         . . . > z A B C D E E E F G g g H I .                       ",
"              . > , J 9 K L M N } O < O > @ P Q R S T U .         . . > j c F V W X Y Z ` D  .W H g g ..~                       ",
"          . . > +.7 p @.#.$.S s %.< % &.*.& % + $ =.-.> .   . . . . ;.>.D W B D B V ,.'.Z ).E F G g g H % .                     ",
"        . . % !.M ~.{.M m ].^./.(.* { n _.:.7 p <.. <.. . ~ ! z [.f e }.|.1.e 2.` W ` ,.,.` E F f g g g ! .                     ",
"        . 3.4.n { 5.6.7.%.) 8.9.0.@ 3.a.b.c.d.e.f.t + . ! g.h.i.).D c i.j.f >.k.` Z d l.X m.E F g g H I .                       ",
"      . P n.o.; ; p.p 1 q.0.K N + p.r.4 L s.t.u.v.w.x.> ~ j y.C z.1.).>.f F X ).W }.D F }.m.E d g A.q . .                       ",
"    . B.C.r.J D.E.F.p., { G.H.+ I.J.K.' < L.M.N.O.P.Q.H.. + J i.j.l.1.C >.i.E R.>.k.S.i.F D V i q . @ .                         ",
"    + n.f.T.4 p K.{.%.M K U.. | V.W.X.K.Y.p.B.G.Z.`.k <  +. ~ J D .+}.1.).++y.V .+E G k.@+#+O . $+e q .                         ",
"  . * %+w u.&+& p *+=+-+;+> 7 >+,+'+)+K...!+# . <.1 * 4 w ~+@ + ;.m.{+Z 1.C k.c D D G [.U.. ~ ]+S.^++                           ",
"  . + P /+(+_+:+q.| <+r > [+}+|+1+2+*+} ..3+. O + . # | 4+5+6+. + ;.2.Y 7+m.).i.^+I ! . . I E F e * .                           ",
"  . > < . <.(.M ! * P @ l 8+1+9+0+a+1 2 < . @ k.R.> ~ I.b+c+d+e+@ ~ J W 2.,.f+d @ . % @ ! m.1.++z .                             ",
"  . ! g+# O ~ @ * P > 4 h+i+j+k+l+g+p.. 6 m+| > 3 n+~ . o+p+q+r+s+> + b ++).f+d t+u+f . [.{+).R.~ .                             ",
"  . + v+@.# @ { 5.9 H.O =+w+h+@.> + . j x+y+z+~.< . . . . 3.!+A+B+C+< . 3 k. .C m.y.@ . f ,.S.n+.                               ",
"    . (.!.4 @ r.1 D+*+~ E+o F+. ~ % 3 A.g.A ]+^+t+;.3 < . . . . . L.s U.. ! i c A.+ O W W G @++ .                               ",
"  . > ) } & * 3 K.G+H+< I+B.+ z J+W K+d F V u+S.L+ .R.M+;.n+N+N+n+> + $+{ . * J ~ . q C f+k.U..                                 ",
"  . )+O+P+) H.~ {.x Q+n.. + I d B u+V u+R+S+T+U+S+u+h.i.F J J >.c ^+A O 3 , . ~ . g.@ ~ z I .                                   ",
"  . V+W+X+=+= @ ' T Y+Z+. 3 k.u+S.S+R+L+S+`+R+ @V f t+L+.@F n+R. @R.f +@@ r.@ . n+@@F . . . .                                   ",
"  . I.#@v O.= n+% $@%@; * I u+L+T+S+`+&@S+S+S+*@F k.@+T+S+S.[.N+T+u+V W c . H., . G =@. + .                                     ",
"  . < -@} 6.} 2 ~ | ;@U.% >@u+L+,@S+R+ @ .S+S+S+T+V ^+U+'@S.^+)@R+,@ .u+F + &.l !@. F . b .                                     ",
"    . N ^ ~@{@1 * % ]@+ 3 ^@t+>. .`+&@++/@*@S+S+S+u+f U+'@(@@+[.U+,@ .u+B + 6 g # q _@. q                                       ",
"      < :@<@L.~ + . g+! % c ++ .L+,@&@[@S.S+S+S+S+ .c S+'@&@>@A U+ @B u+F + 5.2 < [.e * ~                                       ",
"      . . . . . . . < * O [.++L+ @R+`+S+T+S+R+S+S.V y.U+T+}@h.M+T+B B ++i.. q.H.. A.> @ .                                       ",
"              ~ z + ~ . + n+d B L+[@ @ @ @ @,@B ++G k.`+&@V ;.^+L+d e k.% . O + . > .                                           ",
"            . z h.3 ~ . . @ K+i.B V d W S..@S.V c y.N+k.i.g.g.+@^+y.@+b . . . .                                                 ",
"            . #+^+t+% * + . > i k.d t+d  . . .S.L+B y.^@[.g.c y.^@b @ . .                                                       ",
"          . < y.V ++^+3 > + . + q g.)@@+e k.k.|@y.h.]+3 < q < + . . . .                                                         ",
"          . z D 1.C E c z + q r . . . 1@2@3@4@5@I < . . > * O A.q . .                                                           ",
"          . J }.'.'.Z D h.U.. !+6@7@m + 8@9@0@Y.@ i a@b@c@ .d@++.                                                               ",
"          . y.l.,.,.,.7+E K+! . e@Q+f@g@U @ . $+>.h@i@j@F }@i +                                                                 ",
"          . W |.,.,.,.,.z. .g.~ > k@#@l@k+/+@ @ d m@(@B }@j .                                                                   ",
"          . F Y ,.,.,.,.n@2.>.n+. H.o@p@O.e@+.. ! @+V q@J .                                                                     ",
"          . u+,.,.,.,.'.Y Y l.` E q % 1 6.r@M * . J g.< .                                                                       ",
"          . F ,.,.,.,.,.'.z.Z ` C W ~ . O * > 3.[ . . .                                                                         ",
"          . c Y ,.n@,.X 1.1.). .y.@+@+q . ~ s@k t@B..                                                                           ",
"          . > D ,.,.m.1.C D ++c ++}.2.k.b . > r N P .                                                                           ",
"            . ;.2.}.1.). .R.F V e j. .G y.A.+ . . .                                                                             ",
"              . t+C W c B c E z.F k.>.S.d e ^+@ .                                                                               ",
"              . + i c E n@).++ .W 2.2.B F 1.D G * .                   . . .     . + < ! q j q .                                 ",
"                . . g. .Z 2.R.S.` Z >.).Z }.).B I . . + + @ > ~ . . + + + @ ~ . ]+u@v@w@x@F y@z@. . .                           ",
"                  . + I W d  .1.).d 2.,.'.l.E >.j J A.h.y.R.d G ^+]+@+e c >.M++ i.A@B@>.+ % q * @ + . . . .                     ",
"                    . . q G u+F ++m.n@Y |.1.E ++y.e V }.}.1.C ).C ` X C@G S.B . e D@E@g.< n+F@G@H@I@J@K@I n+U.% ! * > @ + .     ",
"                      . . < t+d }.j.|.}.2.E S.R.y.d W z.,.,.,.,.,.,.,.{+++B ` ~ g.L@M@[.> )@I@N@+@O@F@F@M+O@)@O@O@F@N+P@M+;..   ",
"                          . . b B D E C D S.B f c i.F Y '.,.Y Z j.X Y {+E k.Q@% q v@R@S@. % n+g.M+T@|@J+N+I@G@U@V@N+O@M+;.)@U.  ",
"                            . . @ h.>. . .F k.c c i.W@z.,.7+,.C u+1.1.7+` f X $+> X@Y@@@Z@`@ #J . . . . . . > 3 ;..#+#@#U@##*   ",
"                                . . ~ % #+G H y.c R.F  .` z.` }.u+W u+ .W y.@+3 . . @ z e @+< .                       . + +     ",
"                                    . . . > z g.b J t+R.++++R.@+[.z $+% * ~ . . .     . . .                                     ",
"                                            . . . . . . . . + . . . . . . .                                                     ",
"                                                                                                                                ",
"                                                                                                                                ",
"                                                                                                                                ",
"                                                                                                                                ",
"                                                                                                                                ",
"                                                                                                                                ",
"                                                                                                                                "};
