/* XPM */
static const char * player_shoot_0_red_xpm[] = {
"64 64 173 2",
"  	c None",
". 	c #000000",
"+ 	c #0C0000",
"@ 	c #040000",
"# 	c #060000",
"$ 	c #1C0000",
"% 	c #320000",
"& 	c #220000",
"* 	c #2A0000",
"= 	c #1A0000",
"- 	c #020000",
"; 	c #440000",
"> 	c #140000",
", 	c #3A0000",
"' 	c #400000",
") 	c #380000",
"! 	c #120000",
"~ 	c #480000",
"{ 	c #4C0000",
"] 	c #963100",
"^ 	c #801800",
"/ 	c #6E0A00",
"( 	c #260000",
"_ 	c #500000",
": 	c #300000",
"< 	c #4A0000",
"[ 	c #560000",
"} 	c #460000",
"| 	c #080000",
"1 	c #240000",
"2 	c #340000",
"3 	c #600200",
"4 	c #540000",
"5 	c #5C0000",
"6 	c #4E0000",
"7 	c #720B00",
"8 	c #660200",
"9 	c #200000",
"0 	c #3E0000",
"a 	c #720D00",
"b 	c #2C0000",
"c 	c #0E0000",
"d 	c #420000",
"e 	c #580000",
"f 	c #903300",
"g 	c #BE9800",
"h 	c #700D00",
"i 	c #3C0000",
"j 	c #801E00",
"k 	c #0A0000",
"l 	c #180000",
"m 	c #923A00",
"n 	c #761100",
"o 	c #821F00",
"p 	c #943F00",
"q 	c #781400",
"r 	c #2E0000",
"s 	c #160000",
"t 	c #100000",
"u 	c #761300",
"v 	c #862600",
"w 	c #360000",
"x 	c #6C0A00",
"y 	c #6C0800",
"z 	c #520000",
"A 	c #964000",
"B 	c #700B00",
"C 	c #660500",
"D 	c #842200",
"E 	c #1E0000",
"F 	c #680700",
"G 	c #8A2700",
"H 	c #6A0700",
"I 	c #5E0200",
"J 	c #6E0D00",
"K 	c #5E0000",
"L 	c #8A2000",
"M 	c #680500",
"N 	c #AC6D00",
"O 	c #8C2E00",
"P 	c #984400",
"Q 	c #7C1A00",
"R 	c #600000",
"S 	c #6C0500",
"T 	c #720800",
"U 	c #680200",
"V 	c #5A0000",
"W 	c #7C1700",
"X 	c #801B00",
"Y 	c #280000",
"Z 	c #CEB300",
"` 	c #A25000",
" .	c #8C2B00",
"..	c #984800",
"+.	c #7A1100",
"@.	c #760B00",
"#.	c #6E0800",
"$.	c #8E2F00",
"%.	c #7A1400",
"&.	c #801500",
"*.	c #841F00",
"=.	c #7C1200",
"-.	c #6A0500",
";.	c #640000",
">.	c #640200",
",.	c #620000",
"'.	c #8C3100",
").	c #943B00",
"!.	c #760E00",
"~.	c #721000",
"{.	c #700800",
"].	c #9E4E00",
"^.	c #943800",
"/.	c #AE7700",
"(.	c #821C00",
"_.	c #7E1500",
":.	c #741000",
"<.	c #A66200",
"[.	c #A65E00",
"}.	c #781100",
"|.	c #B68900",
"1.	c #CCB200",
"2.	c #780E00",
"3.	c #620200",
"4.	c #A25400",
"5.	c #D0BA00",
"6.	c #DAC300",
"7.	c #C8A900",
"8.	c #862000",
"9.	c #F89800",
"0.	c #D79F47",
"a.	c #C46100",
"b.	c #923700",
"c.	c #B68D00",
"d.	c #B07400",
"e.	c #821800",
"f.	c #AC6900",
"g.	c #C2A400",
"h.	c #922D00",
"i.	c #902F00",
"j.	c #A05300",
"k.	c #CBB521",
"l.	c #6A0000",
"m.	c #660000",
"n.	c #680000",
"o.	c #740B00",
"p.	c #7E1800",
"q.	c #6C0000",
"r.	c #A45500",
"s.	c #6E0000",
"t.	c #A04F00",
"u.	c #F49B00",
"v.	c #E1A469",
"w.	c #DC9D3A",
"x.	c #760000",
"y.	c #720000",
"z.	c #9C1600",
"A.	c #880600",
"B.	c #700000",
"C.	c #7E0000",
"D.	c #820300",
"E.	c #6A0200",
"F.	c #840600",
"G.	c #7C0000",
"H.	c #8A0600",
"I.	c #960E00",
"J.	c #740000",
"K.	c #6E0500",
"L.	c #940E00",
"M.	c #9A1200",
"N.	c #9C1200",
"O.	c #980E00",
"P.	c #A21700",
"                                                                                                                                ",
"                                                                                                                                ",
"                                                                                                                                ",
"                                                                                                                                ",
"                                                                                                                                ",
"                                                                                                                                ",
"                                                                                                                                ",
"                                                                                                                                ",
"                                . .                                                                                             ",
"                            . . + . @ # . .   . . .                                                                             ",
"                        . . @ $ % & . $ * = - # ; * - .                                                                         ",
"                      . - > % , ' ) @ ! * ~ { { ] ^ / , .                                                                       ",
"                    . - ( _ : < [ } & | 1 2 3 2 4 5 6 7 8 .                                                                     ",
"                . . + 9 0 a ) ~ 5 _ b # c & ; d 6 e 7 f g $ .                                                                   ",
"              . . $ h 0 i 2 f j % , & | ! k # l _ j f m n - .                                                                   ",
"            . # 9 ) ; _ 0 b o p q r s + % _ b t @ ) u v w .                                                                     ",
"          . ! x y ( b e z b 4 A f 8 ! $ ~ 3 3 z ) | c 0 . . . . . . . . . . . . . .                                             ",
"        . + ' B { w * ' < , 2 C D ' # E F G H I J B 9 . . - ! & r w w { K : $ $ - . . .                                         ",
"      . + K , & 6 L z b i r d ) ! - ) : s M N O P q Q w . t r i R 8 S T U ' V K } & c - .                                       ",
"      . ' W X Y ' V [ b * Y b ! | h v K ' + * Z ` 4  ...t . l ' 8 8 +.T U ; S @.#.6 z ) = . .                                   ",
"      # { $.A D r d 5 } d } | s q %.y R e ) & > B &.*.X t @ . 9 _ S =.S -.4 ;.#.V [ >.} ,.{ = . .                               ",
"      . | { '.O C ) [ K { c b ).q !.R K 4 , 5 s . < 5 + ( ~.| @ 1 K =.S U [ ' ; ~ ;.U < {.8 ,.w - .                             ",
"    . k l . t 0 ) ! l r | r o o ].^.K [ ' w = . k - c ( 5 /.(.. # w _.#.U z K {.,.>.-.{ =.!.>.R 0 + .                           ",
"    . ! e ( c @ # k ! - * Q :.<.[.<.e 0 ( @ . * _ s . r }.|.1./ . | 5 T -.z _ K V 8 #.[ =.2.7 ,.V ; s .                         ",
"    . - / 2 l k Y ) ' k Y 3.J n 4.v ) c c % s @ 2 , c . V 5.6.7.6 . $ 2.#._ ~ e z 8 >.V _.2.#.,.V ; ' l .                       ",
"    . . d Y E # ) { 8.& s _ C e Y + @ | 9.0.a.~ - - # . - 5 b.c.d._ . {.#._ } e.5 V R 8 +.2.K 4 { ' 0 ' t .                     ",
"    . , / d Y # 2 ;.f._ k z ; . . # + 9 9 9 ( * * E k - . . . . . ; ( > S 4 0 S 5 [ e ;.{., 9 0 0 0 0 0 & .                     ",
"  . + L [.4 d k 9 2.g g.@ 1 . + ) ~ r } z 4 e 5 5 [ d b = l w * t . - t @ | k 2 d ; ' 8 ~ . r } { { } 0 ! .                     ",
"    # h.i.R { ( + #.j.k.k . ! ; [ V 4 4 ,.l.l.l.m.5 , 6 { $ * z i w E - t . . . k E b { % . 0 V _ K R _ = .                     ",
"    . R { y _ i - >.m |.. c i e K m.l.K l.n.l.m.K } , R ,.< E 6 V ~ , w - & . @ . . . - # | < o.+.+.-.e ( .                     ",
"    . 0 _ e 6 ' + * p.3 - $ 4 R l.q.m.n.l.n.n.n.4 ~ i l.n.K ( } q.e [ z 9 t @ . .     . . c z +.=.+.+.5 b .                     ",
"      - *.r. .d E + [ ) + * 5 R n.l.n.n.;.l.l.l.q.[ , q.q.R % 2 q.,.K V ; . $ ! .       . 1 e +.+.+.=.>.Y .                     ",
"      . 6 3.& - @ . % b s r ) _ K m.n.z _ n.l.l.l.5 ; l.s.R w % s.;.K V { . < < @ .     . b e +.=.=.2.K 9 .                     ",
"        . . . . . - - ! > w } 5 R ;.l.,.e l.l.l.l.K 0 l.s.m.w % s.,.5 V < - _ ' ! .     . ( e +.+.U 2.z > .                     ",
"              - s - . . k * < R ;.n.m.l.l.l.n.l.,.5 ' l.s.n.% ) s.e [ _ d # ; r @       . = 5 =.+.K K d # .                     ",
"            . = ) s | . - = ; e ,.m.m.m.m.m.n.V z ~ { l.l.K ( 0 n._ ~ _ ! s w > .       . $ U =.+.S [ % .                       ",
"            @ , , % k @ . # r z e K [ z K R R V i i , _ V b Y ' 0 ' i & . @ = . .       . : o.=.=.S R $ .                       ",
"          . s d 4 ; r > . . | 2 < _ i ~ K K R ,.,.V ' 2 : ( i d ) * k . . . . .       . . ~ 2.=.=.2.5 > .                       ",
"          . r >.U 8 5 * t . . @ l : b ' { _ _ { } 0 ) $ t $ l + @ . . .               . | } d < R !.z - .                       ",
"          . ' #.+.@.-._ 9 # t 1 . . @ w q.m.4 ~ b s . . @ # | l k @ .                 . s K 8 [ ~ d w .                         ",
"        . . e +.=.=.=.S } l . 5 t.{ > - u.v.w.6 . & x.s.s.[ y.~ . .                   . - E 4 2.=.R * .                         ",
"        . @ U =.=.=.=.=.8 2 # - e n >.V l # . & q.z.A.m.V y.) .                         . . . k & * ! .                         ",
"          c T =.=.=.=.=.o.R ;.5 s . . @ l # . ) B.B.5 V V ! .                       . . @ + = > | - . - .                       ",
"        . l 2.=.=.=.=.=.=.+.{.,.' , % = @ . . # % z l.5 + .             . . . . . | d n.C.q.; ; 2 . # - @ .                     ",
"        . E 2.=.=.=.+.=.!.S 8 ; } #.,.0 0 * s # . & Y @ . . . . . . . . . + l ! - z x.D.K . ! = = E E 1 E = l = = = = l = = t . ",
"        . + {.=.=.=.=.2.E.8 _ ' -.+.{ 4 < 4 R 6 ( + - . - # s b * E $ : ; ; [ { . ' F.G.% # l % ) ' ) w ) 2 w r ) w ) ) w : : + ",
"          . ~ 2.=.=.+.S -.5 < V } _ [ >.z -.y R < * $ r i { z e [ V >.#.+.4 _ 7 # E H.H., @ Y z _ _ ~ ~ ~ ' d 0 } ~ ; ; ; d , k ",
"          . ! >.+.=.o.-.,.; e {.8 _ T 5 ,.{.7 ,.[ ' d z U 2.2.+.+.=._.=.=.-.d =.: - ;.I.J.+ s $ 9 $ 9 9 & c + ! s s s s > > k . ",
"            . ! R !.S ,.~ K ' e { S 7 z +.=.o.>.V ' ; { ;.=.+.=.=.+.+.+.=.2.d K.R . { L.M.N.O.P.z . t [ @                       ",
"              . # z U d 4 +.o.~ ,.{.4 S =.2.y >.V ' ' e 8 =.2.=.2.K U -.{.+._ 6 e # @ t 1 ; _ > c V $ .                         ",
"                . k 2 % K -.S ~ ,.R _ +.+.{.M R [ 0 0 V ;.2.=.2.+.S 4 K 5 4 i r s - .   . . . . . . .                           ",
"                    . - $ i ' { K { U {.-.8 ,.K 6 0 0 < [ K 8 ;.5 { , E s k - . . .                                             ",
"                      . . . @ l Y 2 4 K R K e _ } d Y & b w 2 b 9 t - . . .                                                     ",
"                          . . . . . - | + c + k # . . . . . . . . . .                                                           ",
"                                      .   . . .                                                                                 ",
"                                                                                                                                ",
"                                                                                                                                ",
"                                                                                                                                ",
"                                                                                                                                ",
"                                                                                                                                ",
"                                                                                                                                ",
"                                                                                                                                ",
"                                                                                                                                ",
"                                                                                                                                "};
