/* XPM */
static const char * player_reload_0_red_xpm[] = {
"64 64 172 2",
"  	c None",
". 	c #000000",
"+ 	c #080000",
"@ 	c #020000",
"# 	c #040000",
"$ 	c #160000",
"% 	c #2E0000",
"& 	c #300000",
"* 	c #180000",
"= 	c #240000",
"- 	c #2C0000",
"; 	c #3C0000",
"> 	c #440000",
", 	c #0A0000",
"' 	c #260000",
") 	c #3A0000",
"! 	c #400000",
"~ 	c #100000",
"{ 	c #480000",
"] 	c #560000",
"^ 	c #3E0000",
"/ 	c #923000",
"( 	c #781400",
"_ 	c #380000",
": 	c #060000",
"< 	c #4E0000",
"[ 	c #520000",
"} 	c #1E0000",
"| 	c #660200",
"1 	c #540000",
"2 	c #600000",
"3 	c #580000",
"4 	c #7C1400",
"5 	c #320000",
"6 	c #620200",
"7 	c #360000",
"8 	c #0E0000",
"9 	c #140000",
"0 	c #720B00",
"a 	c #8A2700",
"b 	c #BA9500",
"c 	c #460000",
"d 	c #7A1700",
"e 	c #943800",
"f 	c #120000",
"g 	c #7C1A00",
"h 	c #8E2F00",
"i 	c #923A00",
"j 	c #862600",
"k 	c #0C0000",
"l 	c #1C0000",
"m 	c #4A0000",
"n 	c #280000",
"o 	c #6C0A00",
"p 	c #8C2E00",
"q 	c #200000",
"r 	c #500000",
"s 	c #700B00",
"t 	c #7A1400",
"u 	c #340000",
"v 	c #943F00",
"w 	c #420000",
"x 	c #600200",
"y 	c #5A0000",
"z 	c #5E0000",
"A 	c #801B00",
"B 	c #5C0000",
"C 	c #660500",
"D 	c #7E1B00",
"E 	c #220000",
"F 	c #640200",
"G 	c #821C00",
"H 	c #6A0200",
"I 	c #1A0000",
"J 	c #B27E00",
"K 	c #A45900",
"L 	c #943B00",
"M 	c #761100",
"N 	c #721000",
"O 	c #2A0000",
"P 	c #6A0500",
"Q 	c #780E00",
"R 	c #6C0500",
"S 	c #620000",
"T 	c #4C0000",
"U 	c #720D00",
"V 	c #963C00",
"W 	c #AA6800",
"X 	c #CCB600",
"Y 	c #7A1100",
"Z 	c #A45D00",
"` 	c #740B00",
" .	c #760E00",
"..	c #700800",
"+.	c #903300",
"@.	c #6E0A00",
"#.	c #841C00",
"$.	c #801800",
"%.	c #7C1200",
"&.	c #640000",
"*.	c #761300",
"=.	c #8A2A00",
"-.	c #801E00",
";.	c #7E1E00",
">.	c #7E1500",
",.	c #6E0800",
"'.	c #7C1700",
").	c #821F00",
"!.	c #A86300",
"~.	c #A25800",
"{.	c #AE7300",
"].	c #680500",
"^.	c #741000",
"/.	c #A65E00",
"(.	c #AA6C00",
"_.	c #680200",
":.	c #B48300",
"<.	c #C6A300",
"[.	c #760B00",
"}.	c #9E4E00",
"|.	c #8A2D00",
"1.	c #680000",
"2.	c #CCB200",
"3.	c #DAC300",
"4.	c #D8C100",
"5.	c #E48600",
"6.	c #D39E5F",
"7.	c #DF9E2D",
"8.	c #8E0D00",
"9.	c #9C4900",
"0.	c #BC9600",
"a.	c #BC9B00",
"b.	c #720800",
"c.	c #963800",
"d.	c #7A0E00",
"e.	c #9C4200",
"f.	c #A25400",
"g.	c #CAB528",
"h.	c #882300",
"i.	c #7E1800",
"j.	c #740E00",
"k.	c #964300",
"l.	c #CFBB19",
"m.	c #6A0000",
"n.	c #6C0000",
"o.	c #CAB000",
"p.	c #660000",
"q.	c #8E3200",
"r.	c #6E0000",
"s.	c #A04F00",
"t.	c #7C0300",
"u.	c #F8A300",
"v.	c #CE6600",
"w.	c #880300",
"x.	c #760000",
"y.	c #720000",
"z.	c #801500",
"A.	c #9E1600",
"B.	c #820300",
"C.	c #7E0000",
"D.	c #800300",
"E.	c #840600",
"F.	c #860300",
"G.	c #780000",
"H.	c #920A00",
"I.	c #940E00",
"J.	c #900E00",
"K.	c #840000",
"L.	c #9A1200",
"M.	c #9C1200",
"N.	c #981200",
"O.	c #960E00",
"                                                                                                                                ",
"                                                                                                                                ",
"                                                                                                                                ",
"                                                                                                                                ",
"                                                                                                                                ",
"                                                                                                                                ",
"                                                                                                                                ",
"                                                                                                                                ",
"                                .                                                                                               ",
"                          . . + @ @ # . .     . .                                                                               ",
"                      . . . $ % & . * = - @ . ; > @ .                                                                           ",
"                    . . , ' ; ) ! ~ + ' { ] ^ / / ( _ :                                                                         ",
"                  . . * < & ^ [ { & # } - | ; 1 2 1 3 4 .                                                                       ",
"                . + } 5 6 ^ > < ] 7 + 8 9 ; > < 3 0 a b > .                                                                     ",
"            . . + 6 < & c d e 7 7 & : ~ 8 # f { g h i j k .                                                                     ",
"          . . l & ) m m n o h p ) q + n r ^ 9 @ q s j c .                                                                       ",
"        . : 1 t u n [ ] _ 7 v i ( } f w x 6 y ^ f : > : . . . . . . . , . . . . .                                               ",
"      . # 7 z 3 5 % 7 m w % 3 A y : 9 B p o x C D 5 @ . . k E 5 ) ) m F > * * # . . .                                           ",
"    . # m m q ; G H - _ & ; > I . 5 w * ) J K L M N [ # + O ) B F P Q R c ] S T O * @ . .                                       ",
"    . = U a ^ 5 y [ u n % O q : 1 V F m 9 $ W X y Y Z = . ~ _ S | `  .P m S  ...m 1 ^ } : .                                     ",
"    . ) D v +.{ & 2 1 ; T $ : N t @.2 B ) - k 3 #.$.K $ : . $ c | %...P 3 B ..&.< | r | 3 ' . .                                 ",
"    . : = *.=.d 7 2 3 3 9 q -.;.M &.2 3 ! z q . - | ~ * N 9 . l r >...P y c T T z ,.r ..P 2 w + .                               ",
"    . q : @ - w * f u k I '.).!.~.S y w 7 E . 8 . , l m {.!.8 @ } Q ` ].] 3 ..,.z ..T Y Q | S { f .                             ",
"  . . y - l : : , $ + } ^.@.V /.(.s ! n + . n 1 n . 9 _.:.<.V . @ > Q P ] T ] ] 2 [.< Y Q s F B > q .                           ",
"    . T > q : = 7 > * * ] o @.}.|.> * k 1.{ . O ) $ . u 2.3.4.&.@ ~ %.,.] ! y 3 S R [ %.Q ,.F B c w = .                         ",
"    . ' % ' : O c 4 w , w 6 B O . . . 5.6.7.8.: . @ . . 7 9.0.a.&.@ r b.1 ; Q | 1 2 y Q Q 2 1 < ! ^ w $ .                       ",
"  . ' V T u k I y /.c.. r m # . : ~ } % & % & & q $ : . . . . + } ' : y B ; S S T 3 y ..; 9 ^ ! ! ^ ^ % .                       ",
"  @ d.e.B m q + | f.g.} n . , & m ) > 1 y B z 2 z c & q 9 % - I + . k . @ k n ) ! ^ 2 2 . q { m < m w * .                       ",
"  . h.i.j.< ) # [ k.l.< . k ! [ B y ] S m.n.m.1.B ! [ ] ' q [ ^ ^ % , $ @ . . @ f O > c . u y < 3 S ] O .                       ",
"  . w 1 2 ] ^ k ! k.o.9 + u ] z &.m.z m.1.p.p.2 w ) y S ] l { S m w w # } . @ . . . @ + # c ` Q Q b.y ; .                       ",
"  . 9 _.[ B w q ~  .q.. l { 2 p.n.p.m.m.m.1.m.z 1 7 p.m.2 - ) r.3 3 m % + + . .     . @ k r Y %.Y %.&.! .                       ",
"    . { s.K B ^ . w B # q 3 z p.m.p.m.&.m.m.m.m.S ; n.r.S w n n.S 2 y 3 . * } .       . E ] Y Y %.Y R ) .                       ",
"    . l [ - + : . f c , E u m B &.1.z m z m.m.m.S c n.r.p.w ' m.1.z z z @ m [ f .     . = 3 Y %.Y d.S - .                       ",
"      . . . . . @ . * , ' m 3 S &.m.m.] m.m.m.m.&.w m.r.m.c n m.S B B z . ] ^ q .     . } ] Y Y | Q 3 I .                       ",
"            . q + # . # l w B S p.1.m.m.m.1.m.2 2 > m.n.m.; % n.y 3 { r # { 5 : .     . * y Y Y _.z { @ .                       ",
"          . 8 _ ' # @ . ~ _ 3 z &.1.&.p.&.&.z < m ! S m.2 n 7 S < > c 9 ~ 7 $ .       . * 2 %.Y _.B & .                         ",
"          . % ; _ * , . . I T ] B 1 T y 2 2 B < ) ) c 3 5 = ^ ^ w ; O . . I @ .       . n ,.%.%.,.S n .                         ",
"        . , > 2 ] ! I + . @ } c T ! c y z z 2 z 3 > % - ' ; > _ q : . . . . .         . _ b.>.>.Y S } .                         ",
"        . I | R _.F _ I . : . 8 ' ' ; w c { > > ! u l k I $ , . . . .                 . w ! w ] P [ 8 .                         ",
"        . - R %.%.0 2 % ~ . ; + . . l r.t.m ; & 8 . @ : : + * l # .                   : 3 ,._.[ w ^ . .                         ",
"        . ! ` %.%.%.[.] q # = <.~.| . m.u.v.) . ) w.x.&.1 y.c @ .                     . ~ - 2 z.,.- .                           ",
"        . 1 Y %.%.%.%.b.< * : O y [ z n . . l r.A.B.&.3 m._ . .                       . . . . 8 I 8 .                           ",
"        . 2 %.%.%.%.%.Y |  .` ; : . . @ , . l z p.y y B , .                       . @ # , n } : + @ # .                         ",
"        . P %.%.%.%.Y %.Q b.S c w ! - * @ . . * < n.[ 8 .           . . . . . . f T n.C.y % & ' . @ . . . . . . . . . . .       ",
"        @ P %.%.%.%.%.Q R _.{ w ..P ! w ) ' ~ . + I . . . @ @ @ . . @ : ~ } q . { x.D.m.. ~ q E = = % n q q q = E E E E E $ @   ",
"        . [ %.%.%.%.Q P _.1 ! [ Y r ] [ < S B _ E . . @ 8 } ) ; u & ; < T [ F . O E.F.> : k - ^ T _ 7 _ u 7 - 7 7 7 _ 7 O % 9   ",
"        . = b.%.%.%.R P 2 m S 1 T 1 F 1 _...F 1 7 = 7 { ] y z z 2 R 0 Y F w %.E + G.H.y @ q 3 B B 1 ] 1 w ) ! m m m { c > _ k   ",
"          . c ` %. .P F m T P ` < [.&.2 0 0 | B w ! < 2 >.z.z.z.>.%.%.%.0 ^ ..1 . < I.J.n k k , . . # . . . . . . . . . . .     ",
"          . @ _ ` P S w | 1 c < _...<  .%.` | 2 w ! [ B %.Y %.Y `  . .%.%.T S P @ & K.L.M.N.O.- . } ! .                         ",
"            . . O | { <  .>.1 y ..y | >.Q ,.F B w ^ 3 S %.Q Y Y 2 2 P R  .B c r + . . k O _ # + m } .                           ",
"              . . ~ q m S ,.m S 2 < Y %...P S 3 ! ^ r z ..Y Y [.0 3 r ] T u E + . .       .   . . .                             ",
"                  . . + l O w [ { S R | F S z r ^ ^ w [ 3 z z 1 c 5 f , # @ . .                                                 ",
"                      . . . : * = ^ < 1 1 < > ; _ = 9 l ' n } 9 : . . . .                                                       ",
"                          . . . . . . . @ @ @ @ . . . . . . . .                                                                 ",
"                                                                                                                                ",
"                                                                                                                                ",
"                                                                                                                                ",
"                                                                                                                                ",
"                                                                                                                                ",
"                                                                                                                                ",
"                                                                                                                                ",
"                                                                                                                                ",
"                                                                                                                                ",
"                                                                                                                                "};
