/* XPM */
static const char * player_idle_2_red_xpm[] = {
"64 64 161 2",
"  	c None",
". 	c #000000",
"+ 	c #0A0000",
"@ 	c #100000",
"# 	c #060000",
"$ 	c #040000",
"% 	c #1A0000",
"& 	c #300000",
"* 	c #4E0000",
"= 	c #0C0000",
"- 	c #080000",
"; 	c #240000",
"> 	c #380000",
", 	c #120000",
"' 	c #220000",
") 	c #520000",
"! 	c #140000",
"~ 	c #260000",
"{ 	c #440000",
"] 	c #420000",
"^ 	c #400000",
"/ 	c #200000",
"( 	c #320000",
"_ 	c #540000",
": 	c #3E0000",
"< 	c #7E1500",
"[ 	c #8E2500",
"} 	c #781100",
"| 	c #600000",
"1 	c #020000",
"2 	c #1E0000",
"3 	c #560000",
"4 	c #4A0000",
"5 	c #5A0000",
"6 	c #963500",
"7 	c #180000",
"8 	c #3A0000",
"9 	c #660200",
"0 	c #842200",
"a 	c #AE7700",
"b 	c #700D00",
"c 	c #1C0000",
"d 	c #580000",
"e 	c #360000",
"f 	c #761300",
"g 	c #A85F00",
"h 	c #6A0700",
"i 	c #280000",
"j 	c #2E0000",
"k 	c #761100",
"l 	c #882600",
"m 	c #923A00",
"n 	c #8C2E00",
"o 	c #480000",
"p 	c #2C0000",
"q 	c #460000",
"r 	c #943B00",
"s 	c #5C0000",
"t 	c #500000",
"u 	c #160000",
"v 	c #620200",
"w 	c #862600",
"x 	c #700B00",
"y 	c #3C0000",
"z 	c #4C0000",
"A 	c #2A0000",
"B 	c #7E1B00",
"C 	c #923700",
"D 	c #8A2A00",
"E 	c #0E0000",
"F 	c #600200",
"G 	c #903300",
"H 	c #801E00",
"I 	c #680700",
"J 	c #801B00",
"K 	c #640200",
"L 	c #6A0500",
"M 	c #340000",
"N 	c #7E1800",
"O 	c #6A0200",
"P 	c #9E4E00",
"Q 	c #9A4500",
"R 	c #7C1700",
"S 	c #620000",
"T 	c #740B00",
"U 	c #781400",
"V 	c #821F00",
"W 	c #882300",
"X 	c #CAB000",
"Y 	c #760E00",
"Z 	c #A86700",
"` 	c #680200",
" .	c #700800",
"..	c #780E00",
"+.	c #964300",
"@.	c #943F00",
"#.	c #720D00",
"$.	c #6E0A00",
"%.	c #5E0000",
"&.	c #841C00",
"*.	c #7C1400",
"=.	c #963C00",
"-.	c #7A1100",
";.	c #6E0800",
">.	c #660500",
",.	c #6C0800",
"'.	c #7C1200",
").	c #6C0500",
"!.	c #A65E00",
"~.	c #A86300",
"{.	c #720B00",
"].	c #8C2B00",
"^.	c #AC6D00",
"/.	c #B07800",
"(.	c #C6A800",
"_.	c #6C0A00",
":.	c #F4A60E",
"<.	c #F0A014",
"[.	c #C4A600",
"}.	c #D4BE00",
"|.	c #D2BC00",
"1.	c #720800",
"2.	c #801800",
"3.	c #680000",
"4.	c #640000",
"5.	c #B47F00",
"6.	c #C09E00",
"7.	c #BE9C00",
"8.	c #A44D00",
"9.	c #9C4600",
"0.	c #D2B910",
"a.	c #8E3200",
"b.	c #660000",
"c.	c #6A0000",
"d.	c #964000",
"e.	c #6C0000",
"f.	c #6E0000",
"g.	c #A42E00",
"h.	c #D59D5B",
"i.	c #D39D4F",
"j.	c #CC6500",
"k.	c #700000",
"l.	c #B68900",
"m.	c #B27E00",
"n.	c #960E00",
"o.	c #A41B00",
"p.	c #8A0600",
"q.	c #760B00",
"r.	c #940E00",
"s.	c #900A00",
"t.	c #760000",
"u.	c #840300",
"v.	c #800300",
"w.	c #7A0000",
"x.	c #820300",
"y.	c #7C0000",
"z.	c #9C1200",
"A.	c #980E00",
"B.	c #780000",
"C.	c #7E0000",
"D.	c #680500",
"                                                                                                                                ",
"                                                                                                                                ",
"                                                                                                                                ",
"                                                                                                                                ",
"                                                                                                                                ",
"                                                                                                                                ",
"                                                                                                                                ",
"                                                                                                                                ",
"                              . . .                                                                                             ",
"                          . . + @ . + # . .   . . .                                                                             ",
"                      . . $ % & * = - ; > , . ' ) , .                                                                           ",
"                    . . ! ~ { ] ^ ~ . / ( _ : < [ } | -                                                                         ",
"                  . 1 2 3 _ > _ _ : + % ; 3 : 4 5 _ _ 6 =                                                                       ",
"              . . 7 { ' ) : ) 8 _ ^ , - = & { { ) 9 0 a b .                                                                     ",
"            . 1 c d _ : e f g h i ( - , 7 # + j k l m n i .                                                                     ",
"          . ! o j p * 5 p q l r s ; - ; t 4 / # u v w h $ .                                                                     ",
"        . , x n 4 i y z { A B C D A E y F F s z % 1 8 - . . . . . . . . . . . . .                                               ",
"      . % ) p : ) ) A o ] & 4 3 ] # ! ] G H F I J ^ . . . - % ; A A p t 8 ! 7 1 . . . .                                         ",
"    . E K L p M N O p j i j { E 1 o ) c i P g Q J R _ 1 # i > t S 9 T L z z | ) ~ 7 + . .                                       ",
"    . p J m B p { d 4 ~ ^ ' + + U V K 3 ' + W X 5 Y Z A . @ e S `  ...L ) ) Y Y * d ] j E . .                                   ",
"    . ! * +.@.#.~ | _ _ ^ = ~ H k $.| %.^ ( E o &.*.=.% $ . % z K -.Y ` S )  .;.4 K _ d | ^ @ . .                               ",
"    . - . i >.,.( 8 3 ^ # > n R l | | _ : _ ' . ' 9 ! , I , . 2 t '.T L K ] : o ) )._ K ;.S s 2 1 .                             ",
"  . . y c + + = $ # = # { B D !.!.L 5 ^ M % . = . - 2 4 ~.G . # A {...` K z 9 ..t  .t ).'.;.| s e # .                           ",
"    . %.q ; # , c i E ; $.$.].^.~.| u $ . . 2 3 p . c L /.(.R . - q -.).K o d S t Y t T '. .L | t y @ .                         ",
"    . o e ~ # j { 9 ; u _ _.F 3 q = 8 :.<.%.# c M E . ^ [.}.|.4 . E 9 1.9 : z _ ) ;.t T '.{.K | * ^ ^ ! .                       ",
"  . # q 8 i - ; t 2.d # q e # . . $ o 3.* 8 / @ # . . . , ; ^ %.e . ( '.` y 4.'.4 K ) T '.> y { ^ : : > .                       ",
"  $ T 5.* : E u O 6.7.- / . + ; A & ^ { o z * q e ; E - , , $ . - E . ) ` q ) ).4 | * ;.M 1 > ^ ^ : : 8 -                       ",
"  - 8.9.S 4 ' = s ^.0.! . u q ) t { ) | 4.4.4.S * > { ' ' q y A @ 1 + . $ + 7 : 8 q o L - @ z t d d 4 M .                       ",
"  . Y 9 U _ e # ` P a.1 ! { d %.b.s b.3.c.c.3.s { t %.* 2 y 3 ^ y M # @ . $ . $ = % A { . ~ %.| K 4.5 ] .                       ",
"  . & z z t ] + { d.' + & 5 | 3.c.b.3.3.4.b.s 4 ( d 3.| & & c.d t ] A = , 1 , . . . . . . e ;.< < -.| z .                       ",
"    $ ).R x ] ; = s + 7 ^ | 3.e.3.c.c.c.c.c.3.%.y 4.e.4.o ~ S 4.s 5 3 - > $ . .       . # o ;.'...-.;.o .                       ",
"    . U ~.>.; % 1 e # 2 ] t %.4.3.b.) s c.c.c.3.o S f.3.t ~ 5 c.%.%.%., - ! 1 .       . u t {.'.'...;.: .                       ",
"      . . . . . . @ - c e { s | 3.b.* s c.c.c.3.4 S f.e._ ; s c.s %.| u E * y . .     . 7 ) T '...-.4.j .                       ",
"      .     . # 1 1 1 % ] d S 4.b.c.3.c.3.3.c.b.z | f.e._ ; %.4.3 5 | E > ) y - .     . @ _ } -.| ;._ % .                       ",
"          . , & $ $ . , ( _ | 4.3.3.c.3.3.b.5 d ] S e.3.q i 4.5 ) { { # 3 q j $       . @ %.< '.` 3 ] - .                       ",
"          . ( > ~ - . 1 2 * 3 | b.d %.| | %.* y > z S d i ( o ] ^ ^ @ # { M , .       . A ).'.'.).| i .                         ",
"        . ! 8 ^ e % E . $ p z 3 * ^ 3 S S S %.3 4 > { A A ^ ^ ^ p , = . @ c . .     . 1 ] -.'.'. .%.7 .                         ",
"        . ( 4.L %.^ % 1 . 1 ' y 8 y t d d 3 3 * { & 2 ~ & j c + . , ! . . . .       . + { _ ` -.-._ + .                         ",
"      . . ) ;.T L | ( ! . E . $ E ' ( e > e M & ' - . . . . 1 @ p @ .     .         . % 5 * ^ ] d 8 1                           ",
"      . + 4...'.'.T 5 ; + E #.~ + . g.h.i.j.; . @ ~ ) 4.q q k.y + .                 . E 4 ....).4 p .                           ",
"      . u L '.'.'.'.1.* 7 . F l.m.4 + 8 y $ ! o n.o.p.S s k.i .                       . . + ] S ) E .                           ",
"      . ; q.'.'.'.'.'.` ] y i 1 1 # E - . 7 3 r.s.t.5 %.e.7 .                       . . 1 . . . # 1 .                           ",
"      . j -.'.'.'.'.'.T ..T ` 8 ~ / E . . 1 ; d 4.3 b.> # .               .   . . 2 e ) %.%.d ~ . $ 1 .                         ",
"      . 8 '.'.'.'.-.-.-. .` ] { L _ y 8 / = 1 . ; ) & . 1 1 . . . . . . 1 - $ . o t.u.e.- 1 $ # - + = + - - + + + + = = = $     ",
"      . ( -.'.'.'.'.-.).L _ : T -.4 _ ^ d s q i , . . . - u p i % ! / ( 8 * ^ . 4 v.w.e # ; M ^ ^ > > e M M & e e > > e & ; #   ",
"      . ! ;.'.'.'.'.).L %.] * 4 %._ K z ).).S q ( / & ] z _ d 3 d %.9 1.z 3 ).$ ( s.x.& E ' 8 z q 8 y 8 y y e : : y : : e j -   ",
"        . z q.'.'.T ` ` * |  .9 z ;.%.` ;. .| ) ^ ^ ) 9 '.-.-.-.-.'.'.'.5 4 '.! @ y.r._ # & : : y ] ] y % u ~ A i i ; ; ' + .   ",
"        . # _ q.'.;.` t q ^ ).) ,.{.t '.'.{.S 3 ^ ] z ` '.-.'.'.-.'.'.'.T ] -.y 1 S z.A.t.e.B.q 1 + p .                         ",
"          . $ 8 ).L * q '.9 { s  .) 9 '.-.,.S 3 : ^ 5 ` '...-.T | ).).Y < 4 S 4 . u > s B.C.e E p ~ 1                           ",
"            . . A d y |  .Y o S ` * '.'. .D.| _ y : 5 S -.'...-.L 3 K S | { : A 1 . . . . . 1 , - .                             ",
"                . $ = 8 _ ) t K t S {.).D.K | * : ^ z _ %.9 K s t : ~ ~ ! + 1 . .                                               ",
"                  . . . 1 + i M 8 s | | %.d z ^ 8 % / p > e j ; @ 1 . . . . .                                                   ",
"                        . . . . . # = E = + - $ 1 . . . . . . . . .                                                             ",
"                                  . . . . . .                                                                                   ",
"                                                                                                                                ",
"                                                                                                                                ",
"                                                                                                                                ",
"                                                                                                                                ",
"                                                                                                                                ",
"                                                                                                                                ",
"                                                                                                                                ",
"                                                                                                                                ",
"                                                                                                                                ",
"                                                                                                                                "};
