/* XPM */
static const char * player_reload_5_red_xpm[] = {
"64 64 171 2",
"  	c None",
". 	c #000000",
"+ 	c #080000",
"@ 	c #040000",
"# 	c #020000",
"$ 	c #140000",
"% 	c #2C0000",
"& 	c #360000",
"* 	c #220000",
"= 	c #2E0000",
"- 	c #060000",
"; 	c #340000",
"> 	c #4E0000",
", 	c #0A0000",
"' 	c #240000",
") 	c #3C0000",
"! 	c #3A0000",
"~ 	c #420000",
"{ 	c #120000",
"] 	c #260000",
"^ 	c #580000",
"/ 	c #8E2800",
"( 	c #923000",
"_ 	c #7C1700",
": 	c #400000",
"< 	c #160000",
"[ 	c #520000",
"} 	c #4A0000",
"| 	c #1C0000",
"1 	c #280000",
"2 	c #620200",
"3 	c #3E0000",
"4 	c #600000",
"5 	c #560000",
"6 	c #8C2800",
"7 	c #1E0000",
"8 	c #300000",
"9 	c #620000",
"0 	c #480000",
"a 	c #4C0000",
"b 	c #0C0000",
"c 	c #380000",
"d 	c #440000",
"e 	c #6E0A00",
"f 	c #842200",
"g 	c #B28200",
"h 	c #5A0000",
"i 	c #460000",
"j 	c #700D00",
"k 	c #9A4500",
"l 	c #320000",
"m 	c #100000",
"n 	c #7A1700",
"o 	c #8C2E00",
"p 	c #923A00",
"q 	c #8A2D00",
"r 	c #1A0000",
"s 	c #660500",
"t 	c #8E2F00",
"u 	c #680700",
"v 	c #862600",
"w 	c #5C0000",
"x 	c #500000",
"y 	c #943B00",
"z 	c #801B00",
"A 	c #5E0000",
"B 	c #600200",
"C 	c #180000",
"D 	c #0E0000",
"E 	c #540000",
"F 	c #7E1800",
"G 	c #640200",
"H 	c #8C2B00",
"I 	c #7E1B00",
"J 	c #200000",
"K 	c #821C00",
"L 	c #6C0500",
"M 	c #2A0000",
"N 	c #AA6400",
"O 	c #A65E00",
"P 	c #964000",
"Q 	c #660200",
"R 	c #680200",
"S 	c #780E00",
"T 	c #700B00",
"U 	c #8A2700",
"V 	c #984000",
"W 	c #6A0500",
"X 	c #D6BF00",
"Y 	c #AA6C00",
"Z 	c #720800",
"` 	c #760E00",
" .	c #943F00",
"..	c #903600",
"+.	c #861C00",
"@.	c #7A1100",
"#.	c #A85F00",
"$.	c #7C1200",
"%.	c #740B00",
"&.	c #741300",
"*.	c #8A2A00",
"=.	c #801E00",
"-.	c #761300",
";.	c #6C0800",
">.	c #720D00",
",.	c #7E1500",
"'.	c #6E0800",
").	c #781400",
"!.	c #821F00",
"~.	c #A45900",
"{.	c #A66200",
"].	c #B07800",
"^.	c #700800",
"/.	c #680500",
"(.	c #721000",
"_.	c #923700",
":.	c #AA6800",
"<.	c #781100",
"[.	c #C2A000",
"}.	c #B48300",
"|.	c #6C0A00",
"1.	c #9C4600",
"2.	c #8E3200",
"3.	c #640000",
"4.	c #C2A400",
"5.	c #D8C100",
"6.	c #D9C203",
"7.	c #C45C00",
"8.	c #D49E5E",
"9.	c #DB9B37",
"0.	c #A62F00",
"a.	c #B68900",
"b.	c #C0A300",
"c.	c #720B00",
"d.	c #A05300",
"e.	c #9E4700",
"f.	c #9C4200",
"g.	c #9E4E00",
"h.	c #CAB528",
"i.	c #862000",
"j.	c #D4BF10",
"k.	c #6A0000",
"l.	c #6C0000",
"m.	c #680000",
"n.	c #C6A800",
"o.	c #660000",
"p.	c #6A0200",
"q.	c #760B00",
"r.	c #6E0000",
"s.	c #A04F00",
"t.	c #A45D00",
"u.	c #7E0300",
"v.	c #C09E00",
"w.	c #F29A00",
"x.	c #D87A00",
"y.	c #860000",
"z.	c #780000",
"A.	c #801500",
"B.	c #9E1600",
"C.	c #860300",
"D.	c #7C0000",
"E.	c #720000",
"F.	c #800300",
"G.	c #7A0000",
"H.	c #8A0600",
"I.	c #940E00",
"J.	c #8E0700",
"K.	c #8C0700",
"L.	c #981200",
"M.	c #9A1200",
"N.	c #980E00",
"                                                                                                                                ",
"                                                                                                                                ",
"                                                                                                                                ",
"                                                                                                                                ",
"                                                                                                                                ",
"                                                                                                                                ",
"                                                                                                                                ",
"                                                                                                                                ",
"                                .                                                                                               ",
"                          . . + @ # @ . .     . .                                                                               ",
"                        . . $ % & . $ * = - . ; > - .                                                                           ",
"                    . . , ' ) ! ~ { - ] ~ ^ & / ( _ : ,                                                                         ",
"                  . . < > ; ! [ } & @ | 1 2 3 [ 4 5 [ 6 .                                                                       ",
"                . - 7 8 9 ~ 0 a 5 ! b b { c d a 5 e f g h .                                                                     ",
"            . . + 4 [ = i j k ! l ; + m m @ b : n o p q < .                                                                     ",
"          . . r = ! } > ] s o t ~ ' - ] > ~ < # r u v w .                                                                       ",
"        . - x _ & 1 x 5 ! l y p z * m ) A B h ~ C # ~ D . . . . . . . + # . . . .                                               ",
"      . @ & w w l = & } ~ % E F G + { E H j B 2 I ) @ # . , J 8 c ) d G > | | - . . .                                           ",
"      @ 0 > J ! K L % c 8 c i | . M i r 8 N O P F j w + @ ] c ^ Q R S L > x 9 E = J - . .                                       ",
"    . * T U : l h E c ] 8 1 ' @ a V W > r m V X w L Y ! . b l 4 Q Z S W 5 5 S ` > 5 d ' b . .                                   ",
"    . ! _  ...} = 4 5 ! a r @ u F j 9 w ) = D > +.@.#.7 + . m 3 9 $.%.R 4 5 Z L } Q 5 h A ; # .                                 ",
"    . - ' &.*._ & A 5 A C | _ =.-.Q 4 ^ ~ ^ M . J ;.C m >.] . < i ,.%.W 9 0 0 > 5 '.[ Q '.4 > { . .                             ",
"    . J - . % d r m l D < ).!.O ~.Q w d & 1 . b . , C i {.].r . r ^.` /.4 [ L S 5 Z a ^.$.W 4 E | . .                           ",
"  . . h = | - - , < , C (.e _.O :.<.~ = , . J E l . b 4 ].[.}., . = S W 4 0 E w ^ S } S @.T R 4 } = . .                         ",
"    . } i J - ' ; d | $ E |.e 1.2.} r @ 3.[ . ' ) r . * 4.5.6.<., - ^.Z 4 3 h w ^ ;.> @.$.^.G 4 a ~ 8 @ .                       ",
"    . ' 8 ] - 1 i @.a + : 2 w = . . . 7.8.9.0.b . # . . * V a.b.` - 3 ` A c c.%.> G E @.@.Q ^ [ d 3 : 1 .                       ",
"  . ' V a ; b C ^ d.e.. a x - . @ m | = 8 = 8 l * < - . . . . + r ] - 0 9 3 A W 0 4 E ^.4 { 3 3 3 3 3 & .                       ",
"  # S f.A } * - 9 g.h.' ] # + % 0 ) ~ E h w A 4 A } l ] $ 1 8 | , . , # . + J ! 3 d 5 W # m i 0 > a ~ M .                       ",
"  . i.,.` > ) @ >  .j.w . , ) [ h h E 4 k.l.k.m.4 i a 5 % | > ~ ) 8 m D @ . . . D ] ) E . * ^ [ [ 9 h 3 .                       ",
"  . 3 E 4 5 3 D c P n.C - = E A 3.k.4 k.m.o.o.9 d & ^ 3.w * ! 3.a i d D r , # . . . . + . l p.` @.q.A > .                       ",
"  . $ R [ w ~ * b c.2.. r d 4 o.r.o.k.k.k.m.k.4 5 l 9 l.4 c = k.4 h } : # D . .     . # # 3 ;.$.@.$.'.[ .                       ",
"    . d s.t.A : . 3 A # 7 5 w o.k.o.k.3.k.k.k.k.o.) o.r.3.} ' o.o.A h w @ { = .         , } '.$.$.S q.x .                       ",
"    . | [ % + - . b a , J ; 0 w 9 m.4 } w k.k.k.3.0 o.r.m.} ' o.k.A A A , ! E 7 .       , > L $.@.$.'.d .                       ",
"      . . . . . . . C + ' } ^ 4 3.k.k.5 k.k.k.k.o.d 3.r.l.> ' 3.o.h w A - d d % .       - 0 L $.'.'.W & .                       ",
"            . 7 + @ . @ r : h 9 o.m.k.k.k.m.k.9 4 i 9 l.k.i 1 m.4 E 0 ^ # 3 ; b .       @ d ^.$.Z ^ 5 7 .                       ",
"          . b c ] @ # . D ; 5 A 3.k.3.o.3.3.9 x } ! 4 l.3.8 8 4 x 0 d ] @ & J .       . # i S $.^.R i D .                       ",
"          . % ) c r , . . C } E w 5 } ^ 4 4 w x c ! d 5 c * ) 3 3 ) 8 . . < @ .       . + E $.$.%.R } - .                       ",
"        . , ~ 4 5 : r , . . r d a d ~ ^ A w 4 4 h 0 8 = ' ! d ! ' + # . . . .         . m 9 @.,.$.^.i #                         ",
"        . C Q L R G ) | . - . b ' ' ! : i 0 i d : & J , r < b . . . . .               . J d : > 3.R l .                         ",
"        . 1 W $.$.%.9 8 m . : , . . $ k.u.> ) l { . # - - - $ J - .                   . ; R R ^ 0 : 7 .                         ",
"        . ) %.$.$.$.` h * - r v.O c.# ^ w.x.0 . % y.z.k.E l.^ + .                     . + ' > ` A.[ - .                         ",
"        . [ @.$.$.$.$.Z x r - ' h E A % . . C 3.B.C.m.^ m.d . .                         . . . - < J . .                         ",
"        . A $.$.$.$.$.@.Q %.` ~ + . . # , . { h o.w ^ 9 m .                       . . @ , * 1 + , , # 1 .                       ",
"        . R $.$.$.$.@.$.S c.G 0 : ~ = r @ . . $ i l.h < .           . . . . . . , d m.D.[ 8 % 8 # . . ] < . . . . . . . .       ",
"        . R $.$.$.$.$.S L R a : '.L d ~ ! 1 { # - | . . . # . # . . . - D | ] . ; E.F.A . C * * ' ' = ] J * J * * * * * J $ .   ",
"        . > $.$.$.$.S W R 5 : > @.E E ^ } 9 A ) 1 # . . b | ! ) & 8 ! a [ a Q , r G.H.3 + < = ; i c & c l & = c c & c c 8 8 b   ",
"        . * ^.$.$.$.L W 4 } 9 5 a [ G 5 Q ^.G 5 ! ' l i E h A 4 4 W Z @.Z : %.; . 3.I.> # & h ^ ^ 5 5 5 3 ) : } } } 0 0 i & +   ",
"          . d c.$.` W G a } R %.> %.Q h c.c.Q A d : a A $.A.A.,.,.$.$.$.@.~ G L . l J.K.C b , b # . . + . . . . . . . . . .     ",
"          . # & %.W G d 3.^ d > Q Z x %.$.` R 4 i : x [ $.@.@.@.` S ` @.$.^ [ $.D | z.L.M.N.M.i . C k.r .                       ",
"            . . ] G } } %.$.5 5 ^.A 9 ,.@.^.G A d 3 [ 4 $.@.@.@.G w W L %.G ~ 5 < . . @ ' c $ . m i < .                         ",
"              . . D J i 4 L } 4 4 } ` $.^.;.9 h d 3 a 4 L @.@.q.%.w x E > c ] , . .       .                                     ",
"                  . . - r M ~ [ } A '.Q G 9 4 [ : 3 ~ [ ^ A 4 5 } & < , - # . .                                                 ",
"                      . . . - C * ) > [ E > i ) c 1 { | ] 1 J < , . . . .                                                       ",
"                          . . . . . . # # . # # . . . . . . . . .                                                               ",
"                                                                                                                                ",
"                                                                                                                                ",
"                                                                                                                                ",
"                                                                                                                                ",
"                                                                                                                                ",
"                                                                                                                                ",
"                                                                                                                                ",
"                                                                                                                                ",
"                                                                                                                                ",
"                                                                                                                                "};
