/* XPM */
static const char * player_reload_4_red_xpm[] = {
"64 64 190 2",
"  	c None",
". 	c #000000",
"+ 	c #020000",
"@ 	c #040000",
"# 	c #060000",
"$ 	c #1E0000",
"% 	c #360000",
"& 	c #080000",
"* 	c #200000",
"= 	c #2C0000",
"- 	c #7A1100",
"; 	c #520000",
"> 	c #100000",
", 	c #0A0000",
"' 	c #380000",
") 	c #460000",
"! 	c #280000",
"~ 	c #1A0000",
"{ 	c #300000",
"] 	c #580000",
"^ 	c #6C0500",
"/ 	c #861C00",
"( 	c #6E0A00",
"_ 	c #7E1800",
": 	c #560000",
"< 	c #1C0000",
"[ 	c #2E0000",
"} 	c #320000",
"| 	c #500000",
"1 	c #4E0000",
"2 	c #3A0000",
"3 	c #0E0000",
"4 	c #240000",
"5 	c #440000",
"6 	c #5C0000",
"7 	c #400000",
"8 	c #882300",
"9 	c #963C00",
"0 	c #0C0000",
"a 	c #180000",
"b 	c #6C0800",
"c 	c #3C0000",
"d 	c #5E0000",
"e 	c #220000",
"f 	c #260000",
"g 	c #540000",
"h 	c #660200",
"i 	c #8A2A00",
"j 	c #943F00",
"k 	c #A45D00",
"l 	c #3E0000",
"m 	c #761300",
"n 	c #480000",
"o 	c #140000",
"p 	c #7C1A00",
"q 	c #882600",
"r 	c #923700",
"s 	c #680500",
"t 	c #4C0000",
"u 	c #600000",
"v 	c #5A0000",
"w 	c #420000",
"x 	c #A04F00",
"y 	c #964000",
"z 	c #620200",
"A 	c #720800",
"B 	c #680200",
"C 	c #640200",
"D 	c #943B00",
"E 	c #4A0000",
"F 	c #600200",
"G 	c #740B00",
"H 	c #7C1200",
"I 	c #720B00",
"J 	c #6E0800",
"K 	c #620000",
"L 	c #8E3200",
"M 	c #720D00",
"N 	c #2A0000",
"O 	c #842500",
"P 	c #903600",
"Q 	c #6A0700",
"R 	c #8C2E00",
"S 	c #6C0A00",
"T 	c #741000",
"U 	c #801B00",
"V 	c #340000",
"W 	c #700800",
"X 	c #AC6D00",
"Y 	c #AA6400",
"Z 	c #9A4500",
"` 	c #700B00",
" .	c #7E1B00",
"..	c #760E00",
"+.	c #781100",
"@.	c #660500",
"#.	c #821800",
"$.	c #9C4600",
"%.	c #120000",
"&.	c #AA6800",
"*.	c #C2A000",
"=.	c #7A1400",
"-.	c #B68D00",
";.	c #780E00",
">.	c #6A0500",
",.	c #821F00",
"'.	c #801800",
").	c #7E1500",
"!.	c #640000",
"~.	c #862600",
"{.	c #923A00",
"].	c #842200",
"^.	c #160000",
"/.	c #801E00",
"(.	c #7C1700",
"_.	c #984000",
":.	c #9C4900",
"<.	c #A65E00",
"[.	c #A66200",
"}.	c #740E00",
"|.	c #B48300",
"1.	c #C6A800",
"2.	c #D6BC0C",
"3.	c #A05300",
"4.	c #D4BE00",
"5.	c #D9C203",
"6.	c #BA9000",
"7.	c #F09F12",
"8.	c #EA8F00",
"9.	c #8E1100",
"0.	c #C6A300",
"a.	c #841F00",
"b.	c #8E2F00",
"c.	c #D4BF08",
"d.	c #9A4100",
"e.	c #903300",
"f.	c #D0BC14",
"g.	c #660000",
"h.	c #6A0000",
"i.	c #680000",
"j.	c #C8A900",
"k.	c #7C1400",
"l.	c #AC7100",
"m.	c #6C0000",
"n.	c #821C00",
"o.	c #781400",
"p.	c #6E0000",
"q.	c #720000",
"r.	c #760000",
"s.	c #7C0000",
"t.	c #9C1200",
"u.	c #820000",
"v.	c #860000",
"w.	c #8A0000",
"x.	c #9E1300",
"y.	c #960E00",
"z.	c #800000",
"A.	c #980E00",
"B.	c #A41700",
"C.	c #AC2400",
"D.	c #740000",
"E.	c #900700",
"F.	c #A01300",
"G.	c #AA2000",
"H.	c #B62F00",
"I.	c #700000",
"J.	c #800F00",
"K.	c #9A1200",
"L.	c #A61B00",
"M.	c #B02E00",
"N.	c #940E00",
"O.	c #DF9E37",
"P.	c #E1A469",
"Q.	c #F5A407",
"R.	c #BE9C00",
"S.	c #CFBC1D",
"T.	c #8C0700",
"U.	c #8A2700",
"V.	c #A25800",
"W.	c #760B00",
"X.	c #820300",
"Y.	c #880600",
"Z.	c #7A0000",
"`.	c #800300",
" +	c #8C0A00",
".+	c #900A00",
"++	c #860300",
"@+	c #8E0700",
"#+	c #A01700",
"$+	c #A41B00",
"                                                                                                                                ",
"                                                                                                                                ",
"                                                                                                                                ",
"                                                                                                                                ",
"                                                                                                                                ",
"                                                                                                                                ",
"                                                                                                                                ",
"                          . + @ . # + . .   . . .                                                                               ",
"                      . . @ $ % # & * = * . $ - ; > .                                                                           ",
"                    . . , = ' ) ! + ~ { ] ; ^ / ( _ : ,                                                                         ",
"                  . . < [ } | 1 2 3 3 4 5 6 7 : 6 | 8 9 0 .                         . .   . .                                   ",
"                . + a | b } c d 1 e & > f 2 7 g h i j k ~ .             . . . . . + & 0 3 , & # + . . .                         ",
"              . & | f l ' m 1 ! n < # o , @ > n p q r s .           . . . . > ! } t 6 d u v t 5 7 ' = # .                       ",
"          . . , 7 d ) 2 w x y z 4 > 3 } | 2 < + ~ v p o .     . . . . * l 5 ) d ] : A b B C u : w 7 w c # .                     ",
"        . + $ % = l : t ! d D D v > ~ E F F v ) $ . ~ . . + & > < 2 ' g B G t 6 h 1 G H I J K 6 E 7 7 7 4 .                     ",
"      . . [ L M = N E E % } O P v & $ Q R S F T U 1 @ . & 4 V 5 K B g 7 G H : | W u g H - A C u 1 7 7 7 } .                     ",
"      . * 5 | c | % V ) V 7 ' [ . N } < ; X Y Z `  .Q & @ * ' K I W B | ; ) | v u ..; G H +.B d 1 7 7 7 2 .                     ",
"    . o @.c e u #.: f N f ' N @ c $.K n %.> &.*.u =.-.[ . @ f g ^ ;.>.B | g B G n ^ B 6 G G h d 5 7 7 7 = .                     ",
"    . w ,.R n = 1 ] l { 5 ~ . t U ` K 6 c = 3 7 '.#.M 3 f . @ f v ).J >.K 5 v E g ; C g !.` C ] 7 5 w ! @ .                     ",
"    @ ) ~.y {.E { d g g } , ] R T B d v 7 | f . > : > ~ ].s + & N ..- ^ s 6 c : ).g ; : t C d c [ ^.. . . .                     ",
"    . # * ` /.T V w u [ @ 6 (._.:.K d 5 2 = . 3 + + < 1 $.-.z . # 2 - - J >.n l I >.7 7 2 ! %.+ # * c c .                       ",
"    # e # + $ e & # 3 & g (._.<.[.}.E V 3 . # 1 5 & # E |.1.2.g . & V C H G C E c ' 4 o @ . , V ] ).u f .                       ",
"  . + u { $ # , o 4 > ~ z S M 3.Z g N + c K N @ f e @ . q 4.5.6.g . & V v ;.G N + . . . & w ;.- v B ) , .                       ",
"    . 1 ) e # ! 7 u V , ) @.b 7 3 @ . = 7.8.9.2 @ . + . @ ) }.<.0.a.. @ = : d { w c 3 . } ;.H ..B | [ .                         ",
"    . * } f # * E ;.^ + % 6 a . @ 3 o N 4 f [ V } e > # . . . . . % c & + 4 5 : t %.. 0 u H H G ^ E @ .                         ",
"  . a b.| 2 o 3 ] x c.%.' %.+ ~ n t } t g ] v u u v w { $ $ l } o . + e 0 . ~ ! # . + V : G H H h 7 . .                         ",
"  . B d.h t { + E e.f.` . . 4 t ] 6 : 6 g.h.h.h.i.v 2 g 1 < N g 2 ' f @ ! 3 + , . . 0 | E l g G K * .                           ",
"  . W ).].; w 0 } e.j.k.. a E 6 u h.g.K h.i.h.!.] w 7 K K n * ; 6 E c c . c @ . . . , g ..b 1 7 w & .                           ",
"  . f >.: 6 5 * > r l.2 0 N 6 K m.h.i.i.h.i.h.i.g 5 5 m.g.v 4 E m.] : ; e @ ^.& . & , + ~ h ).d = .                             ",
"    + B E C 5 2 + 7 n.%.^.c d !.i.h.i.g.K h.h.h.m.g w m.m.d [ ' m.K d v 5 . ) n @ # [ e & . * V # .                             ",
"    . ~ d.<.o.E 3 > K . ~ { 2 : d i.i.t 1 h.h.h.h.: E m.p.d { % p.!.d v t + | w ^.& t 1 E ) 3 . .                               ",
"      # : 2 3 + . . t & ^.l t d u g.h.K d h.h.h.h.v 5 m.p.g.{ % p.u 6 v E + n V & = q.r.s.t.6 . > @                             ",
"      . . . . . + + @ @ %.} 1 K g.i.i.h.h.h.i.h.u ] ) h.m.g.= l p.] : | 7 @ % e . n u.v.w.x.y., < @                             ",
"            . 0 e + + . @ 4 | v K i.!.g.g.!.g.g ; w | h.h.] 4 w g.| ) | > + N @ + ' z.w.A.B.C.c , #                             ",
"            . ! % a # . . , 2 g v d 1 : u u u v 2 l l | : N N w c 7 l < . . + > 0 * D.E.F.G.H.I.& ,                             ",
"            # 2 c % o , . . 3 2 t t 2 1 d d u K K : c % = ! l 7 % f # . .   . J.N %.K.L.M.L.E.; . .                             ",
"          . ~ ; !.: c ~ # + . # < { } 7 1 | 1 E 5 c % a %.~ o , @ . . .       & . a D.v.N.q.c a .                               ",
"          . { h ^ >.K ' a . ~ ^.. . # n q.h.: 5 N o . . # # , < & . .             a ; t n N . .                                 ",
"          . w A H H G u [ %.. ].i E 3 o O.P.Q.V . ! D.q.I.] q.5 .                 . & , + .                                     ",
"        . . 6 ;.H H H ..d N & , R.S.d.t o + . < d t.T.h.] h.% .                                                                 ",
"        . # !.- H H H H I : $ . e U.C _ V.% . < !.q.u ] !.^..                                                                   ",
"          , B H H H H H H !.E o . ! u u ` b.f . N n K h.< .                                                                     ",
"          0 J H H H H H H ;.;.H !.0 # } ; C V . # l % & .                                                                       ",
"          , >.H H H H H - A J B ] 7 0 . + , # V + . . .                                                                         ",
"          . ] H H H H W >.>.C n 2 : ; { # . < ] l . .                                                                           ",
"          . ~ W H H W B B d 5 w K H B 7 2 > . %.E , .                                                                           ",
"            . l W J >.C ] n u 6 ) K 5 : ) 2 ~ . + .                                       .                                     ",
"            . . n B g w 6 w C ;.t : C u t !.d { @ .                 . . . . . . . 3 < 4 [ 7 2 ^..                               ",
"              . # 7 c !.H B 5 1 6 W.h ; >.J C : { + . + + @ , # + . + @ # , , . 2 p.X.Y.] N ' 5 + . .                           ",
"                . . ! d A >.) h J u ; ;.- G C v e < ! V l ) t ) l % 7 t w ] n . 5 Z.`.v . o N 4 ~ o %., + . . . . .             ",
"                  . . f E t d h u | ;.H H W K ; w w : h J ^ >.B B W G H | ; W . [  +X.{ & 3 [ l 5 l l 7 % V [ [ f * < ^.%.0 .   ",
"                    . . # 2 g ; 1 - H ..` h K 1 l n | W H H H H H H H H v n ).~ > z..+7 + [ ; | w % % % } V { ' ' % ' ' } V 3 . ",
"                      . . + $ 7 ^ >.b J >.K d n l t ] - H - - G I G ..H ^ w H ' # p.K.++f %.0 o $ f = } f N ' ) t 1 E ) 2 ' o . ",
"                          . . @ [ : d u u d ; w l n K G H ;.- J ] B >.G ..7 B 2 + % I.@+#+$+A.7 @ .   . . . . . . . & o * a .   ",
"                              . . # a % E t w l l 7 ] d J ;.A J u 1 : 6 1 7 % ~ . . . , 4 f @ .                                 ",
"                                    . . @ o f [ } f % n | ; E w [ $ o %.0 + . . .       .                                       ",
"                                        . . . . . . . . . + @ . . . . . . .                                                     ",
"                                                          .                                                                     ",
"                                                                                                                                ",
"                                                                                                                                ",
"                                                                                                                                ",
"                                                                                                                                ",
"                                                                                                                                ",
"                                                                                                                                "};
