/* XPM */
static const char * player_reload_2_red_xpm[] = {
"64 64 180 2",
"  	c None",
". 	c #000000",
"+ 	c #040000",
"@ 	c #080000",
"# 	c #1C0000",
"$ 	c #0A0000",
"% 	c #2E0000",
"& 	c #1E0000",
"* 	c #420000",
"= 	c #9A3A00",
"- 	c #700B00",
"; 	c #460000",
"> 	c #0E0000",
", 	c #280000",
"' 	c #340000",
") 	c #380000",
"! 	c #3A0000",
"~ 	c #3C0000",
"{ 	c #300000",
"] 	c #060000",
"^ 	c #0C0000",
"/ 	c #2C0000",
"( 	c #240000",
"_ 	c #560000",
": 	c #640200",
"< 	c #700800",
"[ 	c #5C0000",
"} 	c #580000",
"| 	c #881D00",
"1 	c #020000",
"2 	c #540000",
"3 	c #620000",
"4 	c #600000",
"5 	c #400000",
"6 	c #120000",
"7 	c #440000",
"8 	c #4A0000",
"9 	c #180000",
"0 	c #220000",
"a 	c #3E0000",
"b 	c #520000",
"c 	c #5A0000",
"d 	c #680200",
"e 	c #9A4500",
"f 	c #B68D00",
"g 	c #6A0500",
"h 	c #6C0800",
"i 	c #660200",
"j 	c #160000",
"k 	c #1A0000",
"l 	c #680500",
"m 	c #500000",
"n 	c #2A0000",
"o 	c #5E0000",
"p 	c #7A1400",
"q 	c #923700",
"r 	c #741000",
"s 	c #140000",
"t 	c #4E0000",
"u 	c #7A1100",
"v 	c #7C1200",
"w 	c #6C0500",
"x 	c #320000",
"y 	c #480000",
"z 	c #100000",
"A 	c #781400",
"B 	c #8A2A00",
"C 	c #760E00",
"D 	c #4C0000",
"E 	c #801E00",
"F 	c #AA6800",
"G 	c #780E00",
"H 	c #6A0200",
"I 	c #842200",
"J 	c #943F00",
"K 	c #7A1700",
"L 	c #360000",
"M 	c #5E0200",
"N 	c #600200",
"O 	c #660500",
"P 	c #720800",
"Q 	c #6E0800",
"R 	c #260000",
"S 	c #8E3200",
"T 	c #903300",
"U 	c #943B00",
"V 	c #6E0D00",
"W 	c #620200",
"X 	c #740B00",
"Y 	c #903600",
"Z 	c #CAB000",
"` 	c #D6C008",
" .	c #A65E00",
"..	c #720D00",
"+.	c #720B00",
"@.	c #882600",
"#.	c #902C00",
"$.	c #9A3E00",
"%.	c #7E1500",
"&.	c #6E0500",
"*.	c #923A00",
"=.	c #741300",
"-.	c #740E00",
";.	c #640000",
">.	c #B88F00",
",.	c #B28600",
"'.	c #6A0700",
").	c #984400",
"!.	c #964000",
"~.	c #7C1700",
"{.	c #862600",
"].	c #C4A100",
"^.	c #D8BC00",
"/.	c #C6A800",
"(.	c #680700",
"_.	c #8E2F00",
":.	c #862000",
"<.	c #A05300",
"[.	c #D8C100",
"}.	c #DBBF03",
"|.	c #BA9000",
"1.	c #200000",
"2.	c #6C0A00",
"3.	c #700D00",
"4.	c #9C4900",
"5.	c #961900",
"6.	c #E1A36B",
"7.	c #D79F5D",
"8.	c #BC4B00",
"9.	c #BA9500",
"0.	c #D6BF00",
"a.	c #D9BD07",
"b.	c #B07400",
"c.	c #8A2400",
"d.	c #BC9600",
"e.	c #821F00",
"f.	c #6A0000",
"g.	c #6C0000",
"h.	c #680000",
"i.	c #700000",
"j.	c #A45500",
"k.	c #AE7700",
"l.	c #CBB521",
"m.	c #660000",
"n.	c #902F00",
"o.	c #984000",
"p.	c #D4BF0C",
"q.	c #6E0000",
"r.	c #862300",
"s.	c #8C2E00",
"t.	c #AC6D00",
"u.	c #8A2700",
"v.	c #B68900",
"w.	c #760000",
"x.	c #9E2500",
"y.	c #740000",
"z.	c #BE9C00",
"A.	c #A04F00",
"B.	c #C86300",
"C.	c #C45C00",
"D.	c #940A00",
"E.	c #7C0000",
"F.	c #760B00",
"G.	c #943800",
"H.	c #CFB81D",
"I.	c #D0BA00",
"J.	c #940E00",
"K.	c #7E0000",
"L.	c #A45900",
"M.	c #841F00",
"N.	c #821C00",
"O.	c #7E1B00",
"P.	c #720000",
"Q.	c #860600",
"R.	c #840300",
"S.	c #7A0000",
"T.	c #801500",
"U.	c #820300",
"V.	c #920A00",
"W.	c #9A1200",
"                                                                                                                                ",
"                                                                                                                                ",
"                                                                                                                                ",
"                                                                                                                                ",
"                                                                                                                                ",
"                                                                                                                                ",
"                                                                                                                                ",
"                                                                                                                                ",
"                        . . . . . . .   . + . .                                   . . . . . . . .                               ",
"                      . @ # + $ # % & . * = - ; > .                     . . . . > & , ' ) ! ~ { ] .                             ",
"                  . . ^ / ; ( . # { _ _ : < [ } | { .               . . 1 ^ % 2 3 3 4 } ; 5 5 5 { .                             ",
"                . . 6 ) 7 8 5 9 $ 0 ~ 4 a b c d e f > .         . . . 6 ! * g g g h i 4 2 7 5 5 * j .                           ",
"              . . k 2 ) a l m { ] > j n ~ o p q q r +         . . s / ; 4 [ t u v < w 3 o 8 5 5 5 { .                           ",
"              . s x 4 a _ / y x ] z s @ 1 k 2 A B ) .     . . 1 / o h t } g [ c v v C d 4 D 5 5 * n .                           ",
"          . . n _ % ; E F A n ( ] 0 b } ~ & 1 > 5 . . . 1 j , y * < G H ; i < } 3 v u h 4 8 5 5 ! ] .                           ",
"        . . k D D m / 8 I J K { $ L o M N } O { . . 1 # x y i d 8 y d 5 g b i P c d Q Q 3 7 a # + .                             ",
"      . 1 x a R * c m , N S T % @ ! E U V r q p W s 1 k ' 4 X h l o 5 c Q i y o : D : i } % $ ] 1 .                             ",
"      . / Y l n , 7 8 ' 7 L , 1 ! , > D Z ` d }  ...1 . k 7 w u d l 4 * 2 ; C t t t 5 7 s . ( x .                               ",
"    . j * ~ ~ +.8 / L , * ( . o @.[ 5 9 > O #.G $.7 k z . s * %.C H g 4 a 8 G Q 7 ~ & . 1 * D ^ .                               ",
"    ] [ m 0 8 &._ % , x # . m E h 4 } ! D ^ > : t ] y *., . z b v u Q w 3 a 5 y / ] . 9 b b / .                                 ",
"  . ( A U =./ ~ c b 5 ; ] 8 @.-.;.4 b ~ y 1 1 . ^ / [ >.,.n . ^ 5 g u u < i / . . 1 z +.g ) 1 .                                 ",
"  . R '.).!.~.% c _ [ $ ~ {.U e 3 [ 5 / @ @ a & . s -.].^./.5 . @ { } Q v : > x 8 + 0 u 4 # .                                   ",
"  . 1 @ ~ W (.! 9 / ^ 0 ~._. .F :.5 R . , , . / j . $ <.[.}.|.3 ] 1 ( t 3 +.G w 1.. ) X y + .                                   ",
"  . # 9 ] ] $ ] ^ 6 @ o 2.3.4.- > + . 5.6.7.8.$ . 1 . 1 ..9.0.a.b.> . 6 a m m 1.. , y * 9 .                                     ",
"  . # N , > ^ 0 L a + L W l # . . $ s x x ( R % # z + . . . . s ; } R . @ ( & . @ 3 w ) 1 .                                     ",
"  . . W % 9 $ 5 D c.6 k D ^ . k 5 a ) b } } [ o [ ; { # 6 n R z + . % { 1 ] + z @ . 1.> .                                       ",
"    . , { R + % o d.e.$ 6 1 n t } c m [ f.g.f.h.4 ; 8 2 ( & b ~ ! , ] x ' . . i.# . . .                                         ",
"  . { j.t a 6 > H k.l.9 . # D [ 4 f.3 h.f.m.h.3 8 ) } 3 } & 7 4 y 5 a . $ # + ( 6 1 1                                           ",
"  . u n.g t ' + 8 o.p., > % o 3 g.h.h.h.f.m.f.4 2 { 3 f.4 % ) q.} _ 8 ( + t y + . 1.+                                           ",
"  . 3 r.s.4 7 s ( e t.k k y [ ;.h.m.f.;.f.f.f.f.m.~ h.q.;.7 , g.3 4 c 2 . } ~ j 1 z .                                           ",
"  . 1 g * b y L 1 m E ^ & L 5 c 4 h.;.8 c g.f.f.m.y h.q.h.7 R f.h.o o [ + b L @ ] +                                             ",
"    . ~ o u.W 5 z 9 : z & ; 2 4 3 h.f._ m.f.f.f.m.7 ;.q.g.y R f.3 [ [ [ . a 1.. 1 .                                             ",
"      1 v./.* + 1 . ~ 1.s ~ 2 3 ;.h.f.f.f.f.f.3 4 ; ;.g.f.a / g.c } 8 D . 9 ] .                                                 ",
"      . > . . . . . . ] ] R m [ 3 f.3 m.;.;.3 m 8 ! 4 g.3 n ' 4 t 7 ; > . . .                                                   ",
"        . .   . k + + . . > a 2 c c ; _ 4 4 [ b ) ! 7 _ ' ( a a * ! R .                                                         ",
"              @ ) , + + + . > ~ 8 ; ~ _ [ [ o 4 c y % / ( ~ 7 L # + . .                                                         ",
"            . 1.~ ) ( z 1 @ . + k 0 ' ~ * ; * 5 5 ' # @ s 6 @ . . .                                                             ",
"            . ' 2 [ t n s . n # . . @ w.x.y.c { z . 1 z z > 0 k .                                                               ",
"            1 b d d i c / 6 . l z.A.# & B.C./ 1 & y.D.E.c h.m 1                                                                 ",
"          . 1 o F.v u +.c n ^ 1 G.H.I.b 5 + . 0 3 J.K.c o ) 1                                                                   ",
"          . ] : u v v v F.o , ] + L.M.i <.3.] . 5 _ 2 ;._ +                                                                     ",
"          . @ d v v v v v +.} 0 . > ! 4 3 N.O.@ $ ! ;.~ 1                                                                       ",
"            @ d v v v v v v Q X < 8 + . & * x > + z 6 . .                                                                       ",
"            + w v v v u u v C P i b ) 9 ] . . k D . .                                   . + @ +                                 ",
"            1 4 v v v v v Q g : ; ! i 4 a R 1 . 1.a .                           . . # ! 3 i.P.g.s . 1 .                         ",
"            . ) G v v v Q d i 8 * o v c ; 7 L k . + .             . . . . . + 1 @ } E.Q.b @ $ ^ > 6 9 9 6 s s j j 9 9 9 k j .   ",
"            . 1 c u u P g i D _ 3 ; 2 D : D o 3 a ^ 1 . . . + ^ $ ] ] > 1.' b , ] [ R.w.z @ x ~ b ) ! ! ) L % ~ L ) ) ) x % k . ",
"              . ^ o P w o y 5 m C } } Q c [ Q g [ { . ] 9 % a D D 8 t o +.; [ c . ; J.S.z $ , ~ c ' ) ! ! ~ ' 5 a a a 5 a a k . ",
"                . $ c [ a 3 G D _ _ C : c u X g o a ' y } d w w Q < u v T.} 8 %.^ s U.V.7 . ( ( R , , , 0 z z k 9 9 j s s z .   ",
"                  . ] ( y g G o b < : D u v G l o * 5 t o v v v v v v v v X a G * + h.W.W.S.y.y./ 1 .                           ",
"                    . . s D c D 3 : D C v C Q 3 o * a b c v u u C i < g C v y o t 1 $ 9 y q.3 ^ .                               ",
"                      . . . 6 ) b 8 3 C X - l 4 } 5 a _ ;.u u u v i c i : : ; L 1.1 . . . . .                                   ",
"                          . . . k ' o 3 4 4 4 [ D a a 8 c ;.+.+.d 4 ; ' ' # @ . . .                                             ",
"                              . . . ] k x * y 8 * * ~ ~ 8 2 2 8 ~ 0 @ . . . .                                                   ",
"                                    . . . . 1 @ z 6 > . 1 ] ] 1 . . .                                                           ",
"                                              . . . .       .                                                                   ",
"                                                                                                                                ",
"                                                                                                                                ",
"                                                                                                                                ",
"                                                                                                                                ",
"                                                                                                                                ",
"                                                                                                                                ",
"                                                                                                                                ",
"                                                                                                                                "};
