/* XPM */
static const char * player_idle_0_red_xpm[] = {
"64 64 169 2",
"  	c None",
". 	c #000000",
"+ 	c #040000",
"@ 	c #020000",
"# 	c #0A0000",
"$ 	c #240000",
"% 	c #220000",
"& 	c #160000",
"* 	c #1A0000",
"= 	c #100000",
"- 	c #180000",
"; 	c #1C0000",
"> 	c #320000",
", 	c #3A0000",
"' 	c #3E0000",
") 	c #280000",
"! 	c #4E0000",
"~ 	c #4A0000",
"{ 	c #2E0000",
"] 	c #922D00",
"^ 	c #943400",
"/ 	c #6C0A00",
"( 	c #0E0000",
"_ 	c #420000",
": 	c #500000",
"< 	c #460000",
"[ 	c #260000",
"} 	c #200000",
"| 	c #2C0000",
"1 	c #620200",
"2 	c #380000",
"3 	c #5E0000",
"4 	c #620000",
"5 	c #580000",
"6 	c #6A0200",
"7 	c #640200",
"8 	c #120000",
"9 	c #6A0500",
"0 	c #4C0000",
"a 	c #400000",
"b 	c #540000",
"c 	c #080000",
"d 	c #3C0000",
"e 	c #560000",
"f 	c #5C0000",
"g 	c #7E1800",
"h 	c #C8A900",
"i 	c #360000",
"j 	c #480000",
"k 	c #600000",
"l 	c #842200",
"m 	c #2A0000",
"n 	c #340000",
"o 	c #060000",
"p 	c #0C0000",
"q 	c #1E0000",
"r 	c #7C1700",
"s 	c #903300",
"t 	c #943F00",
"u 	c #8C2E00",
"v 	c #520000",
"w 	c #9A4500",
"x 	c #821F00",
"y 	c #781400",
"z 	c #6C0800",
"A 	c #923700",
"B 	c #943B00",
"C 	c #741000",
"D 	c #600200",
"E 	c #300000",
"F 	c #140000",
"G 	c #720D00",
"H 	c #700B00",
"I 	c #680700",
"J 	c #8A2A00",
"K 	c #761300",
"L 	c #5A0000",
"M 	c #801E00",
"N 	c #640500",
"O 	c #5E0200",
"P 	c #6A0700",
"Q 	c #6E0800",
"R 	c #A66200",
"S 	c #882600",
"T 	c #680200",
"U 	c #740B00",
"V 	c #440000",
"W 	c #984000",
"X 	c #D8C100",
"Y 	c #BC9B00",
"Z 	c #7E1500",
"` 	c #640000",
" .	c #680500",
"..	c #720B00",
"+.	c #700800",
"@.	c #7E1B00",
"#.	c #862600",
"$.	c #700D00",
"%.	c #821C00",
"&.	c #781100",
"*.	c #AE7300",
"=.	c #660200",
"-.	c #7C1200",
";.	c #780E00",
">.	c #8A2D00",
",.	c #7A1700",
"'.	c #8E3200",
").	c #761100",
"!.	c #7A1100",
"~.	c #A04F00",
"{.	c #A05300",
"].	c #862300",
"^.	c #6C0500",
"/.	c #760E00",
"(.	c #A65E00",
"_.	c #C09E00",
":.	c #6E0A00",
"<.	c #A25400",
"[.	c #984400",
"}.	c #C6A800",
"|.	c #D6BF00",
"1.	c #E88800",
"2.	c #E1A469",
"3.	c #D99F4B",
"4.	c #860600",
"5.	c #CAB000",
"6.	c #D9C207",
"7.	c #C2A400",
"8.	c #720800",
"9.	c #8C2B00",
"0.	c #8C2400",
"a.	c #B27900",
"b.	c #AE7700",
"c.	c #CDB619",
"d.	c #983600",
"e.	c #963C00",
"f.	c #964000",
"g.	c #680000",
"h.	c #6A0000",
"i.	c #660000",
"j.	c #740E00",
"k.	c #964300",
"l.	c #C8AE00",
"m.	c #801B00",
"n.	c #6C0000",
"o.	c #6E0000",
"p.	c #9C4900",
"q.	c #AC6D00",
"r.	c #760B00",
"s.	c #923400",
"t.	c #F49B00",
"u.	c #DCA264",
"v.	c #D39E59",
"w.	c #B23F00",
"x.	c #801500",
"y.	c #9C1200",
"z.	c #8C0700",
"A.	c #700000",
"B.	c #740000",
"C.	c #720000",
"D.	c #820300",
"E.	c #800300",
"F.	c #840300",
"G.	c #940E00",
"H.	c #7A0000",
"I.	c #8E0700",
"J.	c #9E1600",
"K.	c #7E0000",
"L.	c #800000",
"                                                                                                                                ",
"                                                                                                                                ",
"                                                                                                                                ",
"                                                                                                                                ",
"                                                                                                                                ",
"                                                                                                                                ",
"                                                                                                                                ",
"                                                                                                                                ",
"                                                                                                                                ",
"                            . + . @ @ . .     . .                                                                               ",
"                        . . # $ % . & * = . . - ; . .                                                                           ",
"                    . . + ; > , ' # # ) ! ~ { ] ^ / $ .                                                                         ",
"                  . . ( , { _ : < [ + } | 1 2 3 4 5 6 7 .                                                                       ",
"                . @ 8 2 9 0 a 5 b , c & $ : d ~ e f g h i .                                                                     ",
"              . . ! j | j k l m d n o p c c q : r s t u * .                                                                     ",
"          . . p { v ~ j m u w x m } o % a [ # c a y u 7 @                                                                       ",
"        . . i z | m e f n i A B C q ( d 3 D : E o F f o .   . . . . . . . . . .                                                 ",
"      . . | G H n [ 2 ~ _ ) I J K = F L M N D O P - @ . . + & % [ [ n : E ( p . . . .                                           ",
"      . E : % 2 Q k m _ i 2 a ) o - E } z R g u S r > . # | , : 4 T U T V ! f , & c . .                                         ",
"    . } / g E i 7 5 { ) [ | | @ E W 7 V ( m X Y v Z B & . & , ` T U U  .V 3 ..+.j ~ n # . .                                     ",
"    . i @.t #., 2 L : n 0 * . < M $.4 3 2 * * g %.&.*.; . @ } : =.-.+.9 e k ;.=.! 7 j 5 a 8 .                                   ",
"    . p _ >.s ,.) 3 b f ) p I '.).6 3 L a v % . V !.} = b # @ % e -.+.9 3 ' ' j 5 T ~ z T k | @ .                               ",
"    . ( @ = < f % q V - # $.,.~.{.4 3 < d , + @ @ - F V {.].. o E -.+.9 5 b 9 =.L ^.~ -./.4 3 , o .                             ",
"  . . ~ $ 8 + + + p o = 7 K W R (...j > & . * _ * . % ` *._.G . c L /.9 e ! 4 3 f U v Z !.+.4 f ' 8 .                           ",
"    . b : [ o ; m 2 - ; f :.G <.[.! ) . F ( c 0 0 ( . ~ }.X |.~ . = ;.Q b a j 0 3 z 5 Z !.Q 1 3 j a = .                         ",
"    . 2 n ) o [ V /.V # j 7  .j & # . 1.2.3.4.. + c @ @ 7 5.6.7.~ . 3 8.b a Z 4 b 4 4 -.!.9 f v _ ' a 8 .                       ",
"  . p f a { p - b 9.0.+ _ 3 & . . c F d > * % m F # @ . . . @ % 3 $ ; ^.3 ' Q k ! k 3 +.b $ ' ' ' ' ' $ .                       ",
"  . 8.a.L j - p ` b.c.& E @ @ * ' E a : b b 5 f e a | F ( $ ; o . @ ( . p & ' V _ _ 3 f @ % V V V _ ' - .                       ",
"  . d.e.;.! > o v f.c.i . + > : 5 : ! f g.h.g.i.k a V 0 q [ b d E q o = . . @ ( % n b j . > 5 0 e 3 : % .                       ",
"  . a k j.5 _ p _ k.l.% @ [ : 3 4 h.3 h.h.h.g.` : n f 4 0 ; < e _ , n @ * . + . . . c F @ a Q U 8.T e | .                       ",
"  . ( 5 j b V $ ( m.B # 8 _ 3 ` n.g.g.h.h.i.g.L : n ` h.` | , o.5 5 0 m 8 = . .   . . @ + 0 ;.-.-.!.3 i .                       ",
"    . e 9.p.e a + a G c % e k g.h.g.h.g.h.h.h.g.3 n h.o.4 _ ) g.` f L v @ 8 F .       . * b ;.-.!.!.=.> .                       ",
"    . V q. .& p @ }  .= ) _ v 3 i.g.k 0 k h.h.h.` a g.o.4 < ) i.g.3 f e @ , b c .     . ) e !.-.-.;.4 ) .                       ",
"      . . . . . . . d 8 ) V e k 4 h.i.0 i.h.h.h.i.d i.o.g.< ) g.g.L 3 5 @ j V - .     . } e ;.-.Q -.5 q .                       ",
"            . ( + @ . + $ < f 4 i.g.h.n.h.h.h.i.4 ' i.o.n.V | h.3 5 b e . V n # .     . 8 5 -.!.k k j p .                       ",
"            c 2 ; o . . 8 , 5 k i.i.i.h.i.g.` b v a h.h.` i i g.: : ~ | ( , } .       . 8 k Z -.Q e d .                         ",
"          . [ d i 8 # . + % ! 5 3 f ! L k k L < n 2 ! k d $ ' _ ' , E . . q @ .       . [ Q -.-.^.4 % .                         ",
"          @ , ! j n 8 @ . + | 0 v _ _ 3 k 4 k 3 L V i 2 $ i V , > * + @ . . .         . , r.-.-./.k ; .                         ",
"        . p k =.T 4 { & . @ . * , { V : b b v : < d ) & { ) & @ . . . .   .         . + a a 0 ^.-.L # .                         ",
"        . * 9 ;./.Q 5 ) # + } . . + } _ ~ % % n ; c . . . . @ 8 + .                 . ( 5 4 5 V _ ' @ .                         ",
"        . d U -.-.Z 8.: ; @ 0 s.a $ # t.u.v.w.c = j _ 3 : k h.( .                   . + { f U x.7 n .                           ",
"        . e ;.-.-.-.-.^._ = . : [.g k p + + ( 5 y.z.A.5 o.5 + .                       . . . c % i ; .                           ",
"        + 4 -.-.-.-.-.!.4 L L $ . . 8 [ p . ) o.B.` e ` m @ .                       . . . F # . + . + .                         ",
"        o T -.-.-.-.-.-.!./.=.: i ) & o . . . | 0 3 g.$ .               . . . . o $ ~ h.C.i.o.~ . . + + .                       ",
"        c T -.-.-.!.-.-.Q 9 : , 9 T a , E 8 . . & { # . @ @ . . . . . . @ ( 8 . _ A.D.n.o ( = F F F q * 8 F F F F F F F F # .   ",
"        + k -.-.-.-.!.^.9 3 ' e Z L ~ v j 3 : $ F . . . + = $ $ q * $ i a : 5 @ > E.E.< + * 2 2 0 ' d d i , > , , , d , n > #   ",
"        . { U -.-.-.+.9 7 < 5 j 5 ! 7 e 4 Q 7 ! > ( } 2 j v e 5 e 3 T /.f j U 8 & F.z.~ + * _ _ 0 d d d i 2 > , d , 2 , i n =   ",
"        . . b /.-.;.9 T : : 9 ..< 9 =.5 +.8.4 L a ' ! 3 ;.!.!.!.!.-.-.-.+.a /.d . 5 G.H.+ + ( ( 8 F 8 F p p ( = = = = = = # .   ",
"          . p v ;.+.=.: v < e L k /.b U Z /.=.f _ a 0 5 !.-.-.-.!.!.!.-.Z j 7 9 . d I.J.G.K.L.j . p d c                         ",
"            . . _ T : V /.-.v b +.3 5 -.!...7 f _ ' b L -.!.!.;.k 6 9 +.-.f ~ 3 # . @ } e o.& @ 3 > .                           ",
"              . + ) E b  .U 0 3 =.0 /.-...z 4 f a ' v 4 /.Z !.-.8.L L k f V E * + .   . . . . o # .                             ",
"                  . . ; d a j 3 b 3 U Q 9 =.k v ' ' < e f T T k b a ) % 8 o . . .                                               ",
"                    . . . @ 8 m i e k k k 3 v < a > % > _ _ 2 ) 8 @ . . . .                                                     ",
"                          . . . . o = F & 8 8 = ( + . . . . . . . .                                                             ",
"                                    . . . . . . .                                                                               ",
"                                                                                                                                ",
"                                                                                                                                ",
"                                                                                                                                ",
"                                                                                                                                ",
"                                                                                                                                ",
"                                                                                                                                ",
"                                                                                                                                ",
"                                                                                                                                ",
"                                                                                                                                "};
