/* XPM */
static const char * player_idle_4_red_xpm[] = {
"64 64 169 2",
"  	c None",
". 	c #000000",
"+ 	c #060000",
"@ 	c #040000",
"# 	c #080000",
"$ 	c #020000",
"% 	c #100000",
"& 	c #2A0000",
"* 	c #3A0000",
"= 	c #200000",
"- 	c #1E0000",
"; 	c #2C0000",
"> 	c #0A0000",
", 	c #220000",
"' 	c #380000",
") 	c #3E0000",
"! 	c #140000",
"~ 	c #240000",
"{ 	c #400000",
"] 	c #580000",
"^ 	c #360000",
"/ 	c #8C2400",
"( 	c #923000",
"_ 	c #7A1400",
": 	c #3C0000",
"< 	c #160000",
"[ 	c #480000",
"} 	c #540000",
"| 	c #4C0000",
"1 	c #320000",
"2 	c #280000",
"3 	c #5C0000",
"4 	c #5E0000",
"5 	c #600000",
"6 	c #801500",
"7 	c #2E0000",
"8 	c #620000",
"9 	c #4A0000",
"0 	c #560000",
"a 	c #0C0000",
"b 	c #0E0000",
"c 	c #1A0000",
"d 	c #440000",
"e 	c #420000",
"f 	c #7E1800",
"g 	c #C09E00",
"h 	c #520000",
"i 	c #340000",
"j 	c #700D00",
"k 	c #9E4A00",
"l 	c #120000",
"m 	c #7A1700",
"n 	c #8C2E00",
"o 	c #943F00",
"p 	c #1C0000",
"q 	c #300000",
"r 	c #500000",
"s 	c #6E0D00",
"t 	c #903300",
"u 	c #8A2A00",
"v 	c #680500",
"w 	c #8C2B00",
"x 	c #260000",
"y 	c #8E2F00",
"z 	c #923A00",
"A 	c #821F00",
"B 	c #600200",
"C 	c #781400",
"D 	c #620200",
"E 	c #640200",
"F 	c #741000",
"G 	c #180000",
"H 	c #5A0000",
"I 	c #821C00",
"J 	c #6E0500",
"K 	c #460000",
"L 	c #A86700",
"M 	c #902F00",
"N 	c #862600",
"O 	c #7E1B00",
"P 	c #660200",
"Q 	c #740B00",
"R 	c #680200",
"S 	c #4E0000",
"T 	c #761100",
"U 	c #943800",
"V 	c #923700",
"W 	c #C4A600",
"X 	c #9E4E00",
"Y 	c #640000",
"Z 	c #720B00",
"` 	c #760E00",
" .	c #6A0500",
"..	c #7C1700",
"+.	c #6E0A00",
"@.	c #660500",
"#.	c #862000",
"$.	c #7A1100",
"%.	c #A65E00",
"&.	c #7C1200",
"*.	c #760B00",
"=.	c #761300",
"-.	c #842500",
";.	c #801B00",
">.	c #841F00",
",.	c #842200",
"'.	c #720800",
").	c #A25800",
"!.	c #A66200",
"~.	c #A45900",
"{.	c #780E00",
"].	c #6E0800",
"^.	c #984000",
"/.	c #6C0800",
"(.	c #B07800",
"_.	c #C4A100",
":.	c #700800",
"<.	c #963800",
"[.	c #882600",
"}.	c #680000",
"|.	c #CAAB00",
"1.	c #DAC300",
"2.	c #D6BF00",
"3.	c #F49B00",
"4.	c #EA9500",
"5.	c #941800",
"6.	c #720D00",
"7.	c #AA6400",
"8.	c #9E4700",
"9.	c #922D00",
"0.	c #A25400",
"a.	c #AC7100",
"b.	c #CCB51A",
"c.	c #862300",
"d.	c #984400",
"e.	c #D2BD10",
"f.	c #6A0000",
"g.	c #6C0000",
"h.	c #660000",
"i.	c #700B00",
"j.	c #C4AB00",
"k.	c #A86300",
"l.	c #700000",
"m.	c #6E0000",
"n.	c #6C0500",
"o.	c #7E1500",
"p.	c #BE5900",
"q.	c #B04B00",
"r.	c #860D00",
"s.	c #BC9600",
"t.	c #BA5800",
"u.	c #F3A40B",
"v.	c #C25B00",
"w.	c #880300",
"x.	c #860300",
"y.	c #7C0000",
"z.	c #7E0000",
"A.	c #9C1200",
"B.	c #840300",
"C.	c #760000",
"D.	c #8A0600",
"E.	c #780000",
"F.	c #820300",
"G.	c #6A0200",
"H.	c #900A00",
"I.	c #940E00",
"J.	c #8C0700",
"K.	c #A01A00",
"L.	c #A61F00",
"                                                                                                                                ",
"                                                                                                                                ",
"                                                                                                                                ",
"                                                                                                                                ",
"                                                                                                                                ",
"                                                                                                                                ",
"                                                                                                                                ",
"                                                                                                                                ",
"                                .                                                                                               ",
"                          . . + @ . # . .     . .                                                                               ",
"                        . $ % & * . % = = @ . - ; + .                                                                           ",
"                    . . > , ' * ) ! + ~ { ] ^ / ( _ : .                                                                         ",
"                  . . < [ ' : } | 1 @ = 2 3 ^ } 4 } 5 6 $                                                                       ",
"                . # = 7 8 9 [ | 0 ) a b c d e [ } 8 f g 9 .                                                                     ",
"            . . # 5 h i ) j k { 7 i # b a @ l d m n o n = .                                                                     ",
"          . @ p q : | r 2 s t t : = + ~ [ ^ ! $ 7 j u v @ .                                                                     ",
"        . + } w ^ x r 0 ) 7 y z A ~ b : 4 B 0 ) # # | + . . . . . . . . . . . .                                                 ",
"      . @ : r ] ' q 1 9 d 7 } C D > l } u s B E F & . . . # G ~ & 2 q r i l l . . . .                                           ",
"      @ 9 H = i I J & * q i K G . & ) < h L M t N O ) . > & * r 8 P Q R [ S 4 K p b @ . .                                       ",
"    . ~ T U S 2 r 0 * x 7 ~ c @ r V P S ! < g W } _ X - . ! ' Y R Z `  .9 H Q Q 9 r : c . .                                     ",
"    . 7 F z o S ; 4 } { | ! + P ..+.8 4 : ~ b @.#.$.%.p . . - S P &.Z  .3 ] *. .9 E | 3 h x . .                                 ",
"    . $ p =.-.;.q h } H < p >.,.f Y 5 ] { h ~ . i Z c % 4 a . = } &.'. .5 { ) K 0  .|  .R 8 K # .                               ",
"    . ~ + @ - 1 % a x a p O C ).!.P 3 e : & $ + . b G K ~.u . + ; {.Q  .4 r P ].} ].9 ` $.R 5 9 G .                             ",
"  . . 0 i p @ + a < # c j j ^.L %./.{ p # . - S = . = P (._.C . # S $. .4 9 3 8 0 ` S $.&.:.P 5 9 2 . .                         ",
"    . r | x + x ' K p G ] +.+.<.[.) # ' }.i + 1 [ % . K |.1.2.9 . a Z ].4 : 9 S H  .r &.&.:.E 4 9 { & $                         ",
"    . & 7 2 # ~ 9 T h > K E ) % @ . 2 3.4.5.* + . @ . . ) 6.%.7.| . | *.4 * {.:.S E ] &.&.4 r | e ) { , .                       ",
"  . 7 t [ 1 a < 3 ~.8.+ d & . $ % ! 2 ~ 2 q ^ i x l + . . . . . q G a E E ) E  .9 5 0 :.9 a ) ) ) ) ) q .                       ",
"  @ 9.0.4 9 p a 8 a.b.G > . < d S i | 0 ] 3 5 5 3 d 1 - - : 1 ! @ $ > . + b 7 e { K 0 8 . c [ 9 S [ { ~ .                       ",
"  . ( c.f h 1 + H d.e.- . p [ ] 3 0 H }.f.f.g.f.0 ' 0 h - ; } * * ; + % . . . # < 2 e | . ; H 0 0 8 0 q .                       ",
"  . q h 3 0 e a d d.~.@ l d 3 4 }.f.5 f.h.}.8 ] { [ 8 5 { - H ] 9 ' 1 $ G . # . . . . > . : :.{.&.'.3 * .                       ",
"    > 3 0 ] d ~ b i.D + ~ H 5 g.g.}.f.f.}.}.f.0 9 9 g.}.4 , S g.0 0 0 c ~ > . .     . $ @ [ Z &.$.&.Y ) .                       ",
"    . ].j.k.9 ' @ K ' ! i 3 8 h.f.}.Y 4 f.f.f.g.0 e l.g.5 q ^ m.4 5 3 ) . ! a .       . p h *.&.$.$.n.' .                       ",
"    . 2 { l . . . ~ x G & ^ h 4 h.f.} S h.f.f.f.] [ l.m.8 q ' g.8 5 3 K $ K | @ .     . = } ` &.$.{.8 ; .                       ",
"      . . . . . $ $ b ! i | H 8 Y }.h.5 f.f.f.g.3 d l.m.}.1 ' m.4 4 4 d @ ] { l .     . < 0 {.&.E {.] p .                       ",
"            . = @ $ . a & [ 5 Y }.}.f.g.f.f.f.5 ] [ m.m.}.; d g.} ] ] q - S 1 + .     . % H &.&.E H K > .                       ",
"          . c * = + . . < K ] 5 h.Y Y Y Y Y } S d } h.}.r ~ { ] S ) d . ^ ^ c .       . G Y &.&./.H i .                         ",
"          . 1 * ^ ! a . @ x r ] 3 9 S 5 8 5 H e e : | r x 7 e * e ) b $ + = . .       . q '.&.&.].5 = .                         ",
"        . % | 4 h ' < @ . @ & [ | ^ S 3 3 4 5 5 0 : q 2 7 e : ; G $ @ . . . .       . $ e  .` o.{.4 ! .                         ",
"        . x P R P 8 q ! . @ . b x ; : d 9 [ d ) i q l > a # . . $ # .     .         . a [ { e ] '.S @ .                         ",
"        . e '.&.$.'.] x > # { . . . [ p.q.r.H - + . . ! ! G * 1 > .                 . ! Y Z R 0 d ^ $                           ",
"      . $ 4 {.&.&.&.'.S p $ H s.c.{ a t.u.v.~ > [ w.x.y.3 l.h . .                   . . a ' E {.8 x .                           ",
"      . > P &.&.&.&.&.n.{ b . c ~ ^ D & . + * z.A.B.Y 0 C.* $                         . $ . $ > c > .                           ",
"      . % ].&.&.&.&.&.` R :.n.i # . . @ $ . 1 g.g.3 3 ] < .                     . . $ % 2 S K G $ . $ .                         ",
"      . < ` &.&.&.&.&.&.$.i.3 { | [ q ! + . . c [ Y H # .           . . . . . . G ] y.D.] ~ ~ , . # @ $ . $ $ $ $ $ $ $ $ .     ",
"      . < Z &.&.&.&.&.Q n.P { h Q E ) K * ' p $ + a $ . . . $ . . . . + G q & . [ E.F.} $ , i i ^ ^ : ^ 7 q q 1 1 i 1 1 1 , .   ",
"      . >  .&.&.&.&.` G.R S e 0 ` [ 3 S H R 4 : ~ . + l = 7 e e * ' d ] 9 } E $ 1 D.z.: # < 7 ^ [ i 1 ^ q i ; ^ ^ i ^ i & q b   ",
"        . ) *.&.$.$.R v H [ E } 9 5 E S n.:.8 h ' i K } 4 5 8 8 E :.{.o.] [ $.% ! F.H.S $ 7 ] } } h h h { ) e 9 | 9 | 9 9 q $   ",
"        . $ 0 *.&.Z  .E d 9 :.R r Q 3 :.` Q 8 H ) { S 5 $.&.&.&.&.&.&.&.Q ) $.) . 3 I.J.& l < - a @ ! # $ $ @ @ $ $ $ $ $ .     ",
"          . > 9 Q n.5 { P r | r :.].r &.&.Z 8 3 { { r 4 &.$.&.$.'.` Z $.o.[ P 8 . 1 l.J.K.L.w.7 a x q .                         ",
"            . . : P e 0 {.&.S 4 ].S n.&.Q ].8 H ) ) ] 8 &.{.&.$.3 5 n.R *.} K S + . . . ! - . = ] $ .                           ",
"              . . ! p r 8  .| E 5 } &.$.Z  .5 0 ) ) r 4 n.$.{.'. .r | r e & < # . .           . .                               ",
"                  . . > , 2 ) h [ E  .E 8 8 3 | ) * ) | 0 ] 0 | ' 2 a + . . . .                                                 ",
"                      . . . $ b G 1 9 } h d : ^ q % @ # b b a + . . . .                                                         ",
"                          . . . . . . . . . . . . . . . . . .                                                                   ",
"                                                                                                                                ",
"                                                                                                                                ",
"                                                                                                                                ",
"                                                                                                                                ",
"                                                                                                                                ",
"                                                                                                                                ",
"                                                                                                                                ",
"                                                                                                                                ",
"                                                                                                                                ",
"                                                                                                                                "};
