/* XPM */
static const char * player_shoot_1_red_xpm[] = {
"64 64 172 2",
"  	c None",
". 	c #000000",
"+ 	c #060000",
"@ 	c #040000",
"# 	c #080000",
"$ 	c #020000",
"% 	c #100000",
"& 	c #2C0000",
"* 	c #3A0000",
"= 	c #0E0000",
"- 	c #260000",
"; 	c #2A0000",
"> 	c #220000",
", 	c #440000",
"' 	c #0A0000",
") 	c #200000",
"! 	c #3C0000",
"~ 	c #400000",
"{ 	c #1A0000",
"] 	c #5A0000",
"^ 	c #861C00",
"/ 	c #8C2400",
"( 	c #740E00",
"_ 	c #5C0000",
": 	c #140000",
"< 	c #360000",
"[ 	c #560000",
"} 	c #4E0000",
"| 	c #320000",
"1 	c #1E0000",
"2 	c #280000",
"3 	c #3E0000",
"4 	c #500000",
"5 	c #540000",
"6 	c #580000",
"7 	c #983900",
"8 	c #0C0000",
"9 	c #1C0000",
"0 	c #300000",
"a 	c #460000",
"b 	c #420000",
"c 	c #660200",
"d 	c #8A2700",
"e 	c #B27E00",
"f 	c #761100",
"g 	c #340000",
"h 	c #6C0A00",
"i 	c #9A4500",
"j 	c #761300",
"k 	c #8C2B00",
"l 	c #943F00",
"m 	c #903300",
"n 	c #160000",
"o 	c #480000",
"p 	c #4A0000",
"q 	c #720D00",
"r 	c #8E2F00",
"s 	c #923700",
"t 	c #180000",
"u 	c #640200",
"v 	c #842200",
"w 	c #660500",
"x 	c #882600",
"y 	c #380000",
"z 	c #520000",
"A 	c #8A2D00",
"B 	c #923A00",
"C 	c #600200",
"D 	c #620200",
"E 	c #680500",
"F 	c #7E1B00",
"G 	c #7C1400",
"H 	c #740B00",
"I 	c #A65E00",
"J 	c #964000",
"K 	c #240000",
"L 	c #760E00",
"M 	c #6C0500",
"N 	c #5E0000",
"O 	c #120000",
"P 	c #700B00",
"Q 	c #8A2A00",
"R 	c #4C0000",
"S 	c #D4BF08",
"T 	c #600000",
"U 	c #700800",
"V 	c #A86700",
"W 	c #2E0000",
"X 	c #720800",
"Y 	c #7A1100",
"Z 	c #801E00",
"` 	c #781100",
" .	c #A86300",
"..	c #6A0500",
"+.	c #6E0800",
"@.	c #680200",
"#.	c #842500",
"$.	c #862300",
"%.	c #741000",
"&.	c #821F00",
"*.	c #7C1700",
"=.	c #640000",
"-.	c #620000",
";.	c #701000",
">.	c #A04F00",
",.	c #A45D00",
"'.	c #984000",
").	c #AA6800",
"!.	c #780E00",
"~.	c #680700",
"{.	c #821C00",
"].	c #BC9600",
"^.	c #AE7300",
"/.	c #7C1200",
"(.	c #6E0A00",
"_.	c #6E0D00",
":.	c #943400",
"<.	c #984400",
"[.	c #C2A000",
"}.	c #D4BE00",
"|.	c #D4BA0C",
"1.	c #7A1400",
"2.	c #6A0700",
"3.	c #F89800",
"4.	c #D79F47",
"5.	c #C46100",
"6.	c #943800",
"7.	c #AE6F00",
"8.	c #7E1800",
"9.	c #902F00",
"0.	c #A45500",
"a.	c #760B00",
"b.	c #A85F00",
"c.	c #CBB521",
"d.	c #882000",
"e.	c #841F00",
"f.	c #943B00",
"g.	c #D4BF0C",
"h.	c #6A0000",
"i.	c #660000",
"j.	c #C09E00",
"k.	c #680000",
"l.	c #6C0000",
"m.	c #9C4600",
"n.	c #AA6C00",
"o.	c #700D00",
"p.	c #A45900",
"q.	c #6E0000",
"r.	c #720B00",
"s.	c #D9C203",
"t.	c #A25400",
"u.	c #F49B00",
"v.	c #E1A469",
"w.	c #DC9D3A",
"x.	c #720000",
"y.	c #781400",
"z.	c #800000",
"A.	c #940E00",
"B.	c #740000",
"C.	c #700000",
"D.	c #7A0000",
"E.	c #7E1500",
"F.	c #6C0800",
"G.	c #860600",
"H.	c #7E0000",
"I.	c #880A00",
"J.	c #981200",
"K.	c #961200",
"L.	c #8C0700",
"M.	c #9C1200",
"N.	c #980E00",
"O.	c #A01700",
"                                                                                                                                ",
"                                                                                                                                ",
"                                                                                                                                ",
"                                                                                                                                ",
"                                                                                                                                ",
"                                                                                                                                ",
"                                                                                                                                ",
"                                                                                                                                ",
"                                . .                                                                                             ",
"                          . . + @ . # $ . .   . .                                                                               ",
"                        . . % & * . = - ; + . > , ' .                                                                           ",
"                    . . ' ) ! * ~ { @ > * ] ! ^ / ( _ '                                                                         ",
"                  . . : , < ! [ } | @ 1 2 _ 3 4 _ 5 6 7 8                                                                       ",
"                . @ 9 0 _ a ~ a 6 ! 8 8 : ! , b 4 c d e f .                                                                     ",
"            . . + [ 4 g a h i , 0 < # = % @ = < j k l m & .                                                                     ",
"          . $ n | 3 o p ; q r s 3 > + > p ! t + 9 u v w . .                                                                     ",
"        . $ o x y - z [ b ; A B v ; ' y _ C ] o n $ | = . . . . . . . . . . . . .                                               ",
"      . $ | _ D * 0 0 p , & 5 ( E = % p x f C D F b . . . 8 9 2 g y * _ o { 1 # . . .                                           ",
"      . ! 6 1 0 G H & * g g o 9 $ 1 , n * I J m d j _ + + K g 4 c c L M z a N 5 K O @ . .                                       ",
"    . 1 P Q R - 6 [ * - 0 K > @ o r E 4 9 O m S T U V * . # W N c X Y M 5 p H H p 5 ! ) $ . .                                   ",
"    . & j B B R W _ 6 ! 4 9 @ } Z P u T b ; 8 4 ^ `  .; # . % 3 T Y L ..T p +.@., u 6 6 5 - $ .                                 ",
"    . @ > #.A $.| ] 4 C 9 O %.&.*.=.T ] , R < $ n P ) ' w K . : 3 Y L ..-.~ ~ , } M 6 @...-.o ' .                               ",
"    . { @ + & b 9 O W n % ;.F >.,.+.N a * 0 $ # . ' : 3 '.).9 . { ..!...N o @.X R U [ H Y @.T R n .                             ",
"    . a 0 { @ @ # % # = ~.q s  .I {.a g : . ' a 0 . = 6 I ].^.' . < /...N a _ -.} !.z Y /.U c N p 1 .                           ",
"    . , 6 2 + > | 3 ) % 5 (._.:.<.6 | + = | n @ 2 1 . : [.}.|.1.@ $ +.U N ! 4 5 z U 5 /./.P c N } ~ - .                         ",
"    . - g 2 # 1 o .._ @ ~ C 2.D K # $ # 3.4.5.o $ $ $ . ; &.6.7.8.' < H _ * L U o c 6 !./.] z 4 a 3 b > .                       ",
"  . = P a 0 O % 5 9.0.# y P R . . + 8 ) ) ) - ; ; 1 ' $ . . . . . 9 @ T T ! -.c a T z +.a @ ! 3 3 3 3 * $                       ",
"  . a.b.-.R > + [ ,.c.< ; W . 8 y o W a z 5 6 _ _ [ b & { t < ; % . $ $ # ' 2 a 3 b z ..@ n a p p b 3 & .                       ",
"  . d.k e.4 y + a f.g.D + . O , [ ] 5 5 -.h.h.h.i._ * } R 9 ; z ! < 1 @ $ . . + { ; b } . W ] z 6 T z 0 .                       ",
"  . - =.D _ , O 0 <.j.m . = ! 6 N i.h.N h.k.h.i.N a * T -.p 1 } ] o * < . @ @ . . . . # @ o L !.!.@.[ * .                       ",
"    @ T o [ , & # M <.f . 9 5 T h.l.i.k.h.k.k.k.5 o ! h.k.N - a l.6 [ z ) @ . .     . $ O 5 /./.Y Y N 3 .                       ",
"    . R m.n.z ~ + | &.R 8 ; _ T k.h.k.k.=.h.h.h.l.[ * l.l.T | g l.-.N ] , . ) .       . W _ Y /.!./.c 0 .                       ",
"    . K o.* # @ . = p.< n W y 4 N i.k.z 4 k.h.h.h._ , h.q.T < | q.=.N ] R @ 4 > .     . < N /.Y /.Y _ 1 .                       ",
"      . . . . . . . a : : < a _ T =.h.-.6 h.h.h.h.N 3 h.q.i.< | q.-._ ] p $ ~ ; .     . g T /.L M H z # .                       ",
"            . % # $ . + ' ; p T =.k.i.h.h.h.k.h.-._ ~ h.q.k.| y q.6 [ 4 b @ < n .     . < ../.H [ u y .                         ",
"            # < - @ $ 8 . { , 6 -.i.i.i.i.i.k.] z o R h.h.N - 3 k.4 o 4 O 9 - . .   . . ~ L /.r.@.R ) .                         ",
"          . > * y 9 ' $ $ + W z 6 N [ z N T T ] ! ! * 4 ] & 2 ~ 3 ~ ! > . t # .     . # _ /./.H ..p @ .                         ",
"          $ y z R * n # + $ + g p 4 ! o N N T -.-.] ~ g 0 - ! b y ; ' . . . .       . K =.!././.@., .                           ",
"        . ' N @.c -.* 9 . 2 8 @ t 0 & ~ R 4 4 R a 3 y 9 % 9 t 8 @ . . .             $ 3 a ~ z r...- .                           ",
"        . n M !.!.U T 0 % . ( - . . @ < l.i.5 o & n . . $ @ 8 % $ . .               + p U c } , b = .                           ",
"        . y H /././.L ] > + 1 s.t.p % $ u.v.w.} . - x.N ] N h.' .                   . @ - @./.M 3 $ .                           ",
"        . 4 !././././.X R : . < 1.1.y.u . + @ * z.A.B.] h.6 8 .                     . $ . . { W 1 .                             ",
"        $ 6 /././././.Y @..._ n . . $ 9 K . { =.B.i.[ =.0 . .                     . @ ' t t ' . . . .                           ",
"        @ u /./././././.Y U -.b * g { @ . . . K p T C.- .             . . . . @ < =.D._ a b 3 $ . $ . .                         ",
"        + -.E././.Y /.L F.@., a +.T ! ! 2 n @ . 1 g = . $ . . . . . . @ % 1 $ & x.G.g $ t { t 1 K ) { { { { { { { t t @         ",
"        $ [ /./.Y /.!...@.4 3 @./.R 5 a z T } > # . . @ ' K & K 9 ) y p a T { O H.I.' 8 & < R < < y g < | y < y y < 0 1 @       ",
"        . ) H /./.Y ..E _ o _ a z 5 u 4 ..+.-.a t K g , } [ 6 6 N @.H L b @.o . C.J.8 O p 4 6 o o o b b ~ a o , , a b > $       ",
"        . . o a./.H ..u o ] X ..4 X T c U r.-.4 ~ a ] H !.!.Y Y /./././.R 6 H + | K.p + 1 9 1 > ) ) % 8 : n n n n : : .         ",
"          . @ R a.M -., N 3 ] } +.U R !./.H u 5 ~ p R L /./././.Y Y Y /.-.a E.> t L.M.J.N.O.l.@ + - .                           ",
"            . $ z c b [ /.a.p T U 5 M /.!.+.u z 3 p ] Y Y !.Y M N M M H r.~ N 0 . = 1 3 z ) = 2 = $                             ",
"              . 8 | 0 _ ..U p u -.z E.Y U ..-.4 3 a -.+./.!.!.!.N [ N ] R < K 8 . . . . . . $ .                                 ",
"                  . $ 1 ! ~ } N o u U ..@.T N R 3 3 5 ] T @.T [ a 0 n % + $ . .                                                 ",
"                    . . . @ n 2 g [ N T N 6 4 a ~ 1 2 | < | - { # . . . .                                                       ",
"                        . . . . . $ # = % ' ' + $ . . . . . . . .                                                               ",
"                                    .   . . .                                                                                   ",
"                                                                                                                                ",
"                                                                                                                                ",
"                                                                                                                                ",
"                                                                                                                                ",
"                                                                                                                                ",
"                                                                                                                                ",
"                                                                                                                                ",
"                                                                                                                                ",
"                                                                                                                                "};
