/* XPM */
static const char * player_shoot_2_red_xpm[] = {
"64 64 172 2",
"  	c None",
". 	c #000000",
"+ 	c #020000",
"@ 	c #0A0000",
"# 	c #060000",
"$ 	c #040000",
"% 	c #080000",
"& 	c #220000",
"* 	c #3E0000",
"= 	c #120000",
"- 	c #1E0000",
"; 	c #2E0000",
"> 	c #100000",
", 	c #0E0000",
"' 	c #520000",
") 	c #1A0000",
"! 	c #180000",
"~ 	c #360000",
"{ 	c #380000",
"] 	c #420000",
"^ 	c #320000",
"/ 	c #500000",
"( 	c #400000",
"_ 	c #660200",
": 	c #942D00",
"< 	c #7A1400",
"[ 	c #740E00",
"} 	c #240000",
"| 	c #340000",
"1 	c #4A0000",
"2 	c #4E0000",
"3 	c #540000",
"4 	c #580000",
"5 	c #5A0000",
"6 	c #902900",
"7 	c #3C0000",
"8 	c #160000",
"9 	c #660500",
"0 	c #3A0000",
"a 	c #440000",
"b 	c #5E0000",
"c 	c #200000",
"d 	c #300000",
"e 	c #480000",
"f 	c #7C1400",
"g 	c #984400",
"h 	c #AE7300",
"i 	c #6A0700",
"j 	c #A04F00",
"k 	c #2A0000",
"l 	c #140000",
"m 	c #640200",
"n 	c #862300",
"o 	c #923700",
"p 	c #903600",
"q 	c #0C0000",
"r 	c #8A2A00",
"s 	c #964300",
"t 	c #620200",
"u 	c #280000",
"v 	c #4C0000",
"w 	c #7C1700",
"x 	c #842200",
"y 	c #801E00",
"z 	c #560000",
"A 	c #6C0A00",
"B 	c #923A00",
"C 	c #903300",
"D 	c #260000",
"E 	c #600200",
"F 	c #2C0000",
"G 	c #460000",
"H 	c #7E1B00",
"I 	c #841F00",
"J 	c #640500",
"K 	c #5E0200",
"L 	c #761300",
"M 	c #680700",
"N 	c #861C00",
"O 	c #1C0000",
"P 	c #A65A00",
"Q 	c #8C2B00",
"R 	c #943B00",
"S 	c #761100",
"T 	c #640000",
"U 	c #700800",
"V 	c #6C0500",
"W 	c #600000",
"X 	c #5C0000",
"Y 	c #6E0A00",
"Z 	c #822200",
"` 	c #D4BB10",
" .	c #A45500",
"..	c #6A0200",
"+.	c #7A1100",
"@.	c #620000",
"#.	c #720B00",
"$.	c #740B00",
"%.	c #964000",
"&.	c #700B00",
"*.	c #741000",
"=.	c #6A0500",
"-.	c #963C00",
";.	c #7C1200",
">.	c #680500",
",.	c #8C2E00",
"'.	c #680200",
").	c #6E0800",
"!.	c #8A2700",
"~.	c #B07800",
"{.	c #7E1500",
"].	c #801B00",
"^.	c #A86700",
"/.	c #A65E00",
"(.	c #9C4600",
"_.	c #8C2800",
":.	c #B88F00",
"<.	c #D2BC00",
"[.	c #700D00",
"}.	c #7E1800",
"|.	c #A05300",
"1.	c #D0BA00",
"2.	c #D7C107",
"3.	c #AE6F00",
"4.	c #760E00",
"5.	c #DB9C41",
"6.	c #DD9B33",
"7.	c #A02600",
"8.	c #781400",
"9.	c #9A4500",
"0.	c #C0A300",
"a.	c #AA6400",
"b.	c #B47F00",
"c.	c #9C3E00",
"d.	c #923400",
"e.	c #862600",
"f.	c #D8C100",
"g.	c #922D00",
"h.	c #B89300",
"i.	c #BA9000",
"j.	c #660000",
"k.	c #6A0000",
"l.	c #680000",
"m.	c #9C4900",
"n.	c #780E00",
"o.	c #6C0000",
"p.	c #983D00",
"q.	c #6E0000",
"r.	c #720800",
"s.	c #7C1A00",
"t.	c #D39C5B",
"u.	c #E0A46A",
"v.	c #E07E00",
"w.	c #740000",
"x.	c #760000",
"y.	c #6C0800",
"z.	c #800000",
"A.	c #9A1200",
"B.	c #800300",
"C.	c #700000",
"D.	c #7E0000",
"E.	c #840300",
"F.	c #7E0300",
"G.	c #840600",
"H.	c #920A00",
"I.	c #6E0500",
"J.	c #760B00",
"K.	c #940E00",
"L.	c #8E0700",
"M.	c #9C1200",
"N.	c #980E00",
"O.	c #A01700",
"                                                                                                                                ",
"                                                                                                                                ",
"                                                                                                                                ",
"                                                                                                                                ",
"                                                                                                                                ",
"                                                                                                                                ",
"                                                                                                                                ",
"                                                                                                                                ",
"                                . .                                                                                             ",
"                            . + @ . # $ . .   . . .                                                                             ",
"                        . . % & * = + - ; > . , ' ) +                                                                           ",
"                      . $ ! ~ { ] ; . ) ^ / ( _ : < [ } .                                                                       ",
"                    . % | 1 | 2 3 ( > > } ] ' ( 4 5 2 6 7 .                                                                     ",
"                . . 8 & 2 9 0 a b 1 c # , d e ( 2 b f g h $ .                                                                   ",
"              . + ^ i ^ a ( j 9 k * l @ l # % & m n o p 5 .                                                                     ",
"            . q } 7 1 3 d ] r s t u @ 8 0 v & @ # v w x ! .                                                                     ",
"          . } y z } { 4 2 k A B C / @ D ' E b / F + ) k . . . . . . . . . . . . .                                               ",
"        . ) 1 [ a | u G 1 d ] A H k # F < I J K L E = . . # ! } d 0 | z z D - l . . . .                                         ",
"      . ) M k } _ N 7 ^ 0 F 1 F % @ ] } O r P Q R S < O . ) ^ ] T _ U V W 7 b X 0 O % . .                                       ",
"      $ 5 x Y & 2 4 / D F } F % O Z w 5 ^ % e ` f 4  .w . + & v _ ..+.V @.7 #.$.b ' 1 d > . .                                   ",
"    . = b B %.&.u 2 5 * v { + u I *.=.b / ^ ! D < +.-.5 q . # F z #.;.=.>.1 ..U v X W G @.7 , .                                 ",
"    . + , >.,.Q 2 ( / '.~ q 1 C L &.W W / 0 3 % + t a % ( 5 . @ F ).+.'.'.1 ( a G '.@.3 ).@.W - . .                             ",
"    . l , . O ] F > - D $ 2 I !.j n W / 7 ~ , + $ # q | #.~.' . , 2 {.=.'.e @.$./ V @.X {.U W X ; $ .                           ",
"    . k e c % $ # , > + a w ].^./.(./ { - . + 7 e @ + ( _.:.<.0 . l #.).'.G 3 T v U m _ {.$.).W 3 ~ % .                         ",
"    . ! [.; > = ; 0 7 $ * M Y }.|.[ ^ + O { % , a d # . r 1.2.3.k . { $.=.( 2 4 v V W ).;.4.=.@.z ] 7 % .                       ",
"    . $ v u 8 q ( z N , D 5 9 a O @ . v 5.6.7.& . $ # . q 8.9.0.a.F q +.'.] W {.e W 5 $.;.U z ' v ( ( 7 #                       ",
"  . $ z 5 7 - $ ] #.b.k ! X D . + % > & - & D k u ) # + . . . . + 3 l | V e 2 ).1 X 3 =.V = d * * * * * > .                     ",
"  . F c.d.' { $ { e.f.I @ > . 8 ( ] d 1 3 z 5 b 5 ' * u 8 - ~ } % . % q $ % l * * e ] >.D + * G 2 e ] * % .                     ",
"  . F g.g 4 e = } f h.i.. . & 2 4 5 2 4 j.k.k.k.l.' ~ 3 * ) 7 2 0 ; ) # = . . . = } ^ z 8 q / z 2 W X e @ .                     ",
"    . _ / m 1 d $ n m.&.. 8 e b b k.j.T k.l.l.T 3 7 2 T W d } b 1 G { O > 8 + + . . . % + O W n.{.$.W / q .                     ",
"    . 3 a 5 1 7 # ] !.; @ u X W k.k.l.l.k.j.l.j./ 7 3 o.T z c X k.4 2 3 @ c . . .     + . ; _ {.;.;.U z , .                     ",
"    . ! p.~.[ 7 > ! W ) ) ( W T k.l.k.j.j.k.k.k.k.e 1 q.k.X u G o.b W b u + D % .       % a =.;.+.n.n.' q .                     ",
"      + A z = $ + . @.= O ^ ( z W l.l./ 3 o.k.k.k./ 2 q.o.X u G o.W W X ^ @ ' 7 + .     q v V ;.+.n.r.v % .                     ",
"      . . . . . . . = q - ( v X @.j.l.X b k.k.k.o.' 1 q.q.@.u G q.X W b d > ' { $ .     % v ).{.U $.=.( +                       ",
"            . # > + . . 8 0 ' @.j.l.l.k.k.l.l.k.@.' 1 o.q.T D v k.3 4 b } O ( D .     . $ v 4.;.U 5 X & .                       ",
"            . u | @ % . $ } 2 X @.l.T l.T j.j.3 3 ( X o.l./ D 2 X 2 ] 2 . d | % .     . % 3 ;.;.).@.a # .                       ",
"          . , 7 0 k % $ . , * 3 5 b v z W W b z ~ 7 ] z / D ^ ] { ( 7 q . @ = .       . ) @.;.;.U '.{ .                         ",
"          . } 1 ' ( & , . . = * 2 v ~ ' b b W @.@.3 | 0 u k ( * 7 c $ + . . .         . F ).;.;.;._ | .                         ",
"          . a m '.m 2 } % + . % & d ~ a 2 / v 1 a 7 ~ l 8 ! l @ + . + .               . 7 ] a 4 #.W - .                         ",
"        . . z $.+.$._ ] ) + 8 8 . . % ' o.W ' 7 D > . . # # q O % $ .                 $ ' ).b v ] ] @ .                         ",
"        . % V ;.;.;.;._ ~ = . -.s.( # 0 t.u.v.c . ] w.x.j.4 x.; .                     . @ ~ #.{.).0 .                           ",
"        . c r.;.;.;.;.n.b } . q y.8.b 1 q + + | z.A.B.b b q.& .                       . . . + - k l .                           ",
"        . d 4.;.;.;.;.;.).m '.G # . . % & + $ v w.o.4 W v # .                       . $ @ ! ! @ + . . .                         ",
"        . 7 ;.;.;.;.;.;.;.n.V z 0 0 F > . . . , * z C.e $ .           . . . . . + ~ T D.k.a ] 0 . + + + .                       ",
"        . ( +.;.;.;.+.;.r.=.X 0 X ).2 ( ~ & > . # d c . . + . . . . . . # = O . ~ w.E.b . 8 ) ! - & } O ) ! ) ) ) ! ) ! ! .     ",
"        . k n.;.;.+.;.U =._ a e n.V a 5 ( @.X 7 - $ . + $ q u k & ) } 0 e e _ > ! F.G.; # O ^ / | { ~ ~ ~ d { ~ { { { ~ | ! .   ",
"        . . b ;.;.;.$.'._ 1 z 3 1 / @.b 3 ).'.b 7 ! u { G / z 4 4 W =.$.=.( $.{ $ x.H.^ # ^ / b G e 1 G ] * G G G a a a a ) .   ",
"          . } I.+.;.=.=.5 a @.n./ @.y.' r.U V b G ( e b J.n.n.+.+.{.;.;.n.] =.W . 1 K.w.# ) O - c c c - q q 8 8 8 8 8 l = .     ",
"            . D V r.=.4 e ' ] @.3 n.@.m ;.+.y.W e * 1 3 +.;.;.;.+.+.+.;.{.4 z n.% d L.M.A.N.O.o.. % 0 .                         ",
"            . . ) =.X * =.;.@.e V '.1 n.;.4.'.@.e * 2 5 +.+.+.+.T @.V y.n.).a W ) . , c * / - q e 8 #                           ",
"              . . O ^ ] m ).4 3 _ 3 _ {.4.U m b G 7 1 W U ;.+.n.4.5 4 X 5 e | c % .   . . . . + . .                             ",
"                  . . % F 7 ] 4 5 v U y.'._ W 5 ] * ( 3 5 W _ b ' ] F ! , $ . . .                                               ",
"                    . . . . q - k ] X b W b z v a ~ O u | ~ ; } ! # . . . .                                                     ",
"                          . . . . . $ @ > , @ % $ . . . . . . . . .                                                             ",
"                                      .   . . .                                                                                 ",
"                                                                                                                                ",
"                                                                                                                                ",
"                                                                                                                                ",
"                                                                                                                                ",
"                                                                                                                                ",
"                                                                                                                                ",
"                                                                                                                                ",
"                                                                                                                                ",
"                                                                                                                                "};
