/* XPM */
static const char * player_reload_3_red_xpm[] = {
"64 64 181 2",
"  	c None",
". 	c #000000",
"+ 	c #020000",
"@ 	c #060000",
"# 	c #1E0000",
"$ 	c #200000",
"% 	c #140000",
"& 	c #2E0000",
"* 	c #0C0000",
"= 	c #420000",
"- 	c #7C1200",
"; 	c #3E0000",
"> 	c #080000",
", 	c #380000",
"' 	c #4A0000",
") 	c #0E0000",
"! 	c #040000",
"~ 	c #260000",
"{ 	c #5E0000",
"] 	c #7E1500",
"^ 	c #801500",
"/ 	c #6A0500",
"( 	c #7A1100",
"_ 	c #4E0000",
": 	c #0A0000",
"< 	c #280000",
"[ 	c #440000",
"} 	c #480000",
"| 	c #340000",
"1 	c #180000",
"2 	c #240000",
"3 	c #540000",
"4 	c #580000",
"5 	c #5A0000",
"6 	c #520000",
"7 	c #A65E00",
"8 	c #720D00",
"9 	c #220000",
"0 	c #4C0000",
"a 	c #460000",
"b 	c #400000",
"c 	c #300000",
"d 	c #560000",
"e 	c #500000",
"f 	c #5C0000",
"g 	c #120000",
"h 	c #740E00",
"i 	c #903300",
"j 	c #943B00",
"k 	c #862300",
"l 	c #1C0000",
"m 	c #680200",
"n 	c #640200",
"o 	c #620000",
"p 	c #3A0000",
"q 	c #320000",
"r 	c #360000",
"s 	c #100000",
"t 	c #1A0000",
"u 	c #7C1A00",
"v 	c #8A2D00",
"w 	c #8C2E00",
"x 	c #740B00",
"y 	c #720B00",
"z 	c #700B00",
"A 	c #3C0000",
"B 	c #6C0A00",
"C 	c #A65A00",
"D 	c #8A2A00",
"E 	c #2C0000",
"F 	c #720800",
"G 	c #660200",
"H 	c #761300",
"I 	c #923A00",
"J 	c #600200",
"K 	c #620200",
"L 	c #160000",
"M 	c #6E0800",
"N 	c #780E00",
"O 	c #6C0500",
"P 	c #700800",
"Q 	c #882600",
"R 	c #8E3200",
"S 	c #923700",
"T 	c #862600",
"U 	c #660500",
"V 	c #5E0200",
"W 	c #7E1B00",
"X 	c #2A0000",
"Y 	c #760B00",
"Z 	c #6E0A00",
"` 	c #BA9000",
" .	c #AC6D00",
"..	c #964000",
"+.	c #801B00",
"@.	c #680500",
"#.	c #862000",
"$.	c #B89300",
"%.	c #B88B00",
"&.	c #B68D00",
"*.	c #760E00",
"=.	c #600000",
"-.	c #7E1800",
";.	c #7C1700",
">.	c #700D00",
",.	c #882300",
"'.	c #6A0200",
").	c #7A1700",
"!.	c #721000",
"~.	c #640000",
"{.	c #6A0700",
"].	c #821F00",
"^.	c #984000",
"/.	c #A25000",
"(.	c #A86300",
"_.	c #A66200",
":.	c #C2A000",
"<.	c #CEB300",
"[.	c #D4BA0C",
"}.	c #801E00",
"|.	c #A45D00",
"1.	c #963C00",
"2.	c #840600",
"3.	c #6C0800",
"4.	c #D4BE00",
"5.	c #D9C203",
"6.	c #CCAD00",
"7.	c #680A00",
"8.	c #680700",
"9.	c #F69C00",
"0.	c #D87A00",
"a.	c #880A00",
"b.	c #C09A00",
"c.	c #B48300",
"d.	c #A05300",
"e.	c #BC9B00",
"f.	c #AA6400",
"g.	c #943800",
"h.	c #CDB61D",
"i.	c #680000",
"j.	c #6A0000",
"k.	c #6C0000",
"l.	c #801800",
"m.	c #781100",
"n.	c #CCB200",
"o.	c #761100",
"p.	c #660000",
"q.	c #9A1200",
"r.	c #8E2F00",
"s.	c #AC7100",
"t.	c #841F00",
"u.	c #6E0000",
"v.	c #A25800",
"w.	c #A04F00",
"x.	c #781400",
"y.	c #AC4100",
"z.	c #9E2900",
"A.	c #780300",
"B.	c #A85F00",
"C.	c #D47300",
"D.	c #D99F43",
"E.	c #E48B00",
"F.	c #840000",
"G.	c #7E0000",
"H.	c #7C0000",
"I.	c #720000",
"J.	c #920E00",
"K.	c #8A0600",
"L.	c #821C00",
"M.	c #880600",
"N.	c #760000",
"O.	c #7A0000",
"P.	c #800300",
"Q.	c #920A00",
"R.	c #780000",
"S.	c #8E0A00",
"T.	c #860300",
"U.	c #981200",
"V.	c #880300",
"W.	c #A41B00",
"X.	c #8E0700",
"                                                                                                                                ",
"                                                                                                                                ",
"                                                                                                                                ",
"                                                                                                                                ",
"                                                                                                                                ",
"                                                                                                                                ",
"                          . + . + + . . . . . . .                                                                               ",
"                      . . @ # $ . % # & * . = - ; > .                                     . . . .                               ",
"                    . . * & , ' ) ! ~ ; { ; ] ^ / ( _ !                         . . . + + ! > : > : + .                         ",
"                  . + # < [ _ } | @ 1 2 3 ' ' 4 5 6 7 8 . .             . . . . @ 9 ; 0 0 a = b ; ; c + .                       ",
"                . + $ d e | 6 f b g * g c b a 5 h i j k . .         . . . > l & 4 m n o o o d [ b b = ~ .                       ",
"              . > & 2 6 p n q r [ s : s > @ t 4 u v w , .         . . > $ ; d 5 e x ( y z n { e = b b A !                       ",
"          . . > 4 4 b ; B C D b E : % A _ & % + $ n 8 > .   . . . . < 3 n e 4 n 4 5 - ( F G o d [ b b = % .                     ",
"        . . % c q } d q | H I v A * ~ 6 J K 4 b L . L . . ! ) l E = a M N / a O P e P - - P o d = b b b ) .                     ",
"        . E Q 6 ~ p 3 0 E ' R S [ @ E H T U V u W a + . ) X r 6 G n ; 6 Y = 3 ' P F 0 x x y o d b b = ~ .                       ",
"      . t 6 Z ; ; X b } q [ p r + X < 2 n `  ...n +.U > ! $ b @.Y / G 3 = d x G e M n d M y o 0 b & g . .                       ",
"    . s K < 2 m #.a X & ~ = 9 + a j 4 , : l $.%.o #.&.9 . + 2 6 *.x / m 3 6 o } 3 ' =.6 d n 5 c g . @ .                         ",
"    + 6 -.y 2 b 4 d E q p L . _ ;.>.{ 4 r X s = -.,.d : r . ! 2 n - M '.G _ b 5 - o [ ' A | s . t a g .                         ",
"  . * f i ..).& b f e e | > 4 w !.G { 4 A { # . L } * 2 i H @ + < y ] F / m ' ; ~.n [ E L . ! q =.p +                           ",
"  . + t @.R w {.q _ =.c > 5 ].i ^.=.f [ A ~ . s + . # _ /.&.;.. + < O ( N y G 6 p ~ ) . . ~ o d a * .                           ",
"  . > : . L A q ) * t @ e W ^.(._.x } | : . @ ' } > ! a :.<.[.m @ ! 2 e O - N 0 @ . % @ ) y / _ l .                             ",
"  . ) 0 # s ! @ * t > 2 B Z }.|.1.0 X . ' 2._ > 1 # ! . 3.4.5.6.*.> + 9 _ G N 0 , f = . E ] G } ! .                             ",
"  . + 7.; # @ ~ p 6 9 s e 8.B ; > + . $ 9.0.a.} : . . . . E { i b.c.: . 1 ' { m y b @ . = - =.# .                               ",
"    . A c 2 @ < } N f ! , f % . ! % 1 & X & q p , < 1 : . . . . . l b L . ) c ; & + s e e [ A + .                               ",
"  . > ' [ & * 1 4 d.e.: p s + l ' e q 0 d 5 f =.o { } | < # p p # > + t ~ . * 2 ! . g m N ' L .                                 ",
"  . { f.=.' 9 ! d g.h.6 . + ~ 0 4 f 5 f i.j.k.j.j.f r 6 d 2 2 3 ; p & s 1 & . ! . X @ ! l ~ .                                   ",
"  . ( l.m.e = @ , w n.o.. 1 ' f =.j.i.o j.p.i.~.5 = , o o d # } ~.} = = @ < @ . # q.d . . . .                                   ",
"  . a O h o = # % r.s.; * ~ f o k.j.p.i.j.j.j.j.d ' A k.j.=.E p k.f 5 e ; . 9 & . [ p.. + .                                     ",
"  . : M [ 3 [ | ! _ t.L % A f o p.j.i.~.{ j.j.j.k.5 p j.u.=.p E i.p.{ f d + A e 1 . d . 9 .                                     ",
"    . r -.v.K } * % =.+ 1 c , 3 { p.i._ _ j.j.j.j.f = j.u.=.A E j.p.{ f 4 + ' b # g i.. g                                       ",
"      : w.x.l ! + . 0 ) % ; _ { o p.i.i.=.j.j.j.j.{ ; j.u.i.A & j.~.4 f d + p | : E a * !                                       ",
"      . . . . . . . : * s E _ o ~.i.p.j.k.j.i.j.=.5 b j.k.i.r | k.4 4 _ 6 . q 9 . & > @ .                                       ",
"              ! l + ! . + # 0 4 o i.~.~.~.~.p.4 _ [ ' p.i.5 < p o 0 a ' % . s + . > .                                           ",
"            . l r 1 ! . . @ q 6 4 5 0 e =.o =.5 ; b p ' 6 X X = p b A 9 . . . .                                                 ",
"            . | p , % * + . > c ' 0 , 0 { { { =.o 4 b c E X ; b c 9 @ . .                                                       ",
"          . : b 5 _ p 1 > + . + g X E A a ' ' a b r q 1 : g : + . . . .                                                         ",
"          . l ~./ m o ; l + g c . . . 6 y.z.A.f ~ : . . > * s & g . .                                                           ",
"          . 2 M ( ( y ~.r L . { B.z | + C.D.E.r @ c F.G.H.{ I._ .                                                               ",
"          . b x - - - N o q ) . D h.&.n , @ . t 3 J.K.k.d i.c +                                                                 ",
"          . e N - - - - *.{ X ! > L.3./ |.@.@ @ 0 ~.=.4 i.$ .                                                                   ",
"          . d ( - - - - - O 3 # . 9 f =.o D 4 . ) A 5 k.2 .                                                                     ",
"          . f - - - - ( ( ( x P o g % } 3 K q * . 2 X : .                                                                       ",
"          . d - - - - - ( *.y z m e ! . s * > E < . . .                                                                         ",
"          . ; ( - - - x / / G { b A A g . ! } d 5 s .                                                                           ",
"          . > n - - y '.@.n _ ; _ M 3.' 9 . > c r t .                                                                           ",
"            . < O M / G { } d 5 a *.{ [ b & + . . .                                                                             ",
"              . , m e ; 4 ; o *.d ' 3 =.0 a p @ .                                                                               ",
"              . + c ; o - G _ { e O O 4 d / n [ * .                   . . .     . + : ) g $ g .                                 ",
"                . . X { y O } =.P y 3 G F M G 4 ~ . . + + @ > ! . . + + + @ ! . q j.G.M.N.d k.f . . .                           ",
"                  . + ~ e 0 { / G 0 O - ( x o 3 $ 2 & r b } 0 [ p q A a ; 3 | + 6 O.P.3 + % g * @ + . . . .                     ",
"                    . . g [ f d _ y - ( N / o _ b a 5 M M / m G m P x - [ =.4 . a Q.R.X : # , [ } ; = r ~ # L % ) * > @ + .     ",
"                      . . : , 0 M *.N M O o =.} b 0 e *.- - - - - - - ] _ 4 P ! X S.T.E > E ; 0 = r , , | r E r r , p p | < .   ",
"                          . . 9 4 n o m n =.4 = ; 6 d ( ( - ( F *.x ( ] o ' ^ % g G.U.p.. % # X | b a ' p ; [ a ; p r | < E L   ",
"                            . . @ r 3 { { d ' ; ; 6 o *.- N - m f / / N P = x t > 5 V.q.W.X.I.2 . . . . . . > 1 < | A } a q *   ",
"                                . . ! % | [ = b ; } d { P Y P M f e f { e b A 1 . . @ l a A : .                       . + +     ",
"                                    . . . > l X 9 2 , } _ _ } A E l t % * ! . . .     . . .                                     ",
"                                            . . . . . . . . + . . . . . . .                                                     ",
"                                                                                                                                ",
"                                                                                                                                ",
"                                                                                                                                ",
"                                                                                                                                ",
"                                                                                                                                ",
"                                                                                                                                ",
"                                                                                                                                "};
