/* XPM */
static const char * player_reload_1_red_xpm[] = {
"64 64 183 2",
"  	c None",
". 	c #000000",
"+ 	c #020000",
"@ 	c #040000",
"# 	c #0E0000",
"$ 	c #2C0000",
"% 	c #200000",
"& 	c #1A0000",
"* 	c #280000",
"= 	c #2E0000",
"- 	c #0C0000",
"; 	c #760E00",
"> 	c #6C0500",
", 	c #1E0000",
"' 	c #180000",
") 	c #360000",
"! 	c #420000",
"~ 	c #3C0000",
"{ 	c #080000",
"] 	c #480000",
"^ 	c #5C0000",
"/ 	c #4C0000",
"( 	c #841C00",
"_ 	c #6E0A00",
": 	c #740E00",
"< 	c #6A0200",
"[ 	c #060000",
"} 	c #2A0000",
"| 	c #520000",
"1 	c #460000",
"2 	c #220000",
"3 	c #620200",
"4 	c #320000",
"5 	c #540000",
"6 	c #720B00",
"7 	c #BA9500",
"8 	c #160000",
"9 	c #300000",
"0 	c #6A0500",
"a 	c #560000",
"b 	c #3A0000",
"c 	c #0A0000",
"d 	c #140000",
"e 	c #400000",
"f 	c #882600",
"g 	c #943F00",
"h 	c #984400",
"i 	c #801B00",
"j 	c #340000",
"k 	c #100000",
"l 	c #6C0A00",
"m 	c #822200",
"n 	c #8E3200",
"o 	c #120000",
"p 	c #440000",
"q 	c #7A1700",
"r 	c #923700",
"s 	c #380000",
"t 	c #240000",
"u 	c #260000",
"v 	c #500000",
"w 	c #4E0000",
"x 	c #3E0000",
"y 	c #4A0000",
"z 	c #6C0800",
"A 	c #620000",
"B 	c #600000",
"C 	c #5E0000",
"D 	c #8C2E00",
"E 	c #842200",
"F 	c #600200",
"G 	c #580000",
"H 	c #680200",
"I 	c #6E0800",
"J 	c #640200",
"K 	c #680500",
"L 	c #5A0000",
"M 	c #943B00",
"N 	c #801E00",
"O 	c #8A2A00",
"P 	c #8A2D00",
"Q 	c #720D00",
"R 	c #700800",
"S 	c #7C1200",
"T 	c #640000",
"U 	c #780E00",
"V 	c #7E1B00",
"W 	c #CCB200",
"X 	c #B68D00",
"Y 	c #6A0700",
"Z 	c #862600",
"` 	c #7A1100",
" .	c #740B00",
"..	c #7A1400",
"+.	c #C4A600",
"@.	c #BE9C00",
"#.	c #760B00",
"$.	c #660200",
"%.	c #700D00",
"&.	c #821C00",
"*.	c #761300",
"=.	c #1C0000",
"-.	c #A25800",
";.	c #680700",
">.	c #7C1700",
",.	c #882A00",
"'.	c #8E2F00",
").	c #9C4900",
"!.	c #841F00",
"~.	c #8A2700",
"{.	c #B89300",
"].	c #B28200",
"^.	c #781400",
"/.	c #AA6C00",
"(.	c #A65E00",
"_.	c #A86300",
":.	c #B48300",
"<.	c #D9BD07",
"[.	c #983D00",
"}.	c #660500",
"|.	c #6E0D00",
"1.	c #A04F00",
"2.	c #F59D03",
"3.	c #EC9000",
"4.	c #C09E00",
"5.	c #D9C207",
"6.	c #D4BA0C",
"7.	c #A65A00",
"8.	c #7A0E00",
"9.	c #9C2100",
"0.	c #A83B00",
"a.	c #720000",
"b.	c #862300",
"c.	c #A45900",
"d.	c #7E1500",
"e.	c #9E4A00",
"f.	c #B48C00",
"g.	c #D4BE00",
"h.	c #801500",
"i.	c #902F00",
"j.	c #A05300",
"k.	c #CAB424",
"l.	c #6A0000",
"m.	c #6C0000",
"n.	c #7E1800",
"o.	c #D6C008",
"p.	c #660000",
"q.	c #680000",
"r.	c #6E0000",
"s.	c #AC7100",
"t.	c #741000",
"u.	c #CEB800",
"v.	c #900A00",
"w.	c #940E00",
"x.	c #820300",
"y.	c #8C0700",
"z.	c #7A0000",
"A.	c #800300",
"B.	c #880600",
"C.	c #800000",
"D.	c #700000",
"E.	c #960E00",
"F.	c #760000",
"G.	c #840300",
"H.	c #961200",
"I.	c #D27200",
"J.	c #D39D57",
"K.	c #F19C07",
"L.	c #A41B00",
"M.	c #D2BE14",
"N.	c #D0BB10",
"O.	c #9C1200",
"P.	c #860600",
"Q.	c #9A4100",
"R.	c #903600",
"S.	c #860300",
"T.	c #7C0000",
"U.	c #720800",
"V.	c #920A00",
"W.	c #8A0600",
"X.	c #9E1600",
"Y.	c #880300",
"Z.	c #820000",
"                                                                                                                                ",
"                                                                                                                                ",
"                                                                                                                                ",
"                                                                                                                                ",
"                                                                                                                                ",
"                                                                                                                                ",
"                                                                                                                                ",
"                                                                                                                                ",
"                                                                                                                                ",
"                          . + . @ + . .   . . . .                                                                               ",
"                      . . # $ % . & * = . - ; > , .                                                                             ",
"                    . + ' ) ! ~ { # * ] ^ / ( _ : < , .                                                                         ",
"                  . [ $ } ] | 1 } @ 2 = 3 4 | ^ 5 6 7 8 .                                                                       ",
"                . [ 9 0 ] ~ 5 a b c - d 9 e | < f g h ' .               . . . . . . . . . .                                     ",
"            . . % ! 2 / ! i = ) j { k d [ [ $ l m n _ .           . . . + @ c k d & % ' o [ @ . . .                             ",
"          . . 8 ^ 5 p = q r f s t [ u v w $ - @ s q % .   . . . . @ k e 1 x y | ] z A B C | ! s } # . .                         ",
"        . @ 9 = } / ^ ) 4 D g E $ - b C F C | ~ { k + . + o % $ w G e H I B v J v 0 ; > K A L p ! p 9 +                         ",
"      . + y M 5 * j / ] } L f N d - 1 O E J _ P Q , + + u ) y H R H e C S < ] > T 5 S U I J C w e e e k .                       ",
"      . 4 b ] x ^ $ e ! 9 y $ # - y % ' V W X Y B Z 9 . o j B > ` 0 A ] 1 ] L J 6 / U S  .J B w e e e t .                       ",
"    . } l = t U  .! * } * b c , f ..G = [ ~ +.` < @.a + . 8 ! J S > 0 L / H ; ] #.A 0 S U $.C w e e e 9 .                       ",
"    @ G D P j 9 | G $ p b @ & O %.K C y s } - a &.T { ~ 8 . ' 1 S  .0 J e C | y C $.5 I 6 J ^ p e e e } .                       ",
"  . c v r g P j / G L y 8 9 f *.0 B C y 1 ~ + . 9 ' =...-.u . 8 C S R 0 G x C ; y A w J z A w x ! p j [ .                       ",
"    + @ 9 ;.>.$.= ~ 5 - t ,.'.).!.C w ~ * + d & . { / ~.{.].d . & A ` R H ! w  .L ! p v ^ v 4 $ & - . .                         ",
"  . c t [ @ o c @ { @ 2 N ^./.(._.| s # . . $ B t . 8 :.W <.[.& . & a S I ^ x v 1 s 9 =.c + + c o u =..                         ",
"  . { $.} 8 [ k % * [ ) }.|.V 1.G % { w 2.3.] + o # . =.4.5.6.7.2 . d w I w d [ [ + . . # ) L > 8.^ 2 .                         ",
"    . L s =.{ ) p I d =.| }.1 [ . . [ 9.0.a.w & [ + . . @ 4 a b.c.* . o ! 9 =.=.- . . = I d. .a I ! +                           ",
"    . t $ u @ = | ( 1 [ / } . @ & t 9 e 1 ] / w ~ } & + . c . . + o 2 . [ u ) % . . @ | ` S 6 T / % .                           ",
"  . j e.w s # 8 I f.g.c t . 8 ! | ] ! 5 B A T T A y b ~ =.= ] 9 , { { = . c =.. . . * > S S R H b + .                           ",
"  + h.i.B / } @ G j.k.j . o 1 G C T ^ l.l.m.m.l.C s 5 B b =.w ] x s % - 4 . . . . @ x ^  .S ; B } .                             ",
"  . n.^.b.5 b { y h o.} c 4 L C l.l.p.l.q.T p.L 1 4 B q.A t ! r.v v / k d @ . . . 8 L 1 e ^ S v c .                             ",
"  . 2 J | a p & & D s.# =.y B l.m.q.l.m.l.l.l.p.G ) l.r.A x $ l.A ^ a 1 . 9 ) . . # w S H / p 4 .                               ",
"    . A 5 I ] ~ @ x t.{ 2 / a B q.q.p.| A l.l.m.p.~ q.r.T ] * p.q.C ^ 5 . ] y o . . . 2 > ` w k .                               ",
"    . t u.@.5 u [ d z [ % s y ^ A l.T / C l.l.l.p.e p.r.p.] u p.q.^ ^ a . / b o . @ ' @ @ ' * .                                 ",
"      { = # . . . . G { % p G A p.p.l.p.l.q.l.q.p.e T r.m.] } q.A a G a . s = + , v w ~ % # . .                                 ",
"      . . . . . @ + . . 8 ~ a A T q.q.l.l.l.l.C G x q.m.q.x 4 m.a a / x + 4 o . / v.w.x.r.) .                                   ",
"            . =.* + + . @ 2 | G B p.a C B B ^ y b ~ a p./ u s / ! ~ x @ . { + =.b y.w.z.A.1 .                                   ",
"            @ b s % c . . [ j v a y e L A A C G w ! ~ 1 u $ p ~ x } # . . . 9 | j | G a.B.C .                                   ",
"          . o b e b ' # . . [ $ ! s p a L L a a v p = , = e ) & + . . .   @ C.D.j 4 e w.E.] .                                   ",
"          . } B $.A ] % [ @ c . { k * u u $ $ b 4 & { . + . . . + .       . F.G.b = b w.H.9 .                                   ",
"          . x 0  .I $.p =.+ j a & { [ I.J.K.9.& . , 2 ) 4 s a & .         . = L.L | B w.a.#                                     ",
"          . | U S S ` H ~ 8 . 0 M.N./ . u ' + 8 q.O.P.p.L a.& .             + , w E.y.] [                                       ",
"        . . A S S S S ` J 4 { [ Q.7.: R.| . { w S.T.C L | k .                   . { c .                                         ",
"          [ 0 S S S S S #.^ ) 2 [ c } L P 1 . =.p | A A - .                                                                     ",
"          { R S S S S S S U U > G ' + . @ } d . $ L ~ [                               . . . . .                                 ",
"          { R S S S ` S ` U.z ^ ~ / y $ d . . + [ c . .                         . c * x a ^ ^ 1 @ + +                           ",
"          + H S S S S ` > 0 C b a ` K e ! 4 k + . .               . . . . + [ . =.q.A.P.) + + [ [ c c { [ [ [ [ [ [ [ [ [ @     ",
"          . j ; S S ` > 0 A ] w y R p C / 5 C p 8 @ . . . . - k - [ c & 9 e w { % a.x.p.. - ) s ] s b b j j = s ) ) ) ) 9 = -   ",
"          . { ^ U S U.0 $.] L H ^ ] J J 5 > 0 C ! k c ' } s y v w / a $.> p R t [ D.V.C . - j ~ a ) b b s b 9 ~ b b b s 4 4 '   ",
"            . # L  .> A ] / ! #.v T R | I R R B w b p 5 $.> I R R ; S S ` ! $.^ . ! V.x.# # 1 ! ! 1 ] 1 4 2 } ) ) j j 4 4 2 .   ",
"              . @ G A x ^ S T 1 C U.^ T d.S 6 B w x 1 |  .S S S S S S S S 5 | S # t W.X.Y.q.m.q.d . .                           ",
"                . c * b $.R $./ 0 J w ` S  .$.A w x y v U S ` ` I 0 I R S > p R =.{ = y r.Z.^ k .                               ",
"                  . . [ b / ] B J / R S  .I J C y x 1 A U.S U ` ; a A $.J ^ x ~ d . . . . . .                                   ",
"                      . . @ ' ~ ] G I $.J $.A G ! x e L C 0  .0 T | e 4 * o { . . .                                             ",
"                        . . . . c t e v a a | y ! e 9 ~ 1 / y x 9 & @ . . . .                                                   ",
"                              . . . . . @ [ [ c # - + . . . . . . . .                                                           ",
"                                          . . .                                                                                 ",
"                                                                                                                                ",
"                                                                                                                                ",
"                                                                                                                                ",
"                                                                                                                                ",
"                                                                                                                                ",
"                                                                                                                                ",
"                                                                                                                                ",
"                                                                                                                                "};
